<?xml version="1.0" standalone="no"?>
<!DOCTYPE svg PUBLIC "-//W3C//DTD SVG 1.1//EN" "http://www.w3.org/Graphics/SVG/1.1/DTD/svg11.dtd" >
<!--
2014-7-11: Created.
-->
<svg xmlns="http://www.w3.org/2000/svg">
<metadata>
Created by FontForge 20120731 at Fri Jul 11 12:03:08 2014
 By Gary Gao
Created by Gary Gao with FontForge 2.0 (http://fontforge.sf.net)
</metadata>
<defs>
<font id="tableau-icons" horiz-adv-x="512" >
  <font-face 
    font-family="tableau-icons"
    font-weight="500"
    font-stretch="normal"
    units-per-em="512"
    panose-1="2 0 6 9 0 0 0 0 0 0"
    ascent="448"
    descent="-64"
    bbox="-0.5 -64.0039 513.2 448.004"
    underline-thickness="25.6"
    underline-position="-51.2"
    unicode-range="U+F100-F150"
  />
    <missing-glyph />
    <glyph glyph-name="uniF12C" unicode="&#xf12c;" 
d="M176.965 -52.6904c-0.000976562 0 1.4502 299.206 -0.000976562 330.206h109.736v-47.8867h-0.725586c14.4619 22.5166 40.457 55.6426 99.6533 55.6426c72.2559 0 126.373 -47.1855 126.373 -148.614v-189.348h-109.785v176.661
c0 44.3613 -15.8369 74.6582 -55.5928 74.6582c-30.2988 0 -48.3379 -20.4141 -56.2939 -40.1807c-2.90332 -7.03027 -3.62793 -16.8379 -3.62793 -26.7217v-184.417h-109.736zM61.373 322.589h-0.726562c-36.8281 0 -60.6465 25.3936 -60.6465 57.0439
c0 32.4004 24.5186 57.0693 62.0732 57.0693c37.5293 0 60.6475 -24.6689 61.373 -57.0693c0 -31.6494 -23.8438 -57.0439 -62.0732 -57.0439zM116.19 277.504v0l-0.000976562 -330.207h-109.734v330.207h109.735z" />
    <glyph glyph-name="uniF104" unicode="&#xf104;" 
d="M256.123 -64l-20.2861 20.3027l-203.564 203.515c-11.4609 10.959 -11.8662 29.1348 -0.90625 40.5947c10.959 11.4609 29.1348 11.8672 40.5947 0.907227c0.306641 -0.292969 0.606445 -0.592773 0.900391 -0.899414l154.554 -154.52v372.921
c-0.257812 15.8555 12.3867 28.917 28.2422 29.1748c15.8545 0.257812 28.918 -12.3867 29.1748 -28.2422c0.00488281 -0.310547 0.00488281 -0.62207 0 -0.932617v-372.922l154.553 154.521c11.1045 11.3213 29.2822 11.4971 40.6045 0.393555
c11.3203 -11.1045 11.4971 -29.2822 0.393555 -40.6045c-0.129883 -0.132812 -0.260742 -0.263672 -0.393555 -0.392578l-203.564 -203.515l-20.3018 -20.3018v0z" />
    <glyph glyph-name="uniF106" unicode="&#xf106;" 
d="M255.877 448l20.2861 -20.3018l203.564 -203.515c11.4609 -10.959 11.8672 -29.1357 0.907227 -40.5957c-10.959 -11.4609 -29.1348 -11.8662 -40.5947 -0.90625c-0.307617 0.292969 -0.606445 0.592773 -0.900391 0.898438l-154.555 154.521v-372.921
c0.257812 -15.8555 -12.3867 -28.917 -28.2422 -29.1758c-15.8545 -0.257812 -28.918 12.3877 -29.1748 28.2422c-0.00488281 0.311523 -0.00488281 0.62207 0 0.933594v372.922l-154.553 -154.521c-11.1045 -11.3203 -29.2822 -11.4971 -40.6045 -0.392578
c-11.3213 11.1035 -11.4971 29.2822 -0.393555 40.6035c0.129883 0.132812 0.260742 0.264648 0.393555 0.393555l203.564 203.515l20.3018 20.3008v0z" />
    <glyph glyph-name="uniF101" unicode="&#xf101;" 
d="M147.866 -63.0625c-30.8203 6.14062 -71.4766 47.127 -109.479 110.367c-20.9678 34.8926 -32.3594 67.625 -37.1719 106.811c-1.625 13.2354 -1.62109 42.6689 0.00878906 55.3467c4.22949 32.9199 14.2822 61.3857 30.0645 85.125
c12.0996 18.2012 22.4795 27.7119 38.541 35.3076c25.8623 12.2314 61.2979 10.3164 96.3037 -5.20605c5.55469 -2.46289 7.94922 -3.09863 16.9561 -4.50098c18.7949 -2.92578 25.333 -3.29395 36.3115 -2.04199c18.0781 2.06055 24.7031 3.43457 31.9023 6.6123
c12.1348 5.35449 25.6719 9.43262 38.7539 11.6699c9.2002 1.57422 28.9844 1.59082 36.8701 0.0322266c22.333 -4.41699 39.4297 -15.0732 53.1602 -33.1338c19.8896 -26.165 32.1738 -58.9648 36.6064 -97.748c1.21582 -10.6416 1.01953 -38.6494 -0.356445 -50.4922
c-5.39844 -46.5039 -19.3086 -81.7793 -51.1797 -129.79c-14.6514 -22.0703 -26.876 -37.4629 -42.0859 -52.9863c-18.1855 -18.5605 -35.0215 -30.25 -49.5518 -34.4023c-10.2041 -2.91699 -26.7861 -2.33789 -47.4473 1.65527
c-15.0195 2.9043 -19.5322 2.9043 -34.5674 0.0078125c-18.3975 -3.54785 -34.2529 -4.50391 -43.6396 -2.63281v0zM200.396 351.511c-1.52246 2.84375 -0.197266 17.4502 2.62695 28.9697c4.03027 16.4385 11.8926 30.9355 22.5693 41.6201
c17.3418 17.3535 41.7617 25.9248 73.7744 25.8994c14.3838 -0.0126953 35.1904 -2.35352 38.1514 -4.29492c1.41309 -0.925781 1.52246 -1.34473 1.21973 -4.66992c-0.662109 -7.25391 -8.43066 -25.0195 -15.7539 -36.0273
c-4.63574 -6.96777 -12.4121 -15.3174 -18.2695 -19.6123c-12.4658 -9.14453 -17.8848 -10.7803 -55.1436 -16.6582c-28.7871 -4.54102 -35.3008 -6.58398 -42.4053 -13.3037c-3.5625 -3.36914 -5.6748 -3.96973 -6.76953 -1.92285v0z" />
    <glyph glyph-name="uniF12B" unicode="&#xf12b;" 
d="M410.791 192c0 10.1855 -1.01172 20.1338 -2.89648 29.7676h104.105v-205.768c0 -44.1855 -35.8369 -80 -80 -80h-352c-44.21 0 -80 35.8145 -80 80v205.768h104.093c-1.87305 -9.63379 -2.88379 -19.582 -2.88379 -29.7676c0 -85.501 69.291 -154.791 154.791 -154.791
c85.4766 0 154.791 69.291 154.791 154.791zM432 448c44.1631 0 80 -35.8262 80 -80.0059v-86.6924h-129.616c-28.0234 39.6104 -74.1748 65.4883 -126.384 65.4883c-52.2207 0 -98.3721 -25.877 -126.407 -65.4883h-129.593v86.6924c0 44.1797 35.79 80.0059 80 80.0059
h352zM471.104 349.175v42.8604c0 7.86621 -6.41895 14.291 -14.2783 14.291h-42.8721c-7.84961 0 -14.291 -6.42383 -14.291 -14.291v-42.8604c0 -7.86621 6.44336 -14.291 14.291 -14.291h42.8721c7.86035 0 14.2783 6.42383 14.2783 14.291zM351.256 192
c0 -52.6113 -42.6523 -95.2559 -95.2559 -95.2559c-52.6162 0 -95.2559 42.6445 -95.2559 95.2559s42.6396 95.2559 95.2559 95.2559c52.6055 0 95.2559 -42.6445 95.2559 -95.2559z" />
    <glyph glyph-name="uniF121" unicode="&#xf121;" 
d="M0 73.709c0 0.978516 0.249023 3.10156 0.514648 4.41211c0.862305 4.25684 2.93848 8.68652 5.95703 12.708c3.86426 5.14844 9.5791 10.0566 15.7861 13.5635c6.98926 3.94629 23.2324 11.2373 48.6406 21.8301c4.11523 1.7168 7.70801 3.25586 7.98242 3.42188
c1.8457 1.11035 3.0459 3.15039 3.32715 5.65625c0.0576172 0.517578 0.0537109 2.96484 -0.00976562 6.84473l-0.100586 6.03906l-1.60742 1.58594c-1.80859 1.78223 -3.49023 3.69141 -4.88574 5.54492c-6.72266 8.9248 -11.6299 20.8203 -14.5449 35.2559
c-1.56152 7.73438 -2.45117 15.2529 -2.91309 24.6279c-0.157227 3.19629 -0.161133 11.7266 -0.00585938 13.6396c0.769531 9.45605 2.89844 17.3252 6.80273 25.1484c4.14746 8.31055 9.86035 15.2705 16.8145 20.4805c9.08887 6.81152 19.8477 10.167 30.9219 9.64746
c4.05176 -0.19043 7.3418 -0.71875 10.9727 -1.76074c13.5381 -3.88672 25.3047 -14.0674 32.3467 -27.9883c4.12891 -8.16406 6.4209 -16.749 7.0166 -26.2861c0.12207 -1.96191 0.12207 -8.49902 0 -11.6514c-1.0918 -27.9922 -7.91797 -50.1426 -19.6309 -63.7002
c-1.12988 -1.30859 -3.57227 -3.7832 -4.72754 -4.78906l-0.538086 -0.469727l-0.0664062 -6.01367c-0.0732422 -6.66113 -0.0585938 -6.90137 0.532227 -8.42676c0.526367 -1.3623 1.58301 -2.66309 2.7207 -3.35156c0.298828 -0.179688 2.6084 -1.1875 5.13574 -2.23828
c7.72754 -3.2168 12.0732 -5.04297 12.1436 -5.10449c0.0371094 -0.0322266 -0.453125 -0.288086 -1.08887 -0.569336c-1.83789 -0.810547 -6.67188 -3.21582 -8.66797 -4.31348c-3.55273 -1.95312 -6.48047 -3.75781 -12.4736 -7.69141
c-1.82324 -1.19629 -3.85938 -2.51465 -4.52441 -2.92871c-3.45508 -2.1543 -7.11328 -5.08105 -10.1113 -8.08984c-6.39746 -6.4209 -10.374 -13.6504 -11.543 -20.9873c-0.214844 -1.35254 -0.389648 -3.17578 -0.390625 -4.09473v-0.591797h-54.8936h-54.8906v0.638672z
M132.515 73.9121c0 2.36523 0.580078 5.60156 1.5127 8.44141c2.54297 7.74316 8.60059 15.4814 17.0537 21.7822c1.68848 1.25879 4.43945 3.06348 6.2041 4.07129c1.6748 0.956055 8.4502 4.37109 11.5557 5.82422c10.8789 5.08984 25.4258 11.4043 45.6562 19.8184
c3.4375 1.43066 6.53906 2.76953 6.88965 2.97754c1.22656 0.722656 2.35254 2.0459 2.98145 3.50293c0.65332 1.50977 0.719727 1.9375 0.760742 4.87012c0.0205078 1.45898 -0.00488281 4.69531 -0.0537109 7.19336l-0.0908203 4.54102l-0.649414 0.564453
c-1.19922 1.04297 -4.625 4.5498 -5.66016 5.79395c-9.92578 11.917 -16.5693 28.7783 -19.7988 50.25c-1.86914 12.4297 -2.5498 28.3164 -1.6123 37.6514c0.755859 7.51465 2.64453 14.8828 5.61035 21.8809c0.890625 2.10254 2.82812 5.96191 3.94629 7.8623
c5.71484 9.71387 13.2588 17.3984 22.2656 22.6826c1.73242 1.01562 5.30664 2.77246 7.12402 3.5c9.05176 3.62305 19.0537 4.69336 28.7754 3.07715c14.625 -2.43164 27.9307 -11.1699 37.2666 -24.4775c6.97266 -9.9375 11.3408 -21.8799 12.6475 -34.5732
c0.333008 -3.2373 0.382812 -4.53125 0.375977 -9.70898c-0.0175781 -11.8291 -0.944336 -22.5898 -2.8418 -32.9902c-3.21191 -17.6104 -8.89551 -31.9658 -16.8398 -42.5244c-1.79688 -2.3877 -3.41699 -4.24414 -5.56641 -6.37891l-1.86719 -1.85254l-0.115234 -6.28613
c-0.0625 -3.45703 -0.0917969 -6.84375 -0.0625 -7.52539c0.0742188 -1.76172 0.461914 -3.13379 1.2832 -4.54492c0.433594 -0.743164 1.60156 -1.95312 2.33008 -2.41309c0.675781 -0.425781 0.526367 -0.360352 8.07812 -3.50488
c27.2109 -11.3281 46.1631 -19.7744 54.5391 -24.3096c12.2021 -6.60742 21.333 -16.3506 24.7705 -26.4346c0.966797 -2.83594 1.48438 -5.47949 1.58105 -8.06445l0.0566406 -1.53906h-124.053h-124.054v0.842773v0zM402.157 74.5625
c-0.329102 8.11523 -4.32715 16.4385 -11.377 23.6836c-3.47559 3.57129 -6.78223 6.19434 -11.751 9.32324c-0.78125 0.492188 -2.91309 1.87598 -4.73633 3.07422c-4.22949 2.78125 -6.3125 4.07617 -9.37695 5.83008c-2.5166 1.44141 -7.96094 4.21582 -10.3057 5.25098
l-1.30859 0.577148l1.16504 0.494141c0.641602 0.271484 4.38379 1.83594 8.31738 3.47852c3.93262 1.6416 7.39648 3.11328 7.69824 3.27246c1.5752 0.833984 2.90918 2.74902 3.32617 4.77441c0.248047 1.20508 0.260742 1.77148 0.15625 7.46875l-0.103516 5.68262
l-0.732422 0.655273c-1.19824 1.07227 -3.51367 3.43359 -4.55859 4.65039c-5.24121 6.0957 -9.65723 14.2275 -12.8574 23.6797c-3.79492 11.209 -5.9209 23.5391 -6.67871 38.7412c-0.179688 3.61523 -0.155273 12.0078 0.0419922 14.2559
c0.807617 9.19434 3.02441 17.1729 6.89258 24.8174c6.35352 12.5537 16.4121 22.0576 28.2217 26.6641c9.13867 3.56348 19.2285 4.20703 28.7959 1.83398c10.8975 -2.70312 20.9033 -9.55371 28.2725 -19.3574c2.2207 -2.9541 3.94043 -5.73145 5.68848 -9.18848
c4.08105 -8.06934 6.34668 -16.584 6.95801 -26.1416c0.124023 -1.93652 0.124023 -8.35645 0 -11.6045c-0.926758 -24.3916 -6.25391 -44.4863 -15.4414 -58.2549c-2.14258 -3.21191 -4.21289 -5.74316 -6.79785 -8.31738l-1.74316 -1.73535l-0.0927734 -4.56348
c-0.0507812 -2.51074 -0.0751953 -5.54395 -0.0527344 -6.74219c0.0371094 -2.03418 0.0566406 -2.23535 0.296875 -3.02637c0.419922 -1.3877 0.922852 -2.25391 1.85059 -3.18945c0.589844 -0.594727 0.993164 -0.90918 1.48242 -1.1543
c0.369141 -0.185547 3.24707 -1.41016 6.39355 -2.7207c22.7217 -9.46777 36.7529 -15.6572 45.7422 -20.1807c3.43066 -1.72656 5.36621 -2.81055 7.30566 -4.09473c11.6221 -7.69336 18.665 -18.0361 19.0908 -28.0322l0.0595703 -1.39648h-54.8906h-54.8916
l-0.0595703 1.49219v0z" />
    <glyph glyph-name="uniF100" unicode="&#xf100;" 
d="M512 396.8v-409.6h-512v409.6h512zM117.8 348.9c-10.5996 0 -19.2002 -8.40039 -19.2002 -18.7002s8.60059 -18.7002 19.2002 -18.7002c10.6006 0 19.2002 8.40039 19.2002 18.7002s-8.59961 18.7002 -19.2002 18.7002zM47.4004 330.2
c0 -10.2998 8.59961 -18.6006 19.1992 -18.7002c10.6006 0 19.2002 8.40039 19.2002 18.7002s-8.59961 18.7002 -19.2002 18.7002c-10.5996 0 -19.1992 -8.40039 -19.1992 -18.7002zM461.3 38.4004v0v0v235.5h-410.6v-235.5h410.6zM461.3 314.9v0v30.6992h-307.7v-30.6992
h307.7z" />
    <glyph glyph-name="uniF11B" unicode="&#xf11b;" 
d="M249.707 -63.875c-58.8506 1.41699 -114.706 22.8555 -160.143 61.4639c-6.07227 5.15918 -22.3105 21.3203 -27.2109 27.0811c-26.7676 31.4668 -45.0303 66.4932 -54.5879 104.695c-9.81934 39.249 -10.3311 79.6973 -1.50586 119.126
c21.4219 95.709 97.6006 171.889 193.311 193.312c17.5488 3.92773 32.5898 5.72656 51.2979 6.13574c50.9111 1.11328 100.39 -12.8486 143.368 -40.4561c16.1123 -10.3496 28.1104 -20.0977 42.6855 -34.6816c13.6924 -13.7002 21.8555 -23.6045 32.0967 -38.9434
c36.6992 -54.9697 50.4961 -120.858 39.0732 -186.606c-15.9805 -91.9873 -83.1064 -169.248 -172.513 -198.557c-27.293 -8.94727 -56.8223 -13.2695 -85.8721 -12.5693zM244.479 12.1416v37.7422l-37.166 0.0996094
c-20.4414 0.0546875 -37.3867 0.015625 -37.6562 -0.0869141c-0.543945 -0.208008 4.70215 -11.0273 9.11035 -18.79c15.1152 -26.6191 35.0469 -46.2227 54.585 -53.6865c3.57129 -1.36426 9.83789 -3.20996 10.5469 -3.10547
c0.511719 0.0751953 0.580078 4.5752 0.580078 37.8271v0zM275.06 -23.8086c21.3076 6.93457 41.4023 25.8691 58.0762 54.7217c2.52344 4.36621 9.48633 18.1348 9.48633 18.7578c0 0.28125 -11.5781 0.40625 -37.5527 0.40625h-37.5537v-37.958v-37.958l1.45215 0.259766
c0.797852 0.142578 3.53906 0.939453 6.0918 1.77051v0zM179.229 -9.47852c-6.35938 7.34668 -14.0791 18.418 -19.9297 28.584c-3.52734 6.12988 -10.5215 20.1328 -12.9551 25.9385c-0.9375 2.23633 -1.86621 4.2832 -2.06445 4.54883
c-0.282227 0.378906 -6.10742 0.483398 -26.8467 0.483398h-26.4854l0.461914 -0.862305c0.87207 -1.62988 19.5039 -19.917 24.5361 -24.082c14.6318 -12.1123 28.3926 -21.0391 44.8379 -29.0889c6.79102 -3.32422 20.7734 -9.21094 21.1006 -8.88379
c0.0761719 0.0751953 -1.11914 1.58789 -2.65527 3.3623v0zM335.993 -10.6992c26.4111 10.5674 48.667 24.7627 69.707 44.4619c4.91895 4.60547 15.126 15.3945 15.126 15.9893c0 0.181641 -11.9404 0.285156 -26.5352 0.230469l-26.5342 -0.0986328l-2.62891 -6.02344
c-9.30371 -21.3164 -20.2676 -39.1982 -33.6719 -54.917c-0.924805 -1.08398 -1.5918 -1.97168 -1.48242 -1.97168s2.81836 1.04785 6.01953 2.3291v0zM135.885 72.7441c0 0.117188 -0.949219 3.4707 -2.1084 7.45215c-7.33594 25.1865 -12.459 54.3887 -14.2422 81.1855
l-0.103516 1.54883l-39.7979 0.0986328l-39.7969 0.0986328l0.207031 -1.26074c4.19727 -25.541 9.32715 -42.582 19.0957 -63.4385c3.39844 -7.25488 11.1973 -21.0938 13.8867 -24.6396l0.954102 -1.25781h30.9521c17.0244 0 30.9531 0.0957031 30.9531 0.212891v0z
M244.578 117.925l0.0986328 45.1992h-51.1055h-51.1055v-1.69043c0 -2.3291 1.37598 -15.8965 2.32422 -22.9141c2.8584 -21.1602 7.38086 -41.4639 13.2334 -59.4062c1.07617 -3.30078 2.03418 -6.13281 2.12891 -6.29297
c0.09375 -0.161133 19.1064 -0.248047 42.249 -0.194336l42.0781 0.0986328l0.0986328 45.2002v0zM354.01 79.21c6.54297 20.6162 10.8135 40.2178 13.5605 62.2344c0.839844 6.73633 2.14551 19.5977 2.15039 21.1963c0 0.384766 -10.4766 0.484375 -51.1016 0.484375
h-51.1045v-45.2969v-45.2959h42.1885h42.1875zM440.018 75.2832c14.4736 22.5811 25.3252 50.1016 30.3389 76.9424c0.62207 3.33203 1.25391 7.14844 1.40234 8.47852l0.271484 2.41992h-39.7324c-31.5273 0 -39.7334 -0.0996094 -39.7354 -0.483398
c-0.0195312 -4.375 -2.41016 -25.4971 -4.10742 -36.2949c-2.7793 -17.6885 -8.20898 -41.2822 -11.9092 -51.7471c-0.313477 -0.885742 -0.466797 -1.71289 -0.34082 -1.83887s14.1377 -0.228516 31.1387 -0.228516h30.9102l1.76367 2.75195v0zM118.466 194.193
c0.0078125 26.4268 3.28223 58.2988 8.49316 82.6699c0.650391 3.04199 1.18262 5.61133 1.18262 5.71094c0 0.0986328 -15.835 0.179688 -35.1895 0.179688h-35.1885l-1.8291 -4.16211c-11.1533 -25.3691 -17.1826 -53.123 -17.875 -82.2686l-0.245117 -10.3564h40.3242
h40.3242l0.00488281 8.22656h-0.00195312zM244.578 234.263l-0.0986328 48.2969l-46.3447 0.0986328l-46.3457 0.0986328l-0.385742 -1.45312c-0.958984 -3.61328 -2.89648 -12.9121 -4.09277 -19.6504c-3.74414 -21.085 -5.50195 -39.5508 -5.88379 -61.8467
l-0.238281 -13.8398h51.7441h51.7441l-0.0986328 48.2959v0zM370.879 191.482c-0.0175781 20.2627 -2.04395 45.2715 -5.23047 64.5576c-1.34668 8.15527 -4.04492 21.6836 -4.94043 24.7773l-0.503906 1.74219l-46.3438 0.0986328l-46.3447 0.0986328v-48.3955v-48.3945
h51.6846h51.6846l-0.00585938 5.51562v0zM473.946 188.58c0.234375 4.1582 -0.385742 19.4961 -1.04395 25.8418c-2.08984 20.1289 -7.21289 40.6084 -14.9141 59.6211c-1.12109 2.76855 -2.45215 5.86035 -2.95898 6.87207l-0.920898 1.83887h-35.0312
c-28.8994 0 -35.0303 -0.0908203 -35.0303 -0.515625c0 -0.283203 0.613281 -3.5498 1.36328 -7.25879c5.16992 -25.5791 7.80371 -51.1797 8.0293 -78.0762l0.0927734 -10.9365h40.1338h40.1328zM136.664 313.338c7.6582 23.374 17.3447 44.1113 28.9355 61.9443
c3.14062 4.83105 10.251 14.3857 14.0449 18.873c1.30469 1.54395 2.2832 2.80664 2.1748 2.80664c-0.482422 0 -6.71777 -2.4375 -11.7715 -4.60156c-34.7178 -14.8701 -65.9609 -39.543 -88.7939 -70.1182c-3.70508 -4.96289 -11.1846 -16.1133 -11.1846 -16.6758
c0 -0.223633 12.291 -0.324219 31.9961 -0.263672l31.9971 0.0986328l2.60156 7.93652v0zM244.578 357.623l0.0976562 52.2207l-1.78711 -0.245117c-2.70508 -0.370117 -9.53223 -2.76172 -14.0889 -4.93359c-27.5469 -13.1338 -52.3916 -46.7061 -68.3867 -92.4131
c-1.14062 -3.25977 -2.07422 -6.17871 -2.07422 -6.48633c0 -0.487305 5.67578 -0.547852 43.0703 -0.462891l43.0703 0.0986328l0.0986328 52.2217v0zM353.85 305.557c0 0.520508 -4.70312 13.584 -6.52441 18.1201c-15.8096 39.3916 -38.5352 68.4258 -62.9688 80.4492
c-4.37988 2.15527 -12.2822 4.99023 -15.1953 5.45117l-1.64551 0.260742v-52.3154v-52.3145h43.167c25.3428 0 43.167 0.143555 43.167 0.348633zM441.873 305.51c0.103516 0.166016 -1.67285 3.08887 -3.94531 6.49512
c-8.90332 13.3438 -16.0967 22.0625 -28.1094 34.0684c-16.3223 16.3135 -31.2598 27.4756 -51.2559 38.2998c-8.46582 4.58301 -27.624 13.0361 -28.2119 12.4482c-0.0996094 -0.0996094 1.27051 -1.89551 3.04492 -3.98926
c17.042 -20.1152 31.5195 -47.5811 41.9551 -79.5898l2.61816 -8.03418h31.8594c17.5215 0 31.9424 0.135742 32.0449 0.301758v0z" />
    <glyph glyph-name="uniF12F" unicode="&#xf12f;" 
d="M302.857 111.715c7.42871 0 11.1426 -6.38086 11.1426 -19.1436v-60.2861c0 -12.7617 -3.71387 -19.1426 -11.1426 -19.1426c-4.38184 0 -8.66602 2.09473 -12.8574 6.28613v86c4.19043 4.19043 8.47559 6.28613 12.8574 6.28613zM397.714 111.715
c8.57227 0 12.8574 -6.47754 12.8574 -19.4297v-13.1426h-25.7139v13.1426c0 12.9531 4.28516 19.4297 12.8564 19.4297zM134.571 -7.99902v0v162.57h30.5713v26.8574h-89.1426v-26.8574h30v-162.57h28.5713zM216.857 7.42871v0v-15.4287h25.4297v141.143h-25.4287v-108
c-5.71582 -8 -11.1436 -12 -16.2861 -12c-3.42969 0 -5.42871 2 -6 6c-0.191406 0.572266 -0.286133 3.90527 -0.286133 10v104h-25.4287v-111.715c0 -9.33301 0.761719 -16.2861 2.28516 -20.8574c2.28516 -7.04688 7.80957 -10.5703 16.5713 -10.5703
c9.14355 0 18.8574 5.80957 29.1436 17.4287zM336.857 5.71484c1.71387 5.14258 2.57129 14.667 2.57031 28.5693v56.2861c0 13.9053 -0.856445 23.334 -2.57031 28.2861c-3.23828 10.667 -10 16 -20.2861 16c-9.52344 0 -18.3809 -5.1416 -26.5713 -15.4277v62h-25.4287
v-189.428h25.4287v13.7139c8.57129 -10.4766 17.4277 -15.7139 26.5713 -15.7139c10.2861 0 17.0479 5.2373 20.2861 15.7139zM435.428 20.5713c0.380859 1.71387 0.572266 7.23828 0.573242 16.5723v3.71387h-26c0 -9.71484 -0.191406 -15.5234 -0.572266 -17.4287
c-1.33398 -6.85742 -5.14258 -10.2861 -11.4287 -10.2861c-8.76172 0 -13.1426 6.57129 -13.1426 19.7139v24.8574h51.1426v29.4287c0 15.0479 -2.57129 26.0947 -7.71387 33.1426c-7.42871 9.71484 -17.5244 14.5713 -30.2861 14.5713
c-12.9531 0 -23.1426 -4.85645 -30.5723 -14.5713c-5.33301 -7.04785 -8 -18.0947 -8 -33.1426v-49.4277c0 -15.0479 2.7627 -26.0957 8.28613 -33.1436c7.42773 -9.71387 17.7139 -14.5703 30.8574 -14.5703c13.7139 0 24 5.04785 30.8564 15.1426
c3.42969 5.1416 5.42969 10.2852 6 15.4277zM250 278.001c8.19043 0 12.2861 6.66602 12.2861 20v60c0 13.1416 -4.09473 19.7139 -12.2861 19.7139s-12.2861 -6.57129 -12.2861 -19.7139v-60c0 -13.334 4.0957 -20 12.2861 -20zM460.286 183.429
c4.95215 -21.333 7.42773 -54.667 7.42773 -100c0 -44.5723 -2.47656 -77.9053 -7.42871 -100c-2.66602 -11.2383 -8.19043 -20.667 -16.5713 -28.2861s-18.0947 -12 -29.1426 -13.1426c-35.0469 -4 -87.9053 -6 -158.571 -6s-123.523 2 -158.571 6
c-11.0479 1.14258 -20.8086 5.52344 -29.2861 13.1426c-8.47656 7.61914 -13.9521 17.0479 -16.4287 28.2861c-4.95312 21.333 -7.42871 54.667 -7.42871 100c0 44.5723 2.47656 77.9053 7.42871 100c2.66602 11.2383 8.19043 20.666 16.5713 28.2861
s18.1904 12.0957 29.4287 13.4287c34.8574 3.80859 87.6201 5.71387 158.286 5.71387s123.523 -1.90527 158.571 -5.71387c11.0479 -1.33398 20.8086 -5.80957 29.2861 -13.4287c8.47656 -7.61914 13.9521 -17.0479 16.4287 -28.2861zM163.143 372.857l19.4287 75.1436
h29.1426l-34.5713 -114v-77.4297h-28.5703v77.4297c-2.66699 14.0947 -8.47656 34.2842 -17.4297 60.5703c-7.04785 19.6201 -13.2373 37.4297 -18.5713 53.4297h30.2861zM280.286 386.285c5.33301 -7.04688 8 -18.1895 8 -33.4277v-50
c0 -15.4277 -2.66602 -26.666 -8 -33.7139c-7.04785 -9.71387 -17.1436 -14.5713 -30.2861 -14.5713c-12.7617 0 -22.7617 4.85742 -30 14.5713c-5.33301 7.23828 -8 18.4756 -8 33.7139v50c0 15.2383 2.66602 26.3799 8 33.4277
c7.23828 9.71484 17.2383 14.5713 30 14.5713c13.1426 0 23.2383 -4.85645 30.2861 -14.5713zM358 399.143v0h26v-142.57h-26v15.7139c-10.0957 -11.8086 -19.9053 -17.7139 -29.4287 -17.7139c-8.7627 0 -14.3809 3.52344 -16.8574 10.5713
c-1.52344 4.57129 -2.28613 11.7139 -2.28613 21.4277v112.571h26v-104.857c0 -6.28516 0.0957031 -9.61816 0.286133 -10c0.572266 -4.19043 2.57227 -6.28516 6 -6.28516c5.14355 0 10.5723 4.0957 16.2861 12.2852v108.857z" />
    <glyph glyph-name="uniF128" unicode="&#xf128;" 
d="M90.8184 -63.6992c-47.585 4.13379 -85.6445 41.5986 -90.3662 88.9561c-0.417969 4.1875 -0.53418 53.7822 -0.400391 170.868c0.176758 153.941 0.250977 165.271 1.11816 169.525c3.36719 16.5225 8.48535 28.6689 17.4043 41.3096
c4.63477 6.56836 16.0732 18.0117 22.6396 22.6484c10.3154 7.28418 21.6094 12.5908 32.834 15.4258c11.5996 2.93066 12.2275 2.96582 52.4316 2.96582c41.7979 0 40.1328 0.136719 48.5303 -3.99219c19.9795 -9.82422 28.0771 -34.3838 17.9648 -54.4834
c-5.0293 -9.99805 -14.5068 -17.6934 -25.5869 -20.7764c-4.02539 -1.12012 -5.41992 -1.17383 -38.7637 -1.45801l-34.5889 -0.297852l-2.68066 -1.32324c-3.42676 -1.69238 -7.1748 -5.44141 -8.86523 -8.86914l-1.32324 -2.68262v-162.016v-162.016l1.49316 -2.83496
c1.99219 -3.78223 5.19531 -6.88965 8.88477 -8.62012l3.0293 -1.4209h161.414h161.412l3.02832 1.4209c3.85742 1.80859 7.14941 5.10254 8.95801 8.96094l1.41992 3.03027l0.297852 37.0166c0.291992 36.4951 0.3125 37.0742 1.51074 41.04
c2.12207 7.0293 5.14746 12.0488 10.5479 17.5049c4.29004 4.33398 5.49316 5.20898 10.457 7.5957c3.08496 1.48438 6.93555 3.02051 8.55859 3.41406c3.85547 0.936523 14.9854 0.923828 18.7695 -0.0195312c14.375 -3.58398 25.4639 -14.3389 29.8701 -28.9717
c0.803711 -2.66992 0.928711 -7.17676 1.10645 -39.7588c0.208984 -38.2373 0.00488281 -43.6172 -2.05273 -53.7803c-4.23535 -20.9287 -16.5732 -41.4814 -33.251 -55.3887c-6.49414 -5.41504 -12.9248 -9.51562 -21.0732 -13.4365
c-11.0762 -5.33008 -20.9229 -8.12012 -32.9746 -9.34082c-5.10352 -0.517578 -325.876 -0.706055 -331.754 -0.196289v0zM333.384 103.327c-15.7754 2.66309 -28.5225 13.5225 -33.8486 28.835c-1.41895 4.08008 -1.66016 5.6123 -1.86816 11.9248
c-0.199219 6.05762 -0.0556641 8.00781 0.878906 11.9238c1.12988 4.73145 3.69629 10.4766 6.6543 14.8994c0.887695 1.32812 14.5459 15.3906 30.3506 31.25l28.7354 28.8369l-81.2324 0.00488281c-81.8496 0.00488281 -87.4307 0.121094 -93.8164 1.96191
c-8.32324 2.39941 -16.9678 8.30664 -22.2998 15.2383c-17.4082 22.6309 -9.37598 55.4189 16.4697 67.2383c8.96289 4.09961 0.974609 3.76953 95.5752 3.94531l84.668 0.157227l-28.8311 28.5371c-18.1299 17.9453 -29.7871 29.8984 -31.4072 32.207
c-12.0596 17.1807 -9.41699 41.5879 6.05762 55.9209c4.76465 4.41309 9.54102 7.23926 16.04 9.49609c4.81836 1.67188 5.33984 1.73926 13.3271 1.73926c7.98633 0 8.50879 -0.0673828 13.3271 -1.73926c2.75781 -0.957031 6.74023 -2.74023 8.84766 -3.96289
c4.38379 -2.54004 1.70508 0.0439453 72.7354 -70.1865c26.709 -26.4082 52.8477 -52.1846 58.0869 -57.2822c7.20215 -7.00586 10.2969 -10.4424 12.6865 -14.082c9.93848 -15.1426 9.97266 -32.7852 0.0908203 -48.0723
c-2.42578 -3.75195 -5.72266 -7.4082 -14.9551 -16.5879c-6.51465 -6.47559 -36.0273 -36.2783 -65.585 -66.2266c-29.5586 -29.9492 -54.9023 -55.4189 -56.3203 -56.6016c-9.2832 -7.73828 -22.5801 -11.3643 -34.3672 -9.375v0z" />
    <glyph glyph-name="uniF111" unicode="&#xf111;" 
d="M256 448c141.369 0 256 -114.631 256 -256c0 -141.393 -114.631 -256 -256 -256c-141.393 0 -256 114.607 -256 256c0 141.369 114.607 256 256 256zM308.678 192l93.2627 93.2617l-52.6797 52.667l-93.2607 -93.251l-93.2627 93.2637l-52.667 -52.6973l93.2617 -93.25
l-93.2617 -93.2686l52.667 -52.6719l93.2734 93.2686l93.2627 -93.2627l52.6787 52.6729z" />
    <glyph glyph-name="uniF131" unicode="&#xf131;" 
d="M243.673 -63.8672c-1.3457 0.131836 -5.8916 0.537109 -10.0986 0.898438c-51.4473 4.43652 -102.11 28.1494 -139.039 65.0781c-17.2041 17.2041 -29.9629 34.7949 -40.8848 56.3682c-11.8291 23.3662 -18.5527 45.7305 -21.8057 72.5186
c-1.48438 12.2207 -1.4834 36.1416 0 48.3428c5.00586 41.1484 20.7598 78.6543 46.6562 111.077c7.21094 9.02734 24.4609 26.1758 33.9619 33.7607c31.5732 25.2051 69.2705 41.6357 108.649 47.3545c5.00195 0.727539 9.71289 1.43652 10.4717 1.57617l1.37695 0.253906
v37.3193v37.3193h22.0303h22.0312v-37.2861v-37.2861l3.51953 -0.398438c35.0371 -3.96289 70.0195 -16.0674 97.6826 -33.7988l4.23535 -2.71387l1.65918 1.73633c0.911133 0.953125 12.0391 13.79 24.7266 28.5225c20.7959 24.1504 23.1758 26.7109 24.167 26.0088
c2.75684 -1.9502 32.498 -26.4365 32.498 -26.7559c0 -0.197266 -11.0107 -13.125 -24.4688 -28.7275l-24.4697 -28.3701l5.87695 -6.18066c16.1416 -16.9756 31.125 -39.5557 40.6221 -61.2119c34.5684 -78.8281 19.0771 -169.91 -39.6367 -233.051
c-37.6855 -40.5264 -88.4014 -65.6543 -144.271 -71.4834c-6.43164 -0.670898 -31.3047 -1.28027 -35.4951 -0.869141h0.00292969v-0.00195312h0.00195312zM278.555 -19.7979c61.123 7.5127 113.593 44.293 140.732 98.6543c11.876 23.7891 17.624 48.4248 17.6582 75.7012
c0.0185547 13.9004 -0.651367 21.334 -3.02246 33.5674c-9.33887 48.168 -39.8008 91.0703 -83.1553 117.117c-20.9453 12.584 -42.8008 20.2793 -69.459 24.457c-10.1289 1.58691 -40.665 1.58691 -50.7939 0c-43.1025 -6.75488 -77.3262 -24.0693 -106.198 -53.7314
c-27.4961 -28.248 -43.7578 -62.2539 -48.6914 -101.826c-1.81445 -14.5449 -0.722656 -37.6299 2.53711 -53.6709c14.8496 -73.0732 76.7295 -129.728 152.965 -140.045c14.1035 -1.90918 32.9844 -1.99805 47.4277 -0.223633v0zM307.475 80.2129
c-14.832 2.35352 -27.0977 12.0225 -34.5361 27.2236c-5.86035 11.9795 -8.12891 23.6074 -8.59961 44.0859c-0.208984 9.09863 -0.0654297 16.3691 0.408203 20.501c3.93359 34.3955 20.2539 55.3779 45.7139 58.7734c20.8701 2.78223 38.6465 -5.9707 48.7246 -23.9922
c14.5332 -25.9893 15.1533 -72.9092 1.31543 -99.6748c-7.18945 -13.9053 -17.1016 -22.2441 -30.5752 -25.7246c-5.5791 -1.44043 -17.0508 -2.05078 -22.4512 -1.19238v0zM323.847 107.659c9.04102 4.10742 13.4072 19.5801 13.4072 47.5117
c0 16.0518 -1.02344 24.7246 -3.94824 33.4912c-2.08594 6.24902 -3.7793 9.13184 -7.15625 12.1826c-3.12793 2.82617 -6.09961 3.79395 -10.6377 3.46582c-12.6865 -0.917969 -18.8799 -18.2305 -18.8955 -52.8125c-0.0107422 -24.9131 4.74707 -39.4697 14.3242 -43.8184
c3.32129 -1.50879 9.6084 -1.51953 12.9062 -0.0205078v0zM190.162 80.8672c-5.63086 0.729492 -11.8301 2.73242 -17.4785 5.64844c-6.17188 3.18555 -14.2451 10.9658 -17.9941 17.3389c-7.43457 12.6396 -11.0762 32.1963 -10.2197 54.8965
c1.07715 28.5635 6.84375 46.2285 19.0469 58.334c4.27734 4.24219 6.00488 5.46582 11.3887 8.05469c7.4248 3.57129 11.8184 4.76855 21.0312 5.72949c12.2197 1.27539 25.1162 -1.1416 33.7344 -6.32324c5.09277 -3.0625 11.7051 -10.4043 14.5186 -16.1211
c1.92578 -3.91309 5.73242 -16.1357 5.14941 -16.5342c-0.0869141 -0.0595703 -7.18066 -0.857422 -15.7637 -1.77246c-8.58301 -0.916016 -16.5 -1.81641 -17.5938 -2.00488l-1.98926 -0.34082v2.9043c0 4.37695 -1.22656 7.61914 -3.96094 10.4639
c-4.54395 4.72852 -11.3252 5.50879 -18.0557 2.07617c-8.27539 -4.22266 -12.3623 -15.2461 -13.8418 -37.3379l-0.429688 -6.42676l2.24023 2.92285c3.34863 4.36523 5.69043 6.26367 11.0996 8.99121c6.88574 3.47461 11.5166 4.5459 19.583 4.53613
c12.0811 -0.015625 20.6709 -3.45703 28.8086 -11.541c5.56445 -5.52637 7.46973 -8.59961 10.2549 -16.5371c1.90234 -5.41895 1.93262 -5.68359 1.89453 -16.5225c-0.0361328 -10.2109 -0.162109 -11.418 -1.72168 -16.5234
c-4.89941 -16.042 -16.1094 -27.0547 -32.3174 -31.751c-8.79395 -2.5459 -18.4873 -3.31055 -27.3838 -2.16016v0zM208.341 107.521c3.92285 1.87891 7.08594 5.78223 8.57129 10.5762c1.50586 4.8623 1.47852 17.5029 -0.0478516 21.876
c-1.49023 4.27148 -5.12598 8.26367 -9.12402 10.0195c-3.94629 1.7334 -10.5879 1.93848 -14.0615 0.433594c-3.3584 -1.4541 -7.53516 -5.60938 -8.95215 -8.90527c-4.96387 -11.5391 -2.03418 -28.2246 5.875 -33.459
c4.67285 -3.09082 11.9521 -3.3125 17.7393 -0.541016v0z" />
    <glyph glyph-name="uniF113" unicode="&#xf113;" 
d="M289.34 -63.5127c-43.6689 2.05664 -73.0791 11.0986 -96.0088 29.5186c-15.9756 12.833 -28.9414 31.667 -38.4238 55.8154c-5.25098 13.373 -36.459 97.9482 -63.6816 172.586c-4.60254 12.6172 -8.92871 24.2734 -9.61328 25.9023
c-5.08691 12.0977 -3.11133 29.0332 4.69141 40.2197c6.05371 8.67773 15.8682 15.3564 25.8359 17.5801c4.9043 1.09375 13.4316 1.09961 18.7236 0.0107422c11.0498 -2.27051 21.9092 -9.45605 27.708 -18.333c1.10547 -1.69336 8.37402 -16.3594 16.1484 -32.5908
l14.1387 -29.5107l0.268555 107.46l0.269531 107.46l1.21191 3.91016c3.89453 12.5693 12.2168 22.2451 23.6768 27.5303c5.3125 2.44922 9.35352 3.45703 15.4863 3.85645c22.2168 1.4502 41.6748 -13.9014 45.5117 -35.9102
c0.641602 -3.68066 0.800781 -9.98047 0.800781 -31.6611v-27.0645l2.80078 0.520508c4.14355 0.770508 12.3438 0.0810547 17.8076 -1.49512c9.16797 -2.64746 18.5635 -8.9502 23.1826 -15.5508l0.823242 -1.17578l4.23535 1.41309
c3.81055 1.27246 5.03516 1.41504 12.2363 1.43359c9.18457 0.0234375 12.3223 -0.625977 19.2061 -3.97559c7.38477 -3.59375 13.1123 -8.69141 18.4062 -16.3809c0.788086 -1.14551 0.844727 -1.14941 3.73438 -0.291992c2.13867 0.633789 5.10254 0.87207 10.9365 0.875
c7.56348 0.00488281 8.28027 -0.0878906 13.0713 -1.68262c7.00293 -2.3291 11.2295 -4.94043 16.585 -10.2441c6.89941 -6.83398 10.7822 -14.2705 13.127 -25.1455c0.912109 -4.22949 0.962891 -10.6816 0.962891 -121.569c0 -129.136 0.186523 -121.298 -3.2832 -137.908
c-8.16016 -39.0674 -32.8301 -67.0859 -69.4863 -78.9189c-19.5781 -6.32031 -39.3389 -8.17773 -71.0898 -6.68262v0zM332.57 -28.1182c40.3506 6.21289 61.5791 29.0557 65.6719 70.6699c0.349609 3.55566 0.543945 45.5879 0.543945 117.924
c0 99.8369 -0.0917969 112.754 -0.827148 115.576c-1.43359 5.50488 -3.53809 7.98633 -7.28613 8.59473c-2.50781 0.407227 -6.34375 -1.37402 -8.02051 -3.72461l-1.2041 -1.68848l-0.272461 -48.0146c-0.253906 -44.8896 -0.335938 -48.1797 -1.24902 -50.5459
c-1.36035 -3.52539 -5.125 -7.52148 -8.77246 -9.3125c-2.61816 -1.28613 -3.6748 -1.49219 -7.57715 -1.48047c-3.71484 0.0107422 -5.0166 0.25 -7.20215 1.32031c-3.39551 1.66504 -6.62891 4.89355 -8.29688 8.2832l-1.30566 2.6543l-0.267578 57.8838
c-0.242188 52.4385 -0.348633 58.0352 -1.14551 59.4863c-1.68652 3.07227 -4.25488 4.62207 -7.66406 4.62207c-3.18164 0 -5.95605 -1.45312 -7.64355 -4.00098l-1.41992 -2.14551l-0.266602 -50.1875l-0.267578 -50.1885l-1.4209 -2.66699
c-1.71484 -3.21777 -4.66895 -6.13867 -7.91504 -7.82324c-2.02148 -1.0498 -3.19824 -1.24609 -7.46875 -1.24609c-4.28516 0 -5.47363 0.200195 -7.69531 1.29297c-3.34277 1.64551 -6.17285 4.47461 -7.81738 7.81836l-1.29297 2.62598l-0.267578 57.6182
c-0.28418 61.5654 -0.142578 58.5303 -2.86719 61.5361c-1.66016 1.83203 -3.72852 2.75 -6.19336 2.75c-3.0752 0 -5.49023 -1.16309 -7.27539 -3.50195l-1.53809 -2.0166l-0.266602 -57.9258l-0.266602 -57.9258l-1.23145 -2.47266
c-1.80078 -3.61914 -4.40723 -6.41895 -7.64746 -8.21484c-2.63574 -1.45996 -3.27734 -1.58301 -8.19434 -1.58301s-5.55957 0.124023 -8.19434 1.58301c-3.24023 1.7959 -5.84668 4.59473 -7.64746 8.21484l-1.23145 2.47266l-0.266602 104.873l-0.263672 104.874
l-1.53809 2.01562c-3.82422 5.01465 -10.96 4.66113 -14.5879 -0.722656l-1.21289 -1.7998l-0.00292969 -142.765c-0.00195312 -87.6611 -0.199219 -143.959 -0.509766 -145.859c-0.979492 -5.98047 -4.66211 -10.8672 -10.0635 -13.3525
c-3.71777 -1.71094 -10.585 -1.6377 -14.2314 0.150391c-6.04883 2.9668 -4.62598 0.337891 -38.3965 70.9189c-18.4668 38.5967 -31.4697 65.1572 -32.2754 65.9258c-5.35547 5.10742 -14.9111 1.18359 -14.9453 -6.13574
c-0.00878906 -1.94824 44.3438 -123.668 68.8086 -188.836c10.833 -28.8555 17.3281 -40.2256 29.3105 -51.3066c16.7295 -15.4717 39.1279 -22.6133 78.9932 -25.1885c7.99219 -0.514648 36.7959 0.132812 42.0859 0.947266v0z" />
    <glyph glyph-name="uniF127" unicode="&#xf127;" 
d="M198.671 445.683v0c3.41992 -0.000976562 6.80957 -0.0888672 10.1875 -0.265625c10.1338 -0.516602 20.0801 -1.80078 29.7656 -3.79199c3.22754 -0.663086 6.41504 -1.40918 9.58496 -2.22852s6.31543 -1.71484 9.42285 -2.68555
c3.10742 -0.969727 6.18555 -2.02246 9.22656 -3.14062c6.08203 -2.23535 12.0312 -4.75391 17.8203 -7.55078c17.3662 -8.39258 33.3408 -19.2314 47.4697 -32.0762c4.70898 -4.28223 9.20898 -8.79785 13.4912 -13.5068c2.1416 -2.35449 4.2207 -4.75391 6.24902 -7.20898
c12.167 -14.7305 22.2695 -31.2334 29.8301 -49.0488c3.78027 -8.9082 6.91699 -18.1406 9.37402 -27.6494c0.819336 -3.16992 1.56543 -6.37402 2.22949 -9.60156c0.663086 -3.22754 1.25391 -6.48242 1.75781 -9.76465c1.00781 -6.5625 1.68848 -13.2295 2.03418 -19.9834
c0.171875 -3.37695 0.259766 -6.76855 0.259766 -10.1875c0.00683594 -0.662109 -0.00878906 -1.32422 -0.0488281 -1.98438v-0.0166016c-0.0615234 -6.15137 -0.362305 -12.249 -0.976562 -18.2588c-0.34082 -3.33203 -0.765625 -6.64551 -1.26953 -9.92676
c-1.00879 -6.56445 -2.34961 -13.0273 -3.9873 -19.3662c-0.819336 -3.16895 -1.71484 -6.29883 -2.68457 -9.40625c-0.97168 -3.10645 -2.00781 -6.18555 -3.125 -9.22656c-1.11719 -3.04004 -2.30469 -6.0459 -3.56445 -9.01562
c-1.25977 -2.96875 -2.58789 -5.90918 -3.9873 -8.80371c-2.79688 -5.78906 -5.86914 -11.4131 -9.19434 -16.876c-1.66309 -2.73242 -3.40234 -5.42773 -5.19141 -8.07227c-1.78906 -2.64355 -3.6377 -5.24316 -5.54883 -7.79492
c-0.320312 -0.426758 -0.669922 -0.829102 -0.993164 -1.25293l146.35 -139.873c0.0751953 -0.0703125 0.149414 -0.141602 0.223633 -0.212891c11.2246 -10.8467 11.5322 -28.7402 0.68457 -39.9648c-10.8467 -11.2246 -28.7383 -11.5322 -39.9648 -0.685547
l-147.505 141.013c-33.0283 -24.4727 -73.832 -38.9922 -117.92 -38.9922c-13.6748 0 -27.041 1.39551 -39.9521 4.05176c-16.1377 3.32031 -31.5693 8.61328 -46.0381 15.6074c-2.89258 1.39844 -5.76074 2.86035 -8.57617 4.39355
c-2.81445 1.5332 -5.58496 3.13867 -8.31543 4.80078c-5.46094 3.32715 -10.748 6.9043 -15.8506 10.7256c-2.55078 1.91113 -5.04688 3.89551 -7.50195 5.92383s-4.87207 4.1084 -7.22559 6.24902c-2.35449 2.1416 -4.65039 4.34082 -6.90039 6.59082
c-2.24902 2.25 -4.45117 4.54492 -6.59082 6.90039c-2.14062 2.35449 -4.2207 4.77051 -6.24902 7.22559s-3.99805 4.9502 -5.9082 7.50195c-3.82031 5.10352 -7.39941 10.4043 -10.7246 15.8672c-1.66309 2.73145 -3.26855 5.50098 -4.80078 8.31641
c-1.53223 2.81445 -2.99609 5.66602 -4.39453 8.55957c-1.39746 2.89453 -2.72656 5.83496 -3.98633 8.80371c-1.26074 2.96973 -2.44727 5.97559 -3.56445 9.01562s-2.15527 6.12012 -3.125 9.22656c-0.969727 3.10742 -1.86621 6.2373 -2.68457 9.40625
c-1.63867 6.33887 -2.97949 12.8018 -3.9873 19.3662c-0.503906 3.28223 -0.929688 6.59473 -1.27051 9.92676c-0.34082 3.33105 -0.592773 6.67969 -0.764648 10.0566s-0.259766 6.78613 -0.259766 10.2041s0.0878906 6.81055 0.259766 10.1875
s0.423828 6.72559 0.764648 10.0566c0.341797 3.33203 0.766602 6.64551 1.27051 9.92676c1.51172 9.8457 3.76074 19.4512 6.67188 28.7725s6.48145 18.3643 10.6758 27.0469c1.39941 2.89355 2.86133 5.74512 4.39453 8.55957
c1.53223 2.81543 3.1377 5.58496 4.80078 8.31641c3.32617 5.46289 6.90527 10.748 10.7246 15.8506c5.73047 7.6543 11.998 14.8945 18.7471 21.6445c2.25 2.25 4.54492 4.4502 6.90039 6.59082c2.35449 2.14062 4.77051 4.2207 7.22559 6.24902
c7.36426 6.08301 15.1602 11.6436 23.3535 16.6318c2.73047 1.66309 5.5166 3.26855 8.33203 4.80078c11.2578 6.13281 23.1641 11.2051 35.5898 15.0879c3.10547 0.969727 6.23633 1.86523 9.40625 2.68457s6.37402 1.56543 9.60156 2.22852
c12.9102 2.65527 26.2783 4.05273 39.9521 4.05273zM198.671 389.146c-2.46289 0 -4.92285 -0.0556641 -7.35547 -0.176758c-2.43164 -0.12207 -4.84375 -0.294922 -7.24121 -0.537109c-9.59082 -0.96582 -18.8955 -2.88965 -27.8125 -5.64746
c-6.6875 -2.06738 -13.1484 -4.61621 -19.3662 -7.59961c-12.4346 -5.96875 -23.8633 -13.6875 -33.9463 -22.8486c-6.72266 -6.10645 -12.8486 -12.8535 -18.292 -20.1465c-1.3623 -1.82422 -2.68164 -3.67578 -3.95508 -5.56641
c-3.82129 -5.66992 -7.23633 -11.6338 -10.2207 -17.8516c-0.995117 -2.07324 -1.93555 -4.16992 -2.83203 -6.29785c-2.68652 -6.38379 -4.92676 -13.0098 -6.67188 -19.8379c-1.74609 -6.82812 -3.00293 -13.8662 -3.72656 -21.0596
c-0.241211 -2.39746 -0.415039 -4.80859 -0.537109 -7.24219c-0.12207 -2.43262 -0.195312 -4.87598 -0.195312 -7.33984s0.0732422 -4.92383 0.195312 -7.35547c0.12207 -2.43262 0.294922 -4.84473 0.537109 -7.24219
c0.241211 -2.39746 0.537109 -4.78418 0.894531 -7.14453c0.71582 -4.71973 1.66895 -9.36133 2.83203 -13.9131c0.582031 -2.27637 1.21484 -4.52441 1.9043 -6.75488c0.688477 -2.22852 1.43457 -4.42578 2.22852 -6.60645
c0.794922 -2.18066 1.64355 -4.34961 2.53906 -6.47754c0.896484 -2.12793 1.83691 -4.22461 2.83203 -6.29785s2.03516 -4.12012 3.125 -6.13477c1.09082 -2.01465 2.2334 -4.00195 3.41699 -5.95605c2.36719 -3.90918 4.91016 -7.67969 7.63281 -11.3271
c2.72168 -3.64648 5.62012 -7.16602 8.67383 -10.5283c1.52539 -1.68164 3.09766 -3.32617 4.70312 -4.93164c3.21094 -3.21094 6.56738 -6.26953 10.0732 -9.16211c1.75293 -1.44531 3.54688 -2.85254 5.37012 -4.21484s3.67578 -2.68066 5.56641 -3.95508
c1.88965 -1.27441 3.80762 -2.49414 5.76074 -3.67773c1.95312 -1.18262 3.94238 -2.32617 5.95605 -3.41699c12.0869 -6.5459 25.2412 -11.3945 39.1553 -14.2227c4.6377 -0.943359 9.3623 -1.66504 14.1582 -2.14844
c4.79395 -0.483398 9.66992 -0.732422 14.5967 -0.732422c2.46484 0 4.90723 0.0732422 7.33984 0.195312c33.002 1.65918 62.917 14.4541 86.1543 34.6963c2.70215 4.89941 6.7959 8.88672 11.7656 11.457c0.0341797 0.0371094 0.0644531 0.0771484 0.0976562 0.114258
c18.3242 20.1748 30.9053 45.6934 35.2002 74.0127c0.358398 2.35938 0.65332 4.72949 0.895508 7.12793c0.482422 4.79492 0.731445 9.66895 0.731445 14.5967c0 27.1035 -7.48145 52.3584 -20.5049 73.8506c-1.18359 1.9541 -2.41992 3.88672 -3.69336 5.77637
c-25.4814 37.8008 -68.6904 62.5244 -117.985 62.5244z" />
    <glyph glyph-name="uniF129" unicode="&#xf129;" 
d="M195.097 -64v240.236h-63.5332v86.5146h63.5332v73.8682c0 58.0703 37.5117 111.38 124.005 111.38c34.9961 0 60.8809 -3.35352 60.8809 -3.35352l-2.04004 -80.7812s-26.4053 0.271484 -55.1904 0.271484c-31.1885 0 -36.1973 -14.3926 -36.1973 -38.2148v-63.1699
h93.8818l-4.08008 -86.5156h-89.8018v-240.236h-91.458v0.000976562z" />
    <glyph glyph-name="uniF118" unicode="&#xf118;" 
d="M127.692 49.4053c-70.082 61.7568 -127.541 112.829 -127.687 113.493c-0.230469 1.05371 6.23926 1.20703 51.2549 1.20703h51.5195v75.1455v64.5283h153.152h153.15v-64.5283v-75.1455h51.459c40.7949 0 51.459 -0.212891 51.459 -1.02734
c0 -1.08789 -254.436 -225.523 -255.981 -225.797c-0.498047 -0.0898438 -58.2451 50.3672 -128.327 112.124v0zM102.779 394.444v52.2754h153.152h153.15v-52.2754v-52.2764h-153.15h-153.152v52.2764v0z" />
    <glyph glyph-name="uniF10A" unicode="&#xf10a;" 
d="M455.111 391.111c31.2891 0 56.8887 -25.6006 56.8887 -56.8896v-341.333c0 -31.2891 -25.5996 -56.8887 -56.8887 -56.8887h-398.223c-31.2891 0 -56.8887 25.5996 -56.8887 56.8887v341.333c0 31.2891 25.5996 56.8896 56.8887 56.8896h25.6006v-56.8896h91.0215
v56.8896h164.979v-56.8896h91.0215v56.8896h25.6006zM455.111 -7.11133v227.556h-398.223v-227.556h398.223zM147.911 448v-96.7109h-39.8223v96.7109h39.8223zM403.911 448v-96.7109h-39.8223v96.7109h39.8223z" />
    <glyph glyph-name="uniF12E" unicode="&#xf12e;" 
d="M512 350.795c-18.833 -8.36523 -39.0537 -14.001 -60.3164 -16.5586c21.6738 13.0039 38.3613 33.6143 46.207 58.126c-20.3066 -12.0283 -42.8037 -20.7852 -66.752 -25.4863c-19.1357 20.415 -46.4443 33.1582 -76.6777 33.1582
c-57.9746 0 -105.005 -47.0088 -105.005 -105.025c0 -8.23633 0.932617 -16.2549 2.70801 -23.9268c-87.3398 4.35449 -164.734 46.1846 -216.51 109.729c-9.03809 -15.5176 -14.2402 -33.5488 -14.2402 -52.7939c0 -36.4531 18.5518 -68.6162 46.748 -87.4277
c-17.2305 0.519531 -33.4189 5.24512 -47.5928 13.1338v-1.31836c0 -50.8877 36.1924 -93.3457 84.2412 -103.011c-8.77734 -2.38379 -18.0742 -3.66211 -27.6328 -3.66211c-6.78418 0 -13.3936 0.641602 -19.7881 1.88379
c13.3945 -41.7402 52.167 -72.1045 98.1348 -72.9707c-35.9336 -28.1738 -81.251 -44.9717 -130.472 -44.9717c-8.47363 0 -16.8174 0.519531 -25.0527 1.47363c46.4873 -29.7988 101.711 -47.1807 161.029 -47.1807c193.234 0 298.89 160.03 298.89 298.868
c0 4.55176 -0.137695 9.0791 -0.302734 13.5879c20.4805 14.8027 38.3164 33.3115 52.3838 54.3779z" />
    <glyph glyph-name="uniF135" unicode="&#xf135;" 
d="M512 63.3574h-512l256 257.285z" />
    <glyph glyph-name="uniF139" unicode="&#xf139;" 
d="M512 162.262c0 -61.4502 -47.3076 -112.177 -108.133 -119.146v-0.0556641h-0.366211c-0.34082 -0.0371094 -0.668945 -0.116211 -1.01074 -0.151367l-0.000976562 0.150391l-293.042 -0.102539l0.251953 -0.691406h-19.4629
c-49.7891 0 -90.2363 39.6367 -90.2363 88.417c0 42.7871 31.8584 79.0068 73.5244 86.75c12.5615 70.7295 76.1992 124.304 150.679 124.304c51.0879 0 98.3037 -24.835 126.611 -65.7129c12.5156 4.14941 25.499 6.21289 38.7471 6.21289
c67.5332 0 122.438 -53.8174 122.438 -119.974zM402.367 76.8418c42.5225 6.10352 75.2793 42.1211 75.2793 85.4199c0 47.6035 -39.5361 86.2852 -88.083 86.2852c-13.25 0 -26.1211 -2.92871 -38.3174 -8.67676l-14.7578 -7.0791l-7.8125 14.1807
c-20.8057 37.6621 -60.8311 61.0752 -104.473 61.0752c-61.5518 0 -113.406 -47.1162 -118.166 -107.213l-1.2207 -15.2471l-15.624 -0.310547c-30.249 -0.555664 -54.8389 -25.0117 -54.8389 -54.5947c0 -30.0381 24.9199 -54.5791 55.5811 -54.7422l312.433 0.898438
v0.00390625z" />
    <glyph glyph-name="uniF141" unicode="&#xf141;" 
d="M0 320v128h512v-128h-512zM0 -64v128h512v-128h-512zM0 128v128h512v-128h-512z" />
    <glyph glyph-name="uniF132" unicode="&#xf132;" 
d="M0 320.643h512l-256 -257.285z" />
    <glyph glyph-name="uniF10E" unicode="&#xf10e;" 
d="M335.082 442.846c2.35254 3.22754 6.14258 5.1543 10.1367 5.1543c2.6709 0 5.22461 -0.832031 7.38672 -2.40625c2.70605 -1.97266 4.4834 -4.88184 5.00293 -8.19043c0.518555 -3.31055 -0.28125 -6.62305 -2.25488 -9.33008l-170.191 -236.073l170.266 -236.174
c1.94531 -2.72852 2.71191 -6.04883 2.15918 -9.35352s-2.35938 -6.19531 -5.08496 -8.13867c-2.1377 -1.52734 -4.65723 -2.33398 -7.2832 -2.33398c-4.04785 0 -7.86621 1.9668 -10.2119 5.25879l-180.769 250.741z" />
    <glyph glyph-name="uniF11F" unicode="&#xf11f;" 
d="M183.576 -63.1084c-5.90918 1.28516 -9.70312 3.80176 -11.416 7.57422c-0.925781 2.04004 -1.09961 3.89355 -1.09961 11.8242c0 11.3828 0.617188 13.3447 5.08691 16.1797c5.45703 3.46191 5.99512 3.51367 36.1436 3.51367h27.5225v9.1123
c0 5.01074 -0.118164 9.11133 -0.264648 9.11133c-0.144531 0 -3.35449 0.405273 -7.13379 0.901367c-40.6152 5.32422 -75.2061 24.1406 -93.2295 50.7139c-6.1377 9.0498 -10.7959 20.8652 -12.1963 30.9395c-0.418945 3.01074 -0.629883 27.2207 -0.629883 72.0918
v67.5596h16.166h16.166v-67.8018c0 -66.1328 0.0283203 -67.916 1.18848 -72.4521c2.3623 -9.23535 6.73145 -16.4951 14.6504 -24.3418c14.4521 -14.3203 37.7363 -24.332 64.4004 -27.6904c7.43652 -0.9375 26.4814 -0.945312 33.8018 -0.0146484
c38.3213 4.87012 68.1182 22.7539 77.5029 46.5176c3.06055 7.75195 3.01074 6.44531 3.02148 78.624l0.00976562 67.1602h16.1865h16.1855l-0.206055 -69.8066c-0.224609 -76.083 -0.0488281 -72.0488 -3.60742 -82.6514
c-11.7061 -34.8711 -52.542 -62.3252 -102.431 -68.8652c-3.69727 -0.485352 -6.84277 -0.882812 -6.9873 -0.882812c-0.145508 0 -0.264648 -4.09961 -0.264648 -9.11133v-9.1123l27.7764 -0.0185547c25.1299 -0.0185547 28.0654 -0.120117 30.8203 -1.07129
c3.82422 -1.32129 6.68945 -3.26758 8.3252 -5.65332c1.19043 -1.7373 1.26953 -2.54199 1.26953 -12.9961c0 -10.8037 -0.0429688 -11.2061 -1.41602 -13.2256c-1.85742 -2.73242 -7.30469 -5.59863 -12.125 -6.38184
c-6.125 -0.995117 -138.557 -0.757812 -143.217 0.253906v0zM250.394 40.4443c-37.9922 2.26172 -69.0957 26.1016 -78.0645 59.835l-1.57227 5.91211l-0.1875 134.323c-0.138672 99.1904 -0.0107422 135.782 0.492188 139.902
c1.86914 15.3193 8.73438 29.2139 20.3584 41.1992c21.1689 21.8281 52.7109 30.8584 84.7891 24.2754c28.4688 -5.8418 53.3027 -26.9951 61.6973 -52.5537c3.47266 -10.5752 3.22852 -0.37207 3.45508 -144.594c0.139648 -89.2266 0.00585938 -134.065 -0.411133 -138.438
c-2.64941 -27.7471 -21.3838 -51.6191 -49.4639 -63.0254c-12.5576 -5.10156 -27.7568 -7.63086 -41.0928 -6.83691v0z" />
    <glyph glyph-name="uniF142" unicode="&#xf142;" 
d="M336.206 367.297c96.6592 0 175.294 -78.6348 175.294 -175.294s-78.6348 -175.299 -175.294 -175.299c-29.0938 0 -56.5312 7.16602 -80.7061 19.7617c-24.1748 -12.5957 -51.6123 -19.7617 -80.7061 -19.7617c-96.6592 0 -175.294 78.6396 -175.294 175.299
s78.6348 175.294 175.294 175.294c29.0938 0 56.5312 -7.16504 80.7061 -19.7607c24.1748 12.5957 51.6123 19.7607 80.7061 19.7607zM292.445 192.003c0 33.6221 -14.2539 63.9141 -36.9453 85.376c-22.6914 -21.4609 -36.9453 -51.7539 -36.9453 -85.376
c0 -33.624 14.2539 -63.918 36.9453 -85.3799c22.6914 21.4609 36.9453 51.7549 36.9453 85.3799zM57.1426 192.003c0 -64.877 52.7803 -117.657 117.651 -117.655c9.82227 0 19.3154 1.34375 28.4424 3.62207c-26.3486 30.6816 -42.3242 70.5156 -42.3242 114.034
c0 43.5176 15.9756 83.3486 42.3223 114.029c-9.12598 2.27734 -18.6182 3.62109 -28.4404 3.62109c-64.8711 0 -117.651 -52.7803 -117.651 -117.651zM336.206 74.3457c64.8711 0 117.651 52.7803 117.651 117.655c0 64.8711 -52.7803 117.651 -117.651 117.651
c-9.82227 0 -19.3145 -1.34375 -28.4404 -3.62109c26.3477 -30.6797 42.3223 -70.5117 42.3223 -114.029c0 -43.5186 -15.9756 -83.3525 -42.3242 -114.034c9.12695 -2.27832 18.6191 -3.62207 28.4424 -3.62207z" />
    <glyph glyph-name="uniF14F" unicode="&#xf14f;" 
d="M177.888 -58.6143c-29.0234 2.65723 -57.4727 28.625 -85.7793 78.2979c-29.9678 52.5879 -44.4053 102.103 -44.4111 152.317c-0.0107422 52.1924 14.8828 94.2686 43.8154 123.818c13.6768 13.9678 28.3398 22.998 45.5986 28.0791
c9.91016 2.91895 18.873 4.12109 30.6152 4.1084c9.61523 -0.0107422 16.7314 -0.722656 27.4629 -2.74512c8.63867 -1.62891 14.0449 -2.97754 31.6006 -7.88672c14.002 -3.91504 23.9805 -6.20898 31.0166 -7.13184c9.66699 -1.2666 21.7168 1.14941 46.5049 9.32617
c13.5332 4.46484 20.8945 6.52246 29.3857 8.21582c8.6416 1.72363 14.9121 2.44531 22.6523 2.60938c27.5762 0.583008 52.4561 -7.69336 73.0352 -24.2949c7.40527 -5.97266 15.6074 -14.1709 23.0352 -23.0215c1.10352 -1.31641 1.92188 -2.46582 1.81836 -2.55566
c-14.3428 -12.2715 -24.9062 -22.9561 -32.0498 -32.416c-8.51758 -11.2812 -15.0078 -24.5156 -18.4268 -37.5771c-2.26562 -8.65527 -3.29004 -16.084 -3.51758 -25.5098c-0.594727 -24.7354 5.97852 -47.6045 19.5645 -68.0605
c1.00488 -1.51367 3.0127 -4.32422 4.46191 -6.24512c12.7031 -16.8457 26.79 -27.8057 42.4268 -33.0078c1.13477 -0.37793 2.06348 -0.762695 2.06348 -0.855469c0 -0.380859 -2.9043 -8.86523 -4.35645 -12.7275c-7.66699 -20.3916 -19.0693 -42.249 -33.0127 -63.2803
c-19.8389 -29.9229 -39.5547 -48.3623 -59.377 -55.5293c-6.17578 -2.2334 -11.7393 -3.19922 -18.3115 -3.17969c-9.80957 0.0302734 -20.9629 2.41211 -37.2588 7.95801c-22.2207 7.56152 -28.832 9.30469 -41.2812 10.8838
c-4.08594 0.517578 -14.0459 0.516602 -17.9941 0c-11.084 -1.45801 -21.7979 -4.42969 -34.5615 -9.58691c-9.81836 -3.9668 -15.7158 -5.99609 -22.3857 -7.70117c-8.55273 -2.18652 -15.6211 -2.91504 -22.334 -2.2998v-0.00195312zM254.395 325.958
c1.01074 27.249 8.15332 50.7676 21.6191 71.1836c13.2744 20.127 34.6367 34.7061 63.7637 43.5156c4.39453 1.3291 12.5898 3.48145 13.2559 3.48145c0.336914 0 0.394531 -0.154297 1.06543 -2.8584c0.717773 -2.89648 0.868164 -4.67871 0.855469 -10.1611
c-0.0146484 -5.87109 -0.303711 -9.26367 -1.27148 -14.9248c-1.72754 -10.1025 -5.4209 -21.8008 -10.0342 -31.7842c-11.4316 -24.7402 -34.6689 -48.2842 -55.8369 -56.5752c-4.93848 -1.93359 -12.5273 -3.5166 -22.916 -4.7793
c-2.9834 -0.362305 -9.86426 -1.06348 -10.458 -1.06641c-0.110352 0 -0.128906 1.65137 -0.0429688 3.96875z" />
    <glyph glyph-name="uniF143" unicode="&#xf143;" 
d="M429.182 448c12.2227 0 22.1543 -10.0166 22.1543 -22.3652v-467.276c0 -12.3828 -9.93164 -22.3574 -22.1543 -22.3574h-346.374c-12.2207 0 -22.1436 9.97461 -22.1436 22.3574v467.276c0 12.3486 9.92285 22.3652 22.1436 22.3652h346.374zM256 -34.9531
c11.9014 0 21.5479 9.64844 21.5479 21.5479c0 11.9004 -9.64648 21.5479 -21.5479 21.5479c-11.9004 0 -21.5469 -9.64648 -21.5469 -21.5479c0 -11.8994 9.64551 -21.5479 21.5469 -21.5479zM388.893 24.6475v361.886h-265.795v-361.886h265.795z" />
    <glyph glyph-name="uniF11C" unicode="&#xf11c;" 
d="M0 320.004v128h128v-128h-128zM192.004 320.004v128h128v-128h-128zM384 320.004v128h128v-128h-128zM0 128v128h128v-128h-128zM192.004 128v128h128v-128h-128zM384 128v128h128v-128h-128zM0 -64.0039v128h128v-128h-128zM192.004 -64.0039v128h128v-128h-128z
M384 -64.0039v128h128v-128h-128z" />
    <glyph glyph-name="uniF123" unicode="&#xf123;" 
d="M232.28 -63.5322c-76.4121 7.59766 -144.709 47.7383 -187.472 110.184c-24.2998 35.4834 -38.2305 72.668 -43.6064 116.401c-1.44824 11.7773 -1.63086 43.459 -0.316406 55.0244c5.80664 51.126 24.7109 96.4258 56.7188 135.919
c3.21484 3.96582 11.0283 12.3945 17.3643 18.7275s14.7646 14.1455 18.7324 17.3584c56.5986 45.8467 127.674 65.5576 199.19 55.2393c94.54 -13.6396 174.125 -79.4844 205.37 -169.909c5.80371 -16.7988 9.40723 -32.0645 11.9092 -50.4561
c1.73145 -12.7246 2.38965 -40.0811 1.29199 -53.6758c-2.0625 -25.5488 -7.63477 -49.6582 -16.8867 -73.0596c-13.2031 -33.3955 -32.0137 -62.0195 -57.5 -87.499c-20.9004 -20.8955 -42.375 -36.248 -68.8906 -49.252
c-25.8643 -12.6855 -50.3799 -19.999 -81.0107 -24.167c-8.88477 -1.20996 -45.5264 -1.76758 -54.8945 -0.834961v0zM281.957 -14.1621c37.084 5.16211 68.7285 17.9619 97.624 39.4893c45.7031 34.0488 74.5322 83.2344 82.4541 140.673
c1.62695 11.7949 1.63672 39.7646 0.0195312 51.4219c-6.41992 46.2568 -25.6592 86.0596 -57.4316 118.814c-29.0986 29.999 -66.167 50.3457 -107.043 58.7529c-36.6455 7.53809 -73.7422 5.09082 -109.29 -7.20801
c-30.2217 -10.4561 -56.0605 -26.6641 -78.8857 -49.4834c-34.042 -34.0303 -53.959 -75.5547 -60.0225 -125.135c-1.03516 -8.46289 -1.02148 -34.0557 0.0224609 -42.9053c5.90137 -50.0059 26.8105 -92.8193 62.0684 -127.092
c35.2676 -34.2803 79.9141 -54.4355 129.652 -58.5283c7.04395 -0.580078 33.6631 0.203125 40.832 1.2002v0zM174.072 67.7197c-9.30176 2.11621 -15.3906 8.48633 -16.9268 17.708c-0.299805 1.80078 -0.384766 48.8174 -0.189453 104.481
c0.317383 90.043 0.472656 101.58 1.40039 104.588c3.04492 9.87012 8.10449 16.417 15.1338 19.5811c3.41016 1.53516 5.21289 1.88281 11.0195 2.12598c13.5518 0.568359 27.6289 -3.91602 47.7705 -15.2148c3.42383 -1.9209 36.3008 -18.665 73.0605 -37.21
c36.7588 -18.5449 69.1934 -35.1396 72.0762 -36.8779c13.5332 -8.15723 23.2061 -17.0234 27.2363 -24.959c1.98926 -3.91797 2.23438 -4.97559 2.24219 -9.69043c0.00585938 -3.65234 -0.365234 -6.20508 -1.19824 -8.23828
c-3.23535 -7.9043 -11.7705 -16.4551 -24.167 -24.2109c-7.60352 -4.75879 -149.892 -77.5215 -162.026 -82.8574c-19.0156 -8.3623 -34.9814 -11.6035 -45.4316 -9.22559v0z" />
    <glyph glyph-name="uniF108" unicode="&#xf108;" 
d="M193.433 127.422v-38.5117l-113.8 45.5215v38.5117zM193.433 245.577v-38.5107l-113.8 45.5166v38.5117zM499.499 443.11c7.81055 -5.28906 12.5 -14.1113 12.501 -23.5557v-364.089c0 -11.6338 -7.07812 -22.0889 -17.8779 -26.4111l-227.056 -90.8105
s-4.67773 -1.51074 -5.54395 -1.68945c-1.83301 -0.354492 -3.67773 -0.554688 -5.52148 -0.554688c-1.85645 0 -3.7002 0.199219 -5.52246 0.554688c-0.87793 0.178711 -5.53418 1.67871 -5.53418 1.67871l-227.077 90.8223
c-10.7891 4.32227 -17.8672 14.7773 -17.8672 26.4111v364.088c0 9.44434 4.67676 18.2666 12.4893 23.5557c7.82129 5.28906 17.7441 6.36133 26.5107 2.85547l216.999 -86.7998l216.989 86.7988c8.7666 3.50586 18.7002 2.43457 26.5107 -2.85449zM227.556 -5.7998v0
l-0.000976562 318.788l-182.044 72.8281v-318.806zM466.488 67.0107v318.806l-182.044 -72.8281v-318.789zM432.365 172.944v0v-38.5107l-113.8 -45.5215v38.5107zM432.365 291.095v0v-38.5117l-113.8 -45.5166v38.5107z" />
    <glyph glyph-name="uniF134" unicode="&#xf134;" 
d="M127.357 -64v512l257.285 -256z" />
    <glyph glyph-name="uniF125" unicode="&#xf125;" 
d="M372.333 412.906c32.4219 -23.3955 48.6445 -58.0508 48.6436 -103.96c0 -28.1562 -9.87793 -51.8779 -23.9434 -71.1455c-8.22266 -11.7002 -26.8662 -26.6436 -50.2334 -44.8438l-25.8887 -17.8672c-12.5449 -9.75098 -23.7227 -21.1113 -27.834 -34.1172
c-2.16699 -6.88184 -3.51074 -12.9658 -4.02246 -24.8984c-0.100586 -2.33887 -1.61035 -7.75 -8.86621 -7.75h-73.1455s-9.04395 4.81055 -8.96582 7.13867c1.14355 32.75 2.31055 55.5723 15.2998 70.8223c22.3887 26.2715 73.3887 58.9824 73.3887 58.9824
c7.78906 5.8457 14.0557 12.2285 18.8115 19.167c8.64355 11.9102 15.8223 25.0166 15.8223 39.3105c0 16.4561 -4.81152 31.4551 -14.4453 45c-9.62207 13.5283 -27.2109 20.2998 -52.7441 20.2998c-25.1113 0 -42.9111 -8.33301 -53.4111 -25.0107
c-10.4893 -16.6904 -15.7324 -34.0117 -15.7324 -51.9785h-94.0439c2.59961 61.7227 24.1777 105.479 64.7559 131.255c25.5889 16.4443 57.0557 24.6895 94.3662 24.6895c49.0225 0 89.7559 -11.7012 122.188 -35.0938zM248.633 51.9561
c33.8447 -1 58.5449 -24.9326 57.5342 -60.0889c-1.01172 -35.1445 -27.0342 -56.8379 -60.8779 -55.833c-32.4111 0.955078 -57.8447 24.167 -56.833 59.3105c1.02051 35.1562 27.7656 57.5781 60.1768 56.6113z" />
    <glyph glyph-name="uniF112" unicode="&#xf112;" 
d="M293.107 -54.1104c-29.9766 0 -54.21 2.81152 -74.1357 12.7969c-19.9209 9.9834 -34.4463 27.4062 -44.0596 52.6768v0.015625h-0.0166016c-11.4971 30.1357 -55.1309 149.793 -55.1309 149.793c-6.53906 14.7549 -0.19043 32.4365 14.46 39.5312h0.0166016
c14.9434 7.22754 33.1992 0.900391 40.4648 -14.0176c0.0107422 -0.0205078 0.0205078 -0.0419922 0.0322266 -0.0625l27.209 -56.7939v173.344c0 16.6318 13.7119 30.2969 30.3125 30.2969s30.2969 -13.6758 30.2969 -30.2969v-43.6641
c3.1416 1.11914 6.50586 1.75781 10.0088 1.75781c11.2119 0 21.0801 -6.22852 26.3379 -15.3779c4.23145 2.24512 9.0293 3.53223 14.1123 3.53223c12.2119 0 22.8018 -7.40918 27.5732 -17.9121c3.88379 1.82715 8.19531 2.86719 12.7334 2.86719
c8.30469 0 16.5771 -3.68359 22.0762 -10.3115c5.49902 -6.62598 8.25098 -15.6562 8.25098 -26.0361v-162.037c0 -24.6514 -6.02051 -47.375 -21.0479 -64.0322c-15.0244 -16.6562 -38.4873 -26.0693 -69.4941 -26.0693v0zM293.107 -33.8379
c27.0547 0 43.7861 7.54883 54.4502 19.3691c10.6641 11.8193 15.8223 29.0898 15.8223 50.459v162.036c0 6.82422 -1.7666 10.8975 -3.5791 13.082c-1.81152 2.18359 -3.64062 2.99219 -6.47656 2.99219c-5.62207 0 -10.0254 -4.35254 -10.0254 -10.0566v-68.3711
c-0.0791016 -5.59766 -4.68164 -10.0723 -10.2803 -9.99316c-5.48535 0.078125 -9.91504 4.50586 -9.99316 9.99316v68.3721v15.0928c0 5.62012 -4.38184 10.0088 -10.0088 10.0088c-5.67773 0 -10.0879 -4.4209 -10.0879 -10.0088v-71.3164
c-0.0791016 -5.59863 -4.68164 -10.0723 -10.2803 -9.99316c-5.48535 0.078125 -9.91504 4.50586 -9.99219 9.99316v71.3164v11.7676c0 5.66797 -4.41016 10.0889 -10.0898 10.0889c-5.59863 0 -10.0088 -4.40039 -10.0088 -10.0889v-83.084
c0.00585938 -0.337891 -0.00390625 -0.676758 -0.0322266 -1.01465c-0.0878906 -1.01172 -0.328125 -2.00488 -0.712891 -2.94531c-0.255859 -0.626953 -0.573242 -1.22656 -0.949219 -1.79004c-1.32129 -1.98828 -3.30176 -3.44629 -5.5918 -4.11816
c-0.322266 -0.0966797 -0.650391 -0.174805 -0.981445 -0.238281c-0.99707 -0.1875 -2.01758 -0.224609 -3.02539 -0.111328c-0.339844 0.0410156 -0.678711 0.0996094 -1.01367 0.174805c-0.326172 0.0673828 -0.649414 0.152344 -0.96582 0.253906
c-0.643555 0.211914 -1.26562 0.487305 -1.85352 0.822266c-0.591797 0.333984 -1.14844 0.727539 -1.66309 1.17285c-0.253906 0.219727 -0.49707 0.452148 -0.728516 0.696289c-0.229492 0.248047 -0.446289 0.506836 -0.650391 0.776367
c-0.208984 0.264648 -0.404297 0.539062 -0.585938 0.823242c-0.177734 0.287109 -0.341797 0.583008 -0.491211 0.886719c-0.147461 0.303711 -0.279297 0.617188 -0.395508 0.933594c-0.234375 0.636719 -0.404297 1.29395 -0.506836 1.96484
c-0.0537109 0.330078 -0.0917969 0.662109 -0.111328 0.99707c-0.0136719 0.237305 -0.0185547 0.475586 -0.015625 0.713867v83.085v72.2666c0 5.66406 -4.37793 10.0254 -10.0254 10.0254c-5.64941 0 -10.041 -4.37109 -10.041 -10.0254v-217.958
c-0.00976562 -5.59863 -4.55664 -10.1289 -10.1562 -10.1191c-3.89062 0.00683594 -7.43359 2.24023 -9.11914 5.74707l-46.4512 96.9736l-0.0322266 0.0478516c-2.49023 5.04297 -8.32129 7.05176 -13.3994 4.59277c-5.09766 -2.46582 -7.11426 -8.31836 -4.65625 -13.3828
c0.15332 -0.310547 0.291016 -0.626953 0.412109 -0.950195c0 0 43.8291 -120.15 55.0361 -149.524v-0.015625c8.38574 -22.0518 18.9092 -34.1201 34.1943 -41.7803s36.4258 -10.6396 65.0625 -10.6396v0zM85.3018 138.667c-47.0039 0 -85.3018 38.3125 -85.3018 85.3174
c0 43.4316 32.7334 79.3174 74.7861 84.5254c9.96875 73.1367 72.6719 129.601 148.478 129.601c53.6377 0 100.787 -28.2344 127.303 -70.668c13.3027 5.21973 27.7744 8.1875 42.9521 8.1875c65.3164 0 118.481 -53.165 118.481 -118.48
c0 -59.4219 -43.9082 -108.805 -101.108 -117.216c-5.54102 -0.813477 -10.6924 3.01953 -11.5059 8.56055s3.01953 10.6924 8.55957 11.5059v0c47.4014 6.96973 83.7812 47.6934 83.7812 97.1475c0 54.3623 -43.8486 98.2109 -98.21 98.2109
c-15.3369 0 -29.7578 -3.60156 -42.7295 -9.89941c-4.87793 -2.36523 -10.7529 -0.473633 -13.3359 4.29199c-21.9473 40.5332 -64.7715 68.0859 -114.189 68.0859c-68.3525 0 -124.04 -52.6299 -129.22 -119.59c-0.400391 -5.20898 -4.69141 -9.25977 -9.91504 -9.36035
c-35.4971 -0.644531 -63.8584 -29.2588 -63.8584 -64.9023c0 -36.0537 28.9775 -65.0469 65.0303 -65.0469h11.4033c5.59766 0.0791016 10.1992 -4.39453 10.2793 -9.99219c0.0791016 -5.59863 -4.39453 -10.2002 -9.99219 -10.2803
c-0.0966797 -0.00195312 -0.191406 -0.00195312 -0.287109 0c0.00292969 0.00195312 -11.4004 0.00195312 -11.4004 0.00195312z" />
    <glyph glyph-name="uniF13F" unicode="&#xf13f;" 
d="M0.666992 339.662h512v-295.325h-353.943v52.6748h301.251v166.689l-149.179 -103.108l-182.854 126.381h-127.275v52.6885zM310.796 224.648l90.1885 62.3252h-180.363zM49.5859 211.762v37.6318h99.7246v-37.6318h-99.7246zM106.98 134.616v37.6348h99.7246v-37.6348
h-99.7246z" />
    <glyph glyph-name="uniF11E" unicode="&#xf11e;" 
d="M0 224v224h224v-224h-224zM0 -64v224h224v-224h-224zM288 368v80h224v-80h-224zM288 224v80h224v-80h-224zM288 80v80h224v-80h-224zM288 -64v80h224v-80h-224z" />
    <glyph glyph-name="uniF137" unicode="&#xf137;" 
d="M134.95 254.033v-43.4346h88.7178v-192.222h-223.668v171.032v21.1895v42.5117s102.883 102.882 105.956 105.955c3.07324 3.07227 6.54395 5.56055 10.7686 6.55859c4.22559 0.998047 8.77539 -0.124023 13.2305 -2.17285
c4.45508 -2.0498 44.5508 -20.3359 48.5928 -22.1816c4.04199 -1.84473 4.8623 -3.2998 5.57715 -6.51953s-0.500977 -6.5 -2.79883 -10.251s-46.376 -70.4658 -46.376 -70.4658zM423.282 210.599h88.7178v-192.222h-223.668v171.032v21.1895v42.5117
s102.883 102.882 105.956 105.955c3.07324 3.07227 6.54395 5.56055 10.7686 6.55859c4.22559 0.998047 8.77539 -0.124023 13.2305 -2.17285c4.45508 -2.0498 44.5508 -20.3359 48.5928 -22.1816c4.04199 -1.84473 4.8623 -3.2998 5.57715 -6.51953
s-0.500977 -6.5 -2.79883 -10.251s-46.376 -70.4658 -46.376 -70.4658v-43.4346z" />
    <glyph glyph-name="uniF13E" unicode="&#xf13e;" 
d="M409.6 217.6h28.1602v-281.6h-363.52v281.6h28.1602v76.8008c0 84.6943 68.9043 153.6 153.6 153.6s153.6 -68.9053 153.6 -153.6v-76.8008zM143.36 294.4v-76.8008h225.279v76.8008c0 62.1094 -50.5293 112.64 -112.64 112.64s-112.64 -50.5303 -112.64 -112.64z" />
    <glyph glyph-name="uniF124" unicode="&#xf124;" 
d="M221.145 270.688l92.9473 -80.2725l-90.834 -79.2158zM256 448c141.261 0 256 -114.739 256 -256s-114.739 -256 -256 -256s-256 114.739 -256 256s114.739 256 256 256zM256 427.14c-129.988 0 -235.14 -105.151 -235.14 -235.14s105.151 -235.14 235.14 -235.14
s235.14 105.151 235.14 235.14s-105.151 235.14 -235.14 235.14z" />
    <glyph glyph-name="uniF119" unicode="&#xf119;" 
d="M0 384h512l-256 -256.564zM0 0l160.468 159.436l95.5322 -95.3555l96.876 95.3555l159.124 -159.436h-512zM0 64.0801v256l128.312 -128.08zM512 320.14v-256l-128.312 128.08z" />
    <glyph glyph-name="uniF12A" unicode="&#xf12a;" 
d="M263.154 413.486c-9.4375 -0.240234 -18.8896 -0.0761719 -28.127 -0.0771484c7.84766 -9.27246 15.916 -17.6963 22.7158 -27.04c26.0762 -35.7998 26.4883 -99.4434 -15.752 -136.675c-9.16406 -8.08008 -17.9238 -16.9326 -25.3242 -26.6084
c-10.1836 -13.3076 -9.50781 -26.6758 2.00781 -38.5557c10.8086 -11.1367 23.1885 -20.7402 34.6562 -31.248c6.63965 -6.08789 12.7842 -12.7158 19.2598 -18.9844c31.5684 -30.5674 32.2842 -87.4785 7.26465 -122.623
c-23.8965 -33.5713 -57.0049 -51.6709 -96.6396 -59.2549c-10.1436 -1.93945 -20.3994 -3.30371 -30.5996 -4.93164h-37.748c-3.2002 0.563477 -6.37988 1.22754 -9.5957 1.65527c-49.7363 6.68164 -90.2764 25.6367 -105.271 78.7441v21.3398
c0.419922 0.672852 1.0957 1.30078 1.24023 2.03613c6.19922 31.7607 24.8232 53.752 52.9229 68.8682c27.2119 14.6318 56.3594 21.6758 86.835 24.3125c9.34375 0.807617 18.6797 1.68359 27.416 2.47168c-5.36035 11.4355 -12.668 21.7998 -14.832 33.1396
c-2.11621 11.0684 1.00781 23.1445 1.84375 34.9248c-9.03223 0 -19.1475 -0.504883 -29.1953 0.0839844c-60.5752 3.55566 -104.583 61.127 -92.335 120.522c9.91504 48.0947 51.1465 87.8271 99.5986 95.9307c10.1914 1.70801 20.4043 3.32812 30.6035 4.98828
c48.6885 0.00390625 97.3672 0.00390625 146.056 0.00390625c-11.9639 -7.12793 -23.792 -14.4961 -35.9805 -21.208c-3.08398 -1.7002 -7.30371 -1.72363 -11.0195 -1.81543zM234.641 91.8447c-12.5342 11.3486 -26.1064 21.6162 -39.8037 31.5615
c-4.51172 3.27148 -10.8477 5.35156 -16.4395 5.56348c-27.6318 1.08789 -54.4355 -3.58789 -80.0518 -14.168c-24.584 -10.1514 -40.5713 -27.8037 -43.6436 -54.7715c-3.03223 -26.624 8.41211 -47.1201 29.5996 -62.7441
c23.5352 -17.3604 50.6553 -22.1445 81.0117 -22.9922c18.4678 -0.0761719 38.0039 3.77246 53.0156 10.832c43.5195 20.4805 51.9883 74.3994 16.3115 106.719zM220.01 276.555c2.38867 19.4961 1.53223 38.7559 -3.49609 57.6709
c-6.21191 23.3604 -14.3281 45.9766 -31.9756 63.5605c-23.9795 23.8955 -61.7715 23.1562 -82.8672 -1.99219c-12.5156 -14.9189 -16.0957 -33.0547 -15.4922 -52.1553c0.772461 -26.584 8.56055 -51.332 22.9004 -73.3076
c7.41602 -11.3604 17.5322 -21.916 28.6074 -29.7363c27.0283 -19.084 77.0439 -7.17188 82.3232 35.96zM442.84 236.303h69.1602c-0.00390625 -13.1279 -0.00390625 -26.2559 -0.00390625 -39.3877h-68.7637v-66.835h-39.1406v66.5752h-67.3428v39.7314h66.6992v68.2764
h39.3916v-68.3604z" />
    <glyph glyph-name="uniF11A" unicode="&#xf11a;" 
d="M341.332 216.403v-49.335c0 -1.7793 -0.625977 -3.51465 -1.86719 -5.20117c-1.24414 -1.69141 -2.66504 -2.62402 -4.26758 -2.7998l-41.3301 -6.39844c-1.95801 -6.22559 -4.80176 -12.9785 -8.53516 -20.2656c6.04297 -8.53516 14.0439 -18.7588 24 -30.668
c1.24414 -1.7793 1.86719 -3.55859 1.86719 -5.33301c0 -2.13477 -0.62207 -3.8252 -1.86719 -5.06641c-4.0918 -5.33594 -11.4229 -13.2939 -21.9971 -23.8682c-10.5811 -10.5811 -17.5605 -15.8672 -20.9355 -15.8672c-1.95801 0 -3.8252 0.619141 -5.60059 1.86719
l-30.665 24c-6.58105 -3.37793 -13.4248 -6.13379 -20.5332 -8.26758c-1.95801 -19.1973 -4.00098 -32.9785 -6.13379 -41.3301c-1.24414 -4.26855 -3.91309 -6.40234 -8.00098 -6.40234h-49.5986c-1.95801 0 -3.7334 0.666016 -5.33301 1.99805
c-1.59961 1.33594 -2.49316 2.8877 -2.66797 4.66699l-6.13379 40.8027c-6.04297 1.77539 -12.71 4.53125 -19.9971 8.26562l-31.4668 -23.7324c-1.24512 -1.24805 -3.02441 -1.86719 -5.33301 -1.86719c-1.95801 0 -3.82422 0.706055 -5.59961 2.13477
c-25.6006 23.6406 -38.4004 37.8633 -38.4004 42.666c0 1.59863 0.620117 3.28711 1.86719 5.06543c1.77539 2.48926 5.4209 7.19922 10.9336 14.1348c5.50879 6.93262 9.6875 12.3535 12.5332 16.2666c-4.0918 7.82227 -7.2002 15.1084 -9.33301 21.8662l-40.5361 6.39941
c-1.7793 0.175781 -3.29199 1.02148 -4.5332 2.5332c-1.24707 1.50781 -1.86719 3.24316 -1.86719 5.2002v49.3311c0 1.77441 0.620117 3.50977 1.86719 5.20117c1.24121 1.68652 2.66602 2.62109 4.26562 2.7998l41.334 6.40137
c1.95508 6.21973 4.7998 12.9756 8.53418 20.2666c-6.04688 8.53223 -14.0459 18.7549 -24 30.665c-1.24609 1.95508 -1.86719 3.73242 -1.86719 5.33594c0 2.12988 0.620117 3.90527 1.86719 5.33301c3.90723 5.33301 11.2002 13.2393 21.8662 23.7314
c10.667 10.4873 17.6865 15.7363 21.0664 15.7363c1.95508 0 3.82129 -0.625977 5.60059 -1.86719l30.666 -24.0029c6.04102 3.20312 12.8838 6.04297 20.5303 8.53516c1.9541 19.2012 4.00098 32.8857 6.13379 41.0674c1.24121 4.26758 3.90918 6.39746 8.00098 6.39746
h49.5986c1.95508 0 3.7334 -0.666016 5.33301 -1.99805c1.60352 -1.33203 2.48926 -2.8916 2.66797 -4.66699l6.13379 -40.7998c6.03906 -1.7793 12.708 -4.53516 19.999 -8.26758l31.4668 23.7354c1.41992 1.24121 3.19824 1.86719 5.33301 1.86719
c1.9541 0 3.82031 -0.713867 5.59961 -2.13379c25.6025 -23.6484 38.4023 -37.8682 38.4023 -42.666c0 -1.60352 -0.625977 -3.29395 -1.86719 -5.06934c-2.13379 -2.84375 -5.86719 -7.64551 -11.2002 -14.3984c-5.33301 -6.76074 -9.33301 -12.0938 -12.002 -15.998
c4.08789 -8.53516 7.1084 -15.8262 9.06641 -21.8691l40.5352 -6.13379c1.77539 -0.359375 3.28711 -1.29199 4.53125 -2.80078c1.24316 -1.5127 1.86914 -3.24707 1.86914 -5.19727zM218.933 143.866c13.334 13.334 19.999 29.4238 19.999 48.2695
c0 18.8389 -6.66504 34.9326 -19.999 48.2666s-29.4277 19.999 -48.2656 19.999c-18.8457 0 -34.9355 -6.66504 -48.2656 -19.999c-13.334 -13.334 -20.001 -29.4287 -20.001 -48.2666c0 -18.8457 6.66699 -34.9355 20.001 -48.2695
c13.3301 -13.3301 29.4199 -19.999 48.2656 -19.999c18.8379 0 34.9316 6.66895 48.2656 19.999zM512 347.337v-37.333c0 -2.84766 -13.2461 -5.59961 -39.7344 -8.26758c-2.13379 -4.79785 -4.79785 -9.42578 -8.00098 -13.8652
c9.06641 -20.0938 13.6016 -32.3594 13.6016 -36.8027c0 -0.709961 -0.359375 -1.33203 -1.06543 -1.86719c-21.6934 -12.624 -32.7139 -18.9346 -33.0684 -18.9346c-1.4248 0 -5.5127 4.17676 -12.2656 12.5361c-6.75977 8.35254 -11.3789 14.3994 -13.8682 18.1318
c-3.55762 -0.358398 -6.22168 -0.533203 -7.99707 -0.533203c-1.78223 0 -4.44629 0.175781 -8.00098 0.533203c-2.49219 -3.73242 -7.11133 -9.7793 -13.8672 -18.1318c-6.75781 -8.35938 -10.8457 -12.5361 -12.2656 -12.5361
c-0.358398 0 -11.3789 6.31055 -33.0654 18.9346c-0.713867 0.53418 -1.06934 1.15723 -1.06934 1.86719c0 4.44238 4.53516 16.709 13.6006 36.8027c-3.19824 4.43945 -5.86621 9.06543 -8.00098 13.8652c-26.4912 2.66797 -39.7334 5.4209 -39.7334 8.26758v37.333
c0 2.83984 13.2422 5.59961 39.7334 8.26465c2.31055 5.15332 4.97461 9.77637 8.00098 13.8682c-9.06543 20.0869 -13.6006 32.3525 -13.6006 36.7988c0 0.709961 0.355469 1.33203 1.06934 1.86719c0.706055 0.355469 3.81738 2.13379 9.33301 5.33301
c5.50879 3.20312 10.7529 6.22266 15.7305 9.06641c4.97363 2.84277 7.6416 4.2666 8 4.2666c1.41992 0 5.50781 -4.13184 12.2656 -12.4004c6.75684 -8.26562 11.376 -14.2676 13.8672 -18.001c3.55469 0.354492 6.21973 0.533203 8.00098 0.533203
c1.77539 0 4.44043 -0.178711 7.99707 -0.533203c9.06641 12.624 17.2432 22.5752 24.5342 29.8662l1.60059 0.535156c0.709961 0 11.7334 -6.22559 33.0684 -18.667c0.706055 -0.53418 1.06543 -1.15723 1.06543 -1.86719c0 -4.44629 -4.53516 -16.7119 -13.6016 -36.7988
c3.02344 -4.0918 5.68848 -8.71484 8.00098 -13.8682c26.4893 -2.66406 39.7354 -5.42383 39.7354 -8.26367zM512 74.2686v-37.333c0 -2.84766 -13.2461 -5.59961 -39.7344 -8.26758c-2.13379 -4.79785 -4.79785 -9.4209 -8.00098 -13.8652
c9.06641 -20.0898 13.6016 -32.3555 13.6016 -36.8027c0 -0.706055 -0.359375 -1.33203 -1.06543 -1.86719c-21.6934 -12.6201 -32.7139 -18.9336 -33.0684 -18.9336c-1.4248 0 -5.5127 4.17969 -12.2656 12.5361c-6.75977 8.35547 -11.3789 14.3984 -13.8682 18.1318
c-3.55762 -0.355469 -6.22168 -0.53418 -7.99707 -0.53418c-1.78223 0 -4.44629 0.178711 -8.00098 0.53418c-2.49219 -3.7334 -7.11133 -9.77637 -13.8672 -18.1318c-6.75781 -8.35645 -10.8457 -12.5361 -12.2656 -12.5361c-0.358398 0 -11.3789 6.31348 -33.0654 18.9336
c-0.713867 0.53418 -1.06934 1.16016 -1.06934 1.86719c0 4.44727 4.53516 16.7119 13.6006 36.8027c-3.19824 4.44336 -5.86621 9.06641 -8.00098 13.8652c-26.4912 2.66797 -39.7334 5.4209 -39.7334 8.26758v37.333c0 2.84082 13.2422 5.60059 39.7334 8.26562
c2.31055 5.15234 4.97461 9.77539 8.00098 13.8682c-9.06543 20.0869 -13.6006 32.3516 -13.6006 36.7988c0 0.709961 0.355469 1.33203 1.06934 1.86719c0.706055 0.354492 3.81738 2.13379 9.33301 5.33301c5.50879 3.20215 10.7529 6.22168 15.7305 9.06543
c4.97461 2.84375 7.64258 4.26855 8.00098 4.26855c1.41992 0 5.50781 -4.13281 12.2656 -12.4014c6.75684 -8.26465 11.376 -14.2666 13.8672 -18.001c3.55469 0.355469 6.21973 0.53418 8.00098 0.53418c1.77539 0 4.44043 -0.178711 7.99707 -0.53418
c9.06641 12.624 17.2432 22.5762 24.5342 29.8672l1.59961 0.53418c0.709961 0 11.7334 -6.22656 33.0684 -18.667c0.706055 -0.53418 1.06543 -1.15723 1.06543 -1.86719c0 -4.44727 -4.53516 -16.7119 -13.6016 -36.7988
c3.02344 -4.09277 5.68848 -8.71582 8.00098 -13.8682c26.4893 -2.66504 39.7354 -5.42383 39.7354 -8.26465zM443.731 328.67c0 9.24219 -3.37891 17.2393 -10.1318 24c-6.75977 6.75293 -14.7578 10.1309 -24 10.1309c-9.24902 0 -17.2471 -3.37793 -24.0029 -10.1309
c-6.75684 -6.75977 -10.1309 -14.7578 -10.1309 -24c0 -9.4248 3.33398 -17.4658 9.99902 -24.1348c6.66504 -6.66504 14.71 -9.99902 24.1348 -9.99902c9.41797 0 17.4668 3.33398 24.1318 9.99902c6.66895 6.66895 10 14.71 10 24.1348zM443.731 55.6016
c0 9.24219 -3.37891 17.2393 -10.1318 24c-6.75977 6.75391 -14.7578 10.1318 -24 10.1318c-9.24902 0 -17.2471 -3.37793 -24.0029 -10.1318c-6.75684 -6.75977 -10.1309 -14.7578 -10.1309 -24c0 -9.4248 3.33398 -17.4658 9.99902 -24.1348
c6.66504 -6.66504 14.71 -9.99902 24.1348 -9.99902c9.41797 0 17.4668 3.33398 24.1318 9.99902c6.66895 6.66895 10 14.71 10 24.1348z" />
    <glyph glyph-name="uniF140" unicode="&#xf140;" 
d="M69 5v374h374v-374h-374zM136 367v81h50.2939v-81h-50.2939zM230.853 367v81h50.2949v-81h-50.2949zM325.706 367v81h50.2939v-81h-50.2939zM136 -64v81h50.2939v-81h-50.2939zM230.853 -64v81h50.2949v-81h-50.2949zM325.706 -64v81h50.2939v-81h-50.2939zM430 261.706
v50.2939h81v-50.2939h-81zM430 166.853v50.2949h81v-50.2949h-81zM430 72v50.2939h81v-50.2939h-81zM0 261.706v50.2939h81v-50.2939h-81zM0 166.853v50.2949h81v-50.2949h-81zM0 72v50.2939h81v-50.2939h-81z" />
    <glyph glyph-name="uniF105" unicode="&#xf105;" 
d="M487.452 182.082l-134.219 -0.0283203l0.0263672 -246.054h-194.725v246.082l-133.987 -0.0283203l231.48 265.946z" />
    <glyph glyph-name="uniF10F" unicode="&#xf10f;" 
d="M176.918 -58.8457c-2.35254 -3.22754 -6.1416 -5.1543 -10.1367 -5.1543c-2.6709 0 -5.22461 0.832031 -7.38672 2.40625c-2.70605 1.97266 -4.4834 4.88184 -5.00293 8.19043c-0.518555 3.31055 0.28125 6.62305 2.25488 9.33008l170.191 236.073l-170.266 236.174
c-1.94531 2.72852 -2.71191 6.04883 -2.15918 9.35352s2.35938 6.19531 5.08496 8.13867c2.13867 1.52734 4.65723 2.33398 7.28418 2.33398c4.04785 0 7.86621 -1.9668 10.2119 -5.25879l180.768 -250.741z" />
    <glyph glyph-name="uniF138" unicode="&#xf138;" 
d="M305.2 226.4v-144h-96v144h96zM177.2 146.4v-64h-96v64h96zM1.2002 386.4h512v-384h-512v384zM481.2 34.4004v320h-448v-320h448zM433.2 306.4v-224h-96v224h96z" />
    <glyph glyph-name="uniF13C" unicode="&#xf13c;" 
d="M0 448h512v-145.837h-512v145.837zM91 343.081v64h-64v-64h64zM0 264.919h512v-145.837h-512v145.837zM91 160v64h-64v-64h64zM0 81.8369h512v-145.837h-512v145.837zM91 -23.0811v64h-64v-64h64z" />
    <glyph glyph-name="uniF13B" unicode="&#xf13b;" 
d="M0 129.638v283.08h512v-283.08h-512zM0 -28.7178v134.952h244.084v-134.952h-244.084zM267.916 -28.7178v134.952h244.084v-134.952h-244.084z" />
    <glyph glyph-name="uniF145" unicode="&#xf145;" 
d="M0.942383 180.876l208.341 -1.34375l0.165039 -201.384l-208.495 28.6699zM511.148 448v-242.725l-276.577 -2.19922v204.558zM234.181 178.084l277.031 -0.451172l-0.0634766 -241.633l-276.577 39.041zM0.788086 375.508l208.596 28.4111l0.0898438 -201.204
l-208.49 -1.18457z" />
    <glyph glyph-name="uniF109" unicode="&#xf109;" 
d="M195.861 27.9551c0.211914 86.9629 0.297852 92.2148 1.58496 96.7285c7.53223 26.4023 28.9492 41.8291 58.0693 41.8291c10.9893 0 19.9082 -1.91504 28.5049 -6.12109c15.2002 -7.43555 24.6123 -18.8164 29.3066 -35.4297l1.63379 -5.78418l0.219727 -91.5889
l0.220703 -91.5889h-59.8818h-59.8818zM164.845 30.5654c-45.5654 21.0283 -81.3867 55.2139 -103.629 98.8975c-11.9492 23.4678 -18.6025 44.7432 -22.3857 71.5762c-2.00293 14.2041 -1.81543 45.2354 0.360352 59.4688c2.09766 13.7227 5.36621 27.3281 9.41016 39.168
c4.07617 11.9307 5.88672 16.249 11.6152 27.7061c28.9014 57.792 82.1855 100.186 144.641 115.081c18.7236 4.46484 28.6084 5.53809 51.0264 5.53809c22.332 0 32.3936 -1.08301 50.6592 -5.4541c79.127 -18.9346 141.515 -80.4805 161.527 -159.351
c9.51465 -37.498 8.53516 -80.3164 -2.68066 -117.32c-18.25 -60.208 -61.8477 -109.82 -119.083 -135.511c-4.97656 -2.2334 -9.15234 -4.06152 -9.2793 -4.06152c-0.307617 0 -9.92773 24.0615 -9.92773 24.8301c0 0.328125 1.90039 1.35938 4.22168 2.29395
c18.626 7.48828 40.7852 22.1289 57.3379 37.8809c30.7109 29.2295 50.5771 68.125 57.167 111.933c1.82227 12.1221 1.79102 41.0879 -0.0615234 53.2285c-5.21973 34.2314 -18.6289 65.249 -39.9922 92.5068c-5.19629 6.63086 -23.9521 25.3867 -30.584 30.584
c-27.2578 21.3633 -58.2744 34.7734 -92.5068 39.9922c-12.4951 1.90527 -41.1875 1.89746 -53.5947 -0.0136719c-32.9551 -5.07812 -62.5498 -17.4668 -88.9365 -37.2275c-8.1709 -6.12012 -28.0967 -25.5586 -34.1689 -33.335
c-17.8418 -22.8467 -29.3652 -46.3945 -36.124 -73.8115c-3.72461 -15.1133 -4.89258 -23.9893 -5.35938 -40.7217c-0.918945 -32.9824 5.79688 -62.7881 20.8018 -92.3115c20.2734 -39.8926 56.0029 -72.792 97.4043 -89.6904
c2.13184 -0.870117 2.70703 -1.45801 2.3916 -2.44531c-2.18359 -6.83008 -9.26172 -23.3613 -10.0586 -23.4951c-0.558594 -0.0957031 -5.14453 1.73438 -10.1914 4.06445v0zM165.918 136.467c-43.915 38.1621 -58.5889 101.805 -35.8887 155.658
c17.123 40.623 53.1221 70.7705 95.8105 80.2383c46.6123 10.3398 93.8057 -3.53027 127.306 -37.415c48.1064 -48.6562 52.4443 -125.847 10.1191 -180.05c-4.8877 -6.25977 -16.1914 -17.9502 -19.9316 -20.6123l-2.03906 -1.45215l-8.38184 10.3574
c-4.61035 5.69727 -8.81348 11.0488 -9.33887 11.8936c-0.886719 1.42188 -0.34375 2.15527 7.39355 9.97754c12.4971 12.6348 20.1123 24.8662 25.4434 40.8662c4.02734 12.0898 4.82812 17.6055 4.82812 33.2871c0 15.6807 -0.800781 21.1963 -4.82812 33.2871
c-3.12891 9.39258 -6.67871 16.6875 -11.998 24.668c-16.8418 25.2588 -41.5664 41.3877 -71.6318 46.7285c-8.1709 1.45215 -25.6211 1.45215 -33.792 0c-39.5938 -7.03418 -71.168 -33.9902 -83.6318 -71.3965c-4.02734 -12.0898 -4.82715 -17.6064 -4.82715 -33.2871
c0 -15.6816 0.799805 -21.1973 4.82715 -33.2871c5.4209 -16.2676 13.0186 -28.4258 25.7285 -41.1689c4.79785 -4.81152 8.72266 -8.88574 8.72266 -9.05664c0 -0.337891 -18.3506 -23.6787 -18.6172 -23.6787c-0.0888672 0.000976562 -2.46191 1.99902 -5.27246 4.44238v0
zM244.137 191.124c-22.2832 4.4834 -39.7578 21.1045 -45.5479 43.3193c-1.14258 4.3877 -1.5293 8.10352 -1.52441 14.6846c0.00976562 10.8467 1.59375 17.5625 6.2832 26.6318c6.2334 12.0527 14.3262 19.957 26.4727 25.8525
c9.04785 4.39258 15.5596 5.88379 25.6953 5.88379c10.126 0 16.6406 -1.48926 25.6963 -5.87305c18.4072 -8.91113 30.0342 -25.0254 32.7422 -45.376c3.45898 -25.998 -12.1924 -52.502 -36.6025 -61.9814c-10.5645 -4.10352 -22.7217 -5.25293 -33.2148 -3.1416v0z" />
    <glyph glyph-name="uniF12D" unicode="&#xf12d;" 
d="M0 448c282.763 0 512 -229.231 512 -512h-79.7959c0 238.697 -193.507 432.21 -432.204 432.21v79.79zM0 288.414c194.631 0 352.408 -157.783 352.407 -352.415h-79.7891c0 150.566 -122.06 272.625 -272.618 272.625v79.79zM76.4541 88.9336
c42.2402 0 76.4795 -34.2432 76.4805 -76.4668c0 -42.2363 -34.2402 -76.4668 -76.4805 -76.4668c-42.2178 0 -76.4541 34.2305 -76.4541 76.4668c0 42.2236 34.2363 76.4668 76.4541 76.4668z" />
    <glyph glyph-name="uniF103" unicode="&#xf103;" 
d="M262.005 320.541v0v0l0.000976562 -0.0166016c6.32812 -0.0146484 11.8008 -2.80469 14.9561 -5.12988c3.39355 -2.50098 5.26367 -4.50488 5.92871 -5.0293l0.616211 -0.483398l0.549805 -0.549805c36.2285 -35.4473 71.7119 -71.4785 107.44 -107.04l10.4609 -10.4102
l-10.4932 -10.3926c-37.3906 -37.0479 -74.2881 -74.9727 -112.554 -111.82l-1.01562 -0.96582l-1.18262 -0.766602c-6.86328 -4.44531 -15.626 -5.49512 -22.6172 -3.39844c-6.99219 2.09668 -12.3027 6.54688 -15.9385 11.9424
c-3.63672 5.39453 -5.79297 12.0488 -5.04688 19.3857c0.68457 6.75 4.4707 13.7588 10.292 18.5039c16.1846 16.333 32.4639 32.5977 48.7148 48.8818c-46.4658 -0.03125 -93.0146 -0.22168 -139.699 0.349609c-7.78906 -1.84082 -16.1367 -0.448242 -22.1514 3.44824
c-6.78516 4.39551 -10.8125 10.9014 -12.6406 17.7715c-1.8291 6.87012 -1.60254 14.6953 2.49805 21.917c4.10059 7.22266 12.6963 12.5557 21.7178 13.4072l0.599609 0.0498047l0.599609 0.0175781c49.8311 0.59082 99.6006 0.259766 149.21 0.367188
c-16.7012 16.6143 -33.6553 33.2715 -50.1143 50.7627c-9.18164 7.95801 -10.9092 21.415 -7.19531 30.6953c3.86523 9.6582 13.1709 18.165 25.6318 18.4199v0.0498047c0.323242 0.0214844 0.629883 -0.00585938 0.949219 0
c0.166016 -0.00292969 0.31543 0.0380859 0.482422 0.0332031zM232.214 -63.5332c-76.3906 7.59863 -144.668 47.7383 -187.418 110.185c-24.292 35.4844 -38.2197 72.667 -43.5938 116.4c-1.44824 11.7793 -1.63086 43.46 -0.317383 55.0254
c5.80566 51.126 24.7041 96.4258 56.7031 135.919c3.21387 3.96582 11.0244 12.3936 17.3594 18.7275c6.33301 6.33301 14.7607 14.1465 18.7275 17.3594c56.5811 45.8457 127.637 65.5557 199.132 55.2383c94.5127 -13.6406 174.074 -79.4834 205.311 -169.909
c5.80273 -16.7998 9.40527 -32.0654 11.9062 -50.4561c1.73047 -12.7246 2.38867 -40.0811 1.29199 -53.6768c-2.0625 -25.5488 -7.63281 -49.6572 -16.8818 -73.0596c-13.1992 -33.3955 -32.0049 -62.0195 -57.4834 -87.499
c-20.8955 -20.8945 -42.3633 -36.2471 -68.8711 -49.252c-25.8574 -12.6846 -50.3662 -19.998 -80.9883 -24.167c-8.88086 -1.20898 -45.5107 -1.7666 -54.877 -0.834961v0zM281.876 -14.1621c37.0742 5.16211 68.709 17.9609 97.5967 39.4893
c45.6895 34.0488 74.5107 83.2334 82.4297 140.672c1.62695 11.7959 1.63672 39.7646 0.0195312 51.4229c-6.41797 46.2559 -25.6514 86.0576 -57.415 118.813c-29.0898 29.999 -66.1475 50.3457 -107.012 58.7529c-36.6357 7.53809 -73.7207 5.0918 -109.259 -7.20801
c-30.2139 -10.4561 -56.0449 -26.6631 -78.8633 -49.4824c-34.0322 -34.0303 -53.9434 -75.5547 -60.0059 -125.135c-1.03516 -8.46289 -1.02051 -34.0566 0.0224609 -42.9072c5.89941 -50.0049 26.8027 -92.8184 62.0508 -127.09
c35.2578 -34.2812 79.8906 -54.4365 129.616 -58.5293c7.04102 -0.579102 33.6533 0.205078 40.8193 1.20117v0z" />
    <glyph glyph-name="uniF150" unicode="&#xf150;" 
d="M485.641 135.533c17.5752 -17.5723 26.3594 -38.9014 26.3594 -63.998s-8.89258 -46.3213 -26.668 -63.6885l-46.1211 -45.8008c-17.3643 -17.3652 -38.5859 -26.0449 -63.6875 -26.0449c-25.3066 0 -46.6318 8.89551 -63.9941 26.6689l-64.6299 64.9355
c-17.3604 17.3672 -26.0391 38.5898 -26.0391 63.6875c0 25.7285 9.2041 47.583 27.6084 65.5684l-27.6084 27.6084c-17.9863 -18.4082 -39.7383 -27.6084 -65.252 -27.6084c-25.0996 0 -46.4316 8.79004 -64.002 26.3525l-65.2539 65.2549
c-17.5664 17.5684 -26.3525 38.9043 -26.3525 64.001c0 25.0977 8.8877 46.3213 26.665 63.6865l46.1191 45.8008c17.3574 17.3604 38.5869 26.043 63.6855 26.043c25.3057 0 46.6387 -8.8916 63.998 -26.666l64.626 -64.9424
c17.3652 -17.3574 26.0449 -38.585 26.0449 -63.6855c0 -25.7285 -9.20703 -47.5811 -27.6084 -65.5664l27.6084 -27.6074c17.9893 18.4023 39.7314 27.6074 65.25 27.6074c25.0996 0 46.4307 -8.78906 63.9941 -26.3525zM220.864 269.797
c6.89941 6.49121 10.3506 14.1279 10.3496 22.9072c0 8.36621 -2.92578 15.4775 -8.7832 21.3359l-64.625 64.9336c-5.85645 5.85938 -12.9688 8.78418 -21.333 8.78418c-8.15918 0 -15.2666 -2.81934 -21.3359 -8.46777l-46.1191 -45.8047
c-5.85645 -5.85547 -8.78125 -12.8652 -8.78125 -21.0176c0 -8.37012 2.92871 -15.4775 8.78125 -21.3359l65.2578 -65.2539c5.64453 -5.64453 12.7568 -8.46484 21.333 -8.46484c8.78125 0 16.3105 3.24219 22.5869 9.7207
c-0.62793 0.62793 -2.61328 2.56152 -5.95996 5.80273c-3.34766 3.24121 -5.59668 5.48926 -6.74316 6.74609c-1.14941 1.25684 -2.71875 3.24121 -4.70605 5.96484c-1.9873 2.71484 -3.34668 5.38086 -4.07812 7.99707c-0.731445 2.61328 -1.0957 5.49414 -1.0957 8.62695
c0 8.36621 2.9248 15.4814 8.78125 21.332c5.85742 5.85156 12.9707 8.78418 21.333 8.78418c3.13867 0 6.01562 -0.368164 8.63086 -1.09766c2.6123 -0.729492 5.27637 -2.09082 8 -4.07617c2.71875 -1.99219 4.70605 -3.56055 5.96191 -4.71094
c1.25391 -1.15137 3.50293 -3.39941 6.74219 -6.74609c3.2373 -3.34668 5.1748 -5.33203 5.80273 -5.95996zM442.99 50.5215c5.85156 5.84375 8.77734 12.8535 8.77148 21.001c0 8.36426 -2.9248 15.4814 -8.77832 21.3359l-65.2588 65.2539
c-5.84961 5.85645 -12.9629 8.78223 -21.3271 8.78223c-8.78125 0 -16.3115 -3.34668 -22.5908 -10.0381c0.631836 -0.629883 2.62109 -2.5625 5.96289 -5.80371c3.34863 -3.24609 5.59766 -5.49414 6.74609 -6.74609c1.15527 -1.25684 2.71777 -3.24609 4.70508 -5.96094
c1.99609 -2.72266 3.35645 -5.38867 4.08789 -8.00195c0.727539 -2.61719 1.09961 -5.49023 1.09961 -8.62695c0 -8.36523 -2.93066 -15.4775 -8.78418 -21.333c-5.85645 -5.85254 -12.9658 -8.78027 -21.3359 -8.78027c-3.13281 0 -6.00586 0.363281 -8.62305 1.09766
c-2.62109 0.730469 -5.28027 2.08984 -8.00195 4.0791c-2.71484 1.99219 -4.70508 3.55762 -5.95703 4.71191c-1.25488 1.14844 -3.50488 3.39844 -6.74609 6.74512c-3.24609 3.34473 -5.17773 5.33398 -5.81055 5.96094
c-6.9043 -6.4834 -10.3535 -14.1201 -10.3535 -22.9004c0 -8.36719 2.92676 -15.4736 8.78516 -21.3281l64.6221 -64.9404c5.65234 -5.65039 12.752 -8.46973 21.3291 -8.46973c8.37012 0 15.4814 2.7168 21.3359 8.15137z" />
    <glyph glyph-name="uniF120" unicode="&#xf120;" 
d="M75.0332 207.21v0c0 9.67383 11.3076 9.67285 11.3076 9.67285s85.1904 -0.466797 95.7988 -0.466797s9.58008 -9.20605 9.58008 -9.20605v-82.8545s-7.52344 -9.20605 -7.52344 -9.20605h-98.5547c-10.6084 0 -10.6084 9.20605 -10.6084 9.20605v82.8545z
M236.378 112.887h74.5039c1.18457 0 2.14453 -0.960938 2.14453 -2.14551s-0.960938 -2.14453 -2.14453 -2.14453h-74.5039c-1.18555 0 -2.14551 0.960938 -2.14551 2.14453c0 1.18555 0.960938 2.14551 2.14551 2.14551zM236.378 139.087v0h97.3135
c1.17773 -0.00390625 2.13086 -0.958008 2.13574 -2.13672c0.00585938 -1.18457 -0.951172 -2.14746 -2.13574 -2.15234h-97.3145h-0.0166016c-1.18359 0.00488281 -2.14062 0.96875 -2.13574 2.15234c0.00488281 1.18457 0.96875 2.1416 2.15332 2.13672zM236.378 165.286
h84.0137c0.0800781 0.00585938 0.15918 0.00585938 0.239258 0c1.17969 -0.0654297 2.08301 -1.0752 2.0166 -2.25586c-0.0654297 -1.17969 -1.07617 -2.08301 -2.25586 -2.0166h-84.0137c-0.0800781 -0.00488281 -0.15918 -0.00488281 -0.239258 0
c-1.17969 0.0654297 -2.08301 1.07617 -2.0166 2.25586c0.0654297 1.17969 1.0752 2.08301 2.25586 2.0166zM236.17 191.486v0c0.0683594 0.00292969 0.138672 0.00292969 0.208984 0h92.9766c0.0800781 0.00488281 0.15918 0.00488281 0.239258 0
c1.17969 -0.0654297 2.08301 -1.07617 2.0166 -2.25586c-0.0654297 -1.17969 -1.07617 -2.08301 -2.25586 -2.0166h-92.9766c-1.1377 -0.0253906 -2.0957 0.84375 -2.18164 1.97656c-0.0888672 1.17773 0.793945 2.20703 1.97266 2.2959zM236.17 217.687v0
c0.0683594 0.00390625 0.138672 0.00390625 0.208984 0h97.3135c0.0800781 0.00488281 0.15918 0.00488281 0.239258 0c1.17969 -0.0664062 2.08301 -1.07617 2.0166 -2.25586c-0.0654297 -1.17969 -1.0752 -2.08301 -2.25586 -2.01758h-97.3135
c-1.1377 -0.0244141 -2.0957 0.844727 -2.18164 1.97754c-0.0888672 1.17773 0.793945 2.20703 1.97266 2.2959zM84.1895 285.105v0l249.775 -0.0322266c4.72852 0 8.56152 -3.83301 8.56152 -8.56152c0 -4.72949 -3.83301 -8.5625 -8.56152 -8.5625l-249.775 0.0322266
c-4.72852 0 -8.56152 3.83301 -8.56152 8.5625c0 4.72852 3.83301 8.56152 8.56152 8.56152zM8.56152 357.345v0.000976562h400.565h0.00585938c4.72754 -0.00195312 8.55859 -3.83496 8.55664 -8.5625v-63.6768l85.748 -0.0322266h0.00585938
c4.72754 -0.00195312 8.55859 -3.83496 8.55664 -8.56152v-194.164c0 -30.3291 -24.4932 -55.1045 -54.6973 -55.6455c-0.331055 -0.0341797 -0.663086 -0.0507812 -0.996094 -0.0478516h-400.63c-30.6514 0 -55.6768 25.0283 -55.6768 55.6934v266.433v0.00585938
c0.00195312 4.72754 3.83496 8.55957 8.56152 8.55762zM17.124 340.221v0v-257.871c0 -21.4229 17.1494 -38.5693 38.5527 -38.5693h360.551c-9.66797 10.0254 -15.6621 23.6084 -15.6621 38.5693v257.871h-383.441zM417.689 267.982v0v-185.633
c0 -21.415 17.1943 -38.5693 38.6172 -38.5693c21.4238 0 38.5693 17.1465 38.5693 38.5693v185.601z" />
    <glyph glyph-name="uniF115" unicode="&#xf115;" 
d="M235.968 -63.7607c-63.251 4.1709 -121.855 26.5801 -155.929 59.6221c-14.1885 13.7588 -22.6133 27.2568 -26.3965 42.292l-1.1416 4.53906v34.7441v34.7451l1.06348 1.06348c1.02441 1.02539 1.12012 1.03613 2.70312 0.28125
c1.16406 -0.555664 2.61914 -2.21973 5.00781 -5.72852c13.8389 -20.3311 39.5547 -37.0977 75.5537 -49.2637c25.7041 -8.68652 52.3125 -13.8818 86.4775 -16.8867c13.4375 -1.18164 51.6709 -1.18457 65.4561 -0.00683594c46.4268 3.9707 84.1045 13.374 115.384 28.7949
c21.8232 10.7607 36.9297 22.876 46.9355 37.6475c2.19531 3.24121 3.6875 4.9502 4.77734 5.46875c1.51172 0.720703 1.63184 0.707031 2.64551 -0.307617l1.06348 -1.06348l0.140625 -32.834c0.155273 -36.2578 0.0507812 -37.9775 -2.83203 -46.6895
c-7.04688 -21.2969 -26.8516 -42.7959 -54.8809 -59.5791c-34.6152 -20.7275 -77.0508 -33.2822 -123.983 -36.6826c-6.02441 -0.43457 -36.1104 -0.547852 -42.0449 -0.15625v0zM246.24 96.75c-54.5645 1.31445 -103.492 11.791 -140.229 30.0244
c-24.6338 12.2266 -40.8779 26.3721 -48.7354 42.4424c-5.01953 10.2627 -4.73145 7.22949 -4.90332 51.8623c-0.131836 34.6006 -0.0673828 39 0.59668 40.0137c0.862305 1.31543 2.42676 1.47168 3.96094 0.397461c0.583008 -0.408203 2.38672 -2.50488 4.00781 -4.6582
c23.4951 -31.2275 85.1025 -53.1172 165.234 -58.7109c11.1064 -0.776367 48.4287 -0.772461 59.7217 0.00585938c80.4678 5.54102 142.304 27.6328 165.631 59.1768c3.76172 5.08789 5.98926 6.20312 7.57031 3.79004
c0.664062 -1.0127 0.730469 -5.44238 0.602539 -40.2529l-0.144531 -39.1143l-1.3125 -4.2041c-2.8623 -9.16406 -7.62598 -16.9561 -15.248 -24.9404c-26.5186 -27.7744 -80.3145 -47.7744 -145.155 -53.9648c-14.4512 -1.38086 -37.377 -2.20996 -51.5977 -1.86719v0z
M233.579 253.947c-15.9121 0.955078 -20.4258 1.28809 -28.4277 2.09863c-68.3457 6.93066 -124.033 28.2227 -144.255 55.1572c-3.41211 4.54395 -6.97266 12.0234 -7.8916 16.583c-1.05371 5.22266 -1.07812 45.2998 -0.03125 50.2451
c5.13867 24.25 42.7236 46.8008 98.8135 59.2881c29.9297 6.66309 60.2451 10.0156 95.8848 10.6045c66.8525 1.10449 129.77 -9.96582 170.328 -29.9697c23.4463 -11.5645 37.2207 -24.7158 40.8828 -39.0371c0.847656 -3.31152 0.921875 -5.42285 0.914062 -25.8652
c-0.00878906 -24.0439 -0.145508 -25.7002 -2.61133 -31.5547c-4.20215 -9.9873 -12.5146 -19.1611 -25.0928 -27.6973c-32.3154 -21.9316 -86.8564 -36.3545 -150.021 -39.6729c-8.24512 -0.432617 -42.1719 -0.558594 -48.4922 -0.179688v0z" />
    <glyph glyph-name="uniF10B" unicode="&#xf10b;" 
d="M255.984 407.178v0c69.1074 0 132.058 -20.25 178.668 -54.2158c46.6455 -33.9932 77.3467 -82.8574 77.3467 -137.766s-30.7021 -103.746 -77.3467 -137.734c-46.6113 -33.9639 -109.563 -54.2012 -178.669 -54.2012c-30.6318 0 -59.8994 4.14453 -87.1133 11.54
l-106.06 -41.457l-20.1338 -7.87793l-22.1514 -8.64258l8.6582 22.1357l7.8623 20.1338v0.0166016l26.9873 69.0127c-38.9854 33.1309 -64.0332 77.6133 -64.0332 127.072c0 54.9053 30.6748 103.771 77.3154 137.766c46.6045 33.9688 109.568 54.2178 178.669 54.2178z
M255.984 386.344c-65.0146 0 -123.846 -19.2158 -166.396 -50.2285c-42.5176 -30.9883 -68.7529 -73.7617 -68.7529 -120.919c0 -44.5908 23.5459 -85.165 62.0947 -115.694l6.03906 -4.78613l-2.7998 -7.16211l-28.9238 -74.0098l107.215 41.8955l3.27148 1.26953
l3.36816 -0.943359c26.3457 -7.47461 54.9062 -11.6709 84.8838 -11.6709c65.0225 0 123.839 19.1875 166.396 50.1973c42.5244 30.9854 68.7852 73.7471 68.7852 120.903s-26.2607 89.9297 -68.7852 120.919c-42.5586 31.0146 -101.375 50.2295 -166.396 50.2295z" />
    <glyph glyph-name="uniF144" unicode="&#xf144;" 
d="M261.182 328.037c127.075 0 250.818 -110.931 250.818 -136.037s-123.743 -136.037 -250.818 -136.037c-1.72754 0 -3.45508 0.0175781 -5.18164 0.0390625c-1.72656 -0.0234375 -3.4541 -0.0390625 -5.18164 -0.0390625c-127.075 0 -250.818 110.931 -250.818 136.037
s123.743 136.037 250.818 136.037c1.72754 0 3.45508 -0.0175781 5.18164 -0.0390625c1.72656 0.0234375 3.4541 0.0390625 5.18164 0.0390625zM256 83.418c59.9678 0 108.582 48.6143 108.582 108.582s-48.6143 108.582 -108.582 108.582
s-108.582 -48.6143 -108.582 -108.582s48.6143 -108.582 108.582 -108.582zM192.5 192c0 42.3333 21.1667 63.5 63.5 63.5c42.3333 0 63.5 -21.1667 63.5 -63.5s-21.1667 -63.5 -63.5 -63.5c-42.3333 0 -63.5 21.1667 -63.5 63.5z" />
    <glyph glyph-name="uniF11D" unicode="&#xf11d;" 
d="M423.773 348.844c12.5195 0 22.7041 -10.1826 22.7041 -22.6992v-215.675c0 -12.5156 -10.1816 -22.6982 -22.6973 -22.6982h-336.206c-12.5156 0 -22.6982 10.1826 -22.6992 22.6982v215.675c0 12.5166 10.1816 22.6992 22.6982 22.6992h336.2zM426.451 107.798v221.018
h-341.547v-221.018h341.547zM494.392 33.1562h-476.782c-7.19141 0 -12.5352 3.08691 -15.4551 8.93066c-2.09473 4.1875 -2.1543 8.23047 -2.1543 8.67676v12.5225h222.887v-10.1357h66.2275v10.1357h222.885v-12.5225c0 -0.446289 -0.0595703 -4.49121 -2.15234 -8.67676
c-2.92188 -5.8418 -8.2666 -8.93066 -15.4551 -8.93066z" />
    <glyph glyph-name="uniF117" unicode="&#xf117;" 
d="M29.9023 192v256h226.097h226.099v-256v-256h-226.099h-226.097v256zM451.829 192v225.731h-195.83h-195.828l-0.186523 -225.002c-0.102539 -123.752 -0.03125 -225.414 0.160156 -225.917c0.277344 -0.728516 39.8633 -0.875977 196.016 -0.728516l195.669 0.183594
v225.732zM118.153 74.2109v14.9521h136.752h136.752v-14.9521v-14.9521h-136.751h-136.753v14.9521zM118.153 134.382v15.3154h136.752h136.752v-15.3154v-15.3164h-136.751h-136.753v15.3164zM118.153 194.553v14.9521h136.752h136.752v-14.9521v-14.9521h-136.751
h-136.753v14.9521zM118.153 255.089v14.9521h136.752h136.752v-14.9521v-14.9521h-136.751h-136.753v14.9521zM118.153 315.259v15.3164h136.752h136.752v-15.3154v-15.3164h-136.751h-136.753c0 -0.000976562 0 15.3154 0 15.3154z" />
    <glyph glyph-name="uniF133" unicode="&#xf133;" 
d="M384.643 448v-512l-257.285 256z" />
    <glyph glyph-name="uniF116" unicode="&#xf116;" 
d="M52.0938 -63.5811c-8.5918 1.2627 -14.3643 6.52148 -16.334 14.8779c-0.583008 2.4707 -0.666016 32.1709 -0.672852 240.503c-0.00488281 159.821 0.143555 238.477 0.451172 240.1c0.644531 3.39746 2.72461 7.60742 4.95312 10.0244
c2.2041 2.39062 7.09277 4.9668 10.6953 5.63477c1.58691 0.293945 71.9443 0.446289 204.872 0.44043c218.309 -0.0078125 205.655 0.126953 210.373 -2.2627c4.8291 -2.44727 8.15723 -6.57812 9.64258 -11.9668c0.814453 -2.9541 0.838867 -10.0059 0.838867 -241.572
c0 -201.898 -0.0957031 -238.91 -0.623047 -240.999c-2.0459 -8.11426 -8.13086 -13.5879 -16.4385 -14.7881c-3.83887 -0.553711 -403.984 -0.545898 -407.758 0.00878906v0zM438.313 -30.8516c2.29199 0.855469 4.76074 3.32422 5.61621 5.61621
c0.587891 1.57617 0.682617 27.5518 0.791992 215.415c0.0810547 139.553 -0.03125 214.63 -0.321289 216.529c-0.544922 3.55957 -2.18066 6.07031 -4.98145 7.64062l-2 1.12207l-180.401 0.114258c-201.796 0.126953 -183.477 0.44043 -186.823 -3.19238
c-1.33301 -1.44531 -1.94922 -2.60352 -2.33008 -4.38086c-0.387695 -1.81055 -0.484375 -56.2197 -0.381836 -217.385c0.131836 -208.863 0.160156 -215.014 0.972656 -216.54c1.69238 -3.17188 3.70508 -4.68066 7.16309 -5.36719
c1.03027 -0.204102 82.6553 -0.341797 181.388 -0.305664c157.76 0.0576172 179.732 0.146484 181.308 0.733398v0zM142.79 87.1816v16.1562h113.095h113.094v-16.1562v-16.1553h-113.094h-113.095v16.1553v0zM142.79 194.891v16.1562h113.095h113.094v-16.1562v-16.1553
h-113.094h-113.095v16.1553v0zM142.79 307.985v16.1553h113.095h113.094v-16.1553v-16.1562h-113.094h-113.095v16.1562v0z" />
    <glyph glyph-name="uniF130" unicode="&#xf130;" 
d="M273.492 100.506h-34.8271v75.3867h-69.3555v34.3555h69.3555v75.3916h34.8271v-75.3916h69.3555v-34.3555h-69.3555v-75.3867zM203.57 87.165v-28.1299h-62.1318v-67.499h-31.0957v67.499h-62.1279v28.1299h62.1279v67.5068h31.0957v-67.5068h62.1318zM308.9 300.481
v28.1299h62.1338v67.8145h31.0947v-67.8145h62.1328v-28.1299h-62.1328v-67.1924h-31.0947v67.1924h-62.1338zM111.091 233.289v67.8018h-62.876v27.5322h62.876v67.8027h29.6055v-67.8027h62.874v-27.5322h-62.874v-67.8018h-29.6055zM469.838 205.94h42.1621v-25.7393
h-42.1621v-47.0762h-27.6514v47.0762h-42.1602v25.7393h42.1602v47.0811h27.6514v-47.0811zM269.904 59.3467v-47.0811h42.1621v-25.7383h-42.1621v-47.0762h-27.6514v47.0762h-42.1611v25.7383h42.1611v47.0811h27.6514zM242.253 324.653v47.0771h-42.1611v25.7383h42.1611
v47.0801h27.6514v-47.0801h42.1621v-25.7383h-42.1621v-47.0771h-27.6514zM69.8115 133.125h-27.6504v47.0762h-42.1611v25.7393h42.1611v47.0811h27.6504v-47.0811h42.1621v-25.7393h-42.1621v-47.0762zM402.129 154.672v-67.5068h62.1328v-28.1299h-62.1328v-67.499
h-31.0947v67.499h-62.1338v28.1299h62.1338v67.5068h31.0947z" />
    <glyph glyph-name="uniF107" unicode="&#xf107;" 
d="M431.95 320.543c5.73633 -3.0293 9.29297 -8.63672 9.29395 -14.6943v-297.5c0 -9.36523 -10.9482 -19.4238 -21.2021 -19.4238c-10.2637 0 -24.2607 5.64453 -24.2607 19.4238v276.276c0 5.65234 -0.124023 6.14844 -6.45117 9.45117
c-6.3584 3.30566 -214.084 114.475 -214.084 114.475c-3.20508 1.24316 -17.1699 4.92969 -35.8193 -4.83496c-17.6963 -9.2666 -27.3311 -19.332 -29.7803 -24.0898l216.45 -120.828c5.75684 -3.0293 9.29297 -8.63184 9.29297 -14.6885v-291.145
c0 -6.2334 -3.74121 -11.9697 -9.75781 -14.9268c-2.75 -1.36523 -5.78906 -2.03711 -8.81738 -2.03711c-3.55664 0 -7.15332 0.883789 -10.2031 2.78125c-5.67578 3.53613 -205.742 128.44 -218.953 136.545c-6.34766 3.8916 -13.7578 11.8369 -13.9551 17.7178
l-2.93652 277.193c0 5.33301 -0.609375 14.7686 7.63965 27.8193c18.4727 29.2178 82.791 62.416 115.404 45.2305z" />
    <glyph glyph-name="uniF126" unicode="&#xf126;" 
d="M183.093 -63.9482c-0.0166016 0.125 -11.4902 27.4336 -25.499 60.6855c-14.0088 33.2529 -25.3506 60.5957 -25.2002 60.7627c0.366211 0.410156 121.015 51.124 121.191 50.9424c0.0751953 -0.0791016 -5.17871 -13.1738 -11.6768 -29.0996
s-11.6631 -29.1006 -11.4775 -29.2773c0.18457 -0.175781 2.69824 -0.839844 5.58398 -1.47559c23.4893 -5.17578 46.6904 -4.14551 72.0918 3.20312c13.3818 3.87109 30.2021 11.2939 39.4688 17.4209c14.2109 9.39355 33.2549 28.7969 43.7861 44.6074
c22.2178 33.3613 28.751 72.5742 18.7314 112.427c-1.53613 6.1084 -4.29199 14.584 -6.14648 18.8965c-0.529297 1.23438 -0.802734 2.3877 -0.605469 2.56348c0.501953 0.449219 52.4473 22.3428 53.0117 22.3428c0.679688 0 6.18457 -17.1699 8.70508 -27.1494
c7.25684 -28.7412 8.9873 -57.9512 5 -84.4111c-5.3125 -35.252 -20.0771 -67.7402 -44.1592 -97.1641c-5.55762 -6.79102 -19.3203 -20.8174 -25.3936 -25.8818c-9.56641 -7.97559 -23.6709 -17.8984 -33.2588 -23.3975
c-43.0859 -24.7139 -97.5225 -30.998 -152.219 -17.5723c-3.88867 0.955078 -7.08496 1.7002 -7.10254 1.65723c-0.0185547 -0.0429688 -5.33398 -13.1172 -11.8125 -29.0527c-10.8193 -26.6113 -12.9414 -31.668 -13.0195 -31.0273v0zM55.1748 114.345
c-0.112305 0.188477 -1.47656 4.24316 -3.03027 9.01172c-12.2139 37.4707 -15.3203 73.1719 -9.34766 107.454c6.81152 39.0996 26.416 76.1855 56.1016 106.131c8.39453 8.46875 12.8154 12.3066 22.8145 19.8066c19.374 14.5312 35.8447 23.4033 55.8389 30.0771
c36.3975 12.1475 80.9111 13.0508 121.58 2.46582c2.46777 -0.642578 4.64258 -0.990234 4.83301 -0.773438c0.189453 0.216797 5.75293 13.6904 12.3623 29.9395s12.1348 29.5439 12.2773 29.5439c0.354492 0 51.2256 -120.977 50.9766 -121.226
c-0.515625 -0.515625 -121 -51.041 -121.108 -50.7881c-0.0693359 0.160156 5.11621 13.1455 11.5205 28.8574c6.40527 15.7119 11.6465 28.7686 11.6465 29.0156c0 1.01953 -15.0732 3.84668 -24.9346 4.67773c-10.4277 0.878906 -25.1855 0.0244141 -36.7217 -2.12305
c-15.5547 -2.89844 -35.0879 -9.83105 -48.7637 -17.3096c-6.1582 -3.36719 -8.29785 -4.80469 -14.1455 -9.50195c-34.3682 -27.6123 -54.0693 -60.9658 -58.9434 -99.7822c-0.898438 -7.14844 -0.75 -26.1045 0.260742 -33.5361
c1.69727 -12.4717 5.1416 -26.0557 8.96387 -35.3408c0.975586 -2.37109 1.73242 -4.34961 1.67773 -4.39453c-0.251953 -0.213867 -53.1152 -22.5469 -53.3691 -22.5469c-0.155273 -0.000976562 -0.37793 0.152344 -0.489258 0.341797v0z" />
    <glyph glyph-name="uniF13A" unicode="&#xf13a;" 
d="M404.622 134.532l-114.117 -11.5029l60.291 -162.583l-65.916 -24.4463l-60.291 162.595l-94.0312 -65.6855l0.885742 415.091z" />
    <glyph glyph-name="uniF122" unicode="&#xf122;" 
d="M512 -33.2803h-115.269v76.1025c0 37.1279 -11.1201 45.5898 -94.0801 87.1182c15.54 10.9512 21.1797 23.3848 21.1797 42.877c0 17.2217 -11.5996 11.5918 -16.6904 43.1064c-2.11914 13.0801 -12.3496 0.220703 -14.3096 30.0635
c0 11.8994 5.58008 14.8613 5.58008 14.8613s-2.83008 17.5957 -3.94043 31.1504c-1.37988 16.8848 8.5 60.4951 61.21 60.4951c52.7002 0 62.5908 -43.6104 61.21 -60.4951c-1.10938 -13.5547 -3.94922 -31.1504 -3.94922 -31.1504s5.58887 -2.96191 5.58887 -14.8613
c-1.95996 -29.8438 -12.2002 -16.9834 -14.3105 -30.0635c-5.09961 -31.5146 -16.6895 -25.8838 -16.6895 -43.1064c0 -28.6729 12.1396 -42.0625 50.1094 -57.9375c38.1006 -15.9199 58.6201 -26.2051 67.4307 -41.1699c5.91992 -10.0479 6.92969 -106.99 6.92969 -106.99z
M261.72 100.47c50.79 -21.2363 93.96 -41.8896 93.96 -63.8164v-69.9336h-355.68v93.2705c0 24.04 27.7197 34.0293 43.1504 40.4795c50.6299 21.165 66.8193 39.0205 66.8193 77.2402c0 22.9551 -15.46 15.457 -22.25 57.4854
c-2.81934 17.4297 -16.4697 0.285156 -19.0898 40.085c0 15.8613 7.4502 19.8047 7.4502 19.8047s-3.78027 23.4678 -5.25977 41.5352c-1.85059 22.5098 11.3398 80.6602 81.6094 80.6602c70.2803 0 83.46 -58.1504 81.6201 -80.6602
c-1.47949 -18.0674 -5.26953 -41.5352 -5.26953 -41.5352s7.4502 -3.94336 7.4502 -19.8047c-2.61035 -39.7998 -16.2705 -22.6553 -19.0801 -40.085c-6.79004 -42.0283 -22.25 -34.5303 -22.25 -57.4854c0 -38.2197 16.1797 -56.0752 66.8193 -77.2402z" />
    <glyph glyph-name="uniF10C" unicode="&#xf10c;" 
d="M148.48 135.68v0h179.199c1.74512 0 3.4707 0.180664 5.12012 0.520508v-46.6006c0 -28.1592 -23.04 -51.1992 -51.2002 -51.1992h-128l-76.7998 -76.8008v76.8008h-25.5996c-28.1602 0 -51.2002 23.04 -51.2002 51.1992v153.601
c0 28.1602 23.04 51.2002 51.2002 51.2002h97.2803v-158.721zM460.8 422.4c28.1602 0 51.2002 -23.04 51.2002 -51.2002v-153.601c0 -28.1592 -23.04 -51.1992 -51.2002 -51.1992h-25.5996v-76.8008l-76.7998 76.8008h-179.2v204.8c0 28.1602 23.04 51.2002 51.2002 51.2002
h230.399z" />
    <glyph glyph-name="uniF114" unicode="&#xf114;" 
d="M-0 100.839v73.6787h74.0938h74.0938v-73.6777v-73.6777h-74.0938h-74.0938c0 -0.000976562 0 73.6768 0 73.6768zM182.321 100.839v73.6787h73.6787h73.6777v-73.6777v-73.6777h-73.6777h-73.6787v73.6768v0zM363.812 100.839v73.6787h74.0938h74.0947v-73.6777
v-73.6777h-74.0947h-74.0938v73.6768zM-0 282.745v74.0938h74.0938h74.0938v-74.0938v-74.0947h-74.0938h-74.0938v74.0947zM182.321 282.745v74.0938h73.6787h73.6777v-74.0938v-74.0947h-73.6777h-73.6787v74.0947v0zM363.812 282.745v74.0938h74.0938h74.0947v-74.0938
v-74.0947h-74.0947h-74.0938v74.0947z" />
    <glyph glyph-name="uniF102" unicode="&#xf102;" 
d="M503.85 390.888c4.47949 7.31152 8.15039 6.26074 8.15039 -2.31055v-400.332h-503.401c-8.55273 0 -11.1777 5.47363 -5.81543 12.1582l120.407 150.142c5.36133 6.68262 14.9307 7.42773 21.2646 1.6582l38.2451 -34.8721
c6.33398 -5.77051 15.3945 -4.64844 20.1299 2.49512l82.1016 123.832c4.73242 7.14746 13.7344 8.19922 19.9873 2.34668l58.4873 -54.75c6.25293 -5.85156 15.041 -4.66797 19.5205 2.64355z" />
    <glyph glyph-name="uniF110" unicode="&#xf110;" 
d="M506.846 112.918c3.22754 -2.35254 5.1543 -6.1416 5.1543 -10.1367c0 -2.6709 -0.832031 -5.22461 -2.40625 -7.38672c-1.97266 -2.70605 -4.88184 -4.4834 -8.19043 -5.00293c-3.31055 -0.518555 -6.62305 0.28125 -9.33008 2.25488l-236.073 170.191
l-236.174 -170.265c-2.72852 -1.94531 -6.04883 -2.71191 -9.35352 -2.15918s-6.19531 2.35938 -8.13867 5.08496c-1.52734 2.1377 -2.33398 4.65625 -2.33398 7.2832c0 4.04785 1.9668 7.86621 5.25879 10.2119l250.741 180.768z" />
    <glyph glyph-name="uniF10D" unicode="&#xf10d;" 
d="M5.1543 271.082c-3.22754 2.35254 -5.1543 6.14258 -5.1543 10.1367c0 2.6709 0.832031 5.22461 2.40625 7.38672c1.97266 2.70605 4.88184 4.4834 8.19043 5.00293c3.31055 0.518555 6.62305 -0.28125 9.33008 -2.25488l236.073 -170.191l236.174 170.266
c2.72852 1.94531 6.04883 2.71191 9.35352 2.15918s6.19531 -2.35938 8.13867 -5.08496c1.52734 -2.1377 2.33398 -4.65723 2.33398 -7.2832c0 -4.04785 -1.9668 -7.86621 -5.25879 -10.2119l-250.741 -180.769z" />
    <glyph glyph-name="uniF13D" unicode="&#xf13d;" 
d="M511.767 302.03c2.49902 -25.4014 -15.377 -48.0547 -40.3018 -51.8916l-88.8447 -121.639c3.53906 -6.6748 5.56055 -14.2773 5.56055 -22.3584c0 -26.4141 -21.4131 -47.8271 -47.8281 -47.8271c-26.4131 0 -47.8271 21.4121 -47.8271 47.8271
c0 5.82617 1.09375 11.3848 3.00098 16.5479l-123.448 45.5449l-76.6904 -76.5557c0.172852 -1.65332 0.268555 -3.33008 0.268555 -5.02832c0 -26.4141 -21.4141 -47.8281 -47.8281 -47.8281s-47.8281 21.4131 -47.8281 47.8281s21.4141 47.8281 47.8281 47.8271
c1.31152 0 2.59961 -0.0917969 3.88477 -0.195312l77.4492 77.3145c-3.73242 6.8125 -5.86035 14.6279 -5.86035 22.9434c0 26.4141 21.4141 47.8281 47.8281 47.8281s47.8281 -21.4131 47.8281 -47.8281c0 -6.13086 -1.19629 -11.9707 -3.29785 -17.3584l123.031 -45.3916
l80.3086 109.953c-1.19629 3.46875 -2.05469 7.10742 -2.42969 10.9199c-2.58691 26.2881 16.627 49.6953 42.915 52.2822s49.6943 -16.627 52.2812 -42.915z" />
  </font>
</defs>
</svg>
