<?xml version="1.0" encoding="utf-8"?>
<!-- Generator: Adobe Illustrator 17.0.2, SVG Export Plug-In . SVG Version: 6.00 Build 0)  -->
<!DOCTYPE svg PUBLIC "-//W3C//DTD SVG 1.1//EN" "http://www.w3.org/Graphics/SVG/1.1/DTD/svg11.dtd">
<svg version="1.1"
	 id="svg3436" xmlns:rdf="http://www.w3.org/1999/02/22-rdf-syntax-ns#" xmlns:dc="http://purl.org/dc/elements/1.1/" xmlns:cc="http://creativecommons.org/ns#" xmlns:svg="http://www.w3.org/2000/svg" xmlns:inkscape="http://www.inkscape.org/namespaces/inkscape" xmlns:sodipodi="http://sodipodi.sourceforge.net/DTD/sodipodi-0.dtd" inkscape:version="0.48.2 r9819" sodipodi:docname="New document 20"
	 xmlns="http://www.w3.org/2000/svg" xmlns:xlink="http://www.w3.org/1999/xlink" x="0px" y="0px" width="512px" height="512px"
	 viewBox="0 0 512 512" style="enable-background:new 0 0 512 512;" xml:space="preserve">
<sodipodi:namedview  pagecolor="#ffffff" fit-margin-left="0" bordercolor="#666666" inkscape:zoom="0.35" borderopacity="1.0" inkscape:cy="456.8814" showgrid="false" fit-margin-top="0" id="base" inkscape:cx="477.9749" inkscape:pageshadow="2" inkscape:window-height="424" fit-margin-bottom="0" inkscape:document-units="px" inkscape:current-layer="layer1" inkscape:window-y="61" fit-margin-right="0" inkscape:window-maximized="0" inkscape:pageopacity="0.0" inkscape:window-width="483" inkscape:window-x="200">
	</sodipodi:namedview>
<g id="layer1" transform="translate(102.9749,-75.480783)" inkscape:label="Layer 1" inkscape:groupmode="layer">
	<path id="path312" inkscape:connector-curvature="0" d="M73.99,576.171h109.736V391.754c0-9.884,0.725-19.691,3.628-26.721
		c7.956-19.767,25.995-40.181,56.294-40.181c39.756,0,55.593,30.297,55.593,74.658v176.661h109.785V386.824
		c0-101.429-54.117-148.615-126.373-148.615c-59.196,0-85.191,33.126-99.653,55.643h0.725v-47.887H73.989
		C75.44,276.965,73.989,576.171,73.99,576.171 M-41.602,200.892c38.23,0,62.073-25.395,62.073-57.044
		c-0.725-32.4-23.843-57.069-61.373-57.069c-37.554,0-62.073,24.669-62.073,57.069c0,31.65,23.818,57.044,60.647,57.044
		C-42.328,200.892-41.602,200.892-41.602,200.892z M13.216,245.977H-96.52v330.207H13.215L13.216,245.977L13.216,245.977z"/>
</g>
</svg>
