<?xml version="1.0" encoding="utf-8"?>
<!-- Generator: Adobe Illustrator 18.1.1, SVG Export Plug-In . SVG Version: 6.00 Build 0)  -->
<svg version="1.1" id="Layer_1" xmlns="http://www.w3.org/2000/svg" xmlns:xlink="http://www.w3.org/1999/xlink" x="0px" y="0px"
	 viewBox="-292 388.8 21.1 21.2" enable-background="new -292 388.8 21.1 21.2" xml:space="preserve">
<g>
	<g>
		<path d="M-273.5,391.4c-3.5-3.5-9.1-3.5-12.6,0c-3.3,3.3-3.5,8.5-0.6,12c0,0,0,0,0,0l-5,5c-0.3,0.3-0.3,0.9,0,1.3
			c0.2,0.2,0.4,0.3,0.6,0.3s0.5-0.1,0.6-0.3l5-5c0,0,0,0,0,0c3.5,2.9,8.7,2.7,11.9-0.6C-270,400.6-270,394.9-273.5,391.4z
			 M-274.7,402.8c-2.8,2.8-7.3,2.8-10.1,0c-2.8-2.8-2.8-7.3,0-10.1c2.8-2.8,7.3-2.8,10.1,0C-271.9,395.5-271.9,400-274.7,402.8z"/>
	</g>
</g>
</svg>
