<?xml version="1.0" encoding="utf-8"?>
<!-- Generator: Adobe Illustrator 16.0.4, SVG Export Plug-In . SVG Version: 6.00 Build 0)  -->
<!DOCTYPE svg PUBLIC "-//W3C//DTD SVG 1.1//EN" "http://www.w3.org/Graphics/SVG/1.1/DTD/svg11.dtd">
<svg version="1.1" id="Layer_1" xmlns="http://www.w3.org/2000/svg" xmlns:xlink="http://www.w3.org/1999/xlink" x="0px" y="0px"
	 width="25.994px" height="26.017px" viewBox="0 0 25.994 26.017" enable-background="new 0 0 25.994 26.017" xml:space="preserve">
<g>
	<g>
		<path d="M22.785,3.211c-4.276-4.281-11.214-4.281-15.492,0c-4.018,4.022-4.26,10.393-0.729,14.7
			c-0.014,0.013-0.032,0.017-0.045,0.03l-6.197,6.203c-0.428,0.43-0.428,1.123,0,1.551c0.214,0.213,0.494,0.321,0.774,0.321
			s0.561-0.108,0.774-0.321l6.197-6.201c0.014-0.014,0.018-0.032,0.031-0.047c4.303,3.535,10.669,3.294,14.687-0.729
			C27.064,14.436,27.064,7.493,22.785,3.211z M21.236,17.168c-3.422,3.426-8.972,3.426-12.395,0c-3.422-3.426-3.422-8.979,0-12.406
			c3.423-3.426,8.973-3.426,12.395,0C24.659,8.188,24.659,13.742,21.236,17.168z"/>
	</g>
</g>
</svg>
