<?xml version="1.0" encoding="utf-8"?>
<!-- Generator: Adobe Illustrator 17.0.2, SVG Export Plug-In . SVG Version: 6.00 Build 0)  -->
<!DOCTYPE svg PUBLIC "-//W3C//DTD SVG 1.1//EN" "http://www.w3.org/Graphics/SVG/1.1/DTD/svg11.dtd">
<svg version="1.1"
	 id="svg3571" xmlns:rdf="http://www.w3.org/1999/02/22-rdf-syntax-ns#" xmlns:dc="http://purl.org/dc/elements/1.1/" xmlns:cc="http://creativecommons.org/ns#" xmlns:svg="http://www.w3.org/2000/svg" xmlns:inkscape="http://www.inkscape.org/namespaces/inkscape" xmlns:sodipodi="http://sodipodi.sourceforge.net/DTD/sodipodi-0.dtd" inkscape:version="0.48.2 r9819" sodipodi:docname="New document 29"
	 xmlns="http://www.w3.org/2000/svg" xmlns:xlink="http://www.w3.org/1999/xlink" x="0px" y="0px" width="512px" height="512px"
	 viewBox="0 0 512 512" style="enable-background:new 0 0 512 512;" xml:space="preserve">
<sodipodi:namedview  pagecolor="#ffffff" fit-margin-left="0" bordercolor="#666666" inkscape:zoom="0.35" borderopacity="1.0" inkscape:cy="487.13645" showgrid="false" fit-margin-top="0" id="base" inkscape:cx="491.5878" inkscape:pageshadow="2" inkscape:window-height="424" fit-margin-bottom="0" inkscape:document-units="px" inkscape:current-layer="layer1" inkscape:window-y="20" fit-margin-right="0" inkscape:window-maximized="0" inkscape:pageopacity="0.0" inkscape:window-width="483" inkscape:window-x="66">
	</sodipodi:namedview>
<g id="layer1" transform="translate(116.5878,-45.224368)" inkscape:label="Layer 1" inkscape:groupmode="layer">
	<path id="path264" inkscape:connector-curvature="0" d="M82.083,47.542c-13.674,0-27.042,1.397-39.952,4.052
		c-3.228,0.664-6.432,1.41-9.602,2.229s-6.3,1.715-9.406,2.685C10.697,60.39-1.209,65.463-12.467,71.595
		c-2.815,1.533-5.601,3.138-8.332,4.801c-8.193,4.989-15.989,10.549-23.353,16.632c-2.455,2.028-4.871,4.108-7.226,6.249
		s-4.65,4.341-6.9,6.591c-6.749,6.75-13.017,13.99-18.747,21.644c-3.82,5.103-7.399,10.388-10.725,15.851
		c-1.663,2.731-3.268,5.501-4.801,8.316c-1.533,2.815-2.995,5.666-4.394,8.56c-4.195,8.683-7.765,17.726-10.676,27.047
		c-2.911,9.321-5.16,18.927-6.672,28.772c-0.504,3.282-0.929,6.595-1.27,9.927c-0.341,3.331-0.593,6.68-0.765,10.057
		c-0.172,3.377-0.26,6.769-0.26,10.187c0,3.418,0.088,6.827,0.26,10.204c0.172,3.377,0.424,6.726,0.765,10.057
		c0.34,3.332,0.766,6.645,1.27,9.927c1.008,6.564,2.349,13.027,3.987,19.366c0.819,3.169,1.715,6.299,2.685,9.406
		c0.97,3.107,2.008,6.187,3.125,9.227s2.304,6.046,3.564,9.015s2.589,5.91,3.987,8.804c1.398,2.894,2.862,5.745,4.394,8.56
		c1.533,2.815,3.138,5.585,4.801,8.316c3.325,5.463,6.904,10.764,10.725,15.867c1.91,2.552,3.88,5.047,5.908,7.502
		s4.108,4.871,6.249,7.226c2.14,2.355,4.342,4.65,6.591,6.9c2.25,2.25,4.546,4.449,6.9,6.591c2.354,2.141,4.771,4.221,7.226,6.249
		c2.455,2.028,4.951,4.013,7.502,5.924c5.102,3.821,10.389,7.398,15.85,10.725c2.731,1.663,5.501,3.268,8.316,4.801
		c2.815,1.533,5.683,2.995,8.576,4.394c14.469,6.994,29.9,12.287,46.038,15.607c12.911,2.656,26.277,4.052,39.952,4.052
		c44.088,0,84.892-14.52,117.92-38.992l147.505,141.012c11.226,10.847,29.118,10.54,39.965-0.685
		c10.847-11.225,10.54-29.118-0.685-39.965c-0.074-0.071-0.148-0.142-0.223-0.213l-146.35-139.873
		c0.323-0.424,0.673-0.826,0.993-1.253c1.911-2.552,3.76-5.151,5.549-7.795c1.789-2.644,3.528-5.34,5.191-8.072
		c3.326-5.463,6.398-11.087,9.195-16.876c1.399-2.894,2.727-5.835,3.987-8.804c1.26-2.969,2.447-5.975,3.564-9.015
		c1.118-3.041,2.154-6.12,3.125-9.227c0.97-3.107,1.866-6.237,2.685-9.406c1.638-6.339,2.979-12.802,3.987-19.366
		c0.504-3.282,0.929-6.595,1.27-9.927c0.614-6.01,0.915-12.107,0.976-18.259c0-0.005,0-0.011,0-0.016
		c0.04-0.661,0.056-1.323,0.049-1.985c0-3.419-0.088-6.81-0.26-10.187c-0.345-6.754-1.026-13.421-2.034-19.984
		c-0.504-3.282-1.094-6.537-1.758-9.764c-0.664-3.228-1.41-6.432-2.229-9.602c-2.457-9.509-5.594-18.741-9.374-27.649
		c-7.561-17.816-17.663-34.319-29.83-49.049c-2.028-2.455-4.108-4.855-6.249-7.209c-4.282-4.709-8.782-9.225-13.491-13.507
		c-14.129-12.845-30.104-23.684-47.47-32.076c-5.789-2.797-11.738-5.316-17.82-7.551c-3.041-1.118-6.12-2.171-9.227-3.141
		c-3.107-0.97-6.253-1.866-9.423-2.685c-3.17-0.819-6.357-1.566-9.585-2.229c-9.685-1.991-19.632-3.275-29.765-3.792
		C88.893,47.631,85.503,47.543,82.083,47.542L82.083,47.542z M82.083,104.078c49.295,0,92.504,24.724,117.985,62.524
		c1.274,1.89,2.51,3.823,3.694,5.777c13.023,21.492,20.505,46.747,20.505,73.85c0,4.928-0.249,9.802-0.732,14.597
		c-0.242,2.398-0.537,4.768-0.895,7.128c-4.295,28.319-16.876,53.838-35.2,74.013c-0.034,0.037-0.064,0.077-0.098,0.114
		c-4.97,2.57-9.064,6.557-11.766,11.457c-23.237,20.242-53.152,33.037-86.154,34.696c-2.433,0.122-4.875,0.195-7.34,0.195
		c-4.927,0-9.803-0.249-14.597-0.732c-4.795-0.483-9.52-1.205-14.158-2.148c-13.914-2.829-27.068-7.677-39.155-14.223
		c-2.014-1.091-4.003-2.234-5.956-3.417c-1.953-1.184-3.871-2.403-5.761-3.678c-1.89-1.274-3.743-2.593-5.566-3.955
		c-1.823-1.362-3.617-2.769-5.37-4.215c-3.506-2.892-6.863-5.951-10.074-9.162c-1.605-1.605-3.177-3.25-4.703-4.931
		c-3.053-3.363-5.952-6.882-8.674-10.529c-2.722-3.647-5.265-7.418-7.632-11.327c-1.184-1.954-2.327-3.941-3.417-5.956
		c-1.09-2.015-2.13-4.062-3.125-6.135s-1.936-4.17-2.832-6.298c-0.896-2.128-1.745-4.296-2.539-6.477s-1.54-4.378-2.229-6.607
		c-0.689-2.23-1.322-4.478-1.904-6.754c-1.163-4.552-2.116-9.194-2.832-13.914c-0.358-2.36-0.654-4.747-0.895-7.144
		c-0.242-2.398-0.415-4.81-0.537-7.242c-0.122-2.432-0.195-4.892-0.195-7.356s0.073-4.907,0.195-7.34s0.296-4.844,0.537-7.242
		c0.724-7.193,1.981-14.231,3.727-21.059c1.745-6.828,3.985-13.454,6.672-19.838c0.896-2.128,1.837-4.225,2.832-6.298
		c2.984-6.218,6.399-12.182,10.22-17.852c1.274-1.89,2.593-3.742,3.955-5.566c5.444-7.293,11.57-14.04,18.292-20.147
		c10.083-9.161,21.512-16.879,33.947-22.848c6.217-2.984,12.678-5.532,19.366-7.6c8.917-2.758,18.222-4.681,27.812-5.647
		c2.398-0.242,4.81-0.415,7.242-0.537C77.16,104.134,79.62,104.078,82.083,104.078z"/>
</g>
</svg>
