<?xml version="1.0" encoding="utf-8"?>
<!-- Generator: Adobe Illustrator 17.0.2, SVG Export Plug-In . SVG Version: 6.00 Build 0)  -->
<!DOCTYPE svg PUBLIC "-//W3C//DTD SVG 1.1//EN" "http://www.w3.org/Graphics/SVG/1.1/DTD/svg11.dtd">
<svg version="1.1"
	 id="svg4581" xmlns:rdf="http://www.w3.org/1999/02/22-rdf-syntax-ns#" xmlns:dc="http://purl.org/dc/elements/1.1/" xmlns:cc="http://creativecommons.org/ns#" xmlns:svg="http://www.w3.org/2000/svg" xmlns:inkscape="http://www.inkscape.org/namespaces/inkscape" xmlns:sodipodi="http://sodipodi.sourceforge.net/DTD/sodipodi-0.dtd" inkscape:version="0.48.2 r9819" sodipodi:docname="New document 96"
	 xmlns="http://www.w3.org/2000/svg" xmlns:xlink="http://www.w3.org/1999/xlink" x="0px" y="0px" width="512px" height="512px"
	 viewBox="0 0 512 512" style="enable-background:new 0 0 512 512;" xml:space="preserve">
<sodipodi:namedview  pagecolor="#ffffff" fit-margin-left="0" bordercolor="#666666" inkscape:zoom="0.35" borderopacity="1.0" inkscape:cy="227.38109" showgrid="false" fit-margin-top="0" id="base" inkscape:cx="489.44205" inkscape:pageshadow="2" inkscape:window-height="424" fit-margin-bottom="0" inkscape:document-units="px" inkscape:current-layer="layer1" inkscape:window-y="20" fit-margin-right="0" inkscape:window-maximized="0" inkscape:pageopacity="0.0" inkscape:window-width="483" inkscape:window-x="66">
	</sodipodi:namedview>
<g id="layer1" transform="translate(114.44205,-304.98109)" inkscape:label="Layer 1" inkscape:groupmode="layer">
	<path id="path4948" inkscape:connector-curvature="0" d="M-114.442,679.272c0-0.978,0.249-3.101,0.515-4.412
		c0.862-4.257,2.938-8.687,5.957-12.708c3.864-5.148,9.579-10.057,15.786-13.563c6.989-3.947,23.232-11.238,48.64-21.831
		c4.116-1.716,7.708-3.255,7.983-3.421c1.846-1.111,3.046-3.151,3.327-5.657c0.058-0.517,0.054-2.965-0.01-6.844l-0.1-6.039
		l-1.608-1.586c-1.808-1.783-3.49-3.692-4.886-5.545c-6.722-8.925-11.629-20.821-14.544-35.256
		c-1.562-7.735-2.452-15.253-2.914-24.628c-0.157-3.196-0.161-11.727-0.005-13.64c0.769-9.456,2.898-17.325,6.802-25.148
		c4.148-8.311,9.861-15.271,16.815-20.481c9.089-6.811,19.847-10.167,30.922-9.647c4.051,0.19,7.341,0.719,10.972,1.761
		c13.538,3.886,25.305,14.067,32.347,27.988c4.129,8.164,6.421,16.749,7.017,26.286c0.122,1.962,0.122,8.499,0,11.651
		c-1.092,27.993-7.918,50.143-19.631,63.701c-1.13,1.308-3.573,3.783-4.728,4.789l-0.538,0.469l-0.066,6.014
		c-0.074,6.661-0.059,6.901,0.532,8.427c0.526,1.362,1.583,2.663,2.721,3.351c0.298,0.18,2.608,1.188,5.135,2.239
		c7.728,3.216,12.074,5.043,12.144,5.104c0.037,0.032-0.453,0.288-1.089,0.569c-1.838,0.811-6.672,3.216-8.668,4.314
		c-3.553,1.953-6.48,3.758-12.474,7.691c-1.823,1.197-3.859,2.515-4.524,2.929c-3.455,2.154-7.113,5.081-10.111,8.09
		c-6.398,6.421-10.374,13.65-11.543,20.987c-0.215,1.353-0.39,3.176-0.391,4.095v0.592H-59.55h-54.891v-0.639L-114.442,679.272z
		 M18.073,679.069c0-2.365,0.58-5.602,1.512-8.441c2.543-7.744,8.601-15.482,17.054-21.783c1.688-1.258,4.439-3.063,6.204-4.071
		c1.675-0.956,8.45-4.371,11.556-5.824c10.879-5.09,25.426-11.404,45.656-19.819c3.438-1.43,6.539-2.769,6.89-2.977
		c1.226-0.723,2.352-2.046,2.981-3.503c0.653-1.51,0.72-1.937,0.761-4.87c0.02-1.459-0.005-4.695-0.054-7.193l-0.091-4.541
		l-0.649-0.565c-1.199-1.043-4.625-4.55-5.66-5.794c-9.926-11.917-16.57-28.778-19.799-50.25c-1.869-12.43-2.55-28.316-1.612-37.651
		c0.755-7.515,2.644-14.883,5.61-21.881c0.891-2.103,2.828-5.962,3.946-7.862c5.715-9.714,13.259-17.399,22.266-22.683
		c1.732-1.016,5.307-2.772,7.124-3.5c9.052-3.623,19.054-4.693,28.775-3.077c14.625,2.431,27.931,11.17,37.267,24.477
		c6.973,9.938,11.341,21.88,12.647,34.574c0.333,3.237,0.383,4.531,0.376,9.709c-0.017,11.829-0.944,22.589-2.841,32.99
		c-3.212,17.61-8.896,31.966-16.84,42.524c-1.797,2.388-3.417,4.244-5.567,6.379l-1.867,1.853l-0.115,6.286
		c-0.063,3.457-0.092,6.844-0.063,7.525c0.075,1.762,0.462,3.134,1.284,4.545c0.433,0.743,1.601,1.953,2.33,2.413
		c0.675,0.426,0.526,0.361,8.078,3.505c27.211,11.328,46.163,19.775,54.539,24.31c12.202,6.607,21.333,16.35,24.77,26.434
		c0.967,2.836,1.485,5.48,1.581,8.065l0.057,1.539H142.126H18.073V679.069L18.073,679.069z M287.715,678.419
		c-0.329-8.116-4.327-16.439-11.377-23.684c-3.475-3.571-6.782-6.194-11.751-9.323c-0.781-0.492-2.913-1.876-4.736-3.074
		c-4.23-2.782-6.313-4.077-9.377-5.831c-2.517-1.441-7.961-4.215-10.306-5.251l-1.308-0.577l1.165-0.494
		c0.641-0.271,4.384-1.836,8.317-3.478s7.397-3.114,7.698-3.273c1.576-0.834,2.91-2.749,3.327-4.774
		c0.248-1.205,0.26-1.772,0.156-7.469l-0.104-5.683l-0.732-0.655c-1.198-1.072-3.514-3.433-4.559-4.65
		c-5.241-6.096-9.657-14.228-12.857-23.68c-3.795-11.209-5.921-23.539-6.679-38.741c-0.18-3.615-0.155-12.008,0.042-14.256
		c0.808-9.194,3.025-17.173,6.893-24.817c6.353-12.554,16.412-22.058,28.221-26.664c9.139-3.564,19.229-4.207,28.796-1.834
		c10.898,2.703,20.904,9.553,28.273,19.357c2.22,2.954,3.94,5.731,5.688,9.188c4.081,8.07,6.347,16.584,6.958,26.142
		c0.124,1.937,0.124,8.357,0,11.605c-0.927,24.391-6.254,44.486-15.441,58.254c-2.143,3.212-4.213,5.744-6.798,8.318l-1.743,1.735
		l-0.093,4.564c-0.051,2.51-0.075,5.544-0.053,6.742c0.037,2.034,0.057,2.235,0.297,3.026c0.42,1.388,0.923,2.254,1.851,3.19
		c0.59,0.594,0.993,0.909,1.482,1.154c0.369,0.186,3.247,1.41,6.394,2.721c22.721,9.467,36.753,15.657,45.742,20.18
		c3.431,1.727,5.366,2.811,7.306,4.095c11.622,7.693,18.665,18.036,19.09,28.032l0.06,1.397h-54.891h-54.891L287.715,678.419
		L287.715,678.419z"/>
</g>
</svg>
