<svg xmlns="http://www.w3.org/2000/svg" width="512" height="512" viewBox="0 0 512 512"><defs><style>.a{fill:#010101;}</style></defs><title>Master_Icons2</title><path class="a" d="M205.5,162.4H491.6V452.4H101.1V295.8L79.7,275V473.7H513V113.9H205.5v48.5Zm253.4-30.2a7.4,7.4,0,0,1,7.4-7.4h5.2a7.4,7.4,0,0,1,7.4,7.4v11.9a7.4,7.4,0,0,1-7.4,7.4h-5.2a7.4,7.4,0,0,1-7.4-7.4V132.2Zm-38.4,0a7.4,7.4,0,0,1,7.4-7.4h5.2a7.4,7.4,0,0,1,7.4,7.4v11.9a7.4,7.4,0,0,1-7.4,7.4h-5.2a7.4,7.4,0,0,1-7.4-7.4V132.2Zm-38.4,0a7.4,7.4,0,0,1,7.4-7.4h5.2a7.4,7.4,0,0,1,7.4,7.4v11.9a7.4,7.4,0,0,1-7.4,7.4h-5.2a7.4,7.4,0,0,1-7.4-7.4V132.2Z"/><path class="a" d="M445.8,209.5V438.4H400.4V209.5h45.3ZM319.5,438.4h45.3V310.7H319.5V438.4Zm-84.1,0h45.3V230.1H235.5V438.4Zm-91.5,0h45.3V313.8H144V438.4Z"/><path class="a" d="M142.8,54.8H49.5A48.8,48.8,0,0,0,.9,103.5V210.2a48.8,48.8,0,0,0,48.6,48.6H93.4l55.3,51.8V258.9h1.5c26.7,0,41.2-21.9,41.2-48.6V103.5A48.8,48.8,0,0,0,142.8,54.8ZM106.4,83.6l-2.1,103.1H87.9L85.8,83.6h20.6ZM96.1,223.2a11.6,11.6,0,1,1,11.6-11.6A11.6,11.6,0,0,1,96.1,223.2Z"/></svg>