<svg xmlns="http://www.w3.org/2000/svg" width="512" height="512" viewBox="0 0 512 512"><title>Master_Icons</title><path d="M449.3,113L339.6,0.8H63.7a0.7,0.7,0,0,0-.7.7V508.3H449.4V113h-0.2Zm-38.6,0H339.5V40.3Zm11.2,365.6H90.6V27.5a0.7,0.7,0,0,1,.7-0.7h223v111H421.8V478.7Zm-34.6-177c-5.2-19.1-63.3-11-75.3-9.4-44.3-49.5-49.7-72.5-58.4-87.6,8.5-27.8,9.4-47.4,9.6-65.4S247.2,113,239.4,113s-24.5,4.6-24.5,28,11.5,54.2,18.2,65.1c-20.8,79.2-45.8,125-45.8,125-53,29.3-63.5,40.3-68.7,55.2-6,17.1,12,41.7,34.9,30.7s43.7-55.2,49.5-69.3c56.2-24,83.4-29.2,102.6-33.8,15.1,13,43.6,33.4,61.5,24.5S389.4,313.2,387.2,301.7Zm-236,94.7c-9.3,7.5-16.5,3.6-14.1-7.2s36.2-27.9,36.2-27.9S161.4,388.2,151.2,396.3Zm91.5-255.4c0.1,19.9-2.8,32.2-2.8,32.2s-4.6-13.1-5.5-32.2C233.9,129.5,242.6,125.5,242.7,140.9ZM214.5,319.6c6.8-10.9,30.7-88.9,30.7-88.9,8.3,13.5,35.9,55.9,46.3,66.3C271.4,299.7,227.3,313.8,214.5,319.6Zm151.1-3.1c-1.2,1.2-6.3,7.3-17,3.1a50.1,50.1,0,0,1-17.3-11.4s23.9-3.5,33.2-.5C370.2,309.6,366.8,315.3,365.6,316.5Z"/></svg>