<svg xmlns="http://www.w3.org/2000/svg" width="512" height="512" viewBox="0 0 512 512"><defs><style>.a{fill:none;}</style></defs><title>Master_Icons</title><polygon class="a" points="208.3 280.9 328.7 280.9 456.6 98.1 29.6 98.1 29.6 245.3 99.5 198.9 208.3 280.9"/><polygon class="a" points="31.8 280.9 157.3 280.9 98.7 236.5 31.8 280.9"/><polygon class="a" points="308.4 309.8 246.5 309.8 286.9 340.4 308.4 309.8"/><polygon class="a" points="365.6 280.9 484.5 280.9 483.4 112.4 365.6 280.9"/><polygon class="a" points="293.3 384 195 309.8 30.6 309.8 30.6 429.4 484.5 429.4 484.5 309.8 345.6 309.8 293.3 384"/><path d="M0,68.8V461.6H512V68.8H0ZM29.6,98.1H456.6l-128,182.8H208.3l-108.8-82-70,46.4V98.1ZM308.4,309.8l-21.5,30.6-40.4-30.6h61.9ZM157.3,280.9H31.8l66.9-44.4ZM484.5,429.4H30.6V309.8H195L293.3,384l52.3-74.2H484.5V429.4ZM365.6,280.9L483.4,112.4l1.1,168.4H365.6Z"/></svg>