<svg xmlns="http://www.w3.org/2000/svg" width="7.1in" height="5.5in" viewBox="0 0 512 392.8">
  <defs>
    <style>
      .a {
        fill: none;
      }
    </style>
  </defs>
  <title>alliance</title>
  <polygon class="a" points="208.3 212.1 328.7 212.1 456.6 29.3 29.6 29.3 29.6 176.5 99.5 130.1 208.3 212.1"/>
  <polygon class="a" points="31.8 212.1 157.3 212.1 98.7 167.7 31.8 212.1"/>
  <polygon class="a" points="308.4 241 246.5 241 286.9 271.6 308.4 241"/>
  <polygon class="a" points="365.6 212.1 484.5 212.1 483.4 43.6 365.6 212.1"/>
  <polygon class="a" points="293.3 315.2 195 241 30.6 241 30.6 360.6 484.5 360.6 484.5 241 345.6 241 293.3 315.2"/>
  <path d="M0,68.8V461.6H512V68.8H0ZM29.6,98.1h427l-128,182.8H208.3l-108.8-82-70,46.4V98.1h0.1ZM308.4,309.8l-21.5,30.6-40.4-30.6h61.9ZM157.3,280.9H31.8l66.9-44.4ZM484.5,429.4H30.6V309.8H195L293.3,384l52.3-74.2H484.5V429.4ZM365.6,280.9L483.4,112.4l1.1,168.4H365.6Z" transform="translate(0 -68.8)"/>
</svg>
