<svg xmlns="http://www.w3.org/2000/svg" width="512" height="512" viewBox="0 0 512 512"><defs><style>.a{fill:#010101;}</style></defs><title>Master_Icons2</title><path class="a" d="M423.4,374.2l0.9-1.7h-2.9l-36.7-31h52.4a205.5,205.5,0,0,0,8.5-39.6,41.4,41.4,0,0,0,32.2-14.7,236.5,236.5,0,0,1-30,107.5ZM153.2,322.3l9.8-2.8c-1.1-13-1.7-26.6-1.7-40.8,0-11.2.4-22.1,1.1-32.6a41.1,41.1,0,0,1-31-.6c-0.7,10.8-1.1,21.9-1.1,33.2q0,12.8.6,25.3A41.2,41.2,0,0,1,153.2,322.3ZM327.6,91.4A208.2,208.2,0,0,1,419.5,176H339.1a340.6,340.6,0,0,0-16.6-54.3l-2.4,97.6a73.7,73.7,0,0,1,27.4,10.8c-0.7-7.8-1.7-15.5-2.8-23h89.3q2.3,6.3,4.2,12.7a41.4,41.4,0,0,1,34.3,8.8A238.2,238.2,0,0,0,353.1,69.4,41.3,41.3,0,0,1,327.6,91.4Zm84.8,301.3a207.7,207.7,0,0,1-111.3,83.6c17.5-25.4,31.4-61.4,39.8-103.8h47.7l-30.9-26.1a74.1,74.1,0,0,1-62,19l-2.2,7.2h15.9c-5.1,23.5-11.8,43.8-19.5,60.5a41.1,41.1,0,0,1-69.3,44c-18.8-15.6-38.5-52.2-49.8-104.4H271.3l4.2-13.4A74.3,74.3,0,0,1,252,341.5H165.4v-0.6l-6.6,1.8c0,1.3-.1,2.7-0.2,4.1a41.1,41.1,0,0,1-18.4,30.6c8.5,40.2,22,74.5,38.8,98.9A207.8,207.8,0,0,1,55.8,372.5H89a41.1,41.1,0,0,1-12.5-31H43a206.9,206.9,0,0,1,3-134.4h60.5c0-1.1.1-2.1,0.2-3.2A41,41,0,0,1,121.3,176H60.5a207.8,207.8,0,0,1,118.4-95c-14.9,21.7-27.2,51.2-35.8,85.7a41.2,41.2,0,0,1,29.8,8.5C188.9,110.2,217.9,71.9,240,71.9c19.4,0,44,29.3,60.5,80.3l1.5-61.5a41.1,41.1,0,0,1-26.5-47.2A239.7,239.7,0,0,0,240,40.9C108.7,40.9,2.2,147.3,2.2,278.7S108.7,516.5,240,516.5A237.6,237.6,0,0,0,436.4,412.9ZM300,176H173.9a41.1,41.1,0,0,1,14.9,31H299.2ZM284.8,455.3a31,31,0,0,0-13.6-28.6l23-74.2a61.9,61.9,0,0,0,57.9-17.2l103.4,87.4a31.1,31.1,0,1,0,6.5-9l-102.9-87a61.7,61.7,0,0,0,10.5-37.2l49-13.8a30.9,30.9,0,1,0-3.6-10.4l-46.8,13.2A62,62,0,0,0,314,230.4L317.8,83a31,31,0,1,0-11-1.5l-3.9,148.8a61.8,61.8,0,0,0-46.1,26.5l-79.4-40.6a31,31,0,1,0-5,9.8l79,40.4a61.7,61.7,0,0,0-5.5,28.9c0.1,2.1.3,4.1,0.6,6.2L146.3,329.6a31.1,31.1,0,1,0,3,10.6l99.9-28.1a62.1,62.1,0,0,0,34.6,37.1L261,422.3A31,31,0,1,0,284.8,455.3Z"/></svg>