<svg xmlns="http://www.w3.org/2000/svg" width="512" height="512" viewBox="0 0 512 512"><defs><style>.a{fill:#010101;}</style></defs><title>Master_Icons2</title><path class="a" d="M371.4,357.3h-268V327.8h268v29.5Zm-268-82.3v29.5H317.7V275.1H103.5Zm0-54.8v29.5H368.1V220.3H103.5Zm0-59.6v29.5H316.8V160.6H103.5ZM421.2,353.3V410H409.3V353.3h11.9Zm21.2-38.2H430.5V410h11.9V315.2Zm22-42.3H452.6V410h11.9V272.9Zm24,31.5H476.5V410h11.9V304.4ZM512,447V258.3c0-12.8-1.1-15.9-11.2-15.9H462.4V122.8c0-22.3-7.9-22.3-33-22.3L39.1,99.8c-34,0-38.1,0-38.1,40.7V377.2c0,41.6,3.7,40.7,38.1,40.7H388V447c0,16.4,0,18.4,19.7,18.4h84.8C512.5,465.4,512,463.6,512,447ZM37.3,274.9A15.7,15.7,0,1,1,53,259.2,15.7,15.7,0,0,1,37.3,274.9ZM71.3,394.8v-272H436.7V242.3H399.1c-10.8,0-10.8,3.8-10.8,15.9L388,394.8H71.3Zm378.8,60.5a7.6,7.6,0,1,1,7.6-7.6A7.6,7.6,0,0,1,450.2,455.2Zm50.7-23.9H399.1V254.8H500.8V431.4Z"/></svg>