<svg id="Layer_1" data-name="Layer 1" xmlns="http://www.w3.org/2000/svg" viewBox="0 0 421.04 502.99"><title>Apple_Icon</title><path id="path3050" d="M175.66,507.27c-29-2.66-57.47-28.63-85.78-78.3-30-52.59-44.41-102.1-44.41-152.32,0-52.19,14.88-94.27,43.82-123.82,13.68-14,28.34-23,45.6-28.08a101.48,101.48,0,0,1,30.61-4.11A134.42,134.42,0,0,1,193,123.4c8.64,1.63,14,3,31.6,7.89,14,3.92,24,6.21,31,7.13,9.67,1.27,21.72-1.15,46.5-9.33,13.53-4.46,20.89-6.52,29.39-8.22a120,120,0,0,1,22.65-2.61c27.58-.58,52.46,7.69,73,24.29a175.08,175.08,0,0,1,23,23,10.08,10.08,0,0,1,1.82,2.56c-14.34,12.27-24.91,23-32,32.42a109.89,109.89,0,0,0-18.43,37.58A104.39,104.39,0,0,0,398,263.64a115.64,115.64,0,0,0,19.56,68.06c1,1.51,3,4.32,4.46,6.25,12.7,16.85,26.79,27.81,42.43,33a8.28,8.28,0,0,1,2.06.86c0,0.38-2.9,8.86-4.36,12.73-7.67,20.39-19.07,42.25-33,63.28-19.84,29.92-39.55,48.36-59.38,55.53a50.75,50.75,0,0,1-18.31,3.18c-9.81,0-21-2.41-37.26-8-22.22-7.56-28.83-9.3-41.28-10.88a104.42,104.42,0,0,0-18,0c-11.08,1.46-21.8,4.43-34.56,9.59A165.5,165.5,0,0,1,198,505c-8.55,2.19-15.62,2.91-22.33,2.3h0v0ZM252.17,122.7c1-27.25,8.15-50.77,21.62-71.18C287.06,31.39,308.42,16.81,337.55,8c4.39-1.33,12.59-3.48,13.26-3.48,0.34,0,.39.15,1.06,2.86,0.72,2.9.87,4.68,0.86,10.16a77.42,77.42,0,0,1-1.27,14.92,133.35,133.35,0,0,1-10,31.78C330,89,306.75,112.53,285.58,120.82c-4.94,1.93-12.53,3.52-22.92,4.78-3,.36-9.86,1.06-10.46,1.07a19.16,19.16,0,0,1,0-4h0Z" transform="translate(-45.47 -4.52)"/></svg>