<svg xmlns="http://www.w3.org/2000/svg" width="512" height="512" viewBox="0 0 512 512"><title>Master_Icons</title><path d="M175.7,507.3c-29-2.7-57.5-28.6-85.8-78.3-30-52.6-44.4-102.1-44.4-152.3,0-52.2,14.9-94.3,43.8-123.8,13.7-14,28.3-23,45.6-28.1a101.5,101.5,0,0,1,30.6-4.1,134.4,134.4,0,0,1,27.5,2.7c8.6,1.6,14,3,31.6,7.9,14,3.9,24,6.2,31,7.1,9.7,1.3,21.7-1.1,46.5-9.3,13.5-4.5,20.9-6.5,29.4-8.2a120,120,0,0,1,22.7-2.6c27.6-.6,52.5,7.7,73,24.3a175.1,175.1,0,0,1,23,23,10.1,10.1,0,0,1,1.8,2.6c-14.3,12.3-24.9,23-32,32.4a109.9,109.9,0,0,0-18.4,37.6,104.4,104.4,0,0,0-3.5,25.5,115.6,115.6,0,0,0,19.6,68.1c1,1.5,3,4.3,4.5,6.2,12.7,16.8,26.8,27.8,42.4,33l2.1,0.9c0,0.4-2.9,8.9-4.4,12.7-7.7,20.4-19.1,42.2-33,63.3-19.8,29.9-39.6,48.4-59.4,55.5a50.7,50.7,0,0,1-18.3,3.2c-9.8,0-21-2.4-37.3-8-22.2-7.6-28.8-9.3-41.3-10.9a104.4,104.4,0,0,0-18,0c-11.1,1.5-21.8,4.4-34.6,9.6A165.5,165.5,0,0,1,198,505c-8.6,2.2-15.6,2.9-22.3,2.3h0Zm76.5-384.6c1-27.2,8.2-50.8,21.6-71.2S308.4,16.8,337.5,8c4.4-1.3,12.6-3.5,13.3-3.5s0.4,0.2,1.1,2.9,0.9,4.7.9,10.2a77.4,77.4,0,0,1-1.3,14.9,133.3,133.3,0,0,1-10,31.8C330,89,306.8,112.5,285.6,120.8c-4.9,1.9-12.5,3.5-22.9,4.8l-10.5,1.1a19.2,19.2,0,0,1,0-4h0Z"/></svg>