<svg xmlns="http://www.w3.org/2000/svg" width="7.1in" height="7.1in" viewBox="0 0 512.9 512.8">
  <defs>
    <style>
      .a {
        fill: #010101;
      }
    </style>
  </defs>
  <title>author-view-anywhere</title>
  <path class="a" d="M173.2,257.5l34,34-39.7,5.7ZM349,81.7L322.6,108l10.7,10.7,15.4-15.4,12.9,12.9-15.4,15.4L356.6,142l26.3-26.5ZM220.2,257.5l10.4,10.6,122-122-10.3-10.5Zm-23.4-23.3,10.4,10.6,122-122-10.3-10.5Zm-4.3,3.9-15.3,15.2,34.2,34,15.1-15.2Zm-25,79.5h25.3V297.2H167.5v20.5h0Zm61-20.5H203.2v20.5h25.3V297.2h0Zm35.7,0H239v20.5h25.3V297.2h-0.1Zm35.7,0H274.7v20.5H300V297.2h-0.1Zm35.7,0H310.4v20.5h25.3V297.2h-0.1Zm35.7,0H346.2v20.5h25.3V297.2h-0.2Zm32.1,0H381.9v20.5h21.6V297.2h-0.1Zm45.4-233c-84.3-84.3-220.9-84.3-305.2,0-79.1,79.1-83.9,204.4-14.5,289.2l-0.8.7L6.3,476a21.6,21.6,0,1,0,28.8,32.2l1.7-1.7,122.1-122,0.7-.8c84.8,69.5,210.1,64.7,289.2-14.5C533.1,285,533.1,148.4,448.8,64.1ZM424.4,344.8a181.3,181.3,0,1,1-.1-256.4h0.1A181.3,181.3,0,0,1,424.4,344.8Z" transform="translate(0.9 -0.9)"/>
</svg>
