<svg id="Layer_1" data-name="Layer 1" xmlns="http://www.w3.org/2000/svg" viewBox="0 0 512 512"><title>best-practices</title><path d="M510,0H165.42a2.14,2.14,0,0,0-2,2.25V509.75a2.14,2.14,0,0,0,2,2.25H510a2.14,2.14,0,0,0,2-2.25V2.25A2.14,2.14,0,0,0,510,0ZM486.77,483.53H188.69V28.45H486.77V483.53ZM146.2,0H0.8A0.78,0.78,0,0,0,0,.77H0V159a0.78,0.78,0,0,0,.8.77H146.2A0.78,0.78,0,0,0,147,159h0V0.77A0.78,0.78,0,0,0,146.2,0h0ZM118.36,127.32H29V32.45h89.42v94.87h0ZM243,246.08h36V463H243V246.08ZM322,130h36V463H322V130Zm80,182.92h36V463H402V312.92ZM146.2,176.14H0.8a0.78,0.78,0,0,0-.8.77H0V335.09a0.78,0.78,0,0,0,.8.77H146.2a0.78,0.78,0,0,0,.8-0.77h0V176.91a0.78,0.78,0,0,0-.8-0.77h0ZM118.36,303.45H29V208.58h89.42v94.87h0Zm27.83,48.82H0.8A0.78,0.78,0,0,0,0,353H0V511.23a0.78,0.78,0,0,0,.8.77H146.2a0.78,0.78,0,0,0,.8-0.77h0V353a0.78,0.78,0,0,0-.8-0.77h0ZM118.36,479.59H29V384.72h89.42v94.87h0Z"/></svg>