<svg xmlns="http://www.w3.org/2000/svg" width="512" height="512" viewBox="0 0 512 512"><defs><style>.a{fill:#010101;}</style></defs><title>Master_Icons2</title><path class="a" d="M256.4,0c-37.7,0-68.3,30.1-68.3,69.7,0,23.4,10.5,45.8,28.5,59.4,6.6,5,8.4,5.2,8.4,22.4v39.8s-0.8,26.4,31.4,26.4,32.7-26.7,32.7-26.7V151.5c0-15.3,1.3-19.3,5.8-22.5,18.2-12.7,29.8-34.7,29.8-59.3C324.7,30,294.1,0,256.4,0Zm21.4,194.1s-0.8,13.3-21.7,13.3-20.1-13.3-20.1-13.3v-8.5h41.7v8.5Zm0-19.6H236V160.7h41.8v13.7Zm6.5-51.5s-6.4,4.1-6.4,14v14.5H264.2V86.5H271s3.4,0.3,3.4-2.8S271,81,271,81h-6.8V77.5s0.8-9.1-7.6-9.1-7,9.1-7,9.1V81h-6.8s-3.4-.3-3.4,2.8,3.4,2.8,3.4,2.8h6.8v64.7H236V137.2c0-6.6-3-11.5-8.1-14.5C210.4,113,200.5,92,200.5,69.7c0-33.6,23.9-58.1,55.9-58.1s56.3,24.4,56.3,58C312.7,91.9,301.3,112.3,284.3,123Zm63.5,99.4c-57.8,0-83.6,14.2-91.1,19.5a4.3,4.3,0,0,1-4.9,0c-7.5-5.2-33.3-19.5-91.1-19.5-70.8,0-90,20.6-93.6,21.3V504.9s37.7-18.5,93.6-18.5c48.9,0,83.9,14.2,91.8,17.7a4.3,4.3,0,0,0,3.5,0c8-3.5,43-17.7,91.8-17.7,55.9,0,93.6,18.5,93.6,18.5V243.7S418.6,222.4,347.8,222.4ZM241.5,477.6s-31-15.3-76.9-15.3-78.3,15.3-78.3,15.3V260.1s20.1-16.3,78.3-16.3,76.9,17.7,76.9,17.7V477.6Zm182.1,0s-32.4-15.3-78.3-15.3-76.9,15.3-76.9,15.3V261.5s18.7-17.7,76.9-17.7,78.3,16.3,78.3,16.3V477.6Z"/></svg>