<svg xmlns="http://www.w3.org/2000/svg" width="512" height="512" viewBox="0 0 512 512"><title>Master_Icons</title><path d="M510,0H165.4a2.1,2.1,0,0,0-2,2.3V509.7a2.1,2.1,0,0,0,2,2.3H510a2.1,2.1,0,0,0,2-2.2V2.2A2.1,2.1,0,0,0,510,0ZM486.8,483.5H188.7V28.5H486.8V483.5ZM146.2,0H0.8A0.8,0.8,0,0,0,0,.8H0V159a0.8,0.8,0,0,0,.8.8H146.2a0.8,0.8,0,0,0,.8-0.8h0V0.8a0.8,0.8,0,0,0-.8-0.8h0ZM118.4,127.3H29V32.5h89.4v94.9h-0.1ZM243,246.1h36V463H243V246.1ZM322,130h36V463H322V130Zm80,182.9h36V463H402V312.9h0ZM146.2,176.1H0.8a0.8,0.8,0,0,0-.8.8H0V335.1a0.8,0.8,0,0,0,.8.8H146.2a0.8,0.8,0,0,0,.8-0.8h0V176.9a0.8,0.8,0,0,0-.8-0.8h0ZM118.4,303.5H29V208.6h89.4v94.9h-0.1Zm27.8,48.8H0.8a0.8,0.8,0,0,0-.8.7H0V511.2a0.8,0.8,0,0,0,.8.8H146.2a0.8,0.8,0,0,0,.8-0.8h0V353a0.8,0.8,0,0,0-.8-0.8h0ZM118.4,479.6H29V384.7h89.4v94.9h-0.1Z"/></svg>