<svg xmlns="http://www.w3.org/2000/svg" width="512" height="512" viewBox="0 0 512 512"><title>Master_Icons</title><path d="M424,194.9V482H68V27.1a0.7,0.7,0,0,1,.7-0.7H424V75.4l29.7-26.1V0H39.1a0.7,0.7,0,0,0-.7.7V512H453.6V167.8ZM132.9,130V113.9H359.1v32.3H132.9V130h0Zm0,135.5V249.4H269.7v32.3H132.9V265.5h0Zm151.9-28,35.7,36.2-42,5.7ZM507.6,89l-28,27.8-14-14.2,11-10.9-7.7-7.8-11,10.9-14-14.2L472,52.9Zm-184,138.2-14-14.2L439.6,84.8l14,14.2ZM461.3,106.8l14,14.2L345.4,249.2l-14-14.2ZM341,253.5l-16,15.9-35.9-36.2,16.2-16Z"/></svg>