<svg id="Layer_1" data-name="Layer 1" xmlns="http://www.w3.org/2000/svg" viewBox="0 0 512 512"><title>blog-post</title><path d="M428.37,194.91V482H29.59V27.06a0.71,0.71,0,0,1,.71-0.71H428.37V75.42L458,49.29V0H0.68A0.71,0.71,0,0,0,0,.71H0V512H458V167.83ZM96.07,130V113.86h267.4v32.31H96.07V130h0Zm0,135.52V249.36H257.79v32.31H96.07V265.52h0Zm186.85,14,42-5.71L289.21,237.6ZM476.37,52.86l-28.1,27.73,14,14.19,11-10.89L481,91.73l-11,10.89,14,14.2L512,89ZM458,99L444,84.81,314,213l14,14.21ZM335.7,235l14,14.23L479.69,121l-14-14.19Zm-26-17.73-16.25,16,35.92,36.14,16-15.95Z" transform="translate(0)"/></svg>