<svg id="Layer_1" data-name="Layer 1" xmlns="http://www.w3.org/2000/svg" viewBox="0 0 512 512"><title>Master_Icons</title><path d="M386.66,5.67H125.34c-2.88,0-5.22,2-5.22,4.47V506.53c0,4,5.77,6,9,3.06L252.21,386.82a5.84,5.84,0,0,1,7.59,0L382.87,509.59c3.24,2.94,9,1,9-3.06V10.13C391.88,7.66,389.54,5.67,386.66,5.67Zm-20,443.41c0,2.84-4.05,4.22-6.33,2.15L260.55,351.09a4.1,4.1,0,0,0-5.33,0L151.69,455c-2.27,2.06-6.33.69-6.33-2.15V34A3.43,3.43,0,0,1,149,30.9H363A3.43,3.43,0,0,1,366.64,34v415Z"/></svg>