<svg id="Layer_1" data-name="Layer 1" xmlns="http://www.w3.org/2000/svg" viewBox="0 0 512 512"><title>Calculations_Library_Icon</title><path d="M0.88,0A0.81,0.81,0,0,0,0,.71V512H512V0H0.88ZM486.76,486.76H25L25.83,25.19h460.8ZM116.56,350.82V334.66h51.13V367H116.56V350.82h0Zm0-102.71V232h51.13v32.31H116.56v-16.2h0Zm0-98.09V133.86h51.13v32.31H116.56V150h0v0Zm77.09,200.8V334.66h51.13V367H193.65V350.82h0Zm0-102.71V232h51.13v32.31H193.65v-16.2h0Zm0-98.09V133.86h51.13v32.31H193.65V150h0v0Zm77.09,200.8V334.66h51.13V367H270.74V350.82h0Zm0-102.71V232h51.13v32.31H270.74v-16.2h0Zm0-98.09V133.86h51.13v32.31H270.74V150h0v0Zm77.09,200.8V334.66H399V367H347.83V350.82h0Zm0-102.71V232H399v32.31H347.83v-16.2h0Zm0-98.09V133.86H399v32.31H347.83V150h0v0Z" transform="translate(0 0)"/></svg>