<svg xmlns="http://www.w3.org/2000/svg" width="512" height="512" viewBox="0 0 512 512"><title>Master_Icons</title><path d="M0.9,0A0.8,0.8,0,0,0,0,.7V512H512V0H0.9ZM25,486.8L25.8,25.2H486.6V486.8H25ZM142.1,133.9h25.6v32.3H116.6V133.9h25.6Zm0,200.8h25.6V367H116.6V334.7h25.6Zm0-102.7h25.6v32.3H116.6V232h25.6Zm77.1-98.1h25.6v32.3H193.7V133.9h25.6Zm0,200.8h25.6V367H193.7V334.7h25.6Zm0-102.7h25.6v32.3H193.7V232h25.6Zm77.1,0h25.6v32.3H270.7V232h25.6Zm0,102.7h25.6V367H270.7V334.7h25.6Zm0-200.8h25.6v32.3H270.7V133.9h25.6Zm77.1,0H399v32.3H347.8V133.9h25.6Zm0,200.8H399V367H347.8V334.7h25.6Zm0-102.7H399v32.3H347.8V232h25.6Z"/></svg>