<svg xmlns="http://www.w3.org/2000/svg" width="512" height="512" viewBox="0 0 512 512"><defs><style>.a{fill:#010101;}</style></defs><title>Master_Icons</title><path class="a" d="M455.1,56.9H429.5v56.9h-91V56.9h-165v56.9h-91V56.9H56.9A57.1,57.1,0,0,0,0,113.8V455.1A57.1,57.1,0,0,0,56.9,512H455.1A57.1,57.1,0,0,0,512,455.1V113.8A57.1,57.1,0,0,0,455.1,56.9Zm0,398.2H56.9V166.6H455.1V455.1ZM403.9,96.7H364.1V0h39.8V96.7Zm-256,0H108.1V0h39.8V96.7ZM431.2,303.2H373V249.9h58.2v53.3Zm-73.4,0H299.6V249.9h58.2v53.3Zm-73.4,0H226.2V249.9h58.2v53.3Zm-73.4,0H152.8V249.9H211v53.3Zm-73.4,0H79.4V249.9h58.2v53.3Zm293.6,67.2H373V317.1h58.2v53.3Zm-73.4,0H299.6V317.1h58.2v53.3Zm-73.4,0H226.2V317.1h58.2v53.3Zm-73.4,0H152.8V317.1H211v53.3Zm-73.4,0H79.4V317.1h58.2v53.3Zm293.6,66H373V383.1h58.2v53.3Zm-73.4,0H299.6V383.1h58.2v53.3Zm-73.4,0H226.2V383.1h58.2v53.3Zm-73.4,0H152.8V383.1H211v53.3Zm-73.4,0H79.4V383.1h58.2v53.3ZM431.2,237.3H373V184h58.2v53.3Zm-73.4,0H299.6V184h58.2v53.3Zm-73.4,0H226.2V184h58.2v53.3Zm-73.4,0H152.8V184H211v53.3Zm-73.4,0H79.4V184h58.2v53.3ZM211,370.5H152.8V317.2H211v53.3Z"/></svg>