<?xml version="1.0" encoding="utf-8"?>
<!-- Generator: Adobe Illustrator 17.0.2, SVG Export Plug-In . SVG Version: 6.00 Build 0)  -->
<!DOCTYPE svg PUBLIC "-//W3C//DTD SVG 1.1//EN" "http://www.w3.org/Graphics/SVG/1.1/DTD/svg11.dtd">
<svg version="1.1" id="Layer_1" xmlns="http://www.w3.org/2000/svg" xmlns:xlink="http://www.w3.org/1999/xlink" x="0px" y="0px"
	 width="512px" height="512px" viewBox="0 0 512 512" enable-background="new 0 0 512 512" xml:space="preserve">
<title>certification</title>
<g>
	<rect x="134.5" y="271.1" width="243" height="14.9"/>
	<rect x="134.5" y="366.1" width="243" height="14.9"/>
	<path d="M335.6,121.7c14.47,0,26.2-11.73,26.2-26.2c0-14.47-11.73-26.2-26.2-26.2c-14.47,0-26.2,11.73-26.2,26.2
		S321.13,121.7,335.6,121.7z M335.6,77.8c9.775,0,17.7,7.925,17.7,17.7s-7.925,17.7-17.7,17.7c-9.775,0-17.7-7.925-17.7-17.7
		S325.825,77.8,335.6,77.8z"/>
	<path d="M434.4,0.1H77.6c-1.232,0.156-2.118,1.263-2,2.5v507.1c-0.118,1.237,0.768,2.344,2,2.5h356.8
		c1.232-0.156,2.118-1.263,2-2.5V2.6C436.518,1.363,435.632,0.256,434.4,0.1z M411.1,487.1H100.8V25.2h310.3V487.1z"/>
	<rect x="134.5" y="318.6" width="243" height="14.9"/>
	<path d="M286.8,97.1c-5.2,5.9-6.7,18.4-0.7,25.6c6,7.2,15.2,7.4,20.4,5.4c-1.256,3.467-1.039,7.297,0.6,10.6l-24.2,107.7l1.3,0.7
		l24.1-9.9h1.1l19,15l1.7-0.7l6-91.6l6,91.6l1.7,0.7l19-15h1.1l24.1,9.9l1.3-0.7l-24-105.2c3.529-5.006,4.458-11.396,2.5-17.2
		c4.7,2,12.9,0.8,17.7-7.1c6.6-11-2.2-21-2.2-21V93c5.2-5.9,6.7-17.7,0.7-24.9s-15.2-7.4-20.4-5.4c2-4.7,1.5-12.5-6.4-17.3
		c-11-6.6-21,1.8-21,1.8h-4.3c-5.9-5.2-17-6.7-24.2-0.7s-7.4,15.2-5.4,20.4c-4.7-2-12.9-0.8-17.7,7.1c-6.6,11,2.2,21,2.2,21V97.1z
		 M323.4,234l-13.8-9.6l-16.5,6.9l19.6-86l0.7,0.5c4.846,3.032,10.979,3.109,15.9,0.2L323.4,234z M378.8,231.7l-16.6-6.9l-13.9,9.6
		l-5.9-88.6c5.245,2.802,11.499,2.987,16.9,0.5L378.8,231.7z M295.3,78.7c4.9-8.2,12-6.8,15.5-5.3c-1.5-3.9-2.5-12.6,3.5-16.7
		c6-4.1,14.2-2.5,18.5,1.4h3.2c0,0,8.3-7.2,15.5-2.6c7.2,4.6,6.2,11.3,4.8,14.8c3.8-1.5,12.6-2.4,17.3,3.3c4.7,5.7,2.9,15.8-1,20.2
		V95c0,0,7.7,8,2.8,16.2c-3.5,5.9-12.6,6.4-16.1,5c1.5,3.9,1.8,12.3-3.3,16.5c-5.1,4.2-14.3,2.1-18.6-1.8h-0.1h-3.2
		c0,0-7.7,7.9-15.8,3c-5.8-3.6-6-11-4.5-14.6c-3.8,1.5-13.8,1.5-18-3.6c-4.2-5.1-2.2-14.8,1.7-19.2v-2
		C297.5,94.5,290.4,86.9,295.3,78.7z"/>
	<polygon points="264.1,193.4 264.1,178.5 134.5,178.5 134.5,193.4 199.3,193.4 	"/>
	<polygon points="264.2,241 264.2,226 264.1,226 134.5,226 134.5,240.9 264.1,240.9 	"/>
	<polygon points="264.1,148.3 264.1,133.5 134.5,133.5 134.5,148.4 264.1,148.4 	"/>
	<rect x="134.5" y="85.9" width="129.6" height="14.9"/>
	<polygon points="264.1,411.2 264.1,418.6 264.1,426.1 320.8,426.1 377.5,426.1 377.5,418.6 377.5,411.2 320.8,411.2 	"/>
</g>
</svg>
