<svg id="Layer_1" data-name="Layer 1" xmlns="http://www.w3.org/2000/svg" viewBox="0 0 360.88 512"><title>certification-program</title><path d="M434.43,0H77.57a2.26,2.26,0,0,0-2,2.47V509.53a2.26,2.26,0,0,0,2,2.47H434.43a2.26,2.26,0,0,0,2-2.47V2.47A2.26,2.26,0,0,0,434.43,0ZM411.15,487.12H100.84V25.24H411.15V487.12ZM134.53,186v-7.45H264.14v14.9H134.53V186h0Zm0-45v-7.45H264.14v14.9H134.53V141h0Zm0-47.53V85.94H264.14v14.9H134.53V93.38h0v0.09Zm0,185V271H377.47v15H134.53v-7.45h0v-0.08Zm0-45V226H264.14v14.9H134.53v-7.45h0v0Zm129.61,185.1v-7.45H377.47V426H264.14v-7.45h0Zm-129.61-45v-7.45H377.47V381H134.53v-7.45h0v0Zm0-47.53V318.6H377.47v14.9H134.53V326h0v0ZM365.3,141.18A19.24,19.24,0,0,0,367.78,124c4.75,2,13,.75,17.7-7.11,6.62-11-2.2-21-2.2-21V93c5.22-5.87,6.73-17.66.73-24.93-5.67-6.88-15.22-7.45-20.37-5.41,2-4.75,1.46-12.5-6.41-17.25-11-6.62-21,1.75-21,1.75H332c-5.87-5.22-17-6.73-24.23-.73-6.88,5.67-7.45,15.22-5.41,20.37-4.75-2-13-.75-17.7,7.11-6.62,11,2.2,21,2.2,21v2.14c-5.22,5.87-6.73,18.36-.73,25.63,5.67,6.88,15.22,7.45,20.37,5.41a13.53,13.53,0,0,0,.59,10.63L282.87,246.37l1.25,0.73,24.08-9.93,1.08,0.14,19,15,1.66-.67,6-91.62,6,91.62,1.66,0.67,19-15,1.08-.14,24.08,9.93,1.25-.73ZM323.43,234l-13.85-9.59-16.48,6.9,19.62-86c0.24,0.16.47,0.33,0.72,0.48a15.34,15.34,0,0,0,15.89.19Zm-5-100.12c-5.83-3.57-6-11-4.52-14.58-3.82,1.53-13.83,1.54-18-3.63-4.44-5.46-2.16-14.8,1.71-19.2v-2s-7.13-7.61-2.22-15.83a12.78,12.78,0,0,1,15.47-5.33c-1.51-3.87-2.48-12.59,3.46-16.7,7-4.86,14.16-2.54,18.51,1.38H336s8.32-7.24,15.53-2.61c8,5.11,6.25,11.26,4.79,14.82,3.82-1.53,12.63-2.43,17.29,3.26,5.4,6.6,2.9,15.75-1,20.16V95s7.73,8,2.82,16.19c-3.52,5.9-12.56,6.45-16.08,5,1.51,3.87,1.83,12.29-3.27,16.54-5.39,4.5-14.35,2.11-18.7-1.81h-3.15s-7.69,7.9-15.81,2.94v0Zm43.81,91-13.92,9.64-5.94-88.64a19,19,0,0,0,16.94.5l19.49,85.42ZM335.62,69.29a26.2,26.2,0,1,0,26.2,26.2,26.2,26.2,0,0,0-26.2-26.2h0Zm0,43.89A17.68,17.68,0,1,1,353.3,95.49a17.68,17.68,0,0,1-17.68,17.69h0Z" transform="translate(-75.56)"/></svg>