<svg xmlns="http://www.w3.org/2000/svg" width="512" height="512" viewBox="0 0 512 512"><defs><style>.a{fill:none;}</style></defs><title>Master_Icons</title><circle class="a" cx="335.6" cy="95.5" r="17.7"/><path class="a" d="M313.4,145.8l-0.7-.5-19.6,86,16.5-6.9,13.8,9.6,5.9-88A15.3,15.3,0,0,1,313.4,145.8Z"/><path class="a" d="M295.9,115.7c4.2,5.2,14.2,5.2,18,3.6-1.5,3.6-1.3,11,4.5,14.6,8.1,5,15.8-3,15.8-3h3.2c4.3,3.9,13.3,6.3,18.7,1.8s4.8-12.7,3.3-16.5c3.5,1.5,12.6.9,16.1-5,4.9-8.2-2.8-16.2-2.8-16.2V93.6c3.9-4.4,6.4-13.6,1-20.2s-13.5-4.8-17.3-3.3c1.5-3.6,3.2-9.7-4.8-14.8S335.9,58,335.9,58h-3.2c-4.3-3.9-11.5-6.2-18.5-1.4s-5,12.8-3.5,16.7c-3.5-1.5-11.3-1.6-15.5,5.3s2.2,15.8,2.2,15.8v2C293.7,100.9,291.4,110.2,295.9,115.7Zm39.8-46.4a26.2,26.2,0,1,1-26.2,26.2A26.2,26.2,0,0,1,335.6,69.3Z"/><path class="a" d="M342.4,145.8l5.9,88.6,13.9-9.6,16.6,6.9-19.5-85.4A19,19,0,0,1,342.4,145.8Z"/><polygon points="264.1 411.2 264.1 418.6 264.1 426.1 320.8 426.1 377.5 426.1 377.5 418.6 377.5 411.2 320.8 411.2 264.1 411.2"/><path d="M199.3,193.4H134.5V178.5H264.1v14.9H199.3Zm64.8-45V133.5H134.5v14.9H264.1Zm0-47.5V85.9H134.5v14.9H264.1ZM377.5,286V271.1H134.5V286H377.5ZM436.4,2.6V509.7a2.3,2.3,0,0,1-2,2.5H77.6a2.3,2.3,0,0,1-2-2.5V2.6a2.3,2.3,0,0,1,2-2.5H434.4A2.3,2.3,0,0,1,436.4,2.6ZM411.1,25.2H100.8V487.1H411.1V25.2ZM377.5,381V366.1H134.5V381H377.5Zm0-47.5V318.6H134.5v14.9H377.5ZM264.1,240.9V226H134.5v14.9H264.1Zm0-92.6V133.5H134.5v14.9H264.1Zm0-47.5V85.9H134.5v14.9H264.1ZM377.5,286V271.1H134.5V286H377.5Zm-113.3-45V226H134.5v14.9H264.1Zm113.3,92.6V318.6H134.5v14.9H377.5Zm0,47.5V366.1H134.5V381H377.5ZM264.1,411.2v14.9H377.5V411.2H264.1Zm101.2-270a19.2,19.2,0,0,0,2.5-17.2c4.7,2,12.9.8,17.7-7.1,6.6-11-2.2-21-2.2-21V93c5.2-5.9,6.7-17.7.7-24.9s-15.2-7.4-20.4-5.4c2-4.7,1.5-12.5-6.4-17.3-11-6.6-21,1.8-21,1.8h-4.3c-5.9-5.2-17-6.7-24.2-.7s-7.4,15.2-5.4,20.4c-4.7-2-12.9-.8-17.7,7.1-6.6,11,2.2,21,2.2,21v2.1c-5.2,5.9-6.7,18.4-.7,25.6s15.2,7.4,20.4,5.4a13.5,13.5,0,0,0,.6,10.6L282.9,246.4l1.3,0.7,24.1-9.9h1.1l19,15,1.7-.7,6-91.6,6,91.6,1.7,0.7,19-15h1.1l24.1,9.9,1.3-.7ZM323.4,234l-13.8-9.6-16.5,6.9,19.6-86,0.7,0.5a15.3,15.3,0,0,0,15.9.2Zm13.9-103.1h-3.2s-7.7,7.9-15.8,3c-5.8-3.6-6-11-4.5-14.6-3.8,1.5-13.8,1.5-18-3.6s-2.2-14.8,1.7-19.2v-2s-7.1-7.6-2.2-15.8,12-6.8,15.5-5.3c-1.5-3.9-2.5-12.6,3.5-16.7s14.2-2.5,18.5,1.4h3.2s8.3-7.2,15.5-2.6,6.2,11.3,4.8,14.8c3.8-1.5,12.6-2.4,17.3,3.3s2.9,15.8-1,20.2V95s7.7,8,2.8,16.2c-3.5,5.9-12.6,6.4-16.1,5,1.5,3.9,1.8,12.3-3.3,16.5S341.7,134.8,337.4,130.9Zm24.9,93.9-13.9,9.6-5.9-88.6a19,19,0,0,0,16.9.5l19.5,85.4ZM335.6,121.7a26.2,26.2,0,1,0-26.2-26.2A26.2,26.2,0,0,0,335.6,121.7Zm0-43.9a17.7,17.7,0,1,1-17.7,17.7A17.7,17.7,0,0,1,335.6,77.8Z"/></svg>