<svg xmlns="http://www.w3.org/2000/svg" width="512" height="512" viewBox="0 0 512 512">
  <title>change-management</title>
  <path d="M36.2,294.7V272.6H59v22.1H36.2Zm57.3,0.1V272.6H70.8v22.2H93.5Zm46.4,213.9h23V485.3h-23v23.4ZM1.8,343.8V366H24.4V343.8H1.8Zm126.6,165V485.3H105.4v23.4h22.9Zm-34.7,0V485.3H70.9v23.4H93.7ZM59.1,485.3H36.2v23.4H59.1V485.3ZM24.2,472.9V450.7H1.5v22.2H24.2Zm0.1,35.8V485.3H1.5v23.4H24.4Zm207.7-23.4H209.1v23.4h22.9V485.3Zm-57.4,0v23.5h22.7V485.3H174.6ZM209,415.3v22.1h22.8V415.3H209ZM1.5,437.3H24.4V415H1.5v22.3Zm0-35.7H24.4V379.4H1.5v22.3Zm0-71.2H24.4V309H1.5v21.3Zm22.8-35.7,0.2-22.3H1.5c0,5.7,0,22.3,0,22.3H24.4Zm207.5,156H209.1v22.1h22.8V450.7Zm278.6-48.9V3.2h-405V401.9h405ZM487.1,26.4V379.1H128.7V26.4H487.1ZM285.9,240L446.1,80.6l0.6,136.2a8.7,8.7,0,0,0,17.4,1L464.4,50H294.2a8.7,8.7,0,0,0,.9,17.4l138.7,0.7L273.5,227.6Z"/>
</svg>
