<svg id="Layer_1" data-name="Layer 1" xmlns="http://www.w3.org/2000/svg" viewBox="0 0 512 512"><title>Carrot_Up_Style2</title><path d="M392.65,270.47l-135.16-99.8-135.16,99.8a10,10,0,1,0,11.88,16.09l123.28-91,123.28,91A10,10,0,1,0,392.65,270.47ZM257.49,513c141.38,0,256-114.62,256-256S398.87,1,257.49,1s-256,114.62-256,256S116.1,513,257.49,513ZM93.95,93.46c90.13-89.9,236.08-89.71,326,.42s89.71,236.08-.42,326-236.08,89.71-326-.42A230.5,230.5,0,0,1,93.95,93.46Z" transform="translate(-1.49 -1)"/></svg>