<svg id="Layer_1" data-name="Layer 1" xmlns="http://www.w3.org/2000/svg" viewBox="0 0 512 512"><title>Carrot_Left_Style2</title><path d="M266.72,120.84L166.91,256l99.81,135.16a10,10,0,1,0,16.09-11.88L191.78,256l91-123.28A10,10,0,0,0,266.72,120.84ZM509.25,256c0-141.38-114.62-256-256-256s-256,114.62-256,256,114.62,256,256,256S509.25,397.38,509.25,256ZM89.71,419.54C-0.18,329.4,0,183.46,90.16,93.56s236.08-89.69,326,.45,89.69,236.08-.45,326A230.5,230.5,0,0,1,89.71,419.54Z" transform="translate(2.75)"/></svg>