<svg id="Layer_1" data-name="Layer 1" xmlns="http://www.w3.org/2000/svg" viewBox="0 0 512 512"><title>Carrot_Down_Style2</title><path d="M120.08,242.53l135.16,99.81L390.4,242.53a10,10,0,1,0-11.88-16.09l-123.28,91L132,226.44A10,10,0,0,0,120.08,242.53ZM255.25,0C113.86,0-.75,114.62-0.75,256s114.62,256,256,256,256-114.62,256-256S396.63,0,255.25,0ZM418.79,419.54c-90.13,89.9-236.08,89.71-326-.42S3.1,183,93.23,93.14s236.08-89.71,326,.42A230.5,230.5,0,0,1,418.79,419.54Z" transform="translate(0.75)"/></svg>