<svg id="Layer_1" data-name="Layer 1" xmlns="http://www.w3.org/2000/svg" viewBox="0 0 511 418.34"><title>Classroom_Training</title><path d="M202,175.08l310-61.16V98.1L306.67,49.66,1,108.64V208.69l198,59.54,305.42-67V170.54l-306,64.38L28.69,187.37V131.84ZM155.18,392.72L199,406l305.42-80V297.31l-306,75.38L155.25,361ZM75.74,369.13L1,346.46V236.31L198.49,292l306-66.38v26.65L199,322.3,28.69,273.67v51.47l47,13.5v30.49ZM89,322.74c1.8,0,55,13.67,55,13.67V468l-32.43-32.89L86.89,454.72Z" transform="translate(-1 -49.66)"/></svg>