<svg id="Layer_1" data-name="Layer 1" xmlns="http://www.w3.org/2000/svg" viewBox="0 0 506.71 506.71"><title>Clock_Icon</title><path d="M437,75C335.58-23.5,173.5-21.13,75,80.29-21.47,179.63-21.47,337.67,75,437c101.42,98.5,263.5,96.13,362-5.29C533.47,332.37,533.47,174.33,437,75ZM417,417c-88.92,88.92-233.08,88.92-322,0S6.08,183.92,95,95,328.08,6.08,417,95,505.92,328.08,417,417Zm-99.37-59.16L227.69,267.9A19.79,19.79,0,0,1,223,255.77V127h30V250.79l85.84,85.84Z" transform="translate(-2.65 -2.65)"/></svg>