<svg xmlns="http://www.w3.org/2000/svg" width="512" height="512" viewBox="0 0 512 512"><defs><style>.a{fill:#010101;}</style></defs><title>Master_Icons2</title><path class="a" d="M384.8,510.5V512H136.8v-0.8c-1.2-31.1,74-48.1,88.9-62.9a7.7,7.7,0,0,0,3-3.5c0.7-1.5.7-1.9,0.8-4.9s0-4.7-.1-7.2v-4.5l-0.6-.6c-1.2-1-4.6-4.6-5.7-5.8-9.9-11.9-16.6-28.8-19.8-50.2-1.9-12.4-2.5-28.3-1.6-37.7a75.3,75.3,0,0,1,5.6-21.9,87.8,87.8,0,0,1,3.9-7.9,62.8,62.8,0,0,1,22.3-22.7,71,71,0,0,1,7.1-3.5,53.9,53.9,0,0,1,28.8-3.1c14.6,2.4,27.9,11.2,37.3,24.5a73.2,73.2,0,0,1,12.6,34.6,74.3,74.3,0,0,1,.4,9.7,183.4,183.4,0,0,1-2.8,33c-3.2,17.6-8.9,32-16.8,42.5a55.4,55.4,0,0,1-5.6,6.4l-1.9,1.9v6.3c-0.1,3.5-.1,6.8-0.1,7.5a8.3,8.3,0,0,0,3.6,7c0.7,0.4.5,0.4,8.1,3.5C361.8,473,384.8,495.7,384.8,510.5Zm-222-47.7-12.1-5.1-5.1-2.2a7.1,7.1,0,0,1-2.7-3.4c-0.6-1.5-.6-1.8-0.5-8.4v-6l0.5-.5a65.7,65.7,0,0,0,4.7-4.8c11.7-13.6,18.5-35.7,19.6-63.7,0.1-3.2.1-9.7,0-11.7a66.2,66.2,0,0,0-7-26.3c-7-13.9-18.8-24.1-32.3-28a45.5,45.5,0,0,0-11-1.8A47.5,47.5,0,0,0,86,310.6a57.3,57.3,0,0,0-16.8,20.5,66.1,66.1,0,0,0-6.8,25.1c-0.2,1.9-.2,10.4,0,13.6a159.4,159.4,0,0,0,2.9,24.6c2.9,14.4,7.8,26.3,14.5,35.3a51.3,51.3,0,0,0,4.9,5.5l1.6,1.6v6c0.1,3.9.1,6.3,0,6.8a7.4,7.4,0,0,1-3.3,5.7l-8,3.4Q37,474.7,26.5,480.7a52.6,52.6,0,0,0-15.8,13.6,32.3,32.3,0,0,0-6,12.7,29.1,29.1,0,0,0-.5,4.4h0V512H116v-0.6c0.8-30.7,35.7-46,45.8-48.1Zm353.4,47.9c-0.4-10-7.5-20.3-19.1-28a67,67,0,0,0-7.3-4.1c-9-4.5-23-10.7-45.7-20.2l-6.4-2.7a5.5,5.5,0,0,1-1.5-1.2,6.9,6.9,0,0,1-1.9-3.2,8.7,8.7,0,0,1-.3-3c0-1.2,0-4.2.1-6.7v-4.6l1.7-1.7a51.7,51.7,0,0,0,6.8-8.3c9.2-13.8,14.5-33.9,15.4-58.3,0.1-3.2.1-9.7,0-11.6a66,66,0,0,0-7-26.1,58.6,58.6,0,0,0-5.7-9.2c-7.4-9.8-17.4-16.7-28.3-19.4a47.7,47.7,0,0,0-28.8,1.8c-11.8,4.6-21.9,14.1-28.2,26.7a66.4,66.4,0,0,0-6.9,24.8c-0.2,2.2-.2,10.6,0,14.3,0.8,15.2,2.9,27.5,6.7,38.7,3.2,9.5,7.6,17.6,12.9,23.7,1,1.2,3.4,3.6,4.6,4.6l0.7,0.7v5.7c0.1,5.7.1,6.3-.2,7.5a7.2,7.2,0,0,1-3.3,4.8l-7.7,3.3-8.3,3.5-1.2.5,1.3,0.6c33.3,7.1,47.5,33.7,47.5,47.2V512H516.2v-1.4ZM469.7,0H42.4C16.8,0,4.2,20.9,4.2,46.5V148.7c0,25.6,12.6,46.5,38.2,46.5H96.5v64.2l69.3-64.2h70.1l26.7,64.2,22.1-64.2H358l61,61.1V195.3h50.7a46.7,46.7,0,0,0,46.5-46.5V46.5A46.7,46.7,0,0,0,469.7,0Zm31.2,142.8A37.3,37.3,0,0,1,463.7,180h-58l0.2,44.5L363.2,180H276.4l-14.8,44.4L242.7,180H157.1l-47.2,44.5V180H49.8C29.4,180,21,163.2,21,142.8V51.9c0-20.5,8.4-37.2,28.8-37.2H463.7a37.3,37.3,0,0,1,37.2,37.2v90.9ZM230.1,46.3H77.7v11H230.1v-11ZM77.7,74.3v11h357v-11H77.7Zm0,39h357v-11H77.7v11Zm218.2,33.2H434.7v-11H295.9v11Z"/></svg>