<svg id="Layer_1" data-name="Layer 1" xmlns="http://www.w3.org/2000/svg" viewBox="0 0 512 332.27"><title>Community_Canvas_Icon</title><path d="M364.7,347.61H280.07a43.65,43.65,0,0,1-43.52-43.52V208.56A43.65,43.65,0,0,1,280.07,165H468.48A43.65,43.65,0,0,1,512,208.56V304.1a43.65,43.65,0,0,1-43.52,43.52H421.74v57.13ZM171.09,297h36.42c0-3.23-.15-9-0.15-13.79V187.67a43.65,43.65,0,0,1,43.52-43.52h87.91V116a43.65,43.65,0,0,0-43.52-43.52H43.52A43.65,43.65,0,0,0,0,116V253.48A43.65,43.65,0,0,0,43.52,297H94.1v73.18Z" transform="translate(0 -72.48)"/></svg>