<svg xmlns="http://www.w3.org/2000/svg" width="512" height="512" viewBox="0 0 512 512"><title>Master_Icons</title><path d="M242.5,477.5C118,477.5,30.7,379.8,30.4,255.2S130.9,29.5,255.5,29.2s225.8,100.5,226,225.1a224.5,224.5,0,0,1-30.8,114.3s-11.9,17.3,3.5,26.2c13.8,8,22.3-8.2,22.3-8.2a255.7,255.7,0,0,0,36.3-132.4C512.6,112.3,397.3-2.5,255.4-2.2S-1.2,113.4-.9,255.3,100.7,508.8,242.6,508.8c104.8,0,147.7-63.9,147.7-114.5,0-16.1-3.5-19.5,0-24.3,13.3-18.4,10.5-47.1-20.8-60.4-41.4-17.7-59.2-14.1-65.8-7.5s-8.5,19.7-19.7,20.7-41.4-8.5-71.4-42.8c-23.9-27.3-32.9-54-24.4-63.4s37.7-19.2,13.2-69.5c-17.9-36.6-36.6-46.8-63.9-31.5-54.6,30.6-35.4,137.1,31,209.2,55.4,60.1,142.8,78,182,66.4C354.4,411.7,331.7,477.5,242.5,477.5Z"/></svg>