<svg id="Layer_1" data-name="Layer 1" xmlns="http://www.w3.org/2000/svg" viewBox="0 0 512 512"><title>Master_Icons</title><path d="M242.54,477.47c-124.57,0-211.83-97.65-212.1-222.22s100.5-225.77,225.07-226,225.77,100.5,226,225.07a224.51,224.51,0,0,1-30.78,114.3s-11.88,17.27,3.46,26.16c13.84,8,22.34-8.17,22.34-8.17a255.72,255.72,0,0,0,36.34-132.36C512.61,112.32,397.34-2.46,255.44-2.15S-1.22,113.43-.92,255.32,100.72,508.83,242.61,508.83c104.76,0,147.65-63.91,147.65-114.47,0-16.09-3.47-19.5,0-24.33,13.33-18.43,10.47-47.1-20.84-60.44-41.44-17.65-59.21-14.1-65.79-7.52s-8.46,19.74-19.74,20.68S242.58,314.29,212.5,280c-23.92-27.28-32.89-54-24.44-63.44S225.8,197.32,201.22,147c-17.87-36.57-36.59-46.85-63.86-31.55-54.56,30.61-35.43,137.15,31,209.17,55.45,60.15,142.85,78,182,66.43C354.41,411.72,331.74,477.47,242.54,477.47Z"/></svg>