<svg xmlns="http://www.w3.org/2000/svg" width="512" height="512" viewBox="0 0 512 512"><defs><style>.a{fill:#010101;}</style></defs><title>Customer-success</title><path class="a" d="M481,431v79.2H31V431c-0.3-55.7,137-87,163.7-113.6,2.8-2.6,4.5-6.7,4.3-11.9,0-2.3-.2-25-0.2-25s-34.4-33.5-47.4-101.5c-3.4-22.5-4.6-51.4-2.9-68.3A136.6,136.6,0,0,1,158.7,71a159.2,159.2,0,0,1,7.1-14.2c10.4-17.6,24-31.6,40.4-41.1a128.8,128.8,0,0,1,12.9-6.3,102,102,0,0,1,73.8,0,128.8,128.8,0,0,1,12.9,6.3c16.4,9.5,30.1,23.5,40.4,41.1q3.9,6.9,7.1,14.2a136.6,136.6,0,0,1,10.2,39.7c1.7,16.9,4.1,39.1-2.9,68.3-20.6,80.9-47,100.8-47.4,101.5s-0.2,22.8-.2,25c-0.2,5.3,1.5,9.3,4.3,11.9,10.9,10.9,40.4,22.6,69.1,34.2l-41.4,47.2-56.7-49.4-33.6,36.8L354,472l82.5-93.8C461.3,392.1,481.1,409.8,481,431Zm-5.4-119.2-20.7-17.6-109,125.2-53.6-48.1L276,389.6l75.9,65.7Z"/></svg>