<svg xmlns="http://www.w3.org/2000/svg" width="512" height="512" viewBox="0 0 512 512">
  <title>data-blending</title>
  <path d="M331.8,0.4A179.9,179.9,0,0,0,154,153.8,179.9,179.9,0,1,0,358.4,358.2,179.9,179.9,0,0,0,331.8.4ZM231,62.9a1.1,1.1,0,0,0-.2.7V159a180,180,0,0,0-50.3-7.1h-0.7A154.6,154.6,0,0,1,231,62.9Zm40,286.7v61.5h0c-0.4,23.5-40.7,42.6-90.4,42.6s-90.4-19.2-90.4-42.9c0-.3-0.2-89.3-0.3-133.6,16.8,17.6,51,29.7,90.7,29.7a188.3,188.3,0,0,0,22.2-1.3,180,180,0,0,0,68.2,44h0Zm-90.5-54.1c-49.9,0-90.4-19.2-90.4-42.9,0-19.5,27.2-35.9,64.6-41.2a179.2,179.2,0,0,0,38.7,83.6q-6.3.5-12.9,0.5h0Zm0,191.8a155.8,155.8,0,0,1-28.4-308.9v1.8a181.8,181.8,0,0,0,1.1,20.1c-42.9,6.3-74.3,27.3-74.3,52.2V413.4c2.7,28.6,47.2,51.4,101.7,51.4s99.6-23.1,101.7-52.1V353.2a180,180,0,0,0,49.7,6.9h1.7A155.8,155.8,0,0,1,180.5,487.4h0ZM336.2,334.9h-4.3A154.8,154.8,0,0,1,177.1,180.2c0-1.4,0-2.9.1-4.3h3.3a155.6,155.6,0,0,1,50.3,8.3v88.6a1,1,0,0,0,.9,1h39v22.3a1,1,0,0,0,.9,1h60.8a156.3,156.3,0,0,1,3.8,34.5C336.3,332.7,336.2,333.8,336.2,334.9Zm60.9-80.6h-0.3v-15h16.8v-6.8H396.7V218.3h16.8v-6.8H396.7v-15h16.9v-6.8H396.7v-14h16.8v-6.8H396.7v-15h16.9V147H396.7V133.2h16.9v-6.8H396.7V94h28.3V286.7H282.3V273.8H395.8a1,1,0,0,0,.9-1V261.2h16.8v-6.8H397.1Zm-12,9.1H242.4V72.9H385.2V263.5h-0.1ZM357,297.2h76.2a154.2,154.2,0,0,1-73,35.3v-0.7a180.8,180.8,0,0,0-3.1-34.6H357Zm79.6-3V84.5a1,1,0,0,0-.9-1H396.7v-20a1,1,0,0,0-.9-1H231.3A154.8,154.8,0,1,1,436.6,294.1h-0.1Zm-58.1-35.1h0Zm-43-53.3H318.9V199H373v6.8H335.5Zm10.5-42.6H318.8v-6.8h54.2v6.8h-27Zm0,20.7H318.8v-6.8H373v6.8H345.9Zm0-85.2H318.8V92h54.2v6.8h-27Zm0,21.9H318.8v-6.8h54.2v6.8h-27Zm0,20.7H318.8v-6.8h54.2v6.9h-27Zm-5,88.4h0Zm-5.4,18.9H318.8v-6.7h54.2v6.8H335.5Zm10.5-21.8H318.8V220H373v6.8H345.9Zm-75.8-21H253.5V199h54.2v6.8H270.1Zm10.5-42.6H253.5v-6.8h54.2v6.8h-27Zm0,20.7H253.5v-6.8h54.3v6.8H280.6Zm-5,65.7h0Zm-5.4-.9H253.5v-6.8h54.2v6.8H270.1Zm10.5-21.9H253.5V220h54.3v6.8H280.6Zm0-128H253.5V92h54.2v6.8h-27Zm0,21.9H253.5v-6.8h54.2v6.8h-27Zm0,20.7H253.5v-6.8h54.2v6.8h-27Z"/>
</svg>
