<svg xmlns="http://www.w3.org/2000/svg" width="512" height="512" viewBox="0 0 512 512"><defs><style>.a{fill:#010101;}</style></defs><title>Master_Icons2</title><path class="a" d="M449.8,144.4h-72l-36.3-36.3V69.9h96.4V0.5H326.8V107.7l-36.7,36.7H216.9c-24.7,0-24.6,8.7-24.6,36.5v16.9a69.7,69.7,0,0,0-13.3-3.6,72.2,72.2,0,0,0-38.6,4.1,95.2,95.2,0,0,0-9.6,4.7,84.2,84.2,0,0,0-29.9,30.4,117.7,117.7,0,0,0-5.3,10.5,101,101,0,0,0-7.5,29.3c-1.3,12.5-.3,33.8,2.2,50.5,4.3,28.8,13.2,51.4,26.5,67.4,1.4,1.7,6,6.4,7.6,7.8l0.9,0.8v6.1c0.1,3.3.1,7.7,0.1,9.6-0.1,3.9-.1,4.5-1,6.5a10.4,10.4,0,0,1-4,4.7C100.6,446.5-.3,469.3,1.3,511v1.1H334V510c0-17-23-42-79-66.9H475.3V180.8C475.3,151.6,472.8,144.4,449.8,144.4ZM341.7,14.7H423v41H341.7v-41ZM449.8,172.9V200H433.3l-27.1-27.1h43.6ZM345.5,355.6V223.8h36.4V355.6H345.5Zm-99.7-82.2a98.2,98.2,0,0,0-17-46.4l-2.3-3.2H259V355.6H236.2a179.8,179.8,0,0,0,6.3-25,245.9,245.9,0,0,0,3.8-44.2A99.6,99.6,0,0,0,245.9,273.3Zm38.2-49.5h36.4V355.6H284.1V223.8ZM269.9,200l64-64,64,64h-128Zm-8.3-27.1L234.5,200H216.9V172.9h44.7Zm188.2,251H211.9l-0.4-.6a12.4,12.4,0,0,1-1.7-6.1c0-.8,0-4.3.1-8.3h240v15Zm0-33.4h-232l2.2-2.8a96,96,0,0,0,7.7-12.1H449.8v15Zm-42.9-34.9V223.8h42.9V355.6H406.9Z"/></svg>