<svg xmlns="http://www.w3.org/2000/svg" width="512" height="512" viewBox="0 0 512 512"><title>Master_Icons</title><path d="M509.9,76.6H147.8a3.7,3.7,0,0,0-3.7,3.7V326.6a2.2,2.2,0,0,0,2.2,2.2h19v86.6h38.5V328.8h137V438.5H28.3V241.8H144.1V214.1H4.3a3.8,3.8,0,0,0-3.8,3.8V464.1a2.2,2.2,0,0,0,2.2,2.2H366.3a2.2,2.2,0,0,0,2.2-2.2V328.8H509.9a2.2,2.2,0,0,0,2.2-2.2V78.7A2.2,2.2,0,0,0,509.9,76.6ZM484.3,301H171.9V104.3H484.3V301ZM268.7,283.4H229.1V169h39.6V283.4Zm80.3,0H309.4V116.2H349V283.4Zm82.5,0H391.9v-66h39.6v66ZM88.2,415.4V318.6h38.5v96.8H88.2Zm198-69.3v69.3H247.8V346.1h38.5Z"/></svg>