<svg id="Layer_1" data-name="Layer 1" xmlns="http://www.w3.org/2000/svg" viewBox="0 0 465.05 354.24"><title>Deep_Statistics_Icon</title><path d="M494.3,88.61H165.18A3.39,3.39,0,0,0,161.79,92V315.9a2,2,0,0,0,2,2H181v78.74h35V317.9H340.51v99.72h-284V238.81H161.75V213.59H34.66A3.41,3.41,0,0,0,31.25,217V440.85a2,2,0,0,0,2,2H363.74a2,2,0,0,0,2-2v-123H494.3a2,2,0,0,0,2-2V90.59A2,2,0,0,0,494.3,88.61Zm-23.3,204H187V113.85H471V292.64Z" transform="translate(-31.25 -88.61)"/><rect x="207.75" y="84.03" width="36" height="104"/><rect x="280.75" y="36.03" width="36" height="152"/><rect x="355.75" y="128.03" width="36" height="60"/><rect x="79.75" y="220.03" width="35" height="88"/><rect x="224.75" y="245.03" width="35" height="63"/></svg>