<svg id="Layer_1" data-name="Layer 1" xmlns="http://www.w3.org/2000/svg" viewBox="0 0 510.99 447.77"><title>Developer_Corner_Icon</title><path d="M324,247.78l-44.38,1.38A139.8,139.8,0,0,0,269.19,224l31-33.73A175,175,0,0,0,253.9,144l-33.24,31a140.14,140.14,0,0,0-25.2-10.4l0.91-44.4a163.39,163.39,0,0,0-65.45,0L132,164.6a140.08,140.08,0,0,0-25.2,10.4l-33.4-31a175.06,175.06,0,0,0-46.26,46.26l33.11,32.23a139.79,139.79,0,0,0-10.39,25.19l-46.52.13a163.37,163.37,0,0,0,0,65.45l46.24-.39A139.76,139.76,0,0,0,60,338L27.11,370.78A175,175,0,0,0,73.38,417l32.8-31.66a140.07,140.07,0,0,0,25.2,10.4l-0.46,45.06a162.67,162.67,0,0,0,65.45,0L196.05,396a140,140,0,0,0,25.2-10.4L253.9,417a175,175,0,0,0,46.26-46.26l-30.32-33a139.83,139.83,0,0,0,10.39-25.19L324,313.23A163.4,163.4,0,0,0,324,247.78ZM163.64,351.28a70.77,70.77,0,1,1,70.77-70.77h0A70.85,70.85,0,0,1,163.64,351.28ZM460.2,150.47l27.8-.32-0.43-38.26-27.7.31A61,61,0,0,0,444.3,87.77l13.08-20.84L425,46.59,409.49,71.25a56,56,0,0,0-14.71,0L379.31,46.59l-32.4,20.34L360,87.72a61,61,0,0,0-15.62,24.49l-27.62-.31-0.43,38.26,27.67,0.3a60.91,60.91,0,0,0,13.49,22.9L344,194.62l32.32,20.47,14.77-23.31a58.67,58.67,0,0,0,22.06,0l14.77,23.32,32.32-20.47-13.5-21.31A60.91,60.91,0,0,0,460.2,150.47Zm-58.06,17.28a36.9,36.9,0,1,1,36.9-36.9h0A36.9,36.9,0,0,1,402.14,167.75Zm76,250.11,32.89-.37-0.51-45.26-32.78.37a72.16,72.16,0,0,0-18.42-28.92L474.77,319l-38.34-24.06-18.32,29.19a66.26,66.26,0,0,0-17.4,0L382.4,295l-38.34,24,15.44,24.61a72.17,72.17,0,0,0-18.48,29l-32.68-.37-0.51,45.26,32.8,0.37a72.06,72.06,0,0,0,16,27.09l-15.94,25.16,38.24,24.23,17.47-27.58a69.42,69.42,0,0,0,26.1,0L440,494.36l38.24-24.23-16-25.22A72.07,72.07,0,0,0,478.11,417.86Zm-68.7,20.45a43.67,43.67,0,1,1,43.67-43.67h0a43.67,43.67,0,0,1-43.67,43.67h0Z" transform="translate(-0.01 -46.59)"/></svg>