<?xml version="1.0" encoding="utf-8"?>
<!-- Generator: Adobe Illustrator 17.0.2, SVG Export Plug-In . SVG Version: 6.00 Build 0)  -->
<!DOCTYPE svg PUBLIC "-//W3C//DTD SVG 1.1//EN" "http://www.w3.org/Graphics/SVG/1.1/DTD/svg11.dtd">
<svg version="1.1"
	 id="svg3878" xmlns:rdf="http://www.w3.org/1999/02/22-rdf-syntax-ns#" xmlns:dc="http://purl.org/dc/elements/1.1/" xmlns:cc="http://creativecommons.org/ns#" xmlns:svg="http://www.w3.org/2000/svg" xmlns:inkscape="http://www.inkscape.org/namespaces/inkscape" xmlns:sodipodi="http://sodipodi.sourceforge.net/DTD/sodipodi-0.dtd" inkscape:version="0.48.2 r9819" sodipodi:docname="New document 49"
	 xmlns="http://www.w3.org/2000/svg" xmlns:xlink="http://www.w3.org/1999/xlink" x="0px" y="0px" width="512px" height="512px"
	 viewBox="0 0 512 512" style="enable-background:new 0 0 512 512;" xml:space="preserve">
<sodipodi:namedview  pagecolor="#ffffff" fit-margin-left="0" bordercolor="#666666" inkscape:zoom="0.35" borderopacity="1.0" inkscape:cy="479.75504" showgrid="false" fit-margin-top="0" id="base" inkscape:cx="482.16522" inkscape:pageshadow="2" inkscape:window-height="424" fit-margin-bottom="0" inkscape:document-units="px" inkscape:current-layer="layer1" inkscape:window-y="20" fit-margin-right="0" inkscape:window-maximized="0" inkscape:pageopacity="0.0" inkscape:window-width="483" inkscape:window-x="66">
	</sodipodi:namedview>
<g id="layer1" transform="translate(107.16522,-52.607173)" inkscape:label="Layer 1" inkscape:groupmode="layer">
	<path id="path3889" inkscape:connector-curvature="0" d="M20.527,451.202c-70.082-61.757-127.541-112.829-127.686-113.493
		c-0.231-1.054,6.239-1.207,51.255-1.207h51.519v-75.146v-64.528h153.152h153.151v64.528v75.146h51.459
		c40.795,0,51.459,0.213,51.459,1.027c0,1.088-254.436,225.523-255.982,225.797C148.356,563.416,90.609,512.959,20.527,451.202
		L20.527,451.202z M-4.386,106.163V53.887h153.152h153.151v52.276v52.276H148.766H-4.386V106.163L-4.386,106.163z"/>
</g>
</svg>
