<svg xmlns="http://www.w3.org/2000/svg" width="512" height="512" viewBox="0 0 512 512"><defs><style>.a{fill:#010101;}</style></defs><title>elite-account-management</title><path class="a" d="M89.2,134.8H292.6v29.1H89.2V134.8Zm0,92.7H292.6v29.1H89.2V227.5Zm0,87.9H292.6v29.1H89.2V315.4Zm265-43.6V34H27.6V452H323.9v22.9H4.1V15a0.6,0.6,0,0,1,.6-0.6H377.6V265.3ZM507.6,422.2l-26.3-14a93.9,93.9,0,0,0,2.3-18.2l29.3-9.4a117.5,117.5,0,0,0-11.6-42.4l-29.7,7a94.1,94.1,0,0,0-11.2-14.4l15.3-25.6a109.7,109.7,0,0,0-38.2-21.8l-14.2,26.2a94.1,94.1,0,0,0-18.2-2.3L396,278.3a117.5,117.5,0,0,0-42.4,11.6l8.6,29.8a93.9,93.9,0,0,0-14.4,11.2l-27.2-15.4a109.7,109.7,0,0,0-21.8,38.2l27.1,15.2a93.8,93.8,0,0,0-2.3,18.2l-30,8.2a117.5,117.5,0,0,0,11.6,42.4l29.7-7.5A94.1,94.1,0,0,0,346,444.4l-15.3,26.1a109.2,109.2,0,0,0,38.2,21.8l14.7-26.2a94,94,0,0,0,18.2,2.3l8.6,29.2A117.5,117.5,0,0,0,452.8,486l-6.7-29.4a93.9,93.9,0,0,0,14.4-11.2l25.3,15A109.7,109.7,0,0,0,507.6,422.2Zm-127.9,7a47.5,47.5,0,1,1,64.8-17.7A47.6,47.6,0,0,1,379.6,429.2Z"/></svg>