<svg xmlns="http://www.w3.org/2000/svg" width="512" height="512" viewBox="0 0 512 512"><title>Master_Icons</title><path d="M172.5,315.8H56.6a2,2,0,0,1-2-2V292.6a2,2,0,0,1,2-2H172.5a2,2,0,0,1,2,2v21.3A2,2,0,0,1,172.5,315.8ZM118.1,249V228a2,2,0,0,0-2-2H21.4a2,2,0,0,0-2,2v21a2,2,0,0,0,2,2h94.7A2,2,0,0,0,118.1,249ZM511.8,101.8v317a3.5,3.5,0,0,1-3.5,3.5h-393a3.4,3.4,0,0,1-3.4-3.4V400.1a3,3,0,0,1,3-3H485.2a1.4,1.4,0,0,0,1.4-1.4V132.9a1.4,1.4,0,0,0-2.3-1l-174,174.7a1.9,1.9,0,0,1-2.2,0L126,124a1.4,1.4,0,0,0-.9-0.4H2.1a1.4,1.4,0,0,1-1.4-1.4V101.8a3.4,3.4,0,0,1,3.4-3.4H508.4A3.4,3.4,0,0,1,511.8,101.8Zm-58.3,22.1H164.8a1.4,1.4,0,0,0-.9,2.4L307.2,271.1a1.9,1.9,0,0,0,2.2,0l145-144.9A1.4,1.4,0,0,0,453.5,123.8Z"/></svg>