<svg xmlns="http://www.w3.org/2000/svg" width="512" height="512" viewBox="0 0 512 512"><defs><style>.a{fill:#010101;}</style></defs><title>Master_Icons2</title><path class="a" d="M420,460.9H378.7a5.1,5.1,0,0,1-5.1-5.1V6.9a5.1,5.1,0,0,0-5.1-5.1H109.1A5.1,5.1,0,0,0,104,6.9v99.9a32.7,32.7,0,0,1,19.8,41.6c-0.3,1-.7,2-1.2,2.9l4.4,3.8V131.3a1.6,1.6,0,0,1,1.6-1.6h61.3a1.6,1.6,0,0,1,1.6,1.6v43.9a58.5,58.5,0,0,1,15.2-.2V131.3a1.6,1.6,0,0,1,1.6-1.6h11.9l8.4-30.8H208.2a1.6,1.6,0,0,1-1.6-1.6V21.6a1.6,1.6,0,0,1,1.6-1.6h30.4a32.6,32.6,0,0,1,24.8-1.3l3.2,1.3h2.8a1.6,1.6,0,0,1,1.6,1.6v0.9a32.7,32.7,0,0,1,0,54.1V97.4a1.6,1.6,0,0,1-1.6,1.6H246l-8.4,30.8h31.9a1.6,1.6,0,0,1,1.6,1.6v75.8a1.6,1.6,0,0,1-1.6,1.6H253.4a58.6,58.6,0,0,1,5.4,21.6l22-.8a33.2,33.2,0,0,1,1.3-4.8,32.8,32.8,0,0,1,12-16h-6.9a1.6,1.6,0,0,1-1.6-1.6V131.3a1.6,1.6,0,0,1,1.6-1.6h61.3a1.6,1.6,0,0,1,1.6,1.6v75.8a1.6,1.6,0,0,1-1.6,1.6H332.3A33,33,0,0,1,346,239.4h2.5A1.6,1.6,0,0,1,350,241v75.8a1.6,1.6,0,0,1-1.6,1.6H287.2a1.6,1.6,0,0,1-1.6-1.6V253.5a33.2,33.2,0,0,1-3.6-7.3l-11,.4v68.4l24.6,34a32.6,32.6,0,0,1,22.8-1.5,33,33,0,0,1,4.3,1.6h25.7a1.6,1.6,0,0,1,1.6,1.6v75.8a1.6,1.6,0,0,1-1.6,1.6H287.2a1.6,1.6,0,0,1-1.6-1.6V401.7a32.7,32.7,0,0,1-3.1-42.1l-29.8-41.3H208.2a1.6,1.6,0,0,1-1.6-1.6V291.9a58.6,58.6,0,0,1-15.2-.3v25.1a1.6,1.6,0,0,1-1.6,1.6H158.5l-5,8.2a32.8,32.8,0,0,1,7,22.5h29.3a1.6,1.6,0,0,1,1.6,1.6v75.8a1.6,1.6,0,0,1-1.6,1.6H128.6a1.6,1.6,0,0,1-1.6-1.6V379.7a32.8,32.8,0,0,1-23-10.3v86.5a5.1,5.1,0,0,1-5.1,5.1H57.6a5.1,5.1,0,0,0-5.1,5.1v41a5.1,5.1,0,0,0,5.1,5.1h149V460.5a1.2,1.2,0,0,1,1.2-1.2h28.1a1.2,1.2,0,0,1,1.2,1.2V512h3.5V460.5a1.2,1.2,0,0,1,1.2-1.2h28.1a1.2,1.2,0,0,1,1.2,1.2V512H420a5.1,5.1,0,0,0,5.1-5.1v-41A5.1,5.1,0,0,0,420,460.9ZM191.4,97.4a1.6,1.6,0,0,1-1.6,1.6H128.6a1.6,1.6,0,0,1-1.6-1.6V21.6a1.6,1.6,0,0,1,1.6-1.6h61.3a1.6,1.6,0,0,1,1.6,1.6V97.4ZM271,426.5a1.6,1.6,0,0,1-1.6,1.6H208.2a1.6,1.6,0,0,1-1.6-1.6V350.7a1.6,1.6,0,0,1,1.6-1.6h61.3a1.6,1.6,0,0,1,1.6,1.6v75.8ZM350,97.4a1.6,1.6,0,0,1-1.6,1.6H287.2a1.6,1.6,0,0,1-1.6-1.6V21.6a1.6,1.6,0,0,1,1.6-1.6h61.3a1.6,1.6,0,0,1,1.6,1.6V97.4ZM104,324.5V243.1l23-.7v71.9A32.8,32.8,0,0,0,104,324.5Zm23-147.2v29.7a1.6,1.6,0,0,0,1.6,1.6h18a58.7,58.7,0,0,0-4.4,13.5c-0.2,1-.3,1.9-0.5,2.9L104,226.2V168.4a33,33,0,0,0,7.9-4.1Zm-7,192.8a24.6,24.6,0,1,1,16.3-46.5l3.1,1.3,31.5-52.1a49.4,49.4,0,0,1-19.6-35.2l-82.5,2.6a24.6,24.6,0,1,1-.3-8.8l82.8-2.6q0.2-2.4.7-4.9a49.1,49.1,0,0,1,9.8-21.2l-53.2-46.3a24.5,24.5,0,1,1,5.8-6.6l53.5,46.5a49.2,49.2,0,0,1,40.6-11.6L240,70.6a24.7,24.7,0,1,1,8.2,3.3L217,187a49.3,49.3,0,0,1,32.7,47.5l38.7-1.2a24.7,24.7,0,1,1,.8,8.8l-40.5,1.3A49.1,49.1,0,0,1,233.4,270l62.8,86.9a24.5,24.5,0,1,1-6.7,5.7l-63.1-87.3a49.3,49.3,0,0,1-48,2.2l-32,52.9A24.7,24.7,0,0,1,120,370.2Z"/></svg>