<svg xmlns="http://www.w3.org/2000/svg" width="512" height="512" viewBox="0 0 512 512"><defs><style>.a{fill:#010101;}</style></defs><title>Master_Icons2</title><path class="a" d="M505.9,304.4A249.1,249.1,0,0,1,432.9,481H373.7a213.4,213.4,0,0,0,58-57.6L419,412.8a6.7,6.7,0,0,1-.9-9.4l12.2-14.7a6.7,6.7,0,0,1,9.4-.9l8.4,6.9a210.8,210.8,0,0,0,19.3-71.8H452.4a6.7,6.7,0,0,1-6.7-6.7V297.1a6.7,6.7,0,0,1,6.7-6.7h15.3a210.9,210.9,0,0,0-20.8-78.8l-14.8,10.6a6.7,6.7,0,0,1-9.3-1.5l-11.1-15.5a6.7,6.7,0,0,1,1.5-9.3l17.2-12.3a213.4,213.4,0,0,0-51.4-52l-16.6,20a6.7,6.7,0,0,1-9.4.9l-14.7-12.2a6.7,6.7,0,0,1-.9-9.4l13.4-16.2a210.9,210.9,0,0,0-78.3-21.7V118a6.7,6.7,0,0,1-6.7,6.7H246.7A6.7,6.7,0,0,1,240,118V92.8A210.9,210.9,0,0,0,162.3,114l13.9,16.8a6.7,6.7,0,0,1-.9,9.4l-14.7,12.2a6.7,6.7,0,0,1-9.4-.9L134,130.8a213.4,213.4,0,0,0-51.9,52l18.2,13a6.7,6.7,0,0,1,1.5,9.3L90.7,220.7a6.7,6.7,0,0,1-9.3,1.5L65.5,210.9a210.9,210.9,0,0,0-21.2,79.6H61.1a6.7,6.7,0,0,1,6.7,6.7v19.1a6.7,6.7,0,0,1-6.7,6.7H44.6a210.8,210.8,0,0,0,19.7,72.7l9.4-7.8a6.7,6.7,0,0,1,9.4.9l12.2,14.7a6.7,6.7,0,0,1-.9,9.4L80.8,424.2A213.4,213.4,0,0,0,138.3,481H79.1A249.1,249.1,0,0,1,6.1,304.4C6.1,166.4,118,54.5,256,54.5S505.9,166.4,505.9,304.4ZM378.3,246.2l-9.6-16.6a6.7,6.7,0,0,0-9.2-2.5l-85.1,49.1a34.4,34.4,0,1,0,14.9,29l86.5-49.9A6.7,6.7,0,0,0,378.3,246.2Z"/></svg>