<svg id="Layer_1" data-name="Layer 1" xmlns="http://www.w3.org/2000/svg" viewBox="0 0 512 512"><title>featured-vizz-icon</title><path d="M393.88,187.34c0,9.48-3.44,13.54-12.53,13.55h-4.29V174.25h4.18C390.38,174.25,393.88,178.42,393.88,187.34Zm-86.17-13.26h-6.27v11.4h6.27c5.28,0,7.85-1.48,7.85-5.76C315.56,175.6,313,174.08,307.71,174.08Zm-112.3,4.06H195.3l-4.91,14.22h9.82ZM423.5,420.53c-91.69,93.32-241.68,94.65-335,3C-2,331.33-2,183.61,88.5,91.45c91.69-93.32,241.68-94.65,335-3C514,180.65,514,328.37,423.5,420.53Zm54-175.44h-0.89c0.18,3.54.27,7.13,0.27,10.67h0.89C477.76,252.2,477.68,248.6,477.5,245.09ZM260,192.14V166.57h-9.18v25.79c0,10.22,5.25,16.65,16.88,16.65s16.82-6.44,16.82-16.71h-0.06V166.57h-9v25.57c0,6.1-2.19,9.43-7.67,9.43S260,198.14,260,192.14Zm-13.2,32v133.4H276V224.18h-29.2Zm69-32.79c5.59-1.69,8.69-5.31,8.69-11.91,0-9.25-6.15-12.92-16.42-12.92H292.44v41.75h9V192.57h5.3l8.69,15.75h9.71Zm25.57-8.15v-9h19.25v-7.68H332.2v41.78h29.46V200.9H341.4V190.52h13.94v-7.28H341.4ZM301,224.18v24.34h65.07l-69.58,88.87v20.19H403.08v-23.8H334.94l68.14-88.69h0V224.18H301Zm102-37c0-15.24-9.6-20.66-22.35-20.66H367.92v41.76h12.82C393.33,208.33,403.09,202.91,403.09,187.22Zm-282.9-2.82V174.24h18.37v-7.68H111v41.76h9.2V191.68h13.09V184.4H120.19Zm-11.32,39.77,46,133.94H182.6l46-133.93H201l-31.54,95.35h-0.36l-30.47-95.36H108.87Zm44.38-40.93v-9h19.22v-7.68H144.06v41.78h29.45V200.9H153.25V190.52h13.94v-7.28H153.25Zm31.66,25.08,3.22-9.31h14.24l3.1,9.31h9.31L200,166.39h-8.78l-14.77,41.93h8.47Zm48.59,0V174.24H246v-7.68h-34.1v7.68H224.3v34.09h9.2Zm222.78-45.59c1.5,3.2,2.93,6.49,4.27,9.76l0.82-.34c-1.34-3.29-2.78-6.59-4.28-9.8Zm-10-18.87c1.79,3,3.54,6.17,5.19,9.31l0.79-.41c-1.66-3.15-3.41-6.29-5.21-9.34Zm-11.71-17.81c2.07,2.86,4.13,5.77,6.07,8.77l0.74-.49c-2-3-4-5.93-6.09-8.8Zm-13.38-16.61c2.36,2.66,4.68,5.4,6.89,8.15l0.69-.56c-2.22-2.76-4.55-5.51-6.91-8.18ZM406.38,94.19c2.64,2.45,5.16,4.92,7.64,7.45l0.64-.62c-2.49-2.54-5.07-5.06-7.67-7.48Zm-12,7.77,0.1,0.09Zm-4.29-21.53c2.82,2.16,5.62,4.41,8.32,6.69l0.57-.68c-2.72-2.29-5.53-4.55-8.36-6.72ZM372.55,68.28c3,1.86,6,3.86,8.93,5.86l0.51-.73c-3-2-6-4-9-5.88Zm-18.74-10.4c3.18,1.61,6.37,3.28,9.46,5l0.43-.78c-3.11-1.74-6.3-3.42-9.5-5Zm-19.59-8.54c3.3,1.22,6.64,2.58,9.9,4l0.35-.81c-3.28-1.38-6.63-2.74-10-4Zm-20.33-6.52c3.41,0.88,6.85,1.91,10.23,3l0.27-.85c-3.39-1-6.85-2.12-10.27-3ZM293,38.2c3.48,0.56,7,1.24,10.48,2l0.19-.87c-3.52-.72-7-1.41-10.52-2Zm-21.18-2.53c3.53,0.24,7.1.58,10.62,1l0.11-.88c-3.53-.41-7.12-0.75-10.67-1Zm-21.32-.49c3.58-.08,7.2-0.08,10.68,0V34.29h0c-3.5-.08-7.13-0.08-10.68,0v0.89Zm-21.41.64,0.11,0.88c3.51-.4,7.09-0.75,10.62-1l-0.06-.89h0C236.25,35.06,232.66,35.41,229.13,35.82ZM208,39.43l0.21,0.83c3.48-.72,7-1.41,10.48-2l-0.15-.88h0C215,38,211.49,38.66,208,39.43Zm-20.65,5.63,0.27,0.85c3.37-1,6.81-2.12,10.23-3L197.61,42C194.17,42.92,190.72,44,187.34,45.06Zm-20,7.59,0.36,0.81c3.25-1.4,6.57-2.75,9.86-4l-0.32-.83v0C173.92,49.87,170.59,51.23,167.34,52.65Zm-19.21,9.57L148.56,63c3.1-1.77,6.27-3.44,9.43-5l-0.34-.82h0C154.47,58.74,151.28,60.42,148.13,62.22ZM130,73.46l0.56,0.72c2.91-2,5.91-4,8.91-5.85L139,67.58C135.94,69.46,132.92,71.44,130,73.46Zm-17,13,0.59,0.68c2.7-2.28,5.5-4.53,8.31-6.68l-0.54-.71C118.52,81.92,115.72,84.17,113,86.47ZM97.32,101.06L98,101.68c2.47-2.53,5-5,7.64-7.45L105,93.58C102.38,96,99.8,98.52,97.32,101.06Zm-14.24,16,0.69,0.56c2.22-2.76,4.54-5.5,6.89-8.15L90,108.9C87.65,111.56,85.32,114.32,83.08,117.08ZM70.45,134.41l0.74,0.49c1.95-3,4-5.92,6.08-8.78l-0.7-.51C74.48,128.48,72.43,131.45,70.45,134.41ZM59.58,152.92l0.79,0.41c1.65-3.13,3.4-6.27,5.2-9.33l-0.77-.47C63,146.6,61.24,149.76,59.58,152.92Zm-9.07,19.45,0.82,0.34c1.34-3.28,2.78-6.58,4.28-9.8l-0.8-.37C53.31,165.76,51.87,169.07,50.51,172.37ZM43.4,192.6l0.85,0.25c1-3.4,2.12-6.81,3.29-10.15l-0.83-.28C45.54,185.76,44.42,189.19,43.4,192.6Zm-5.11,20.81,0.87,0.17c0.67-3.47,1.44-7,2.29-10.42L40.6,203C39.75,206.4,39,209.91,38.29,213.41ZM36.51,224c-0.52,3.47-.94,7-1.28,10.59l0.88,0.09c0.34-3.54.76-7.11,1.27-10.6L36.5,224v0Zm-2.74,32v0.8h0.89v-0.89c0-3.55.19-7.14,0.36-10.67H34.24c-0.17,3.54-.48,7.14-0.48,10.71v0Zm2.39,21.77c-0.35-3.52-.61-7.1-0.79-10.64H34.48c0.18,3.56.44,7.15,0.79,10.69Zm3.11,21.07q-1-5.28-1.81-10.52l-0.88.13c0.51,3.56,1.12,7.07,1.81,10.56Zm5.12,20.72c-1-3.38-2-6.85-2.82-10.29l-0.86.21c0.83,3.45,1.83,6.93,2.83,10.33Zm7.13,20.15c-1.35-3.31-2.63-6.66-3.81-10l-0.84.3c1.19,3.34,2.47,6.71,3.82,10Zm9,19.25c-1.66-3.13-3.25-6.34-4.75-9.54L55,349.8c1.5,3.22,3.1,6.44,4.76,9.58ZM71.4,377.27c-2-2.91-3.85-6-5.65-9l-0.77.45c1.81,3.08,3.67,6.08,5.67,9.08ZM84,394.54c-2.23-2.76-4.42-5.6-6.5-8.46l-0.72.52c2.09,2.86,4.29,5.72,6.52,8.49Zm14.17,15.93c-2.48-2.53-4.93-5.15-7.28-7.8l-0.67.59c2.36,2.65,4.82,5.29,7.31,7.83ZM113.82,425c-2.71-2.28-5.4-4.65-8-7.07l-0.6.65c2.58,2.43,5.29,4.81,8,7.1Zm16.9,12.94c-2.92-2-5.82-4.12-8.64-6.27l-0.54.71c2.83,2.16,5.75,4.3,8.68,6.3Zm18.2,11.29c-3.1-1.72-6.21-3.54-9.21-5.41l-0.47.76c3,1.87,6.13,3.7,9.25,5.43Zm19.16,9.45c-3.25-1.41-6.51-2.92-9.7-4.49L158,455c3.2,1.58,6.48,3.09,9.74,4.51Zm20,7.55c-3.38-1.09-6.78-2.27-10.1-3.53l-0.31.83c3.34,1.26,6.75,2.46,10.14,3.55Zm20.6,5.56c-3.47-.76-7-1.61-10.37-2.53l-0.23.86c3.41,0.93,6.93,1.78,10.41,2.54Zm21,3.52c-3.56-.42-7.07-0.93-10.56-1.51l-0.15.88c3.51,0.59,7.07,1.1,10.61,1.52ZM251,476.8c-3.55-.08-7.13-0.24-10.66-0.49l-0.06.89c3.54,0.25,7.14.41,10.7,0.49Zm21.42,0.36-0.06-.89c-3.53.26-7.11,0.44-10.66,0.53v0.91C265.28,477.62,268.88,477.44,272.44,477.16Zm21.24-2.59-0.15-.88c-3.49.6-7,1.12-10.56,1.55l0.11,0.88v0C286.62,475.71,290.18,475.19,293.68,474.57Zm20.92-4.64-0.23-.86c-3.42.93-6.91,1.79-10.36,2.56l0.19,0.87v0C307.67,471.75,311.17,470.89,314.6,469.93ZM335,463.3l-0.34-.86c-3.32,1.27-6.7,2.46-10.06,3.56l0.28,0.85v0C328.24,465.77,331.64,464.57,335,463.3Zm19.57-8.59-0.4-.8c-3.17,1.58-6.41,3.09-9.65,4.51l0.36,0.81v0C348.12,457.83,351.38,456.31,354.56,454.71Zm18.65-10.42-0.47-.75c-3,1.87-6.09,3.69-9.18,5.42l0.43,0.78C367.12,448,370.22,446.17,373.21,444.29ZM390.8,432.1l-0.54-.7c-2.82,2.15-5.72,4.28-8.62,6.28l0.51,0.73h0C385.09,436.39,388,434.26,390.8,432.1Zm16.39-13.81-0.61-.65c-2.61,2.42-5.3,4.8-8,7.09l0.57,0.68v0C401.88,423.08,404.57,420.69,407.19,418.29ZM422.12,403l-0.67-.59c-2.35,2.65-4.79,5.28-7.27,7.82l0.64,0.62v0C417.32,408.22,419.77,405.58,422.12,403Zm13.38-16.76-0.72-.52c-2.08,2.87-4.26,5.72-6.48,8.49l0.69,0.56C431.27,391.94,433.46,389.08,435.5,386.19Zm11.76-17.94-0.77-.45c-1.8,3.08-3.7,6.08-5.64,9.08l0.74,0.49h0C443.59,374.4,445.49,371.33,447.26,368.25Zm9.95-19-0.81-.38c-1.48,3.2-3.08,6.43-4.73,9.58l0.79,0.41h0C454.17,355.72,455.77,352.48,457.21,349.27Zm8-19.9-0.84-.29c-1.17,3.35-2.45,6.71-3.78,10l0.82,0.33h0.09C462.89,336.12,464.16,332.74,465.26,329.37Zm2.31-136.75,0.85-.26c-1-3.4-2.13-6.83-3.32-10.19l-0.84.29h0.09C465.53,185.82,466.64,189.23,467.57,192.62Zm3.78,116.21-0.86-.21c-0.85,3.45-1.79,6.91-2.79,10.3l0.85,0.25h0.09C469.65,315.78,470.59,312.3,471.35,308.83Zm1.32-95.5,0.87-.17c-0.68-3.46-1.46-7-2.31-10.46l-0.86.21h0.09C471.31,206.35,472.08,209.86,472.67,213.33Zm2.75,74.47-0.88-.13c-0.5,3.52-1.1,7-1.77,10.52l0.87,0.17h0.09C474.4,294.87,475,291.32,475.42,287.8Zm0.33-53.35,0.89-.09c-0.34-3.55-.78-7.13-1.29-10.64l-0.88.13h0.09C475.07,227.35,475.5,230.92,475.75,234.45Zm1.68,32h-0.89c-0.16,3.56-.42,7.14-0.75,10.65l0.89,0.08h0.09C477.1,273.64,477.36,270,477.43,266.43ZM512,256c0,141.39-114.61,256-256,256S0,397.38,0,256,114.61,0,256,0,512,114.61,512,256ZM424.14,87.86C331.27-5,180.72-5,87.86,87.87S-5,331.29,87.86,424.15s243.42,92.86,336.28,0S517,180.72,424.14,87.86Z"/></svg>