<svg id="Layer_1" data-name="Layer 1" xmlns="http://www.w3.org/2000/svg" viewBox="0 0 511.15 469.31"><title>Find_Training_Icon</title><path d="M0.85,212.59l50.38,63,64.57-54.24-16.33-18.4L69.56,228.22C80.65,119.52,165.69,43.51,277.34,43.51c119.15,0,205.2,93.34,205.2,212.49s-86,205.2-205.2,205.2c-93.12,0-162-48.54-192.17-131.13H54.64c31.05,93.25,119.09,160.58,222.7,160.58C406.83,490.66,512,385.48,512,256S406.83,21.34,277.34,21.34c-121.92,0-221.69,87.82-233,206.8L21.26,196.59ZM274,259V126H250V285h95V259H274Z" transform="translate(-0.85 -21.34)"/></svg>