<svg xmlns="http://www.w3.org/2000/svg" width="512" height="512" viewBox="0 0 512 512"><title>Master_Icons</title><path d="M492,133.1H243.4a2.4,2.4,0,0,1-1.7-.7L192.8,83.6a2.4,2.4,0,0,0-1.7-.7H94.4a2.4,2.4,0,0,0-2,1.1L61,115.1a2.4,2.4,0,0,1-2,1.1H10.2a2.4,2.4,0,0,0-2.4,2.4V454.9c0,1.3,486.6,1.3,486.6,0V135.5A2.4,2.4,0,0,0,492,133.1ZM469,430.7H33.1v-287a2.2,2.2,0,0,1,2.2-2.2H69.4a2.2,2.2,0,0,0,1.8-1l31.5-31.4a2.2,2.2,0,0,1,1.8-1h76.4a2.2,2.2,0,0,1,1.5.6l50.7,50.5a2.2,2.2,0,0,0,1.5.6H466.8a2.2,2.2,0,0,1,2.2,2.2V430.7Z"/></svg>