<svg id="Layer_1" data-name="Layer 1" xmlns="http://www.w3.org/2000/svg" viewBox="0 0 512 512"><title>Master_Icons</title><path d="M492,133.08H243.4a2.4,2.4,0,0,1-1.68-.69l-48.9-48.82a2.4,2.4,0,0,0-1.68-.69H94.36a2.4,2.4,0,0,0-2,1.09L61,115.12a2.4,2.4,0,0,1-2,1.09H10.22a2.4,2.4,0,0,0-2.4,2.4V454.94c0,1.32,486.61,1.33,486.61,0V135.48A2.4,2.4,0,0,0,492,133.08ZM469,430.7h-436v-287a2.2,2.2,0,0,1,2.2-2.2H69.38a2.2,2.2,0,0,0,1.84-1l31.46-31.4a2.2,2.2,0,0,1,1.85-1H180.9a2.2,2.2,0,0,1,1.54.63l50.7,50.51a2.2,2.2,0,0,0,1.54.63H466.82a2.2,2.2,0,0,1,2.2,2.2V430.7Z"/></svg>