<svg id="Layer_1" data-name="Layer 1" xmlns="http://www.w3.org/2000/svg" viewBox="0 0 512 512"><title>Master_Icons</title><path d="M256,0C114.61,0,0,114.62,0,256S114.61,512,256,512,512,397.39,512,256,397.39,0,256,0ZM478.61,256a221.77,221.77,0,0,1-10.51,67.61H370A541.68,541.68,0,0,0,374.15,256a536.76,536.76,0,0,0-5.45-77.08h96.14A221.55,221.55,0,0,1,478.61,256ZM256,478.61c-25,0-58.09-45.26-74.56-121.6H330.56C314.09,433.35,281,478.61,256,478.61Zm-80.36-155a507.59,507.59,0,0,1-4.4-67.61A500.59,500.59,0,0,1,177,178.92H335A500.46,500.46,0,0,1,340.76,256a507.58,507.58,0,0,1-4.4,67.61H175.64ZM33.39,256a221.55,221.55,0,0,1,13.76-77.08H143.3A548.44,548.44,0,0,0,142,323.62H43.9A221.8,221.8,0,0,1,33.39,256ZM256,33.39c23.92,0,55.32,41.53,72.39,112.14H183.61C200.68,74.92,232.09,33.39,256,33.39ZM449.21,145.53h-86.6C353.44,104,339.26,68.75,321.78,43.31A223.69,223.69,0,0,1,449.21,145.53Zm-259-102.22C172.74,68.75,158.56,104,149.39,145.53H62.79A223.69,223.69,0,0,1,190.23,43.31ZM57.66,357h89.75c9,45.58,24,84.33,42.82,111.68A223.72,223.72,0,0,1,57.66,357ZM321.77,468.69c18.8-27.35,33.78-66.1,42.82-111.68h89.75A223.73,223.73,0,0,1,321.77,468.69Z"/></svg>