<svg xmlns="http://www.w3.org/2000/svg" width="512" height="512" viewBox="0 0 512 512"><title>Master_Icons</title><path d="M256,0C114.6,0,0,114.6,0,256S114.6,512,256,512,512,397.4,512,256,397.4,0,256,0ZM478.6,256a221.8,221.8,0,0,1-10.5,67.6H370a541.7,541.7,0,0,0,4.2-67.6,536.8,536.8,0,0,0-5.5-77.1h96.1A221.6,221.6,0,0,1,478.6,256ZM256,478.6c-25,0-58.1-45.3-74.6-121.6H330.6C314.1,433.4,281,478.6,256,478.6Zm-80.4-155a507.6,507.6,0,0,1-4.4-67.6,500.6,500.6,0,0,1,5.8-77.1H335a500.5,500.5,0,0,1,5.8,77.1,507.6,507.6,0,0,1-4.4,67.6H175.6ZM33.4,256a221.5,221.5,0,0,1,13.8-77.1h96.1A548.4,548.4,0,0,0,142,323.6H43.9A221.8,221.8,0,0,1,33.4,256ZM256,33.4c23.9,0,55.3,41.5,72.4,112.1H183.6C200.7,74.9,232.1,33.4,256,33.4ZM449.2,145.5H362.6c-9.2-41.5-23.4-76.8-40.8-102.2A223.7,223.7,0,0,1,449.2,145.5ZM190.2,43.3c-17.5,25.4-31.7,60.7-40.8,102.2H62.8A223.7,223.7,0,0,1,190.2,43.3ZM57.7,357h89.7c9,45.6,24,84.3,42.8,111.7A223.7,223.7,0,0,1,57.7,357ZM321.8,468.7c18.8-27.4,33.8-66.1,42.8-111.7h89.7A223.7,223.7,0,0,1,321.8,468.7Z"/></svg>