<svg id="Layer_1" data-name="Layer 1" xmlns="http://www.w3.org/2000/svg" viewBox="0 0 512 512"><title>Master_Icons</title><path d="M250.56,0C161.87,0,90,70.7,90,163.93c0,55.1,24.8,107.71,66.94,139.66,15.53,11.77,19.72,12.15,19.72,52.72v93.51S174.72,512,250.56,512c77.81,0,76.88-62.84,76.88-62.84V356.3c0-36,3-45.5,13.62-52.93,42.75-29.78,70.09-81.67,70.09-139.61C411.15,70.53,339.25,0,250.56,0Zm50.39,456.56s-1.91,31.18-51,31.18c-46,0-47.18-31.18-47.18-31.18v-19.9h98.18v19.9Zm0-46.15H202.51V378.14h98.44V410.4Zm15.21-121.15s-15.12,9.67-15.12,33V356.3H268.79V203.55h16s8,0.81,8-6.54-8-6.57-8-6.57h-16v-8.08s1.77-21.52-17.8-21.52c-17.95,0-16.44,21.52-16.44,21.52v8.08h-16s-7.94-.8-7.94,6.57,7.94,6.54,7.94,6.54h16V355.84h-32V322.78c0-15.48-7.06-27.06-19-34-41.17-23-64.5-72.37-64.5-124.81,0-79.1,56.27-136.72,131.52-136.72S382.93,84.66,382.93,163.76C382.93,216.2,356.16,264.3,316.16,289.25Z"/></svg>