<svg xmlns="http://www.w3.org/2000/svg" width="512" height="512" viewBox="0 0 512 512"><title>Master_Icons</title><path d="M250.6,0C161.9,0,90,70.7,90,163.9c0,55.1,24.8,107.7,66.9,139.7,15.5,11.8,19.7,12.2,19.7,52.7v93.5S174.7,512,250.6,512c77.8,0,76.9-62.8,76.9-62.8V356.3c0-36,3-45.5,13.6-52.9,42.8-29.8,70.1-81.7,70.1-139.6C411.2,70.5,339.3,0,250.6,0Zm50.4,456.6s-1.9,31.2-51,31.2c-46,0-47.2-31.2-47.2-31.2V436.7h98.2v19.9Zm0-46.2H202.5V378.1h98.4v32.3Zm15.2-121.2s-15.1,9.7-15.1,33v34.1H268.8V203.6h16s8,0.8,8-6.5-8-6.6-8-6.6h-16v-8.1s1.8-21.5-17.8-21.5c-17.9,0-16.4,21.5-16.4,21.5v8.1h-16s-7.9-.8-7.9,6.6,7.9,6.5,7.9,6.5h16V355.8h-32V322.8c0-15.5-7.1-27.1-19-34-41.2-23-64.5-72.4-64.5-124.8,0-79.1,56.3-136.7,131.5-136.7S382.9,84.7,382.9,163.8C382.9,216.2,356.2,264.3,316.2,289.3Z"/></svg>