<svg id="Layer_1" data-name="Layer 1" xmlns="http://www.w3.org/2000/svg" viewBox="0 0 511.82 512"><title>invite-people</title><path d="M406.82,360.21v-64h-72v-38h72v-73h38v73h66v38h-66v64h-38ZM-1,512V433.3h0q0-.58,0-1.16C-1.27,376,137.09,344.47,164,317.58c2.8-2.67,4.53-6.73,4.36-12,0-2.27-.21-25.22-0.21-25.22S133.5,246.58,120.41,178c-3.42-22.72-4.66-51.77-2.95-68.83a137.75,137.75,0,0,1,10.26-40,160.52,160.52,0,0,1,7.18-14.36C145.35,37.08,159.14,23,175.61,13.37a129.82,129.82,0,0,1,13-6.4A102.84,102.84,0,0,1,263,7a129.82,129.82,0,0,1,13,6.4C292.51,23,306.3,37.08,316.75,54.84a160.52,160.52,0,0,1,7.18,14.36,137.75,137.75,0,0,1,10.26,40c1.71,17.06,4.17,39.41-2.95,68.83-20.74,81.55-47.38,101.59-47.74,102.3,0,0-.2,22.95-0.21,25.22-0.17,5.3,1.56,9.36,4.36,12,26.91,26.89,165.28,58.45,165,114.56q0,0.58,0,1.16h0V512H-1Z" transform="translate(1 0)"/></svg>