<svg xmlns="http://www.w3.org/2000/svg" width="512" height="512" viewBox="0 0 512 512"><title>Master_Icons</title><path d="M407.9,360.2v-64h-72v-38h72v-73h38v73h66v38h-66v64h-38ZM0.1,512V433.3h0v-1.2c-0.3-56.1,138.1-87.7,165-114.6,2.8-2.7,4.5-6.7,4.4-12,0-2.3-.2-25.2-0.2-25.2S134.6,246.6,121.5,178c-3.4-22.7-4.7-51.8-2.9-68.8a137.8,137.8,0,0,1,10.3-40A160.5,160.5,0,0,1,136,54.8c10.4-17.7,24.2-31.8,40.7-41.4a129.8,129.8,0,0,1,13-6.4,102.8,102.8,0,0,1,74.4,0,129.8,129.8,0,0,1,13,6.4c16.5,9.6,30.3,23.7,40.8,41.4A160.5,160.5,0,0,1,325,69.2a137.8,137.8,0,0,1,10.3,40c1.7,17.1,4.2,39.4-3,68.8-20.7,81.6-47.4,101.6-47.7,102.3s-0.2,23-.2,25.2c-0.2,5.3,1.6,9.4,4.4,12,26.9,26.9,165.3,58.5,165,114.6v1.2h0V512H0.1Z"/></svg>