<svg id="Layer_1" data-name="Layer 1" xmlns="http://www.w3.org/2000/svg" viewBox="0 0 379.75 512"><title>Knowledge_Base_Icon</title><path d="M305.73,447.14h31.33V421.32c0-42.58,3.5-53.81,16.11-62.59C403.71,323.51,436,262.16,436,193.64,436,83.39,351,0,246.15,0S56.25,83.59,56.25,193.84C56.25,259,85.58,321.2,135.41,359c18.36,13.92,23.32,14.37,23.32,62.34v25.82h147v0ZM289.17,248l47.39-49.41V191H308.64L258.5,242l0.38,179.33h-17V242L191.4,191h-30l0.19,7.62L212.19,248V420.93H189.42V381.68c0-18.31-8.35-32-22.52-40.26-48.68-27.14-76.27-85.58-76.27-147.58,0-93.54,66.53-161.67,155.51-161.67S402.67,100.1,402.67,193.64c0,62-31.66,118.88-79,148.39,0,0-17.88,11.43-17.88,39v39.9H289.17V248ZM173.35,475.78H320.94V512H173.35V475.78Z" transform="translate(-56.25)"/></svg>