<svg xmlns="http://www.w3.org/2000/svg" width="512" height="512" viewBox="0 0 512 512"><title>Master_Icons</title><path d="M246.1,0C141.3,0,56.3,83.6,56.3,193.8c0,65.2,29.3,127.4,79.2,165.1,18.4,13.9,23.3,14.4,23.3,62.3v25.8H337.1V421.3c0-42.6,3.5-53.8,16.1-62.6,50.6-35.2,82.9-96.6,82.9-165.1C436,83.4,351,0,246.1,0Zm77.6,342s-17.9,11.4-17.9,39v39.9H289.2V248l47.4-49.4V191H308.6l-50.1,51,0.4,179.3h-17V242l-50.5-51h-30l0.2,7.6L212.2,248V420.9H189.4V381.7c0-18.3-8.3-32-22.5-40.3-48.7-27.1-76.3-85.6-76.3-147.6,0-93.5,66.5-161.7,155.5-161.7s156.5,67.9,156.5,161.5C402.7,255.7,371,312.5,323.7,342ZM173.4,475.8H320.9V512H173.4V475.8Z"/></svg>