<?xml version="1.0" encoding="utf-8"?>
<!-- Generator: Adobe Illustrator 17.0.2, SVG Export Plug-In . SVG Version: 6.00 Build 0)  -->
<!DOCTYPE svg PUBLIC "-//W3C//DTD SVG 1.1//EN" "http://www.w3.org/Graphics/SVG/1.1/DTD/svg11.dtd">
<svg version="1.1"
	 id="svg3301" xmlns:rdf="http://www.w3.org/1999/02/22-rdf-syntax-ns#" xmlns:dc="http://purl.org/dc/elements/1.1/" xmlns:cc="http://creativecommons.org/ns#" xmlns:svg="http://www.w3.org/2000/svg" xmlns:inkscape="http://www.inkscape.org/namespaces/inkscape" xmlns:sodipodi="http://sodipodi.sourceforge.net/DTD/sodipodi-0.dtd" inkscape:version="0.48.2 r9819" sodipodi:docname="New document 11"
	 xmlns="http://www.w3.org/2000/svg" xmlns:xlink="http://www.w3.org/1999/xlink" x="0px" y="0px" width="512px" height="512px"
	 viewBox="0 0 512 512" style="enable-background:new 0 0 512 512;" xml:space="preserve">
<sodipodi:namedview  pagecolor="#ffffff" fit-margin-left="0" bordercolor="#666666" inkscape:zoom="0.35" borderopacity="1.0" inkscape:cy="42.158067" showgrid="false" fit-margin-top="0" id="base" inkscape:cx="279.33603" inkscape:pageshadow="2" inkscape:window-height="597" fit-margin-bottom="0" inkscape:document-units="px" inkscape:current-layer="layer1" inkscape:window-y="20" fit-margin-right="0" inkscape:window-maximized="0" inkscape:pageopacity="0.0" inkscape:window-width="749" inkscape:window-x="66">
	</sodipodi:namedview>
<g>
	<path d="M423.773,99.156h-336.2c-12.516,0-22.698,10.183-22.698,22.699V337.53c0.001,12.516,10.184,22.699,22.699,22.699H423.78
		c12.516,0,22.698-10.183,22.698-22.699V121.855C446.478,109.339,436.293,99.156,423.773,99.156z M426.451,340.202H84.904V119.185
		h341.547V340.202z"/>
	<path d="M494.392,414.844c7.188,0,12.533-3.089,15.455-8.931c2.092-4.185,2.152-8.23,2.152-8.677v-12.522H289.114v10.136h-66.227
		v-10.136H0v12.522c0,0.447,0.06,4.49,2.154,8.677c2.92,5.844,8.264,8.931,15.455,8.931H494.392z"/>
</g>
</svg>
