<svg xmlns="http://www.w3.org/2000/svg" width="512" height="512" viewBox="0 0 512 512"><title>Master_Icons</title><path d="M505.8,294c-3.7-3.3-2.8-7.5-.8-10.8,23.5-65-33.7-84.9-54.6-84.9l-76.1-.5c-8.3,0-12,.3-12.9-3-2.8-10.1,25-52.5-9.3-108-38-60.8-86.1-31.3-90-2.3-13.3,98.5-50.8,118.9-58.7,118.9s4.8-23.9-27.6-23.9H37.3c-32.3,0-34.8,29-34.8,29s2.6,233.3,0,253C0.7,476,16.5,495.1,34.9,495.1H169.5c28.7,0,24.1-21.2,29.3-21s4,5.8,13.2,5.8H429.8c39.8,0,47.4-53,47.8-59.7,0.3-4.1.5-8.1,4.4-10.4,12.7-7.5,21.9-39.2,14.1-52.2-1.8-2.9-.4-8.7,3.4-11.7C512.8,336.9,516.4,303.5,505.8,294ZM172.2,462.9H35.7V212H172.2v251Zm300-165.1c8.1,7.4,3.3,36.1-6.9,43.2-2.9,2.3-4,6.9-2.6,9.1,6,10.1-1.8,37.8-11.5,43.6-3,1.8-3.1,4.9-3.3,8.1-0.3,5.2-9.1,47-37.8,47H234.1c-7.1,0-9-3.7-8.9-7.9,0.1-10.4,0-178.8,0-210.6,0-2.2,6.8-5.5,10.4-7.5,22.2-11.1,44.3-63.3,50.1-116.8,3-27.7,25.8-42.4,49.4.9,26.5,45-9.3,100.5-7.1,108.4a10.2,10.2,0,0,0,9.7,7.7c6.6,0.1,98.4-.8,98.4-0.8,6.2,0,58.8,10.1,35.6,67.2C470,291.9,469.3,295.2,472.2,297.8Z"/></svg>