<svg id="Layer_1" data-name="Layer 1" xmlns="http://www.w3.org/2000/svg" viewBox="0 0 512 512"><title>Master_Icons</title><path d="M505.83,294c-3.72-3.32-2.85-7.54-.83-10.76,23.54-65-33.73-84.86-54.62-84.86,0,0-67.45-.48-76.15-0.48-8.32,0-12,.31-12.93-3-2.8-10.09,25-52.49-9.35-108-38-60.77-86.13-31.26-90-2.32-13.28,98.54-50.81,118.93-58.7,118.94s4.78-23.89-27.62-23.89H37.34c-32.29,0-34.77,29-34.77,29s2.59,233.29,0,253C0.68,476,16.47,495.13,34.86,495.13H169.55c28.68,0,24.14-21.16,29.25-21,5.3,0.2,4,5.77,13.24,5.77H429.78c39.82,0,47.37-53,47.81-59.69,0.27-4.07.46-8.06,4.35-10.4,12.66-7.47,21.9-39.22,14.08-52.16-1.76-2.91-.38-8.72,3.39-11.7C512.77,336.92,516.43,303.45,505.83,294ZM172.2,462.91H35.68V212H172.2v251Zm300-165.07c8.14,7.39,3.33,36.11-6.93,43.19-2.9,2.32-4,6.86-2.61,9.13,6,10.09-1.78,37.76-11.5,43.58-3,1.83-3.13,4.94-3.34,8.11-0.34,5.2-9.13,47-37.8,47H234.06c-7.06,0-9-3.73-8.95-7.87,0.07-10.38,0-178.81,0-210.63,0-2.17,6.81-5.51,10.42-7.53,22.22-11.07,44.26-63.25,50.07-116.83,3-27.69,25.84-42.39,49.4.87,26.54,45-9.29,100.52-7.14,108.39a10.22,10.22,0,0,0,9.71,7.73c6.65,0.13,98.4-.75,98.4-0.75,6.18,0,58.8,10.05,35.6,67.17C470,291.95,469.32,295.24,472.18,297.83Z"/></svg>