<?xml version="1.0" encoding="utf-8"?>
<!-- Generator: Adobe Illustrator 16.0.4, SVG Export Plug-In . SVG Version: 6.00 Build 0)  -->
<!DOCTYPE svg PUBLIC "-//W3C//DTD SVG 1.1//EN" "http://www.w3.org/Graphics/SVG/1.1/DTD/svg11.dtd">
<svg version="1.1" id="Capa_1" xmlns="http://www.w3.org/2000/svg" xmlns:xlink="http://www.w3.org/1999/xlink" x="0px" y="0px"
	 width="512px" height="512px" viewBox="0 0 512 512" enable-background="new 0 0 512 512" xml:space="preserve">
<path d="M485.641,312.467l-65.258-65.254c-17.564-17.564-38.895-26.353-63.994-26.353c-25.519,0-47.261,9.205-65.25,27.608
	l-27.609-27.608c18.402-17.985,27.609-39.838,27.609-65.566c0-25.101-8.68-46.328-26.045-63.686l-64.626-64.942
	C183.108,8.892,161.775,0,136.47,0c-25.099,0-46.328,8.683-63.686,26.043L26.665,71.844C8.888,89.209,0,110.433,0,135.53
	c0,25.097,8.786,46.433,26.353,64.001l65.253,65.255c17.571,17.563,38.903,26.353,64.002,26.353
	c25.514,0,47.266-9.201,65.252-27.609l27.609,27.609c-18.405,17.985-27.609,39.84-27.609,65.568c0,25.098,8.679,46.32,26.039,63.688
	l64.63,64.935c17.363,17.774,38.688,26.669,63.994,26.669c25.102,0,46.324-8.68,63.688-26.045l46.121-45.801
	C503.107,422.786,512,401.562,512,376.465C512,351.368,503.216,330.039,485.641,312.467z M220.864,178.203
	c-0.628-0.628-2.565-2.613-5.802-5.96c-3.24-3.347-5.489-5.595-6.743-6.746c-1.256-1.15-3.243-2.719-5.962-4.711
	c-2.723-1.985-5.387-3.347-8-4.076c-2.615-0.73-5.492-1.098-8.63-1.098c-8.363,0-15.476,2.933-21.333,8.784
	s-8.782,12.966-8.782,21.333c0,3.132,0.365,6.013,1.096,8.626c0.731,2.617,2.091,5.283,4.078,7.998
	c1.987,2.723,3.557,4.708,4.706,5.964c1.147,1.257,3.396,3.505,6.743,6.746c3.347,3.242,5.332,5.175,5.96,5.803
	c-6.276,6.479-13.805,9.721-22.587,9.721c-8.576,0-15.688-2.82-21.333-8.465l-65.257-65.254c-5.853-5.858-8.782-12.966-8.782-21.336
	c0-8.152,2.925-15.162,8.782-21.017l46.119-45.805c6.069-5.648,13.176-8.468,21.336-8.468c8.364,0,15.476,2.925,21.333,8.784
	l64.625,64.934c5.857,5.858,8.783,12.97,8.783,21.336C231.215,164.075,227.764,171.712,220.864,178.203z M442.99,397.479
	l-46.122,45.81c-5.854,5.435-12.966,8.151-21.336,8.151c-8.577,0-15.677-2.819-21.329-8.469l-64.622-64.941
	c-5.858-5.854-8.785-12.961-8.785-21.328c0-8.78,3.449-16.417,10.353-22.9c0.633,0.627,2.565,2.616,5.811,5.961
	c3.241,3.346,5.491,5.596,6.746,6.745c1.252,1.154,3.242,2.72,5.957,4.712c2.722,1.989,5.381,3.348,8.002,4.079
	c2.617,0.734,5.49,1.097,8.623,1.097c8.37,0,15.48-2.927,21.336-8.78c5.854-5.855,8.784-12.968,8.784-21.333
	c0-3.137-0.372-6.01-1.099-8.627c-0.732-2.613-2.092-5.279-4.088-8.002c-1.988-2.715-3.55-4.704-4.705-5.961
	c-1.149-1.252-3.398-3.5-6.746-6.746c-3.342-3.241-5.332-5.174-5.963-5.803c6.279-6.692,13.809-10.039,22.59-10.039
	c8.365,0,15.478,2.926,21.328,8.783l65.258,65.254c5.854,5.854,8.779,12.971,8.779,21.336
	C451.768,384.625,448.842,391.635,442.99,397.479z"/>
</svg>
