<svg id="Layer_1" data-name="Layer 1" xmlns="http://www.w3.org/2000/svg" viewBox="0 0 362.94 512"><title>Location_Pin_Icon</title><path d="M256,0C155.94,0,74.53,85.11,74.53,189.73c0,43.17,29.08,108.71,86.43,194.8,41.92,62.93,84.45,114.63,84.88,115.15L256,512l10.16-12.32c0.42-.52,43-52.21,84.88-115.15,57.35-86.09,86.43-151.63,86.43-194.8C437.47,85.11,356.06,0,256,0Zm73.14,368.31c-29,43.48-58.21,81.5-73.14,100.39-14.94-18.89-44.19-56.91-73.14-100.39-53.31-80.06-81.49-141.81-81.49-178.57,0-89.15,69.37-161.68,154.64-161.68s154.64,72.53,154.64,161.68C410.64,226.5,382.46,288.25,329.14,368.31ZM256,88.18a71.56,71.56,0,1,0,71.56,71.56h0A71.64,71.64,0,0,0,256,88.18Zm0,116.29a44.73,44.73,0,1,1,44.73-44.73A44.73,44.73,0,0,1,256,204.47Z" transform="translate(-74.53)"/></svg>