<svg xmlns="http://www.w3.org/2000/svg" width="512" height="512" viewBox="0 0 512 512"><title>Master_Icons</title><path d="M256,0C155.9,0,74.5,85.1,74.5,189.7c0,43.2,29.1,108.7,86.4,194.8,41.9,62.9,84.5,114.6,84.9,115.1L256,512l10.2-12.3c0.4-.5,43-52.2,84.9-115.1,57.4-86.1,86.4-151.6,86.4-194.8C437.5,85.1,356.1,0,256,0Zm73.1,368.3c-29,43.5-58.2,81.5-73.1,100.4-14.9-18.9-44.2-56.9-73.1-100.4-53.3-80.1-81.5-141.8-81.5-178.6,0-89.1,69.4-161.7,154.6-161.7s154.6,72.5,154.6,161.7C410.6,226.5,382.5,288.2,329.1,368.3ZM256,88.2a71.6,71.6,0,1,0,71.6,71.6A71.6,71.6,0,0,0,256,88.2Zm0,116.3a44.7,44.7,0,1,1,44.7-44.7A44.8,44.8,0,0,1,256,204.5Z"/></svg>