<svg xmlns="http://www.w3.org/2000/svg" width="512" height="512" viewBox="0 0 512 512">
  <title>lower-risk</title>
  <path d="M369.7,510.4H-0.1V430.9C-0.4,375,137.4,343.6,164.2,316.8c2.8-2.7,4.5-6.7,4.3-11.9,0-2.3-.2-25.1-0.2-25.1s-34.5-33.6-47.5-101.9c-3.4-22.6-4.6-51.6-2.9-68.5a137.2,137.2,0,0,1,10.2-39.8,159.8,159.8,0,0,1,7.1-14.3c10.4-17.7,24.1-31.7,40.5-41.3a129.3,129.3,0,0,1,12.9-6.4,102.4,102.4,0,0,1,74.1,0,129.3,129.3,0,0,1,12.9,6.4c16.4,9.6,30.2,23.6,40.6,41.3a159.8,159.8,0,0,1,7.1,14.3,137.2,137.2,0,0,1,10.2,39.8c1.7,17,4.2,39.2-2.9,68.5C310.1,259,283.6,279,283.2,279.7s-0.2,22.9-.2,25.1c-0.2,5.3,1.6,9.3,4.3,11.9,12,12,46.1,24.9,80.2,40.4A100.4,100.4,0,0,0,369.7,510.4Zm142.4-77.5a78.6,78.6,0,1,1-78.6-78.6A78.6,78.6,0,0,1,512.1,432.9Zm-86.9-54.1,1.7,83.2h13.3l1.7-83.2H425.2ZM442.9,482a9.4,9.4,0,1,0-9.4,9.4A9.4,9.4,0,0,0,442.9,482Z"/>
</svg>
