<svg xmlns="http://www.w3.org/2000/svg" width="512" height="512" viewBox="0 0 512 512"><defs><style>.a{fill:none;}</style></defs><title>Master_Icons</title><path class="a" d="M255.9,264L464.1,113.3H47.1L253.4,264A2.1,2.1,0,0,0,255.9,264Z"/><path class="a" d="M255.9,297.5a2.1,2.1,0,0,1-2.5,0l-54.4-39.8L39.1,393H471L311.1,257.8Z"/><polygon class="a" points="26 127.1 26 369 181.2 241.8 26 127.1"/><polygon class="a" points="484.2 373 484.2 131.1 329 245.8 484.2 373"/><path d="M509.5,84.7H2.5a2,2,0,0,0-2,2V419.5a2,2,0,0,0,2,2h507a2.1,2.1,0,0,0,2.1-2.1V86.7A2,2,0,0,0,509.5,84.7Zm-45.4,28.6L255.9,264a2.1,2.1,0,0,1-2.5,0L47.1,113.3h417ZM26,127.1L181.2,241.8,26,369V127.1ZM39.1,393l160-135.3,54.4,39.8a2.1,2.1,0,0,0,2.5,0l55.2-39.7L471,393H39.1Zm445.1-20L329,245.8,484.2,131.1V373Z"/></svg>