<?xml version="1.0" encoding="utf-8"?>
<!-- Generator: Adobe Illustrator 18.1.1, SVG Export Plug-In . SVG Version: 6.00 Build 0)  -->
<svg version="1.1" id="Layer_1" xmlns="http://www.w3.org/2000/svg" xmlns:xlink="http://www.w3.org/1999/xlink" x="0px" y="0px"
	 viewBox="0 0 512 512" enable-background="new 0 0 512 512" xml:space="preserve">
<g>
	<path d="M0,362.7c17.7-9.9,34.6-21.8,53.4-29.1c21.6-8.4,44.7-12.9,67.2-19c1.7-0.5,3.5-0.8,6.3-1.4c-4.6-10.3-7.9-20.6-13.3-29.7
		c-12.2-20.6-12.4-42.8-7.4-64.6c10.5-46.2,35.5-84.1,73.6-111.9c28.3-20.6,62.2-21.9,95.8-19.5c18.5,1.4,35.7,7.2,48.5,21.7
		c12,13.6,19.1,29.7,22.8,47.5c-4.3-6.5-8.5-13-12.9-19.4c-18.4-26.9-43.1-35.3-71.9-27.1c-25.3,7.2-48.4,18.2-69.2,33.9
		c-23.9,17.9-27.2,34.5-14.5,61.2c2.9,6.2,3.6,13.4,5.2,20.1c3.8,16.1,7.6,32.3,11.5,48.4c0.8,3.4,2.3,6.7,4.4,12.7
		c-8.4-4.6-14.2-8.7-20.6-10.9c-6.6-2.2-13.9-2.5-20.9-3.6c-0.8,7-2.9,14.1-2.3,21c1.9,21.9,12.7,37.5,34.4,44.4
		c1.7,0.5,4.1,1.2,4.8,2.5c5.8,10.3,12.9,20.2,16.4,31.2c5.6,17.2,8.8,35.2,12.9,52.8c-74.8,0-149.6,0-224.4,0
		C0,403.4,0,383.1,0,362.7z"/>
	<path d="M354.2,423.9c2-9.5,3.9-19.1,5.9-28.9c-17.8-1.7-20.9,14.9-31.1,22.6c2.6-4.9,5.1-9.7,7.5-14.3c-7-2.3-13.1-4.2-19.1-6.1
		c0.3-0.8,0.5-1.5,0.8-2.3c2.3,0.7,4.5,1.3,6.8,2.1c7.4,2.6,14.5,4.5,21.8-1.2c2.7-2.1,6.8-2.5,10.4-3.4
		c14.5-3.4,21.5-12.7,21.8-27.6c0.6-23.4,2.9-46.8,2.5-70.2c-0.4-21.8-2.7-43.6-5.5-65.2c-0.9-6.8-5.9-13-8.2-19.8
		c11.8,14.1,14.9,31.1,15.8,48.8c0.4,7.4,0.7,14.8,0.7,22.2c-0.1,8.4,3.6,11.9,12.2,13.3c29.5,5,58.1,13.2,85.1,26.3
		c6.9,3.3,13.8,6.8,21,9.6c6.8,2.7,9.6,6.6,9.5,14.5c-0.6,26.5-0.2,53.1-0.2,79.7C459.3,423.9,406.7,423.9,354.2,423.9z"/>
	<path d="M306.4,307.8c16.5-5.6,33-11.2,49.6-16.8c0.9,0.9,1.9,1.8,2.8,2.7c-3.5,9.1-6.7,18.5-10.9,27.3c-1.2,2.6-5.4,5.8-7.9,5.6
		c-12.6-1.1-25.2-3.2-37.7-5.4c-1.5-0.3-2.3-3.7-3.5-5.6c2.3-0.5,4.7-1.7,6.9-1.4c16.9,2.3,31.3-4,45-12.9c1-0.7,1.3-2.5,3.4-6.6
		c-17.2,5.9-32,10.9-46.8,16C307,309.7,306.7,308.7,306.4,307.8z"/>
	<path d="M250.4,236.8c-2.1-0.1-4.3,0-6.4-0.4c-8.7-1.7-10.3-5-5.3-12.5c3-4.6,6.5-9,10.5-12.6c8.2-7.4,25.7-3.1,29.8,7.1
		c0.6,1.5-0.1,4.5-1.3,5.6C270,230.9,261.9,237.6,250.4,236.8z M270.1,228c2.9-2.8,5.1-4.9,7.8-7.5c-6.8-6.2-12.1-12.8-20.7-10.6
		c-10.4,2.7-14.4,12-19.6,22.1c7,1,12.4,1.8,19.7,2.9c-4.8-7.5-9.4-13.9-0.9-18C264.8,212.9,266.6,220.8,270.1,228z"/>
	<path d="M271.2,190.9c-20.1,0.8-39.7,1.7-52.7,20.5c0.6-11.4,6.5-18.2,20.2-25.5C251.1,179.3,260.8,186.4,271.2,190.9z"/>
	<path d="M346.6,164.5c-19.3-8-27.1,6.2-36.4,17.7c-4.1-8.9,3.7-23.8,15.1-29.6C332.9,148.8,341,153,346.6,164.5z"/>
	<path d="M355.9,194.2c-8,10.1-15,16.1-25.8,14.7c-7.2-1-13.1-7.3-12.1-12.6c1.7-9.2,11.5-17.2,19.3-14.2
		C343.7,184.5,349.1,189.6,355.9,194.2z M349.6,197.3c-0.4-1.4-0.6-4.3-2-6.2c-4.5-6.1-11.2-8.9-17.7-5.5c-4,2.1-8.5,7.9-8.3,11.8
		c0.2,3.7,6.2,7.1,8.4,9.4c2.2-5.9,2.8-12.4,5.8-13.8C338.7,191.7,344,195.4,349.6,197.3z"/>
	<path d="M192.4,321c-5,4.1-11.3,3.7-19.3-1.5c-8.8-5.7-15.3-27.6-11-41.2C165.1,298.9,163.1,321.9,192.4,321z"/>
	<path d="M218.4,374.1c15.9,13.5,32.6,27.7,48.3,41C256.2,412.9,224.8,386.3,218.4,374.1z"/>
	<path d="M297,214.4c6.2,10.7,9.8,21.8,4.5,34.1C300.1,237.1,298.6,225.7,297,214.4z"/>
	<path d="M236.8,356.3c11.4,8.2,22.7,16.4,35.1,25.3C256.1,377.6,246.2,366.9,236.8,356.3z"/>
	<path fill="#FFFFFF" d="M270.1,228c-3.5-7.2-5.3-15.1-13.6-11.1c-8.5,4.1-3.9,10.5,0.9,18c-7.3-1.1-12.7-1.8-19.7-2.9
		c5.2-10.2,9.2-19.5,19.6-22.1c8.5-2.2,13.9,4.4,20.7,10.6C275.2,223.2,273.1,225.2,270.1,228z"/>
	<path fill="#FFFFFF" d="M349.6,197.3c-5.5-1.9-10.9-5.7-13.9-4.3c-2.9,1.3-3.5,7.9-5.8,13.8c-2.3-2.3-8.3-5.7-8.4-9.4
		c-0.2-3.9,4.3-9.7,8.3-11.8c6.6-3.4,13.3-0.6,17.7,5.5C349,193.1,349.2,195.9,349.6,197.3z"/>
</g>
</svg>
