<svg xmlns="http://www.w3.org/2000/svg" width="512" height="512" viewBox="0 0 512 512"><title>Master_Icons</title><path d="M1.7,455H95.9v13.8H83.3v25.6H185.6V468.7H171.7L172,455h97.2V227.8H1.7V455ZM27.4,252.6H243.5V398.8H27.4V252.6Zm482.8,80.8V138H277.1V333.3h82.1v23.5h-11v22h89.2v-22H425.3l0.3-23.5h84.7ZM299.5,285V159.3H487.9V285H299.5ZM145.1,214H118.9s0.3-56.5,2.3-66a102.8,102.8,0,0,1,44.9-65.3c23.2-15.1,64.7-22.6,93.8-5.6l7.4-34.4,55.2,60.2-75.3,32.9,7-32.3c-24.8-15.4-47.9-16.1-74,.8a77.7,77.7,0,0,0-35.1,72.4V214Z"/></svg>