<svg xmlns="http://www.w3.org/2000/svg" width="512" height="512" viewBox="0 0 512 512"><defs><style>.a{fill:#010101;}</style></defs><title>Master_Icons2</title><path class="a" d="M309.8,121.7H43.2c-38.1,0-42.2-1-42.2,45V432.1c0,45.1,4.5,45.1,42.2,45.1l432.3-.9c27.8,0,36.5.1,36.5-24.7V147.4c0.1-1.5.1-3.1,0.1-4.6A102.2,102.2,0,0,0,309.8,121.7Zm179,21.1a79,79,0,1,1-79-79A79,79,0,0,1,488.8,142.8ZM41.6,279.9a17.4,17.4,0,1,1-17.4,17.4A17.4,17.4,0,0,1,41.6,279.9ZM78.9,147.2H307.7a102.2,102.2,0,0,0,175.8,66.4V451.6H78.9V147.2ZM417,180.1a2.4,2.4,0,0,1-.1,3.5l-6.9,6.9a2.4,2.4,0,0,1-3.2-.1l-7.3-7.3a2.4,2.4,0,0,1,0-3.5c1.7-1.5,4.1-2.8,8.7-2.8A12.7,12.7,0,0,1,417,180.1Zm30.5-28.4-7.2,7c-18-20.3-46.9-20.7-64.9-.7l-7-7.2C391.6,128,424.4,128.2,447.5,151.7Zm-16.9,16.9-5,5c-10.4-11.6-24.5-10.8-35.8-1.3l-4.9-4.9C398.7,153.6,417.4,153.8,430.6,168.6Zm25.1-62.3a19.8,19.8,0,0,0-17.8,11.1c-28.4-12.5-61.3-6.8-85.6,17.1l6.7,6.8c22.9-21.6,51.6-26.3,76.9-14.1A19.8,19.8,0,1,0,455.7,106.3Zm11.7,29.9-1.7,1.7-10-10-10,10-1.7-1.7,10-10-10-10,1.7-1.7,10,10,10-10,1.7,1.7-10,10Zm-223,99.3H102.6V202.7H244.3v32.7Zm95.4,58.4V261.1H102.6v32.7H339.8Zm105.8,60.7V321.8h-343v32.7h343Zm-78.8,66V387.9H102.6v32.7H366.8Z"/></svg>