<svg xmlns="http://www.w3.org/2000/svg" width="512" height="512" viewBox="0 0 512 512"><title>Master_Icons</title><path d="M1.3,414.5c-1.6-41.7,99.4-64.6,119.3-84.5a10.4,10.4,0,0,0,4-4.7c0.9-2,1-2.6,1-6.5,0-2,0-6.3-.1-9.7v-6.1l-0.9-.8c-1.6-1.4-6.2-6.1-7.6-7.8-13.3-16-22.2-38.6-26.6-67.5-2.5-16.7-3.4-38-2.2-50.5a101.2,101.2,0,0,1,7.5-29.4,117.9,117.9,0,0,1,5.3-10.6,84.3,84.3,0,0,1,29.9-30.5,95.3,95.3,0,0,1,9.6-4.7,72.3,72.3,0,0,1,38.6-4.1c19.6,3.3,37.5,15,50,32.9a98.3,98.3,0,0,1,17,46.4,99.7,99.7,0,0,1,.5,13,246.2,246.2,0,0,1-3.8,44.3c-4.3,23.6-11.9,42.9-22.6,57.1a74.3,74.3,0,0,1-7.5,8.6l-2.5,2.5-0.2,8.4c-0.1,4.6-.1,9.2-0.1,10.1a11.1,11.1,0,0,0,4.9,9.3c0.9,0.6.7,0.5,10.8,4.7,77.7,28.7,108.6,59.2,108.6,78.9v2.1H1.3v-1.1h0Zm362-.9c0-18.1-19.1-53.7-63.8-63.3l-1.8-.8,1.6-.7,11.2-4.7,10.3-4.4a9.7,9.7,0,0,0,4.5-6.4c0.3-1.6.3-2.4,0.2-10v-7.6l-1-.9c-1.6-1.4-4.7-4.6-6.1-6.2-7-8.2-13-19.1-17.3-31.8-5.1-15-7.9-31.6-9-52-0.2-4.9-.2-16.1.1-19.1a89.1,89.1,0,0,1,9.3-33.3c8.5-16.9,22-29.6,37.9-35.8a64.1,64.1,0,0,1,38.7-2.5c14.6,3.6,28.1,12.8,38,26a78.6,78.6,0,0,1,7.6,12.3,88.6,88.6,0,0,1,9.3,35.1c0.2,2.6.2,11.2,0,15.6-1.2,32.7-8.4,59.7-20.7,78.2a69.4,69.4,0,0,1-9.1,11.2l-2.3,2.3V321c-0.1,3.4-.1,7.4-0.1,9.1s0.1,3,.4,4.1a9.3,9.3,0,0,0,2.5,4.3,7.4,7.4,0,0,0,2,1.5l8.6,3.7c30.5,12.7,49.3,21,61.4,27.1a90,90,0,0,1,9.8,5.5c15.6,10.3,25.1,24.2,25.6,37.6v1.9H363.4v-2h0Z"/></svg>