<svg id="Layer_1" data-name="Layer 1" xmlns="http://www.w3.org/2000/svg" viewBox="0 0 509.47 319.36"><title>Interested_Partner_Groups_Icon</title><path id="layer1" d="M1.29,414.53C-0.31,372.78,100.7,350,120.6,330.07a10.4,10.4,0,0,0,4-4.7c0.88-2,1-2.6,1-6.54,0-2,0-6.3-.07-9.66l-0.12-6.1-0.87-.76c-1.61-1.4-6.21-6.11-7.6-7.78-13.33-16-22.24-38.63-26.58-67.46-2.51-16.69-3.42-38-2.16-50.55a101.15,101.15,0,0,1,7.53-29.37A117.87,117.87,0,0,1,101,136.6a84.25,84.25,0,0,1,29.89-30.45,95.33,95.33,0,0,1,9.56-4.7,72.3,72.3,0,0,1,38.63-4.13c19.63,3.26,37.5,15,50,32.86a98.31,98.31,0,0,1,17,46.41,99.69,99.69,0,0,1,.5,13,246.16,246.16,0,0,1-3.81,44.29c-4.31,23.64-11.94,42.91-22.61,57.09a74.31,74.31,0,0,1-7.47,8.56L210.18,302,210,310.46c-0.08,4.64-.12,9.19-0.08,10.1a11.13,11.13,0,0,0,4.85,9.34c0.91,0.57.71,0.48,10.84,4.71,77.65,28.69,108.59,59.2,108.59,78.95l0.08,2.07H1.29V414.5h0v0Zm362-.87c0-18.1-19.14-53.75-63.83-63.31l-1.76-.77,1.56-.66,11.17-4.67c5.28-2.2,9.93-4.18,10.33-4.39a9.68,9.68,0,0,0,4.47-6.41c0.33-1.62.35-2.38,0.21-10l-0.14-7.63-1-.88c-1.61-1.44-4.72-4.61-6.12-6.24-7-8.18-13-19.1-17.26-31.79-5.09-15-8-31.6-9-52-0.24-4.85-.21-16.12.06-19.14a89.08,89.08,0,0,1,9.25-33.32c8.53-16.85,22-29.61,37.89-35.8a64.09,64.09,0,0,1,38.66-2.46c14.63,3.63,28.06,12.82,38,26a78.6,78.6,0,0,1,7.64,12.33,88.58,88.58,0,0,1,9.34,35.09c0.17,2.6.17,11.22,0,15.58-1.24,32.74-8.4,59.72-20.73,78.2a69.4,69.4,0,0,1-9.13,11.17l-2.34,2.33L400.42,321c-0.07,3.37-.1,7.44-0.07,9,0,2.73.08,3,.4,4.06a9.3,9.3,0,0,0,2.48,4.28,7.35,7.35,0,0,0,2,1.55c0.5,0.25,4.36,1.89,8.58,3.65,30.5,12.71,49.34,21,61.41,27.09a90,90,0,0,1,9.81,5.5c15.6,10.33,25.06,24.21,25.63,37.63l0.08,1.88H363.35l-0.08-2h0Z" transform="translate(-1.27 -96.33)"/></svg>