<svg xmlns="http://www.w3.org/2000/svg" width="512" height="512" viewBox="0 0 512 512">
  <title>proven-roadmap</title>
  <g>
    <path d="M250.1,186.7h39.4c10.6,0,16,5.2,16,15.9q0.2,25.9,0,51.7-0.1,15.5-15.7,15.6-39.7.2-79.5,0-15.6-.1-15.7-15.5-0.2-25.9,0-51.7c0.1-10.7,5.4-15.8,16-15.9h39.4Z"/>
    <path d="M453.5,442.8H414.7c-11.5-.1-16.6-5.2-16.6-16.5q0-25.3,0-50.5c0-10.9,5.4-16.1,16.4-16.2h78.3c10.9,0,16.3,5.4,16.3,16.2q0.1,25.6,0,51.1c0,10.2-5.3,15.7-15.4,15.8C480.2,442.9,466.9,442.8,453.5,442.8Z"/>
    <path d="M56.7,93.5H16.7C6.6,93.4,1.1,87.9,1.1,77.8Q1,51.9,1.1,26c0-10.3,5.2-15.7,15.5-15.7q40.1-.2,80.1,0c9.9,0.1,15.2,5.5,15.3,15.4q0.1,26.2,0,52.4c-0.1,10-5.6,15.4-15.8,15.4H56.7Z"/>
    <path d="M484.2,233.1c15.7,0,26.8-11.1,26.8-26.8s0-122,0-138.3S500,40.8,483.8,40.8H181.3V57.9c2,0,250.3-.7,301.8,0,16.1,0,10.8,24.4,10.8,87.7,0,8.5,0,17,0,25.5s0.1,28.1-.1,35.8c-0.1,4.7-2.6,8.4-6.5,8.5-9.1.4-42.8,0.1-52.4,0.1l-62,.2,68.6-68.6a9.6,9.6,0,0,0,.1-13.6,9.6,9.6,0,0,0-13.6,0l-91.5,91.2,91.5,92.5a9.6,9.6,0,1,0,13.5-13.6l-68.8-70.4Z"/>
    <path d="M292.7,399.2H30.2c-16.1,0-10.8-24.4-10.8-87.7,0-8.5,0-17,0-25.5s-0.1-28.1.1-35.8c0.1-4.7,2.6-8.4,6.5-8.5,9.1-.4,42.8-0.1,52.4-0.1l62-.2,0.2-17.5L29.1,224c-15.7,0-26.8,11.1-26.8,26.8s0,122,0,138.3,10.9,27.2,27.2,27.2H293.8l-68.6,69.2a9.6,9.6,0,0,0-.1,13.6,9.6,9.6,0,0,0,13.6,0l91.5-91.2-91.5-92.5a9.6,9.6,0,1,0-13.5,13.6L294,399.3"/>
  </g>
</svg>
