<svg xmlns="http://www.w3.org/2000/svg" width="512" height="512" viewBox="0 0 512 512"><title>Master_Icons</title><path d="M91.9,155.7c30.2,14.5,70.3,22.5,112.4,22.5s82.4-8,112.6-22.5c8.4-4.1,14.8-8.5,22.8-13.3V255.6h27V97.1a11.1,11.1,0,0,0,1.3-5.5c0-25.2-18.1-47.9-51.7-64.1C286,13,246.4,5,204.3,5s-81.8,8-112,22.5C58.7,43.7,39.4,66.4,39.4,91.6c0,0.8-.7,1.6-0.7,2.4V351l4.9,4.2C46,357.8,103.6,419,201.3,419l-0.2-29.5c-71.7,0-118.5-38.2-132.5-50.5V142.2A165.5,165.5,0,0,0,91.9,155.7ZM68.7,90.2c2-12.6,14.2-25.7,36-36.1,26.3-12.6,61.9-19.6,99.7-19.6s73.2,6.6,99.5,19.3c20.6,9.9,33.4,21.9,35.3,33.9h0.5v7.5c-3,11.9-14.9,24.2-35.4,34-26.3,12.6-61.7,19.6-99.5,19.6s-73.7-7-100-19.6c-21.7-10.4-34-23.5-36-36.1V90.2ZM482.9,380v25.2H380.5V507.6H355.3V405.3H252.9V380H355.3V277.6h25.2V380H482.9Z"/></svg>