<svg id="Layer_1" data-name="Layer 1" xmlns="http://www.w3.org/2000/svg" viewBox="0 0 512 512"><title>Master_Icons</title><path d="M256.54,129.89L4.3,58.6A2.6,2.6,0,0,0,1,61.09V436a2.6,2.6,0,0,0,1.89,2.5l253.65,71.69a2.6,2.6,0,0,0,1.41,0l253.16-71.69A2.6,2.6,0,0,0,513,436V61.1a2.6,2.6,0,0,0-3.3-2.5L258,129.89A2.6,2.6,0,0,1,256.54,129.89ZM238.7,474L32.89,415.9A2.6,2.6,0,0,1,31,413.4V100.58a2.6,2.6,0,0,1,3.3-2.5L240.11,156.2a2.6,2.6,0,0,1,1.89,2.5V471.53A2.6,2.6,0,0,1,238.7,474ZM481.11,415.9L276.3,474a2.6,2.6,0,0,1-3.3-2.5V158.7a2.6,2.6,0,0,1,1.89-2.5L479.7,98.08a2.6,2.6,0,0,1,3.3,2.5V413.41A2.6,2.6,0,0,1,481.11,415.9Z"/></svg>