<svg xmlns="http://www.w3.org/2000/svg" width="512" height="512" viewBox="0 0 512 512"><title>Master_Icons</title><path d="M256.5,129.9L4.3,58.6A2.6,2.6,0,0,0,1,61.1V436a2.6,2.6,0,0,0,1.9,2.5l253.7,71.7a2.6,2.6,0,0,0,1.4,0l253.2-71.7A2.6,2.6,0,0,0,513,436V61.1a2.6,2.6,0,0,0-3.3-2.5L258,129.9A2.6,2.6,0,0,1,256.5,129.9ZM238.7,474L32.9,415.9a2.6,2.6,0,0,1-1.9-2.5V100.6a2.6,2.6,0,0,1,3.3-2.5l205.8,58.1a2.6,2.6,0,0,1,1.9,2.5V471.5A2.6,2.6,0,0,1,238.7,474Zm242.4-58.1L276.3,474a2.6,2.6,0,0,1-3.3-2.5V158.7a2.6,2.6,0,0,1,1.9-2.5L479.7,98.1a2.6,2.6,0,0,1,3.3,2.5V413.4A2.6,2.6,0,0,1,481.1,415.9Z"/></svg>