<svg xmlns="http://www.w3.org/2000/svg" width="512" height="512" viewBox="0 0 512 512"><title>Master_Icons</title><path d="M248.8,166.6q6.2,31.2,5.2,56a281.9,281.9,0,0,1-10.9,72.2,311.6,311.6,0,0,1-26,63.2,301.2,301.2,0,0,1-37.4,53.6A377.1,377.1,0,0,1,135.1,455a346.4,346.4,0,0,1-47.6,33,328,328,0,0,1-46.5,22.3L1.4,472.2c131.8-66.6,180-280.4,49-305.3V126.5L119.5,6.8c25.5,8.9,49.3,24.1,66.4,41.3A225,225,0,0,1,227,104.6,239.9,239.9,0,0,1,248.8,166.6Zm256.8,0a240,240,0,0,0-21.8-62,225,225,0,0,0-41.2-56.5c-17-17.2-40.8-32.4-66.3-41.3L307.3,126.5v40.3c131,24.9,82.8,238.7-49.1,305.3l39.5,38.1a327.8,327.8,0,0,0,46.5-22.3,346.3,346.3,0,0,0,47.6-33,377,377,0,0,0,44.6-43.4A301.1,301.1,0,0,0,473.9,358a311.7,311.7,0,0,0,26-63.2,282,282,0,0,0,10.9-72.2Q511.9,197.8,505.7,166.6Z"/></svg>