<svg id="Layer_1" data-name="Layer 1" xmlns="http://www.w3.org/2000/svg" viewBox="0 0 509.78 503.49"><title>Quotes_Open_Style2_Icon</title><path d="M285.25,412.41a225,225,0,0,0,41.17,56.53c17,17.2,41,32.39,66.51,41.32l69.3-119.78V350.16c-131-24.89-83-238.75,48.81-305.34L471.39,6.77a328.33,328.33,0,0,0-46.58,22.32,346.55,346.55,0,0,0-47.59,33,377.17,377.17,0,0,0-44.62,43.39A301.16,301.16,0,0,0,295.16,159a311.64,311.64,0,0,0-26,63.22,282,282,0,0,0-10.91,72.16q-1,24.8,5.2,56A240,240,0,0,0,285.25,412.41Zm-256.83,0a225,225,0,0,0,41.17,56.53c17,17.2,41,32.39,66.42,41.32l69.21-119.78V350.16c-131-24.89-82.92-238.75,48.9-305.34L214.52,6.77A328.14,328.14,0,0,0,168,29.09a346.46,346.46,0,0,0-47.58,33A377.13,377.13,0,0,0,75.8,105.48,301.15,301.15,0,0,0,38.33,159a311.64,311.64,0,0,0-26,63.22A282,282,0,0,0,1.4,294.39q-1,24.8,5.2,56A240,240,0,0,0,28.42,412.41Z" transform="translate(-1.26 -6.77)"/></svg>