<svg xmlns="http://www.w3.org/2000/svg" width="512" height="512" viewBox="0 0 512 512"><title>Master_Icons</title><path d="M462.2,350.2v40.3L392.9,510.3c-25.5-8.9-49.5-24.1-66.5-41.3a225,225,0,0,1-41.2-56.5,240,240,0,0,1-21.8-62q-6.2-31.2-5.2-56a281.9,281.9,0,0,1,10.9-72.2,311.7,311.7,0,0,1,26-63.2,301.2,301.2,0,0,1,37.4-53.6,377.2,377.2,0,0,1,44.6-43.4,346.5,346.5,0,0,1,47.6-33A328.3,328.3,0,0,1,471.4,6.8L511,44.8C379.2,111.4,331.2,325.3,462.2,350.2ZM254.1,44.8L214.5,6.8A328.1,328.1,0,0,0,168,29.1a346.4,346.4,0,0,0-47.6,33,377.1,377.1,0,0,0-44.6,43.4A301.1,301.1,0,0,0,38.3,159a311.6,311.6,0,0,0-26,63.2A281.9,281.9,0,0,0,1.4,294.4q-1,24.8,5.2,56a240,240,0,0,0,21.8,62,225,225,0,0,0,41.2,56.5c17,17.2,41,32.4,66.4,41.3l69.2-119.8V350.2C74.2,325.3,122.3,111.4,254.1,44.8Z"/></svg>