<?xml version="1.0" encoding="utf-8"?>
<!-- Generator: Adobe Illustrator 17.0.2, SVG Export Plug-In . SVG Version: 6.00 Build 0)  -->
<!DOCTYPE svg PUBLIC "-//W3C//DTD SVG 1.1//EN" "http://www.w3.org/Graphics/SVG/1.1/DTD/svg11.dtd">
<svg version="1.1"
	 id="svg4244" xmlns:rdf="http://www.w3.org/1999/02/22-rdf-syntax-ns#" xmlns:dc="http://purl.org/dc/elements/1.1/" xmlns:cc="http://creativecommons.org/ns#" xmlns:svg="http://www.w3.org/2000/svg" xmlns:inkscape="http://www.inkscape.org/namespaces/inkscape" xmlns:sodipodi="http://sodipodi.sourceforge.net/DTD/sodipodi-0.dtd" inkscape:version="0.48.2 r9819" sodipodi:docname="New document 73"
	 xmlns="http://www.w3.org/2000/svg" xmlns:xlink="http://www.w3.org/1999/xlink" x="0px" y="0px" width="512px" height="512px"
	 viewBox="0 0 512 512" style="enable-background:new 0 0 512 512;" xml:space="preserve">
<sodipodi:namedview  pagecolor="#ffffff" fit-margin-left="0" bordercolor="#666666" inkscape:zoom="0.35" borderopacity="1.0" inkscape:cy="491.85147" showgrid="false" fit-margin-top="0" id="base" inkscape:cx="415.28553" inkscape:pageshadow="2" inkscape:window-height="424" fit-margin-bottom="0" inkscape:document-units="px" inkscape:current-layer="layer1" inkscape:window-y="20" fit-margin-right="0" inkscape:window-maximized="0" inkscape:pageopacity="0.0" inkscape:window-width="483" inkscape:window-x="66">
	</sodipodi:namedview>
<g id="layer1" transform="translate(40.28553,-40.510755)" inkscape:label="Layer 1" inkscape:groupmode="layer">
	<path id="path4845" inkscape:connector-curvature="0" d="M142.807,552.459c-0.016-0.125-11.49-27.434-25.499-60.686
		s-25.35-60.595-25.2-60.762c0.366-0.41,121.015-51.124,121.191-50.943c0.076,0.079-5.178,13.174-11.676,29.1
		s-11.663,29.101-11.478,29.277c0.185,0.176,2.698,0.84,5.584,1.476c23.489,5.176,46.691,4.145,72.092-3.203
		c13.382-3.871,30.202-11.294,39.469-17.421c14.211-9.394,33.255-28.797,43.786-44.608c22.218-33.361,28.751-72.574,18.731-112.426
		c-1.536-6.109-4.292-14.584-6.146-18.897c-0.53-1.234-0.803-2.387-0.606-2.563c0.502-0.449,52.448-22.343,53.012-22.343
		c0.68,0,6.185,17.17,8.705,27.149c7.257,28.742,8.987,57.952,5,84.412c-5.312,35.251-20.077,67.74-44.159,97.164
		c-5.558,6.791-19.32,20.817-25.394,25.881c-9.566,7.976-23.671,17.899-33.258,23.398c-43.086,24.714-97.523,30.998-152.219,17.572
		c-3.889-0.955-7.085-1.7-7.103-1.657s-5.334,13.117-11.812,29.053C145.007,548.043,142.885,553.1,142.807,552.459L142.807,552.459z
		 M14.889,374.166c-0.112-0.188-1.476-4.243-3.03-9.012C-0.355,327.684-3.461,291.982,2.511,257.7
		c6.812-39.099,26.416-76.185,56.102-106.131c8.394-8.468,12.815-12.306,22.814-19.806c19.374-14.532,35.845-23.404,55.839-30.077
		c36.398-12.148,80.911-13.051,121.58-2.466c2.468,0.642,4.643,0.99,4.833,0.773c0.19-0.217,5.753-13.69,12.363-29.939
		c6.609-16.249,12.134-29.544,12.277-29.544c0.354,0,51.226,120.976,50.977,121.225c-0.516,0.516-121,51.041-121.109,50.788
		c-0.069-0.16,5.116-13.145,11.521-28.857c6.405-15.712,11.646-28.769,11.646-29.016c0-1.019-15.073-3.846-24.934-4.677
		c-10.428-0.879-25.186-0.025-36.722,2.123c-15.555,2.898-35.088,9.831-48.764,17.309c-6.158,3.367-8.298,4.805-14.145,9.502
		c-34.368,27.613-54.07,60.966-58.944,99.782c-0.898,7.149-0.75,26.105,0.261,33.537c1.697,12.471,5.142,26.055,8.964,35.34
		c0.976,2.372,1.732,4.35,1.678,4.395c-0.252,0.214-53.116,22.547-53.369,22.547C15.223,374.509,15.001,374.355,14.889,374.166
		L14.889,374.166z"/>
</g>
</svg>
