<?xml version="1.0" encoding="utf-8"?>
<!-- Generator: Adobe Illustrator 19.2.0, SVG Export Plug-In . SVG Version: 6.00 Build 0)  -->
<svg version="1.1" id="Layer_1" xmlns="http://www.w3.org/2000/svg" xmlns:xlink="http://www.w3.org/1999/xlink" x="0px" y="0px"
	 width="512px" height="512px" viewBox="0 0 512 512" style="enable-background:new 0 0 512 512;" xml:space="preserve">
<style type="text/css">
	.st0{fill:#000100;}
	.st1{fill:#231F20;}
	.st2{fill:#010101;}
	.st3{fill:#FFFFFF;}
</style>
<path d="M13.9,134.3L1.6,121.9c-1.2-1.2-1.2-3.2,0-4.4l92.2-92.2c1.2-1.2,3.2-1.2,4.4,0l12.3,12.3c1.2,1.2,1.2,3.2,0,4.4l-92.2,92.2
	C17.1,135.5,15.1,135.5,13.9,134.3z M63.9,145.1l59.3-59.3c1.2-1.2,1.2-3.2,0-4.4l-12.3-12.3c-1.2-1.2-3.2-1.2-4.4,0l-59.3,59.3
	c-1.2,1.2-1.2,3.2,0,4.4l12.3,12.3C60.7,146.4,62.7,146.4,63.9,145.1z M498.1,134.3l12.3-12.3c1.2-1.2,1.2-3.2,0-4.4l-92.2-92.2
	c-1.2-1.2-3.2-1.2-4.4,0l-12.3,12.3c-1.2,1.2-1.2,3.2,0,4.4l92.2,92.2C494.9,135.5,496.9,135.5,498.1,134.3z M248.8,305.7h9.9
	c3.8,0,6.9-3.1,6.9-6.9V194.5c0-3.8-3.1-6.9-6.9-6.9h-9.9c-3.8,0-6.9,3.1-6.9,6.9v104.3C241.9,302.6,245,305.7,248.8,305.7z
	 M265.6,298.8v-9.9c0-3.8-3.1-6.9-6.9-6.9h-72.9c-3.8,0-6.9,3.1-6.9,6.9v9.9c0,3.8,3.1,6.9,6.9,6.9h72.9
	C262.5,305.7,265.6,302.6,265.6,298.8z M452.5,145.1l12.3-12.3c1.2-1.2,1.2-3.2,0-4.4l-59.3-59.3c-1.2-1.2-3.2-1.2-4.4,0l-12.3,12.3
	c-1.2,1.2-1.2,3.2,0,4.4l59.3,59.3C449.3,146.4,451.3,146.4,452.5,145.1z M353.8,425.9l19.6,33.9c2.9,5,1.2,11.3-3.8,14.2
	l-21.2,12.3c-5,2.9-11.3,1.2-14.2-3.8l-20-34.6c-18.8,7.3-39.2,11.3-60.5,11.3c-21.3,0-41.6-4-60.4-11.2l-20,34.6
	c-2.9,5-9.2,6.7-14.2,3.8L137.8,474c-5-2.9-6.7-9.2-3.8-14.2l19.5-33.8c-41.1-30.6-67.7-79.5-67.7-134.7c0-31.3,8.6-60.6,23.5-85.7
	c-1.3-0.8-2.5-1.7-3.6-2.8l-14-14c-7.9-7.9-7.9-20.7,0-28.6l43.5-43.5c7.9-7.9,20.7-7.9,28.6,0l14,14c2.4,2.4,4.1,5.4,5.1,8.5
	c21.5-10,45.4-15.6,70.7-15.6c25.9,0,50.4,5.9,72.4,16.4c0.9-3.4,2.6-6.6,5.3-9.2l14-14c7.9-7.9,20.7-7.9,28.6,0l43.5,43.5
	c7.9,7.9,7.9,20.7,0,28.6l-14,14c-1.5,1.5-3.2,2.7-5,3.6c14.6,24.9,23.1,53.9,23.1,84.9C421.3,346.4,394.8,395.3,353.8,425.9z
	 M253.6,432c77.7,0,140.7-63,140.7-140.7s-63-140.7-140.7-140.7c-77.7,0-140.7,63-140.7,140.7S175.8,432,253.6,432z"/>
</svg>
