<svg xmlns="http://www.w3.org/2000/svg" width="512" height="512" viewBox="0 0 512 512"><title>Master_Icons</title><path d="M363.3,201.1c0-19.7-15.9-31.9-46.1-42.6-41.6-14.3-63.9-34.3-63.9-65.5s20.6-48.8,58.1-54.2V2.7h25.3V37.5c19.5,1,33.2,6.1,45.6,10.7V76.4c-8.6-4.3-28.1-14.9-54.2-14.9-31.4,0-43.3,16.5-43.3,30.8,0,18.6,15.1,27.9,50.6,40.8,42.1,15,63.3,33.7,63.3,65.5,0,28.3-22.5,54.8-64.5,60.9v37.2H308.6V260.6c-23.7-.4-40.9-8.3-55.2-17.3L253.2,218c14.7,8.6,38.7,18.2,61.6,18.2C343.7,236.2,363.3,221.5,363.3,201.1Zm103,14.7a46,46,0,0,0-42.1,64.6l-80.1,84.1a45.8,45.8,0,0,0-49.7,7.2l-65-44.2a46,46,0,1,0-90,2.7L72.9,399.9a46.3,46.3,0,1,0,17.1,25l65.9-69.2a45.8,45.8,0,0,0,59.1-2.3l64.6,43.9a46.1,46.1,0,1,0,86-12.5l78.7-82.6A46.1,46.1,0,1,0,466.4,215.8Z"/></svg>