<svg id="Layer_1" data-name="Layer 1" xmlns="http://www.w3.org/2000/svg" viewBox="0 0 517.84 485.25"><defs><style>.cls-1{stroke:#000;stroke-miterlimit:10;stroke-width:4.5px;}</style></defs><title>Reseller_Icon</title><path class="cls-1" d="M335.57,133.07C300.06,120.18,285,110.87,285,92.25c0-14.33,11.84-30.8,43.27-30.8,26.13,0,45.63,10.65,54.21,14.94V48.17C370,43.56,356.31,38.5,336.8,37.45V2.71H311.49V38.88C273.93,44.26,253.34,63.32,253.34,93c0,31.16,22.22,51.13,63.86,65.46,30.21,10.74,46.13,22.92,46.13,42.62,0,20.41-19.59,35.1-48.58,35.1-22.86,0-46.86-9.57-61.55-18.17l0.21,25.27c14.29,9,31.54,16.89,55.22,17.25V296.7h25.72V259.49c42-6.09,64.5-32.59,64.5-60.88C398.85,166.74,377.62,148.11,335.57,133.07Zm130.81,82.77a46,46,0,0,0-42.13,64.61l-80,84.06a45.78,45.78,0,0,0-49.75,7.17l-65-44.22a46,46,0,1,0-90,2.68L73,399.94a46.32,46.32,0,1,0,17.08,25L156,355.73a45.85,45.85,0,0,0,59-2.26l64.6,43.94a46,46,0,1,0,86-12.47l78.68-82.63A46,46,0,1,0,466.38,215.84Z" transform="translate(3.19 -0.46)"/></svg>