<svg id="Layer_1" data-name="Layer 1" xmlns="http://www.w3.org/2000/svg" viewBox="0 0 510.12 488.09"><title>restart-icon</title><path d="M439.52,83.41c-95.37-95.31-250-95.26-345.27.11A244.14,244.14,0,0,0,26.4,214.34l27.35,0.59C76.45,97.2,190.29,20.17,308,42.87a217.09,217.09,0,0,1,112.39,59.65c84.76,84.76,84.76,222.18,0,306.94s-222.18,84.76-306.94,0A218.78,218.78,0,0,1,83,371.31l71.76-71.73L0.89,298.93V453.38l62.56-62.53a246.48,246.48,0,0,0,30.91,37.72c95.31,95.31,249.84,95.31,345.15,0S534.83,178.72,439.52,83.41Z" transform="translate(-0.89 -11.95)"/></svg>