<svg xmlns="http://www.w3.org/2000/svg" width="512" height="512" viewBox="0 0 512 512"><title>Master_Icons2</title><path d="M397.8,188.9a5.4,5.4,0,1,1-10.8,0V134.1l-74.6,74.6-7.7-7.7,74.6-74.6H324.6a5.4,5.4,0,1,1-.1-10.8h73.3v73.3ZM192.6,383.3H137.8l74.6-74.6-7.7-7.7-74.6,74.6V320.8a5.4,5.4,0,0,0-5.4-5.5,5.4,5.4,0,0,0-5.4,5.4v73.3h73.3A5.4,5.4,0,1,0,192.6,383.3Zm48.9-120.8a6.7,6.7,0,1,0,9.5,0A6.7,6.7,0,0,0,241.5,262.5Zm23-23a6.7,6.7,0,1,0,9.5,0A6.7,6.7,0,0,0,264.5,239.4Zm23-23a6.7,6.7,0,1,0,9.5,0A6.7,6.7,0,0,0,287.6,216.4Zm-69.1,69.1a6.7,6.7,0,1,0,9.5,0A6.7,6.7,0,0,0,218.5,285.5ZM512,81.6V512H82.4L0,431.2V0.7A0.8,0.8,0,0,1,.9,0H429.4ZM87.2,486.3l-0.3-57.6H25.2Zm399.6,0.4V102.6H410V25.2H25.8L25.2,409.7h77.2v77.1H486.8ZM487,81.6L429.4,25.2l0.2,56.4H487Z"/></svg>