<svg xmlns="http://www.w3.org/2000/svg" width="7.1in" height="7.1in" viewBox="0 0 512 512">
  <title>scalable</title>
  <path d="M397.8,188.9a5.4,5.4,0,1,1-10.8,0h0V134.1l-74.6,74.6-7.7-7.7,74.6-74.6H324.6a5.4,5.4,0,1,1-.1-10.8h73.3v73.3h0ZM192.6,383.3H137.8l74.6-74.6-7.7-7.7-74.6,74.6V320.8a5.4,5.4,0,0,0-5.3-5.5h-0.1a5.4,5.4,0,0,0-5.4,5.4V394h73.3a5.4,5.4,0,0,0,1.5-10.7h-1.5Zm48.9-120.8a6.7,6.7,0,1,0,9.5,0,6.7,6.7,0,0,0-9.5,0h0Zm23-23a4.8,4.8,0,1,0,0-.1h0Zm23-23a6.6,6.6,0,1,0,.1-0.1h-0.1Zm-69.1,69.1a6.6,6.6,0,1,0,.1-0.1h-0.1ZM512,81.6V512H82.4L0,431.2V0.7A0.8,0.8,0,0,1,.9,0H429.4ZM87.2,486.3l-0.3-57.6H25.2Zm399.6,0.4V102.6H410V25.2H25.8L25.2,409.7h77.2v77.1H486.8ZM487,81.6L429.4,25.2l0.2,56.4H487Z" transform="translate(0 0)"/>
</svg>
