<?xml version="1.0" encoding="utf-8"?>
<!-- Generator: Adobe Illustrator 18.1.1, SVG Export Plug-In . SVG Version: 6.00 Build 0)  -->
<svg version="1.1" id="Layer_1" xmlns="http://www.w3.org/2000/svg" xmlns:xlink="http://www.w3.org/1999/xlink" x="0px" y="0px"
	 viewBox="0 0 512 512" enable-background="new 0 0 512 512" xml:space="preserve">
<g>
	<g>
		<path fill="#010101" d="M446.7,63.3c-84.4-84.4-219.5-84.4-303.9,0c-79.6,79.6-84.4,205-14.5,289.5l0,0L7.7,473.4
			c-7.2,7.2-7.2,21.7,0,31.4c4.8,4.8,9.6,7.2,14.5,7.2s12.1-2.4,14.5-7.2l120.6-120.6l0,0c84.4,70,209.9,65.1,287.1-14.5
			C531.1,285.2,531.1,147.8,446.7,63.3z M417.8,338.3c-67.5,67.5-176.1,67.5-243.6,0c-67.5-67.5-67.5-176.1,0-243.6
			c67.5-67.5,176.1-67.5,243.6,0C485.3,162.2,485.3,270.8,417.8,338.3z"/>
	</g>
</g>
</svg>
