<svg xmlns="http://www.w3.org/2000/svg" width="512" height="512" viewBox="0 0 512 512"><defs><style>.a{fill:#020202;}</style></defs><title>Master_Icons2</title><path class="a" d="M94.2,195a6.9,6.9,0,0,1-6.9-7.5C96.9,89.5,169.6,3,256,3S412.2,89.5,421.7,187.5a6.9,6.9,0,0,1-6.9,7.5H376a6.9,6.9,0,0,1-6.9-6.1C360.6,124,314,62,256,62s-107.4,62-116.2,127a6.9,6.9,0,0,1-6.9,6.1H94.2Zm358.3,61.5V491.3c0,11.3-8.2,20.6-18.2,20.6H79c-10,0-18.2-9.2-18.2-20.6V256.5c0-11.3,8.2-20.6,18.2-20.6H434.3C444.3,235.9,452.5,245.2,452.5,256.5ZM294,321.5a8.5,8.5,0,0,0-8.6-8.3H227.9a8.5,8.5,0,0,0-8.6,8.3V429.2a8.5,8.5,0,0,0,8.6,8.3h57.4a8.5,8.5,0,0,0,8.6-8.3V321.5Z"/></svg>