<svg id="Layer_1" data-name="Layer 1" xmlns="http://www.w3.org/2000/svg" viewBox="0 0 512 425.18"><title>Server_Admin_Icon</title><path d="M0,55.53V480.71H512V55.53H0Zm448.1,21.6a8.74,8.74,0,0,1,8.74-8.74H463a8.74,8.74,0,0,1,8.74,8.74v14.1A8.74,8.74,0,0,1,463,100H456.8a8.74,8.74,0,0,1-8.74-8.74V77.14h0Zm-45.4,0a8.74,8.74,0,0,1,8.74-8.74h6.2a8.74,8.74,0,0,1,8.74,8.74v14.1a8.74,8.74,0,0,1-8.74,8.74h-6.2a8.74,8.74,0,0,1-8.74-8.74V77.14h0Zm-45.4,0a8.74,8.74,0,0,1,8.7-8.74h6.2a8.74,8.74,0,0,1,8.8,8.68s0,0,0,.07V91.23a8.74,8.74,0,0,1-8.74,8.74H366a8.74,8.74,0,0,1-8.74-8.74V77.14h0ZM486.76,455.48H25.24V112.87H486.76v342.6h0Zm-380.25-183L214.63,216.8v16.08l-91.11,45.67V279l91.11,45.67v16.08L106.51,285.08V272.49Zm109.3,77.6,65-168.94h15.84L231.42,350.09H215.81Zm189.68-64.78L297.36,340.77V324.69L389.17,279v-0.46l-91.81-45.67V216.8l108.12,55.46v13h0Z" transform="translate(0 -55.53)"/></svg>