<svg xmlns="http://www.w3.org/2000/svg" width="512" height="512" viewBox="0 0 512 512"><title>Master_Icons</title><path d="M0,55.5V480.7H512V55.5H0ZM448.1,77.1a8.7,8.7,0,0,1,8.7-8.7H463a8.7,8.7,0,0,1,8.7,8.7V91.2A8.7,8.7,0,0,1,463,100h-6.2a8.7,8.7,0,0,1-8.7-8.7V77.1Zm-45.4,0a8.7,8.7,0,0,1,8.7-8.7h6.2a8.7,8.7,0,0,1,8.7,8.7V91.2a8.7,8.7,0,0,1-8.7,8.7h-6.2a8.7,8.7,0,0,1-8.7-8.7V77.1Zm-45.4,0a8.7,8.7,0,0,1,8.7-8.7h6.2a8.7,8.7,0,0,1,8.7,8.7V91.2a8.7,8.7,0,0,1-8.7,8.7H366a8.7,8.7,0,0,1-8.7-8.7V77.1ZM486.8,455.5H25.2V112.9H486.8V455.5Zm-380.2-183,108.1-55.7v16.1l-91.1,45.7V279l91.1,45.7v16.1L106.5,285.1V272.5Zm109.3,77.6,65-168.9h15.8L231.4,350.1H215.8Zm189.7-64.8L297.4,340.8V324.7L389.2,279v-0.5l-91.8-45.7V216.8l108.1,55.5v13.1Z"/></svg>