<svg xmlns="http://www.w3.org/2000/svg" width="512" height="512" viewBox="0 0 512 512"><title>Master_Icons</title><path d="M324,247.8l-44.4,1.4A139.8,139.8,0,0,0,269.2,224l31-33.7A175,175,0,0,0,253.9,144l-33.2,31a140.1,140.1,0,0,0-25.2-10.4l0.9-44.4a163.4,163.4,0,0,0-65.5,0l1.1,44.4A140.1,140.1,0,0,0,106.8,175L73.4,144a175.1,175.1,0,0,0-46.3,46.3l33.1,32.2a139.8,139.8,0,0,0-10.4,25.2H3.3a163.4,163.4,0,0,0,0,65.4l46.2-.4A139.8,139.8,0,0,0,59.9,338L27.1,370.8A175,175,0,0,0,73.4,417l32.8-31.7a140.1,140.1,0,0,0,25.2,10.4l-0.5,45.1a162.7,162.7,0,0,0,65.5,0L196.1,396a140,140,0,0,0,25.2-10.4L253.9,417a175,175,0,0,0,46.3-46.3l-30.3-33a139.8,139.8,0,0,0,10.4-25.2l43.7,0.7A163.4,163.4,0,0,0,324,247.8ZM163.6,351.3a70.8,70.8,0,1,1,70.8-70.8A70.8,70.8,0,0,1,163.6,351.3ZM460.2,150.5l27.8-.3-0.4-38.3-27.7.3a61,61,0,0,0-15.6-24.4l13.1-20.8L425,46.6,409.5,71.3a56,56,0,0,0-14.7,0L379.3,46.6,346.9,66.9,360,87.7a61,61,0,0,0-15.6,24.5l-27.6-.3-0.4,38.3,27.7,0.3a60.9,60.9,0,0,0,13.5,22.9L344,194.6l32.3,20.5,14.8-23.3a58.7,58.7,0,0,0,22.1,0l14.8,23.3,32.3-20.5-13.5-21.3A60.9,60.9,0,0,0,460.2,150.5Zm-58.1,17.3A36.9,36.9,0,1,1,439,130.8,36.9,36.9,0,0,1,402.1,167.7Zm76,250.1,32.9-.4-0.5-45.3-32.8.4a72.2,72.2,0,0,0-18.4-28.9L474.8,319l-38.3-24.1-18.3,29.2a66.3,66.3,0,0,0-17.4,0l-18.3-29.2L344.1,319l15.4,24.6a72.2,72.2,0,0,0-18.5,29l-32.7-.4-0.5,45.3,32.8,0.4a72.1,72.1,0,0,0,16,27.1l-15.9,25.2,38.2,24.2,17.5-27.6a69.4,69.4,0,0,0,26.1,0l17.5,27.6,38.2-24.2-16-25.2A72.1,72.1,0,0,0,478.1,417.9Zm-68.7,20.4a43.7,43.7,0,1,1,43.7-43.7A43.7,43.7,0,0,1,409.4,438.3Z"/></svg>