<?xml version="1.0" encoding="utf-8"?>
<!-- Generator: Adobe Illustrator 18.1.1, SVG Export Plug-In . SVG Version: 6.00 Build 0)  -->
<svg version="1.1"
	 id="svg4581" xmlns:sodipodi="http://sodipodi.sourceforge.net/DTD/sodipodi-0.dtd" xmlns:inkscape="http://www.inkscape.org/namespaces/inkscape" xmlns:rdf="http://www.w3.org/1999/02/22-rdf-syntax-ns#" xmlns:dc="http://purl.org/dc/elements/1.1/" xmlns:cc="http://creativecommons.org/ns#" xmlns:svg="http://www.w3.org/2000/svg" sodipodi:docname="New document 96" inkscape:version="0.48.2 r9819"
	 xmlns="http://www.w3.org/2000/svg" xmlns:xlink="http://www.w3.org/1999/xlink" x="0px" y="0px" viewBox="-49 141 512 512"
	 enable-background="new -49 141 512 512" xml:space="preserve">
<sodipodi:namedview  inkscape:pageshadow="2" id="base" fit-margin-bottom="0" inkscape:document-units="px" fit-margin-right="0" inkscape:current-layer="layer1" inkscape:window-maximized="0" inkscape:window-y="20" inkscape:window-height="424" inkscape:window-x="66" inkscape:pageopacity="0.0" inkscape:window-width="483" bordercolor="#666666" inkscape:cx="489.44205" borderopacity="1.0" showgrid="false" inkscape:zoom="0.35" fit-margin-left="0" pagecolor="#ffffff" inkscape:cy="227.38109" fit-margin-top="0">
	</sodipodi:namedview>
<g>
	<g>
		<path fill="#231F20" d="M324.7,180.2c32.4,0,58.8,26.4,58.8,58.8s-26.4,58.8-58.8,58.8s-58.8-26.4-58.8-58.8
			S292.2,180.2,324.7,180.2 M324.7,141c-54.2,0-98.1,43.9-98.1,98.1s43.9,98.1,98.1,98.1s98.1-43.9,98.1-98.1S378.9,141,324.7,141
			L324.7,141z"/>
	</g>
	<g>
		<path fill="#231F20" d="M89.3,337.2c32.4,0,58.8,26.4,58.8,58.8s-26.4,58.8-58.8,58.8S30.5,428.4,30.5,396S56.9,337.2,89.3,337.2
			 M89.3,297.9c-54.2,0-98.1,43.9-98.1,98.1s43.9,98.1,98.1,98.1s98.1-43.9,98.1-98.1S143.5,297.9,89.3,297.9L89.3,297.9z"/>
	</g>
	<g>
		<path fill="#231F20" d="M324.7,494.1c32.4,0,58.8,26.4,58.8,58.8c0,32.4-26.4,58.8-58.8,58.8s-58.8-26.4-58.8-58.8
			C265.8,520.5,292.2,494.1,324.7,494.1 M324.7,454.8c-54.2,0-98.1,43.9-98.1,98.1s43.9,98.1,98.1,98.1s98.1-43.9,98.1-98.1
			S378.9,454.8,324.7,454.8L324.7,454.8z"/>
	</g>
	<g>
		
			<rect x="187.4" y="262.1" transform="matrix(0.7071 0.7071 -0.7071 0.7071 285.1625 -53.3662)" fill="#231F20" width="39.2" height="111"/>
	</g>
	<g>
		<polygon fill="#231F20" points="232.6,527.8 151.6,449.3 178.9,421.1 259.9,499.6 		"/>
	</g>
</g>
</svg>
