<?xml version="1.0" encoding="utf-8"?>
<!-- Generator: Adobe Illustrator 18.1.1, SVG Export Plug-In . SVG Version: 6.00 Build 0)  -->
<svg version="1.1" id="Layer_1" xmlns="http://www.w3.org/2000/svg" xmlns:xlink="http://www.w3.org/1999/xlink" x="0px" y="0px"
	 viewBox="0 0 512 512" enable-background="new 0 0 512 512" xml:space="preserve">
<g>
	<g>
		<path fill="#231F20" d="M374.2,39.4c32.5,0,59,26.5,59,59s-26.5,59-59,59s-59-26.5-59-59S341.5,39.4,374.2,39.4 M374.2,0
			c-54.4,0-98.5,44.1-98.5,98.5s44.1,98.5,98.5,98.5s98.5-44.1,98.5-98.5S428.6,0,374.2,0L374.2,0z"/>
	</g>
	<g>
		<path fill="#231F20" d="M137.8,197c32.5,0,59,26.5,59,59s-26.5,59-59,59s-59-26.5-59-59S105.3,197,137.8,197 M137.8,157.5
			c-54.4,0-98.5,44.1-98.5,98.5s44.1,98.5,98.5,98.5s98.5-44.1,98.5-98.5S192.3,157.5,137.8,157.5L137.8,157.5z"/>
	</g>
	<g>
		<path fill="#231F20" d="M374.2,354.5c32.5,0,59,26.5,59,59s-26.5,59-59,59s-59-26.5-59-59C315,381,341.5,354.5,374.2,354.5
			 M374.2,315c-54.4,0-98.5,44.1-98.5,98.5s44.1,98.5,98.5,98.5s98.5-44.1,98.5-98.5S428.6,315,374.2,315L374.2,315z"/>
	</g>
	<g>
		
			<rect x="236.3" y="121.6" transform="matrix(-0.7071 -0.7071 0.7071 -0.7071 311.5966 483.6094)" fill="#231F20" width="39.4" height="111.4"/>
	</g>
	<g>
		<polygon fill="#231F20" points="281.7,388.3 200.4,309.5 227.8,281.2 309.1,360 		"/>
	</g>
</g>
</svg>
