<svg xmlns="http://www.w3.org/2000/svg" width="512" height="512" viewBox="0 0 512 512"><title>Master_Icons</title><path d="M374.6,326.2a92.3,92.3,0,0,0-62,24l-92-53.8a91.4,91.4,0,0,0,6.1-16l0.2-.7,0.4-1.4a85,85,0,0,0,.2-43.7l-0.3-1.1v-0.4a90.7,90.7,0,0,0-5.5-15.5l92.9-54.3a92.6,92.6,0,1,0-32.7-70.4,90.6,90.6,0,0,0,9.7,40.4l-92,53.8a92.3,92.3,0,0,0-26.7-16.9l-2.1-.7-1.1-.3a84.2,84.2,0,0,0-32-6,92.9,92.9,0,1,0,0,185.8,91.1,91.1,0,0,0,17.9-1.8,86.1,86.1,0,0,0,11.7-3.4l0.6-.2,1.5-.4,2.6-.8a91.6,91.6,0,0,0,14.6-7.5h0.4a92,92,0,0,0,10.9-8.1l92.9,54.3a90.7,90.7,0,0,0-8.7,38.4A92.9,92.9,0,1,0,374.6,326.2Zm0-297a63.7,63.7,0,1,1-63.7,63.7A63.7,63.7,0,0,1,374.6,29.2ZM137.4,319.7A63.7,63.7,0,1,1,201.1,256,63.7,63.7,0,0,1,137.4,319.7ZM374.6,482.8a63.7,63.7,0,1,1,63.7-63.7A63.7,63.7,0,0,1,374.6,482.8Z"/></svg>