<?xml version="1.0" encoding="utf-8"?>
<!-- Generator: Adobe Illustrator 19.2.0, SVG Export Plug-In . SVG Version: 6.00 Build 0)  -->
<svg version="1.1" id="Layer_1" xmlns="http://www.w3.org/2000/svg" xmlns:xlink="http://www.w3.org/1999/xlink" x="0px" y="0px"
	 viewBox="0 0 512 512" style="enable-background:new 0 0 512 512;" xml:space="preserve">
<title>Master_Icons</title>
<path d="M374.6,326.2c-22.9,0-44.8,8.5-62,24l-92-53.8c2.5-5.2,4.6-10.6,6.1-16c0.1-0.3,0.2-0.5,0.2-0.7c0.2-0.5,0.3-0.9,0.4-1.4
	c2-8.1,3-15.3,3-22.2c0-6.7-0.9-13.7-2.7-21.4c-0.1-0.4-0.2-0.7-0.3-1.1c-0.1-0.1-0.1-0.3-0.1-0.4c-1.3-5.2-3.2-10.4-5.5-15.5
	l92.9-54.3c17,14.6,38.2,22.5,60.1,22.5c51.2,0,92.9-41.7,92.9-92.9c0-51.2-41.7-92.9-92.9-92.9c-51.2,0-92.9,41.7-92.9,92.9
	c0,13.8,3.3,27.3,9.7,40.4l-92,53.8c-8-7.2-17-12.9-26.7-16.9c-0.8-0.3-1.5-0.5-2.1-0.7c-0.4-0.1-0.8-0.2-1.1-0.3
	c-4.3-1.6-8.8-3.2-13.7-4.2c-6-1.2-12.2-1.9-18.3-1.9c-51.2,0-92.9,41.7-92.9,92.9s41.7,92.9,92.9,92.9c5.9,0,11.9-0.6,17.9-1.8
	c4.1-0.8,8-2.1,11.7-3.4l0.6-0.2c0.5-0.2,1-0.3,1.5-0.4c0.8-0.2,1.7-0.5,2.6-0.8c4.8-1.9,9.6-4.4,14.6-7.5l0.2-0.1l0.1-0.1
	c3.7-2.3,7.4-5.1,10.9-8.1l92.9,54.3c-5.8,12.5-8.7,25.4-8.7,38.4c0,51.2,41.7,92.9,92.9,92.9c51.2,0,92.9-41.7,92.9-92.9
	S425.8,326.2,374.6,326.2z"/>
</svg>
