<svg xmlns="http://www.w3.org/2000/svg" width="512" height="512" viewBox="0 0 512 512"><defs><style>.a{fill:#020202;}</style></defs><title>Master_Icons2</title><path class="a" d="M372.4,108.2c-11.1,0-22.3,1.5-31.6,7.3-0.7-7.7-2.7-14-4.5-21.4,10.7-5.6,23.8-8.3,36.1-8.3,47,0,85.6,42.5,89.1,100.4H442.7C439.7,140.8,409.4,108.2,372.4,108.2Zm-80.9,77.7h45.8l1-4c6.9-28.4,4.5-47,2.8-63.4l-0.3-3C313.5,128.9,294.2,154.2,291.5,185.9ZM233.4,397c-6.1,0-14.1-8.4-14.1-14.4V200.4c0-7.5,6.7-14.4,15.3-14.4h33.3c3.3-42.8,30.6-75.9,68.5-91.9-1.4-4.8-3.1-12.5-5.1-17.1s-4.4-9.4-6.9-13.9a121.6,121.6,0,0,0-11-15.7C257,64.8,226.9,115.5,222.8,164H186.8A171.9,171.9,0,0,1,283.5,22.3c-3.6-2-7.3-3.8-11.1-5.4a99.2,99.2,0,0,0-71.8,0,125.2,125.2,0,0,0-12.5,6.2c-15.9,9.3-29.2,22.9-39.3,40a154.9,154.9,0,0,0-6.9,13.9,132.9,132.9,0,0,0-9.9,38.6c-1.7,16.5-.5,44.5,2.8,66.4,12.6,66.2,46.1,98.8,46.1,98.8s0.2,22.1.2,24.3c0.2,5.1-1.5,9-4.2,11.6C150.9,342.6,17.4,373,17.7,427.2v85H455.4V427.2c0.1-11-3.7-30.2-14.3-30.2H233.4Zm261-179.4V368.7c0,7.3-5.3,13.2-11.7,13.2H254c-6.4,0-11.7-6-11.7-13.2V217.6c0-7.3,5.3-13.2,11.7-13.2H482.6C489.1,204.3,494.3,210.3,494.3,217.6Zm-102,41.8a5.5,5.5,0,0,0-5.6-5.4h-37a5.5,5.5,0,0,0-5.6,5.4v69.3a5.5,5.5,0,0,0,5.6,5.4h37a5.5,5.5,0,0,0,5.6-5.4V259.4Z"/></svg>