<svg id="Layer_1" data-name="Layer 1" xmlns="http://www.w3.org/2000/svg" viewBox="0 0 512 512"><title>Master_Icons</title><path d="M374.62,326.19a92.25,92.25,0,0,0-62,24l-92-53.79a91.42,91.42,0,0,0,6.05-16c0.07-.25.15-0.5,0.24-0.74,0.15-.46.3-0.92,0.44-1.44a85,85,0,0,0,.24-43.65c-0.09-.36-0.2-0.71-0.32-1.05-0.05-.15-0.1-0.29-0.13-0.4a90.71,90.71,0,0,0-5.55-15.51l92.92-54.32A92.6,92.6,0,1,0,281.72,92.9a90.62,90.62,0,0,0,9.69,40.38l-92,53.79a92.25,92.25,0,0,0-26.72-16.92,16.84,16.84,0,0,0-2.13-.69c-0.4-.11-0.79-0.21-1.09-0.33a84.16,84.16,0,0,0-32-6,92.9,92.9,0,0,0,0,185.8,91.12,91.12,0,0,0,17.9-1.81,86,86,0,0,0,11.66-3.42l0.63-.22c0.48-.17,1-0.3,1.45-0.44a22.92,22.92,0,0,0,2.61-.84,91.62,91.62,0,0,0,14.58-7.47l0.23-.11,0.15-.12a92,92,0,0,0,10.94-8.12l92.91,54.31a90.74,90.74,0,0,0-8.73,38.42A92.9,92.9,0,1,0,374.62,326.19Zm63.68,92.9a63.67,63.67,0,1,1-63.68-63.68A63.75,63.75,0,0,1,438.29,419.1ZM310.94,92.9a63.67,63.67,0,1,1,63.67,63.68A63.75,63.75,0,0,1,310.94,92.9ZM201.06,256a63.68,63.68,0,1,1-63.68-63.68A63.75,63.75,0,0,1,201.06,256Z"/></svg>