<?xml version="1.0" encoding="utf-8"?>
<!-- Generator: Adobe Illustrator 17.0.2, SVG Export Plug-In . SVG Version: 6.00 Build 0)  -->
<!DOCTYPE svg PUBLIC "-//W3C//DTD SVG 1.1//EN" "http://www.w3.org/Graphics/SVG/1.1/DTD/svg11.dtd">
<svg version="1.1"
	 id="svg3250" xmlns:rdf="http://www.w3.org/1999/02/22-rdf-syntax-ns#" xmlns:dc="http://purl.org/dc/elements/1.1/" xmlns:cc="http://creativecommons.org/ns#" xmlns:svg="http://www.w3.org/2000/svg" xmlns:inkscape="http://www.inkscape.org/namespaces/inkscape" xmlns:sodipodi="http://sodipodi.sourceforge.net/DTD/sodipodi-0.dtd" inkscape:version="0.48.2 r9819" sodipodi:docname="New document 8"
	 xmlns="http://www.w3.org/2000/svg" xmlns:xlink="http://www.w3.org/1999/xlink" x="0px" y="0px" width="512px" height="512px"
	 viewBox="0 0 512 512" enable-background="new 0 0 512 512" xml:space="preserve">
<sodipodi:namedview  pagecolor="#ffffff" fit-margin-left="0" bordercolor="#666666" inkscape:zoom="0.35" borderopacity="1.0" inkscape:cy="406.49461" showgrid="false" fit-margin-top="0" id="base" inkscape:cx="500.214" inkscape:pageshadow="2" inkscape:window-height="424" fit-margin-bottom="0" inkscape:document-units="px" inkscape:current-layer="layer1" inkscape:window-y="20" fit-margin-right="0" inkscape:window-maximized="0" inkscape:pageopacity="0.0" inkscape:window-width="483" inkscape:window-x="66">
	</sodipodi:namedview>
<g id="layer1" transform="translate(125.214,-125.86757)" inkscape:label="Layer 1" inkscape:groupmode="layer">
	<path id="path300" inkscape:connector-curvature="0" fill="#373535" d="M386.786,223.073
		c-18.833,8.365-39.054,14.001-60.316,16.558c21.673-13.004,38.361-33.614,46.207-58.126
		c-20.307,12.029-42.804,20.785-66.752,25.487c-19.136-20.415-46.445-33.159-76.678-33.159
		c-57.975,0-105.005,47.009-105.005,105.026c0,8.236,0.933,16.255,2.708,23.927C39.61,298.431-37.784,256.601-89.56,193.057
		c-9.038,15.518-14.24,33.549-14.24,52.794c0,36.453,18.552,68.616,46.748,87.428c-17.23-0.52-33.419-5.245-47.593-13.134v1.318
		c0,50.888,36.193,93.346,84.242,103.011c-8.778,2.384-18.075,3.662-27.633,3.662c-6.784,0-13.394-0.641-19.788-1.884
		c13.394,41.741,52.167,72.105,98.134,72.971c-35.933,28.174-81.251,44.972-130.471,44.972c-8.474,0-16.818-0.52-25.053-1.474
		c46.487,29.799,101.711,47.181,161.029,47.181c193.235,0,298.89-160.031,298.89-298.868c0-4.552-0.138-9.08-0.303-13.588
		c20.481-14.803,38.317-33.312,52.384-54.378"/>
</g>
</svg>
