<?xml version="1.0" encoding="utf-8"?>
<!-- Generator: Adobe Illustrator 17.0.2, SVG Export Plug-In . SVG Version: 6.00 Build 0)  -->
<!DOCTYPE svg PUBLIC "-//W3C//DTD SVG 1.1//EN" "http://www.w3.org/Graphics/SVG/1.1/DTD/svg11.dtd">
<svg version="1.1" id="Layer_1" xmlns="http://www.w3.org/2000/svg" xmlns:xlink="http://www.w3.org/1999/xlink" x="0px" y="0px"
	 width="512px" height="512px" viewBox="0 0 512 512" style="enable-background:new 0 0 512 512;" xml:space="preserve">
<path style="fill:#010101;" d="M410.791,256c0,85.5-69.314,154.791-154.791,154.791c-85.5,0-154.791-69.29-154.791-154.791
	c0-10.186,1.011-20.134,2.884-29.768H0V432c0,44.186,35.79,80,80,80h352c44.163,0,80-35.814,80-80V226.232H407.895
	C409.779,235.866,410.791,245.814,410.791,256z M432,0H80C35.79,0,0,35.826,0,80.006v86.692h129.593
	c28.035-39.611,74.186-65.488,126.407-65.488c52.209,0,98.36,25.878,126.384,65.488H512V80.006C512,35.826,476.163,0,432,0z
	 M471.104,98.825c0,7.867-6.418,14.291-14.279,14.291h-42.872c-7.848,0-14.291-6.425-14.291-14.291v-42.86
	c0-7.867,6.442-14.291,14.291-14.291h42.872c7.86,0,14.279,6.425,14.279,14.291V98.825z M351.256,256
	c0-52.611-42.651-95.256-95.256-95.256c-52.616,0-95.256,42.645-95.256,95.256s42.64,95.256,95.256,95.256
	C308.604,351.256,351.256,308.611,351.256,256z"/>
</svg>
