<?xml version="1.0" encoding="utf-8"?>
<!-- Generator: Adobe Illustrator 17.0.2, SVG Export Plug-In . SVG Version: 6.00 Build 0)  -->
<!DOCTYPE svg PUBLIC "-//W3C//DTD SVG 1.1//EN" "http://www.w3.org/Graphics/SVG/1.1/DTD/svg11.dtd">
<svg version="1.1" id="Layer_1" xmlns="http://www.w3.org/2000/svg" xmlns:xlink="http://www.w3.org/1999/xlink" x="0px" y="0px"
	 width="512px" height="512px" viewBox="0 0 512 512" style="enable-background:new 0 0 512 512;" xml:space="preserve">
<g>
	<path d="M263.154,34.514c3.716-0.092,7.936-0.116,11.02-1.816c12.188-6.712,24.016-14.08,35.98-21.208
		c-48.688,0-97.367,0-146.055,0.004c-10.2,1.66-20.412,3.28-30.604,4.988c-48.452,8.104-89.683,47.836-99.599,95.931
		c-12.248,59.396,31.76,116.967,92.335,120.523c10.048,0.588,20.164,0.084,29.196,0.084c-0.836,11.78-3.96,23.856-1.844,34.924
		c2.164,11.34,9.472,21.704,14.832,33.14c-8.736,0.788-18.072,1.664-27.416,2.472c-30.476,2.636-59.623,9.68-86.835,24.312
		c-28.1,15.116-46.724,37.108-52.923,68.868c-0.144,0.736-0.82,1.364-1.24,2.036c0,7.108,0,14.224,0,21.34
		c14.995,53.108,55.535,72.063,105.271,78.744c3.216,0.428,6.396,1.092,9.596,1.656c12.584,0,25.164,0,37.748,0
		c10.2-1.628,20.456-2.992,30.6-4.932c39.635-7.584,72.743-25.684,96.639-59.255c25.02-35.144,24.304-92.055-7.264-122.623
		c-6.476-6.268-12.62-12.896-19.26-18.984c-11.468-10.508-23.848-20.112-34.656-31.248c-11.516-11.88-12.192-25.248-2.008-38.556
		c7.4-9.676,16.16-18.528,25.324-26.608c42.24-37.232,41.828-100.875,15.752-136.675c-6.8-9.344-14.868-17.768-22.716-27.04
		C244.265,34.59,253.717,34.754,263.154,34.514z M234.641,356.155c35.676,32.32,27.208,86.239-16.312,106.719
		c-15.012,7.06-34.548,10.908-53.016,10.832c-30.356-0.848-57.476-5.632-81.011-22.992c-21.188-15.624-32.632-36.12-29.6-62.744
		c3.072-26.968,19.06-44.62,43.644-54.772c25.616-10.58,52.42-15.256,80.051-14.168c5.592,0.212,11.928,2.292,16.44,5.564
		C208.534,334.539,222.106,344.807,234.641,356.155z M220.01,171.445c-5.28,43.132-55.295,55.044-82.323,35.96
		c-11.076-7.82-21.192-18.376-28.608-29.736c-14.34-21.976-22.128-46.724-22.9-73.308c-0.604-19.1,2.976-37.236,15.492-52.155
		c21.096-25.148,58.888-25.888,82.867-1.992c17.648,17.584,25.764,40.2,31.976,63.56
		C221.542,132.689,222.398,151.949,220.01,171.445z"/>
	<path d="M442.84,211.697c0-23.712,0-46.004,0-68.36c-13.372,0-26.032,0-39.392,0c0,22.836,0,45.112,0,68.276
		c-22.668,0-44.636,0-66.699,0c0,13.572,0,26.232,0,39.732c22.552,0,44.519,0,67.343,0c0,22.808,0,44.768,0,66.575
		c13.348,0,25.808,0,39.14,0c0-22.384,0-44.336,0-66.835c23.504,0,46.136,0,68.764,0c0-13.132,0-26.26,0.004-39.388
		C489.171,211.697,466.348,211.697,442.84,211.697z"/>
</g>
</svg>
