<svg xmlns="http://www.w3.org/2000/svg" width="512" height="512" viewBox="0 0 512 512"><title>Master_Icons</title><path d="M445.3,0.4H65.9A66,66,0,0,0,0,66.3V445.7a66,66,0,0,0,65.9,65.9H445.3a66,66,0,0,0,65.9-65.9V66.3A66,66,0,0,0,445.3.4ZM256,155c56.6,0,102.2,44.8,102.2,99.7S312.6,354.4,256,354.4s-102.2-44.8-102.2-99.7S199.4,155,256,155ZM452.9,432.2a20.6,20.6,0,0,1-20.3,20.3H76.9a20.6,20.6,0,0,1-20.3-20.3V216.7h47.3c-5.1,14.4-6.8,28.7-6.8,43.9C97.2,346,169,414.4,256,414.4s158.8-69.3,158.8-153.8a153.8,153.8,0,0,0-6.8-43.9h44.8V432.2Zm0.8-296.6a22.7,22.7,0,0,1-22.8,22.8H372.6a22.7,22.7,0,0,1-22.8-22.8V80.7a22.7,22.7,0,0,1,22.8-22.8h58.3a22.7,22.7,0,0,1,22.8,22.8v54.9Z"/></svg>