<svg xmlns="http://www.w3.org/2000/svg" width="512" height="512" viewBox="0 0 512 512"><title>Master_Icons101</title><path d="M510.4,98.2a208.8,208.8,0,0,1-60,16.4,104.7,104.7,0,0,0,45.9-57.8,208.9,208.9,0,0,1-66.3,25.3,104.5,104.5,0,0,0-177.9,95.2A296.4,296.4,0,0,1,37,68.3,104.5,104.5,0,0,0,69.3,207.7,104,104,0,0,1,22,194.7c0,0.4,0,.9,0,1.3a104.5,104.5,0,0,0,83.8,102.4,104.6,104.6,0,0,1-47.2,1.8,104.5,104.5,0,0,0,97.5,72.5A209.5,209.5,0,0,1,26.5,417.3a211.8,211.8,0,0,1-24.9-1.5,295.5,295.5,0,0,0,160,46.9c192,0,297.1-159.1,297.1-297.1q0-6.8-.3-13.5a212.1,212.1,0,0,0,52.1-54"/></svg>