<svg xmlns="http://www.w3.org/2000/svg" width="512" height="512" viewBox="0 0 512 512"><defs><style>.a{fill:#010101;}</style></defs><title>Master_Icons2</title><path class="a" d="M284.2,78.7H225.3V63.8H343.1V78.7H284.2Zm58.9,47.5V111.4H225.3v14.9H343.1Zm0,185.1V296.5H225.3v14.9H343.1Zm0-92.6V203.9H225.3v14.9H343.1Zm0.2,45V249h-118v14.9h118Zm-0.2-92.6V156.4H225.3v14.9H343.1ZM273.2,363.6v-0.3h0v0.2ZM201.1,56.6V163.3a0.6,0.6,0,0,1-.7.5H84.2a0.6,0.6,0,0,1-.7-0.5V56.6a0.6,0.6,0,0,1,.7-0.5H200.4A0.6,0.6,0,0,1,201.1,56.6ZM182.1,74.3H101.6v74.3h80.5V74.3ZM343,404.7V389.8H225.2v14.9H343Zm0.2-47.5V342.2h-118v14.9h118ZM481.4,47.9V507.7a2.1,2.1,0,0,1-2,2.2H122.6a2.1,2.1,0,0,1-2-2.2V459.3H35.8a2.1,2.1,0,0,1-2-2.2V2.2a2.1,2.1,0,0,1,2-2.2H392.7a2.1,2.1,0,0,1,2,2.2V45.6h84.8A2.1,2.1,0,0,1,481.4,47.9Zm-112,389V22.5H59.1V436.8H369.4ZM456.2,68.3H394.7v70.2h36.7v14.9H394.7v30.1h36.7v14.9H394.7v32.6h36.5V246H394.7v30.1h36.6V291H394.7v32.6h36.5v14.9H394.7v30.8h36.6v14.9H394.7v32.6h36.5v14.9H394.7v25.3a2.1,2.1,0,0,1-2,2.2H145.8v27.9H456.2V68.3ZM355,427.4v-0.3h0v0.2Zm-154.1-116V296.5H83.1v14.9H200.9Zm0-92.6V203.9H83.1v14.9H200.9Zm0.2,45V249H83.1v14.9h118ZM131.1,407v-0.3h0V407Zm69.8-2.3V389.8H83v14.9H200.8Zm0.2-47.5V342.2H83v14.9H201Z"/></svg>