<svg xmlns="http://www.w3.org/2000/svg" width="512" height="512" viewBox="0 0 512 512">
  <defs>
    <style>
      .a {
        fill: #010101;
      }
    </style>
  </defs>
  <title>Support-services</title>
  <g>
    <path class="a" d="M214.1,312.7C223.4,355.6,242,381,256,381s32.6-25.4,41.9-68.3H214.1Z"/>
    <path class="a" d="M189.6,256a301.4,301.4,0,0,1,3.1-43.3h-54a125.1,125.1,0,0,0-1.8,81.3H192A304.2,304.2,0,0,1,189.6,256Z"/>
    <path class="a" d="M144.6,312.7a125.6,125.6,0,0,0,74.5,62.7c-10.6-15.4-19-37.1-24-62.7H144.6Z"/>
    <path class="a" d="M208.4,256a285.1,285.1,0,0,0,2.5,38h90.3a285.1,285.1,0,0,0,2.5-38,281.1,281.1,0,0,0-3.2-43.3H211.6A281.1,281.1,0,0,0,208.4,256Z"/>
    <path class="a" d="M296.7,194c-9.6-39.7-27.2-63-40.7-63s-31.1,23.3-40.7,63h81.3Z"/>
    <path class="a" d="M219.1,136.6A125.6,125.6,0,0,0,147.5,194h48.6C201.3,170.7,209.2,150.8,219.1,136.6Z"/>
    <path class="a" d="M292.9,136.6c9.8,14.3,17.8,34.1,22.9,57.4h48.6A125.6,125.6,0,0,0,292.9,136.6Z"/>
    <path class="a" d="M505.4,306.9a254.1,254.1,0,0,0,0-101.8l-69,2.1a217.4,217.4,0,0,0-16.2-39.2l48.2-52.5a252.6,252.6,0,0,0-32.6-39.4,251.2,251.2,0,0,0-39.4-32.6L344.7,91.9a218,218,0,0,0-39.2-16.2l1.4-69.1a254.1,254.1,0,0,0-101.8,0l1.7,69.1a217.9,217.9,0,0,0-39.2,16.2L115.6,43.6A251.2,251.2,0,0,0,76.2,76.2a252.8,252.8,0,0,0-32.6,39.4l51.5,50.1A217.4,217.4,0,0,0,79,204.9l-72.4.2a254.1,254.1,0,0,0,0,101.8l71.9-.6a217.4,217.4,0,0,0,16.2,39.2L43.7,396.4a252.7,252.7,0,0,0,32.6,39.4,251.1,251.1,0,0,0,39.4,32.6l51-49.2a217.9,217.9,0,0,0,39.2,16.2l-0.7,70.1a253,253,0,0,0,101.8,0l-0.5-69.6a217.7,217.7,0,0,0,39.2-16.2l50.8,48.8a251.2,251.2,0,0,0,39.4-32.6,252.8,252.8,0,0,0,32.6-39.4L421.2,345a217.5,217.5,0,0,0,16.2-39.2ZM256,399.8A143.8,143.8,0,1,1,399.8,256,143.8,143.8,0,0,1,256,399.8Z"/>
    <path class="a" d="M292.9,375.4a125.6,125.6,0,0,0,74.5-62.7H317C311.9,338.3,303.5,360.1,292.9,375.4Z"/>
    <path class="a" d="M322.4,256a304.2,304.2,0,0,1-2.3,38h55.1a125.1,125.1,0,0,0-1.8-81.3h-54A301.4,301.4,0,0,1,322.4,256Z"/>
  </g>
</svg>
