<svg xmlns="http://www.w3.org/2000/svg" width="512" height="512" viewBox="0 0 512 512"><defs><style>.a{fill:#010101;}</style></defs><title>Support-FAQs</title><path class="a" d="M506.8,307.2a255.6,255.6,0,0,0,0-102.4L437.4,207a218.7,218.7,0,0,0-16.3-39.4l48.5-52.8a254.1,254.1,0,0,0-32.8-39.6,252.7,252.7,0,0,0-39.6-32.8l-52,48.5a219.2,219.2,0,0,0-39.4-16.3l1.4-69.5a255.6,255.6,0,0,0-102.4,0l1.7,69.5A219.1,219.1,0,0,0,167,90.9L114.8,42.4A252.7,252.7,0,0,0,75.2,75.2a254.3,254.3,0,0,0-32.8,39.6l51.8,50.4A218.7,218.7,0,0,0,78,204.6l-72.8.2a255.6,255.6,0,0,0,0,102.4l72.3-.6A218.6,218.6,0,0,0,93.8,346L42.4,397.2a254.2,254.2,0,0,0,32.8,39.6,252.6,252.6,0,0,0,39.6,32.8L166.1,420a219.1,219.1,0,0,0,39.4,16.3l-0.7,70.5a254.5,254.5,0,0,0,102.4,0l-0.5-70.1a219,219,0,0,0,39.4-16.3l51.1,49.1a252.7,252.7,0,0,0,39.6-32.8,254.3,254.3,0,0,0,32.8-39.6l-47.4-51.7a218.8,218.8,0,0,0,16.3-39.4ZM235.6,144.6a22.4,22.4,0,0,1,4-7.3,19.2,19.2,0,0,1,6.6-5.1,21.1,21.1,0,0,1,9.3-1.9h0.1a18.9,18.9,0,0,1,8.3,1.7,18.4,18.4,0,0,1,6,4.5,19.7,19.7,0,0,1,3.7,6.3,21.7,21.7,0,0,1,1.3,7.4,28.7,28.7,0,0,1-1.4,9,19.2,19.2,0,0,1-11,12,24.3,24.3,0,0,1-9.7,1.8h-0.1a18.6,18.6,0,0,1-7.5-1.5,17.1,17.1,0,0,1-5.8-4.1,17.9,17.9,0,0,1-3.7-6.3,23.1,23.1,0,0,1-1.3-7.8A27.7,27.7,0,0,1,235.6,144.6Zm60.6,220.9H217.9V349.8l23.5-2.4V229l-19.9-6.3V205.6l43.4-5.8h0.7l7.5,5.7V347.5l23.1,2.3v15.7Z"/></svg>