<svg id="Layer_1" data-name="Layer 1" xmlns="http://www.w3.org/2000/svg" viewBox="0 0 511.78 492.22"><title>Tableau_Online_Icon</title><path id="path3121" d="M293.11,502.11c-30,0-54.21-2.81-74.14-12.8s-34.45-27.41-44.06-52.68h0c-11.5-30.14-55.13-149.79-55.13-149.79a30.44,30.44,0,0,1,14.46-39.53h0a30.47,30.47,0,0,1,40.46,14v0.06l27.21,56.79V144.83a30.31,30.31,0,0,1,60.61,0v43.66a29.77,29.77,0,0,1,10-1.76,30.48,30.48,0,0,1,26.34,15.38A30,30,0,0,1,313,198.58a30.43,30.43,0,0,1,27.57,17.91,29.84,29.84,0,0,1,12.73-2.87,28.86,28.86,0,0,1,22.08,10.31c5.5,6.63,8.25,15.66,8.25,26V412c0,24.65-6,47.37-21,64s-38.49,26.07-69.49,26.07h0Zm0-20.27c27,0,43.79-7.55,54.45-19.37s15.82-29.09,15.82-50.46V250c0-6.83-1.77-10.9-3.58-13.08a7.49,7.49,0,0,0-6.48-3,9.89,9.89,0,0,0-10,9.78q0,0.14,0,.28v68.37a10.14,10.14,0,0,1-20.27,0V228.86a10.05,10.05,0,0,0-20.1,0v71.32a10.14,10.14,0,0,1-20.27,0V217.09a10.05,10.05,0,0,0-20.1,0v83.08a10.15,10.15,0,0,1-11.29,10.22q-0.5-.06-1-0.17a9.73,9.73,0,0,1-1-.25,10.38,10.38,0,0,1-3.52-2q-0.38-.33-0.73-0.7a8.06,8.06,0,0,1-.65-0.78q-0.31-.4-0.59-0.82a6.05,6.05,0,0,1-.49-0.89,9.94,9.94,0,0,1-.4-0.93,10.16,10.16,0,0,1-.51-2c-0.05-.33-0.09-0.66-0.11-1s0-.48,0-0.71V144.83a10,10,0,0,0-20.07,0v218a10.14,10.14,0,0,1-19.28,4.37l-46.45-97h0A10,10,0,1,0,138.43,279a7.63,7.63,0,0,1,.41,1c0.18,0.54,43.83,120.15,55,149.52h0c8.39,22,18.91,34.12,34.19,41.78s36.43,10.64,65.06,10.64h0ZM109.81,307.3c-6.18,1.48-24.51,2-24.51,2A85.24,85.24,0,0,1,74.79,139.49c10-73.14,72.67-129.6,148.48-129.6a150,150,0,0,1,127.3,70.67,117.32,117.32,0,0,1,43-8.19A118.63,118.63,0,0,1,512,190.85c0,59.42-50.19,108.7-111,117.47l-1.5-21.6h0c48-7.06,91.51-49.07,89.82-99.54-1.73-51.5-44.07-93-95.59-93.85a96.37,96.37,0,0,0-43.88,9.79,10,10,0,0,1-13.2-4.25,128.39,128.39,0,0,0-241,51,10,10,0,0,1-9.82,9.27,64.13,64.13,0,0,0-63.22,64.25c0,35.68,28.67,64.5,61.25,64.56,4.94,0,11.25-.48,19.12-1Z" transform="translate(-0.22 -9.89)"/></svg>