<svg id="Layer_1" data-name="Layer 1" xmlns="http://www.w3.org/2000/svg" viewBox="0 0 512.08 237.95"><title>Tableau_Server_Icon</title><path id="layer1" d="M0,406.53a29.09,29.09,0,0,1,.51-4.41,32.32,32.32,0,0,1,6-12.71A52.57,52.57,0,0,1,22.3,375.85Q32.74,369.93,70.9,354c4.12-1.72,7.71-3.26,8-3.42a7.35,7.35,0,0,0,3.33-5.66c0.06-.52.05-3,0-6.84l-0.1-6-1.61-1.59a51.28,51.28,0,0,1-4.89-5.54C68.88,316,64,304.1,61.06,289.67A159.44,159.44,0,0,1,58.15,265c-0.16-3.2-.16-11.73,0-13.64A66.14,66.14,0,0,1,65,226.21a57.35,57.35,0,0,1,16.82-20.48,47.5,47.5,0,0,1,30.92-9.65,45.5,45.5,0,0,1,11,1.76c13.54,3.89,25.31,14.07,32.35,28a66.19,66.19,0,0,1,7,26.29c0.12,2,.12,8.5,0,11.65-1.09,28-7.92,50.14-19.63,63.7a65.66,65.66,0,0,1-4.73,4.79l-0.54.47-0.07,6c-0.07,6.66-.06,6.9.53,8.43a7.07,7.07,0,0,0,2.72,3.35c0.3,0.18,2.61,1.19,5.14,2.24,7.73,3.22,12.07,5,12.14,5.1a4.51,4.51,0,0,1-1.09.57c-10.07,2.07-44.91,17.36-45.76,48.11v0.59H0v-0.64H0v0Zm132.51-.2c-1.19-31.1,74-48.09,88.87-62.92a7.75,7.75,0,0,0,3-3.5c0.65-1.51.72-1.94,0.76-4.87,0-1.46,0-4.7-.05-7.19L225,323.31l-0.65-.57a77.49,77.49,0,0,1-5.66-5.79c-9.93-11.92-16.57-28.78-19.8-50.25-1.87-12.43-2.55-28.32-1.61-37.65a75.35,75.35,0,0,1,5.61-21.88,87.8,87.8,0,0,1,3.95-7.86,62.76,62.76,0,0,1,22.27-22.68,71,71,0,0,1,7.12-3.5A53.86,53.86,0,0,1,265,170c14.63,2.43,27.93,11.17,37.27,24.48A73.23,73.23,0,0,1,314.92,229a74.26,74.26,0,0,1,.38,9.71,183.36,183.36,0,0,1-2.84,33c-3.21,17.61-8.9,32-16.84,42.52A55.35,55.35,0,0,1,290,320.7l-1.87,1.85L288,328.84c-0.06,3.46-.09,6.84-0.06,7.53a8.29,8.29,0,0,0,3.61,7c0.68,0.43.53,0.36,8.08,3.51,57.84,21.37,80.89,44.1,80.89,58.81l0.06,1.54H132.52v-0.84h0v-0.06Zm269.64-.65c0-13.48-14.26-40-47.55-47.16l-1.31-.58,1.16-.49,8.32-3.48c3.93-1.64,7.4-3.11,7.7-3.27a7.21,7.21,0,0,0,3.33-4.77c0.25-1.21.26-1.77,0.16-7.47l-0.1-5.68-0.73-.66c-1.2-1.07-3.51-3.43-4.56-4.65-5.24-6.1-9.66-14.23-12.86-23.68-3.79-11.21-5.92-23.54-6.68-38.74-0.18-3.61-.15-12,0-14.26A66.36,66.36,0,0,1,356,226c6.35-12.55,16.41-22.06,28.22-26.66a47.74,47.74,0,0,1,28.8-1.83c10.9,2.7,20.9,9.55,28.27,19.36a58.55,58.55,0,0,1,5.69,9.19,66,66,0,0,1,7,26.14c0.12,1.94.12,8.36,0,11.6-0.93,24.39-6.25,44.49-15.44,58.25a51.7,51.7,0,0,1-6.8,8.32L430,332.1l-0.09,4.56c0,2.51-.08,5.54,0,6.74a8.74,8.74,0,0,0,.3,3,6.93,6.93,0,0,0,1.85,3.19,5.48,5.48,0,0,0,1.48,1.15c0.37,0.19,3.25,1.41,6.39,2.72,22.72,9.47,36.75,15.66,45.74,20.18a67.06,67.06,0,0,1,7.31,4.09c11.62,7.69,18.67,18,19.09,28l0.06,1.4H402.22l-0.06-1.49h0v0Z" transform="translate(0 -169.28)"/></svg>