<svg xmlns="http://www.w3.org/2000/svg" width="512" height="512" viewBox="0 0 512 512"><title>Master_Icons</title><path d="M253,40.8C183.9,40.8,120.9,61.1,74.3,95S2,168.9,2,223.8c0,49.5,36.2,100,75.2,133.1L48.2,432l106-27.5c27.2,7.4,73.1,11.2,103.7,11.2,69.1,0,132.1-20.2,178.7-54.2S509,287.7,509,232.8,478.3,129,431.7,95,322.1,40.8,253,40.8h0ZM253,65c63.7,0,121.4,18.8,163.1,49.2s67.4,72.3,67.4,118.5S462.7,312.1,421,342.4,321.6,390,257.9,391.6C207.8,392.9,153.8,378,153.8,378L82.4,398.7l23.8-48.5c-37.9-24.9-78.7-72.8-78.7-126.3,0-46.2,20.8-79.3,62.5-109.7S189.3,65,253,65Z"/></svg>