<svg id="Layer_1" data-name="Layer 1" xmlns="http://www.w3.org/2000/svg" viewBox="0 0 512 512"><title>Master_Icons</title><g id="layer1"><path id="path3853" d="M253,40.82c-69.1,0-132.06,20.25-178.67,54.22S2,168.9,2,223.81c0,49.46,36.18,100,75.17,133.1L48.24,432l106-27.5c27.21,7.4,73.11,11.24,103.74,11.24,69.11,0,132.06-20.24,178.67-54.2S509,287.71,509,232.8,478.3,129,431.65,95,322.09,40.82,253,40.82h0ZM253,65c63.73,0,121.37,18.83,163.09,49.23s67.42,72.3,67.42,118.51S462.7,312.05,421,342.42,321.64,390,257.94,391.62C207.8,392.88,153.81,378,153.81,378L82.38,398.68l23.8-48.46c-37.94-24.95-78.71-72.76-78.71-126.3,0-46.22,20.81-79.32,62.48-109.69S189.31,65,253,65Z"/></g></svg>