<svg id="Layer_1" data-name="Layer 1" xmlns="http://www.w3.org/2000/svg" viewBox="0 0 511.99 304.69"><title>Tableau_Dekstop_Icon</title><path d="M494.39,413.84c7.19,0,12.53-3.09,15.45-8.93a21,21,0,0,0,2.15-8.68V383.71H295.11l-7,10.14H222.89l-7-10.14H0v12.52a21,21,0,0,0,2.15,8.68c2.92,5.84,8.26,8.93,15.45,8.93H494.39Zm-54-304.69h-367a7.94,7.94,0,0,0-7.94,7.94h0v246a6.1,6.1,0,0,0,6.1,6.1H440.37a6.1,6.1,0,0,0,6.1-6.1h0V115.26a6.1,6.1,0,0,0-6.09-6.11h0ZM417.91,343.68H93.44v-210H417.91v210Z" transform="translate(0 -109.15)"/></svg>