<svg xmlns="http://www.w3.org/2000/svg" width="512" height="512" viewBox="0 0 512 512"><title>Master_Icons</title><path d="M512,190.9c0,59.4-50.2,108.7-111,117.5l-1.5-21.6c48-7.1,91.5-49.1,89.8-99.5s-44.1-93-95.6-93.9a96.4,96.4,0,0,0-43.9,9.8,10,10,0,0,1-13.2-4.2,128.4,128.4,0,0,0-241,51,10,10,0,0,1-9.8,9.3,64.1,64.1,0,0,0-63.2,64.3c0,35.7,28.7,64.5,61.3,64.6,4.9,0,11.3-.5,19.1-1l6.8,20.4c-6.2,1.5-24.5,2-24.5,2A85.2,85.2,0,0,1,74.8,139.5C84.8,66.4,147.5,9.9,223.3,9.9A150,150,0,0,1,350.6,80.6a117.3,117.3,0,0,1,43-8.2A118.6,118.6,0,0,1,512,190.9ZM375.4,223.9c5.5,6.6,8.3,15.7,8.3,26V412c0,24.7-6,47.4-21,64s-38.5,26.1-69.5,26.1-54.2-2.8-74.1-12.8-34.4-27.4-44.1-52.7h0c-11.5-30.1-55.1-149.8-55.1-149.8a30.4,30.4,0,0,1,14.5-39.5h0a30.5,30.5,0,0,1,40.5,14h0l27.2,56.8V144.8a30.3,30.3,0,0,1,60.6,0v43.7a29.8,29.8,0,0,1,10-1.8,30.5,30.5,0,0,1,26.3,15.4,30,30,0,0,1,14.1-3.5,30.4,30.4,0,0,1,27.6,17.9,29.8,29.8,0,0,1,12.7-2.9A28.9,28.9,0,0,1,375.4,223.9Zm-12,26c0-6.8-1.8-10.9-3.6-13.1a7.5,7.5,0,0,0-6.5-3,9.9,9.9,0,0,0-10,10.1v68.4a10.1,10.1,0,0,1-20.3,0V228.9a10,10,0,0,0-20.1,0v71.3a10.1,10.1,0,0,1-20.3,0V217.1a10,10,0,1,0-20.1,0v83.1a10.1,10.1,0,0,1-7.3,9.9l-1,.2a10.2,10.2,0,0,1-3,.1l-1-.2-1-.3-1.9-.8-1.7-1.2-0.7-.7-0.7-.8-0.6-.8-0.5-.9-0.4-.9a10.2,10.2,0,0,1-.5-2c-0.1-.3-0.1-0.7-0.1-1s0-.5,0-0.7V144.8a10,10,0,0,0-20.1,0v218a10.1,10.1,0,0,1-19.3,4.4l-46.5-97h0a10,10,0,0,0-18.1,8.8l0.4,1s43.8,120.1,55,149.5h0c8.4,22.1,18.9,34.1,34.2,41.8s36.4,10.6,65.1,10.6c27.1,0,43.8-7.5,54.4-19.4s15.8-29.1,15.8-50.5V250Z"/></svg>