<?xml version="1.0" encoding="utf-8"?>
<!-- Generator: Adobe Illustrator 17.0.2, SVG Export Plug-In . SVG Version: 6.00 Build 0)  -->
<!DOCTYPE svg PUBLIC "-//W3C//DTD SVG 1.1//EN" "http://www.w3.org/Graphics/SVG/1.1/DTD/svg11.dtd">
<svg version="1.1"
	 id="svg3968" xmlns:rdf="http://www.w3.org/1999/02/22-rdf-syntax-ns#" xmlns:dc="http://purl.org/dc/elements/1.1/" xmlns:cc="http://creativecommons.org/ns#" xmlns:svg="http://www.w3.org/2000/svg" xmlns:inkscape="http://www.inkscape.org/namespaces/inkscape" xmlns:sodipodi="http://sodipodi.sourceforge.net/DTD/sodipodi-0.dtd" inkscape:version="0.48.2 r9819" sodipodi:docname="New document 55"
	 xmlns="http://www.w3.org/2000/svg" xmlns:xlink="http://www.w3.org/1999/xlink" x="0px" y="0px" width="512px" height="512px"
	 viewBox="0 0 512 512" style="enable-background:new 0 0 512 512;" xml:space="preserve">
<sodipodi:namedview  pagecolor="#ffffff" fit-margin-left="0" bordercolor="#666666" inkscape:zoom="0.35" borderopacity="1.0" inkscape:cy="480.34188" showgrid="false" fit-margin-top="0" id="base" inkscape:cx="480.20536" inkscape:pageshadow="2" inkscape:window-height="424" fit-margin-bottom="0" inkscape:document-units="px" inkscape:current-layer="layer1" inkscape:window-y="20" fit-margin-right="0" inkscape:window-maximized="0" inkscape:pageopacity="0.0" inkscape:window-width="483" inkscape:window-x="66">
	</sodipodi:namedview>
<g>
	<polygon points="273.492,347.494 273.492,272.107 342.848,272.107 342.848,237.752 273.492,237.752 273.492,162.36 238.665,162.36 
		238.665,237.752 169.31,237.752 169.31,272.107 238.665,272.107 238.665,347.494 	"/>
	<polygon points="203.57,360.835 141.438,360.835 141.438,293.328 110.343,293.328 110.343,360.835 48.215,360.835 48.215,388.965 
		110.343,388.965 110.343,456.464 141.438,456.464 141.438,388.965 203.57,388.965 	"/>
	<polygon points="308.9,147.519 371.034,147.519 371.034,214.711 402.129,214.711 402.129,147.519 464.262,147.519 464.262,119.389 
		402.129,119.389 402.129,51.574 371.034,51.574 371.034,119.389 308.9,119.389 	"/>
	<polygon points="111.091,214.711 140.696,214.711 140.696,146.909 203.57,146.909 203.57,119.377 140.696,119.377 140.696,51.574 
		111.091,51.574 111.091,119.377 48.215,119.377 48.215,146.909 111.091,146.909 	"/>
	<polygon points="469.838,242.06 469.838,194.979 442.187,194.979 442.187,242.06 400.026,242.06 400.026,267.799 442.187,267.799 
		442.187,314.875 469.838,314.875 469.838,267.799 512,267.799 512,242.06 	"/>
	<polygon points="269.904,388.653 242.253,388.653 242.253,435.734 200.092,435.734 200.092,461.473 242.253,461.473 
		242.253,508.549 269.904,508.549 269.904,461.473 312.066,461.473 312.066,435.734 269.904,435.734 	"/>
	<polygon points="242.253,123.347 269.904,123.347 269.904,76.27 312.066,76.27 312.066,50.531 269.904,50.531 269.904,3.451 
		242.253,3.451 242.253,50.531 200.092,50.531 200.092,76.27 242.253,76.27 	"/>
	<polygon points="69.812,314.875 69.812,267.799 111.974,267.799 111.974,242.06 69.812,242.06 69.812,194.979 42.161,194.979 
		42.161,242.06 0,242.06 0,267.799 42.161,267.799 42.161,314.875 	"/>
	<polygon points="402.129,293.328 371.034,293.328 371.034,360.835 308.9,360.835 308.9,388.965 371.034,388.965 371.034,456.464 
		402.129,456.464 402.129,388.965 464.262,388.965 464.262,360.835 402.129,360.835 	"/>
</g>
</svg>
