<?xml version="1.0" encoding="utf-8"?>
<!-- Generator: Adobe Illustrator 19.2.0, SVG Export Plug-In . SVG Version: 6.00 Build 0)  -->
<svg version="1.1" id="Layer_1" xmlns="http://www.w3.org/2000/svg" xmlns:xlink="http://www.w3.org/1999/xlink" x="0px" y="0px"
	 viewBox="0 0 512 512" style="enable-background:new 0 0 512 512;" xml:space="preserve">
<title>Master_Icons</title>
<path d="M430.9,33H79.7C35.1,33-1.4,69.5-1.4,114.2v178.1c0,44.6,36.5,81.1,81.1,81.1h208.8l106.3,106.5V373.3h36.1
	c44.6,0,81.1-36.5,81.1-81.1V114.2C512,69.5,475.5,33,430.9,33z M485.2,281.8c0,35.7-29.2,64.8-64.8,64.8h-48.8l0.3,77.5l-74.3-77.5
	H92.6c-35.7,0-64.8-29.2-64.8-64.8V123.5c0-35.7,29.2-64.8,64.8-64.8h327.8c35.7,0,64.8,29.2,64.8,64.8V281.8z"/>
</svg>
