<?xml version="1.0" encoding="utf-8"?>
<!-- Generator: Adobe Illustrator 17.0.2, SVG Export Plug-In . SVG Version: 6.00 Build 0)  -->
<!DOCTYPE svg PUBLIC "-//W3C//DTD SVG 1.1//EN" "http://www.w3.org/Graphics/SVG/1.1/DTD/svg11.dtd">
<svg version="1.1" id="Layer_1" xmlns="http://www.w3.org/2000/svg" xmlns:xlink="http://www.w3.org/1999/xlink" x="0px" y="0px"
	 width="512px" height="512px" viewBox="0 0 512 512" enable-background="new 0 0 512 512" xml:space="preserve">
<title>Master_Icons</title>
<path d="M512,212.719V98.481L342.31,3.737L0,203.224v112.521l63.028,36.867v36.766c0,0-3.03,25.555,18.282,25.555
	c21.312,0,18.282-25.555,18.282-25.555v-15.454l70.098,41.008l42.221-24.949v92.724c0,0-3.03,25.555,18.282,25.555
	c21.312,0,18.181-25.555,18.181-25.555V368.47l23.635-13.939v95.956c0,0-3.03,25.555,18.282,25.555
	c21.312,0,18.282-25.555,18.282-25.555V332.916l21.11-12.424v98.885c0,0-3.03,25.555,18.282,25.555
	c21.312,0,18.282-25.555,18.282-25.555v-120.5l25.555-15.151v98.683c0,0-3.03,25.555,18.282,25.555
	c21.312,0,18.282-25.555,18.282-25.555V262.212l20.807-12.323v98.38c0,0-3.03,25.555,18.282,25.555
	c21.312,0,18.282-25.555,18.282-25.555V228.274L512,212.719z M27.575,304.129l-0.808-75.351l122.318,77.068v70.704l0.101,0.101
	L27.575,304.129z M166.963,283.322L47.069,206.457L340.997,34.342l127.773,71.714L166.963,283.322z M485.233,199.184
	c-1.515-17.878-7.474-24.039-28.08-24.039c-9.293,0-15.353,7.676-16.161,16.161c-0.694,7.14,2.412,14.12,8.182,18.383v10.909
	l-21.413,12.828c-1.515-17.878-7.474-24.14-28.08-24.14c-9.293,0-15.353,7.676-16.161,16.161c-0.694,7.14,2.412,14.12,8.182,18.383
	v11.01l-26.06,15.555c-1.515-17.979-7.373-24.241-28.08-24.241c-9.293,0-15.353,7.676-16.161,16.161
	c-0.694,7.14,2.412,14.12,8.181,18.383v11.111l-21.413,12.727c-1.111-20.403-6.464-27.373-28.282-27.373
	c-9.293,0-15.353,7.676-16.161,16.161c-0.694,7.14,2.412,14.12,8.181,18.383v14.343l-23.837,14.141
	c-0.808-23.13-5.454-30.908-28.484-30.908c-9.293,0-15.353,7.677-16.161,16.161c-0.694,7.14,2.412,14.12,8.182,18.383v17.979
	l-28.787,17.171v-68.179l303.018-184.942v72.926L485.233,199.184z"/>
</svg>
