<svg id="Layer_1" data-name="Layer 1" xmlns="http://www.w3.org/2000/svg" viewBox="0 0 512 512"><title>Master_Icons</title><path d="M510,216.23V103.1L342,9.26,3.15,206.8V318.19l62.4,36.49V391.1s-3,25.28,18.09,25.28,18.09-25.28,18.09-25.28V375.82l69.37,40.56,41.76-24.66v91.83s-3,25.28,18.09,25.28S249,483.54,249,483.54V370.36l23.42-13.83v95s-3,25.28,18.09,25.28,18.09-25.28,18.09-25.28V335.17l20.87-12.32v97.91s-3,25.28,18.09,25.28,18.09-25.28,18.09-25.28V301.48L391,286.55v97.73s-3,25.28,18.09,25.28,18.09-25.28,18.09-25.28V265.19L447.82,253v97.43s-3,25.28,18.09,25.28S484,350.39,484,350.39V231.61ZM150.76,378.48L30.38,306.69,29.61,232.1l121.15,76.34v70ZM168.4,286.1L49.67,210,340.72,39.62l126.54,71Zm258.2-49.41c-1.54-17.71-7.38-23.86-27.78-23.86-9.19,0-15.15,7.58-16,16A20.18,20.18,0,0,0,391,247.06v10.88l-25.8,15.38c-1.52-17.83-7.34-24-27.8-24-9.19,0-15.15,7.58-16,16a20.18,20.18,0,0,0,8.13,18.24v11l-21.17,12.62c-1.14-20.2-6.42-27.1-28-27.1-9.19,0-15.15,7.58-16,16a20.18,20.18,0,0,0,8.13,18.24V328.6l-23.56,14c-0.76-22.89-5.39-30.55-28.17-30.55-9.19,0-15.15,7.58-16,16a20.18,20.18,0,0,0,8.13,18.24v17.8l-28.55,17V313.33L484.13,130.23v72.15l-0.67.4c-1.55-17.69-7.39-23.84-27.78-23.84-9.19,0-15.15,7.58-16,16a20.18,20.18,0,0,0,8.13,18.24V224Z"/></svg>