<svg xmlns="http://www.w3.org/2000/svg" width="7in" height="6.9in" viewBox="0 0 506.9 499.5">
  <defs>
    <style>
      .a {
        fill: none;
      }
    </style>
  </defs>
  <title>technology</title>
  <polygon class="a" points="27.3 297.4 147.7 369.2 147.7 299.1 26.5 222.8 27.3 297.4"/>
  <polygon class="a" points="337.6 30.3 46.6 200.7 165.3 276.8 464.2 101.3 337.6 30.3"/>
  <path class="a" d="M484.1,130.2L184.3,313.3v67.8l28.5-17V346.3a20.2,20.2,0,0,1-8.1-18.2c0.8-8.4,6.8-16,16-16,22.8,0,27.4,7.7,28.2,30.6l23.6-14V314.4a20.2,20.2,0,0,1-8.1-18.2c0.8-8.4,6.8-16,16-16,21.6,0,26.9,6.9,28,27.1l21.2-12.6v-11a20.2,20.2,0,0,1-8.1-18.2c0.8-8.4,6.8-16,16-16,20.5,0,26.3,6.2,27.8,24L391,257.9V247.1a20.2,20.2,0,0,1-8.1-18.2c0.8-8.4,6.8-16,16-16,20.4,0,26.2,6.2,27.8,23.9L447.8,224V213.2a20.2,20.2,0,0,1-8.1-18.2c0.8-8.4,6.8-16,16-16,20.4,0,26.2,6.1,27.8,23.8l0.7-.4V130.2h-0.1Z" transform="translate(-3.1 -9.3)"/>
  <path d="M510,216.2V103.1L342,9.3,3.1,206.8V318.2l62.4,36.5v36.4s-3,25.3,18.1,25.3,18.1-25.3,18.1-25.3V375.8l69.4,40.6,41.8-24.7v91.8s-3,25.3,18.1,25.3,18-25.3,18-25.3V370.4l23.4-13.8v95s-3,25.3,18.1,25.3,18.1-25.3,18.1-25.3V335.2l20.9-12.3v97.9s-3,25.3,18.1,25.3,18.1-25.3,18.1-25.3V301.5l25.3-15v97.7s-3,25.3,18.1,25.3,18.1-25.3,18.1-25.3v-119L447.8,253v97.4s-3,25.3,18.1,25.3S484,350.4,484,350.4V231.6ZM150.8,378.5L30.4,306.7l-0.8-74.6,121.1,76.3v70h0.1Zm17.6-92.4L49.7,210l291-170.4,126.5,71Zm315.1-83.3c-1.5-17.7-7.4-23.8-27.8-23.8-9.2,0-15.2,7.6-16,16a20.2,20.2,0,0,0,8.1,18.2V224l-21.2,12.7c-1.5-17.7-7.4-23.9-27.8-23.9-9.2,0-15.2,7.6-16,16a20.2,20.2,0,0,0,8.1,18.2v10.9l-25.8,15.4c-1.5-17.8-7.3-24-27.8-24-9.2,0-15.2,7.6-16,16a20.2,20.2,0,0,0,8.1,18.2v11l-21.2,12.6c-1.1-20.2-6.4-27.1-28-27.1-9.2,0-15.2,7.6-16,16a20.2,20.2,0,0,0,8.1,18.2v14.2l-23.6,14c-0.8-22.9-5.4-30.6-28.2-30.6-9.2,0-15.2,7.6-16,16a20.2,20.2,0,0,0,8.1,18.2v17.8l-28.5,17V313.3l300-183.1v72.2Z" transform="translate(-3.1 -9.3)"/>
</svg>
