<?xml version="1.0" encoding="utf-8"?>
<!-- Generator: Adobe Illustrator 19.2.0, SVG Export Plug-In . SVG Version: 6.00 Build 0)  -->
<svg version="1.1" id="Layer_1" xmlns="http://www.w3.org/2000/svg" xmlns:xlink="http://www.w3.org/1999/xlink" x="0px" y="0px"
	 viewBox="0 0 512 512" style="enable-background:new 0 0 512 512;" xml:space="preserve">
<title>Master_Icons</title>
<path d="M431.6,42.6H80.4c-44.6,0-81.1,36.5-81.1,81.1v178.1c0,44.6,36.5,81.1,81.1,81.1h100.3v86.5l92.3-86.5h158.7
	c44.6,0,81.1-36.5,81.1-81.1V123.7C512.7,79.1,476.2,42.6,431.6,42.6z M247.5,322.4c-14.9,0-27-12.1-27-27c0-14.9,12.1-27,27-27
	c14.9,0,27,12.1,27,27C274.5,310.4,262.4,322.4,247.5,322.4z M270.9,211c0,27.3-6.4,37.1-25.8,37c-16.9-0.1-22.8-17.8-22.8-36.1
	c0,0,0-6.2,0-17.4c0-11.3,16.6-19,16.6-19c11.7-6.7,50.9-12.8,37.9-36.8c-15.5-28.7-69.9,10.7-73.5,13.1c-3.6,2.4-12.4,5.3-21.9-4.7
	c-9.5-10.1-5.3-23.7-5.3-23.7c3.2-11.3,33.2-37.5,78.1-37.5s79.4,22.1,79.4,63C333.6,201.7,272.1,202.4,270.9,211z"/>
</svg>
