<svg xmlns="http://www.w3.org/2000/svg" width="7.1in" height="7.1in" viewBox="0 0 512 512">
  <title>always-up-to-date</title>
  <path d="M182.4,298.9L201,310.5,125.4,431.2,78.5,389.9l14.4-15.7,27.4,25.4Zm248.8,84.2H373v53.3h58.2V383.1h0Zm0-66H373v53.3h58.2V317.1h0Zm0-67.2H373v53.3h58.2V249.9h0ZM147.9,0H108.1V96.7h39.8V0Zm256,0H364.1V96.7h39.8V0Zm27.3,184H373v53.3h58.2V184h0Zm-73.4,65.9H299.6v53.3h58.2V249.9h0ZM137.6,184H79.4v53.3h58.2V184ZM455.1,56.9H429.5v56.9h-91V56.9h-165v56.9h-91V56.9H56.9A57.1,57.1,0,0,0,0,113.8V455.1A57.1,57.1,0,0,0,56.9,512H455.1A57.1,57.1,0,0,0,512,455.1V113.8A57.1,57.1,0,0,0,455.1,56.9ZM245.3,376a109,109,0,0,1-33.9,79.1H60.6l-3.7-3.7V300.6A109.3,109.3,0,0,1,245.3,376Zm209.8,79.1H246.6a135.9,135.9,0,0,0,11.3-18.7h26.5V383.1l-12.7,1.3q0.3-4.2.3-8.4c0-2.8,0-3.7-.1-5.6h12.5V317.1H258.6a135.8,135.8,0,0,0-7.8-14h33.5V249.9H226.2v24.3A136.6,136.6,0,0,0,211,262.5V249.9H187A136.2,136.2,0,0,0,56.9,265.4V166.6H455.1V455.1ZM211,184H152.8v53.3H211V184ZM357.8,317.1H299.6v53.3h58.2V317.1h0Zm0-133.1H299.6v53.3h58.2V184h0Zm-73.4,0H226.2v53.3h58.2V184Zm73.4,199.1H299.6v53.3h58.2V383.1h0Z"/>
</svg>
