<svg id="Layer_1" data-name="Layer 1" xmlns="http://www.w3.org/2000/svg" viewBox="0 0 428.26 506.67"><title>User_Groups_Icon</title><path d="M166.12,2.27a44.47,44.47,0,1,1-44.47,44.47A44.47,44.47,0,0,1,166.12,2.27ZM413,262.91a44.47,44.47,0,1,1-44.47,44.47A44.47,44.47,0,0,1,413,262.91ZM138.09,420a44.47,44.47,0,1,1-44.47,44.47A44.47,44.47,0,0,1,138.09,420Zm129.43-44.47a28.64,28.64,0,1,1-28.64,28.64A28.64,28.64,0,0,1,267.52,375.53Zm66-246a28.64,28.64,0,1,1-28.64,28.64A28.64,28.64,0,0,1,333.52,129.53ZM58.1,285.52a28.64,28.64,0,1,1-28.9,28.38A28.64,28.64,0,0,1,58.1,285.52Zm145.14-154A108.74,108.74,0,1,0,311,241.23,108.74,108.74,0,0,0,203.24,131.51Zm-1.81,200.24a91.51,91.51,0,1,1,92.33-90.68A91.51,91.51,0,0,1,201.43,331.75Z" transform="translate(-29.2 -2.27)"/></svg>