<svg xmlns="http://www.w3.org/2000/svg" width="512" height="512" viewBox="0 0 512 512"><title>Master_Icons</title><path d="M121.7,46.7a44.5,44.5,0,1,1,44.5,44.5A44.5,44.5,0,0,1,121.7,46.7ZM413,262.9a44.5,44.5,0,1,0,44.5,44.5A44.5,44.5,0,0,0,413,262.9ZM138.1,420a44.5,44.5,0,1,0,44.5,44.5A44.5,44.5,0,0,0,138.1,420Zm129.4-44.5a28.6,28.6,0,1,0,28.6,28.6A28.6,28.6,0,0,0,267.5,375.5Zm66-246a28.6,28.6,0,1,0,28.6,28.6A28.6,28.6,0,0,0,333.5,129.5Zm-275,157a28.6,28.6,0,1,0,28.6,28.6A28.6,28.6,0,0,0,58.5,286.5Zm255.1-46.9A111.2,111.2,0,1,1,202.5,128.5,111.2,111.2,0,0,1,313.6,239.6Zm-23.5,0a87.7,87.7,0,1,0-87.7,87.7A87.7,87.7,0,0,0,290.1,239.6Z"/></svg>