<svg xmlns="http://www.w3.org/2000/svg" width="512" height="512" viewBox="0 0 512 512">
  <title>Whitepapers-alt</title>
  <path d="M463.6,3.6V508.4a2.4,2.4,0,0,1-2.3,2.5H50.7a2.4,2.4,0,0,1-2.3-2.5h0V3.6a2.4,2.4,0,0,1,2.3-2.5H461.3a2.4,2.4,0,0,1,2.3,2.5h0Zm-29,22.5H77.4V485.9H434.5V26.1h0.1Z"/>
  <g>
    <polygon points="395.7 281.1 395.3 239.1 374.3 266.4 297.9 116.5 211.9 305.6 155.1 240.3 116.3 294.9 116.8 339.4 157.2 282.4 218.8 353.1 299.2 176.3 369.9 314.9 395.7 281.1"/>
    <polygon points="126.9 97.8 126.9 88.3 384.6 88.3 384.6 97.8 384.6 107.3 126.9 107.3 126.9 97.8"/>
    <polygon points="126.9 138.4 126.9 128.9 282.2 128.9 273.5 147.9 126.9 147.9 126.9 138.4"/>
    <polygon points="314.7 128.8 384.7 128.8 384.7 147.8 324.4 147.8 314.7 128.8"/>
    <polygon points="126.9 175.9 126.9 166.4 265.1 166.4 256.5 185.4 126.9 185.4 126.9 175.9"/>
    <polygon points="333.9 166.4 384.7 166.4 384.7 185.4 343.6 185.4 333.9 166.4"/>
    <polygon points="126.9 216.6 126.9 207.1 180.3 207.1 246.6 207.1 237.9 226.1 180.3 226.1 126.9 226.1 126.9 216.6"/>
    <polygon points="354.5 207.1 384.6 207.1 384.6 226.1 364.3 226.1 354.5 207.1"/>
    <polygon points="295.6 207.1 304.9 207.1 314.6 226.1 287 226.1 295.6 207.1"/>
    <polygon points="277.1 247.8 325.7 247.8 335.9 267.8 268.1 267.8 277.1 247.8"/>
    <polygon points="219 267.8 189.6 267.8 172.2 247.8 228.1 247.8 219 267.8"/>
    <polygon points="355.6 306.3 345.9 287.3 259.2 287.3 250.6 306.3 355.6 306.3"/>
    <polygon points="241.3 326.6 384.6 326.6 384.6 345.6 232.7 345.6 241.3 326.6"/>
    <polygon points="140.1 326.6 185.8 326.6 202.4 345.6 126.7 345.6 140.1 326.6"/>
    <polygon points="126.9 373.6 126.9 364.1 384.6 364.1 384.6 373.6 384.6 383.1 126.9 383.1 126.9 373.6"/>
    <polygon points="126.9 414.3 126.9 404.8 255.8 404.8 384.6 404.8 384.6 414.3 384.6 423.8 255.8 423.8 126.9 423.8 126.9 414.3"/>
  </g>
</svg>
