<svg id="Layer_1" data-name="Layer 1" xmlns="http://www.w3.org/2000/svg" viewBox="0 0 490.52 512"><title>Wikis_Icon</title><path d="M232.34,339.39v-23H71.5v23H232.34Zm0,69.48v-23H71.5v23H232.34Zm0-142.79v-23H71.5v23H232.34ZM494.74,0H199.95a0.51,0.51,0,0,0-.51.51V65.66H100.89a0.51,0.51,0,0,0-.51.51h0V148H4.73a0.51,0.51,0,0,0-.51.51V512h295.3V429.7h96.16V364.13h99.06V0ZM274.38,486.81H29.46V173.92H274.38V486.81Zm96.2-82.09H299.52V148H125.62V91l245-.51V404.72h0ZM469.5,339H395.68V65.66H224.8V25.28H469.5V339Z" transform="translate(-4.22)"/></svg>