<svg xmlns="http://www.w3.org/2000/svg" width="512" height="512" viewBox="0 0 512 512"><title>Master_Icons</title><path d="M71.5,254.6V243.1H232.3v23H71.5V254.6Zm0,73.3V316.4H232.3v23H71.5V327.9Zm0,69.5V385.9H232.3v23H71.5V397.4Zm0-142.8V243.1H232.3v23H71.5V254.6Zm0,73.3V316.4H232.3v23H71.5V327.9Zm0,69.5V385.9H232.3v23H71.5V397.4Zm160.8-58v-23H71.5v23H232.3Zm0,69.5v-23H71.5v23H232.3Zm0-142.8v-23H71.5v23H232.3ZM199.9,0a0.5,0.5,0,0,0-.5.5V65.7H100.9a0.5,0.5,0,0,0-.5.5V148H4.7a0.5,0.5,0,0,0-.5.5V512H299.5V429.7h96.2V364.1h99.1V0H199.9Zm74.4,486.8H29.5V173.9H274.4V486.8Zm96.2-82.1H299.5V148H125.6v-57l245-.5V404.7Zm98.9-65.7H395.7V65.7H224.8V25.3H469.5V339.1Z"/></svg>