<svg id="Layer_1" data-name="Layer 1" xmlns="http://www.w3.org/2000/svg" viewBox="0 0 512 512"><title>Master_Icons</title><path d="M500.3,136.37c-6.2-26.92-28.21-46.77-54.72-49.73-62.74-7-126.26-7-189.51-7s-126.76,0-189.52,7c-26.49,3-48.51,22.81-54.69,49.73C3,174.71,2.95,216.52,2.95,256s0,81.28,8.82,119.61c6.18,26.92,28.18,46.76,54.69,49.73,62.76,7,126.28,7,189.52,7s126.75,0,189.51-7c26.5-3,48.52-22.81,54.7-49.73,8.81-38.34,8.87-80.16,8.87-119.61S509.1,174.71,500.3,136.37ZM205.76,367.78V149.54L335.69,258.66Z"/></svg>