<?xml version="1.0" encoding="iso-8859-1"?>
<!-- Generator: Adobe Illustrator 16.0.0, SVG Export Plug-In . SVG Version: 6.00 Build 0)  -->
<!DOCTYPE svg PUBLIC "-//W3C//DTD SVG 1.1//EN" "http://www.w3.org/Graphics/SVG/1.1/DTD/svg11.dtd">
<svg version="1.1" id="Capa_1" xmlns="http://www.w3.org/2000/svg" xmlns:xlink="http://www.w3.org/1999/xlink" x="0px" y="0px"
	 width="137.446px" height="137.446px" viewBox="0 0 137.446 137.446" style="enable-background:new 0 0 137.446 137.446;"
	 xml:space="preserve">
<g>
	<path d="M94.426,64.093c3.227-4.925,5.01-10.736,5.01-16.761c0-6.194-1.862-11.965-5.031-16.793
		c4.197-0.978,6.719-2.204,6.719-3.538c0-1.717-4.177-3.262-10.801-4.33V0h-43.2v22.67c-6.621,1.063-10.8,2.608-10.8,4.33
		c0,1.334,2.521,2.56,6.718,3.538c-3.169,4.833-5.033,10.6-5.033,16.793c0,6.02,1.787,11.831,5.012,16.761
		c-9.64,7.689-15.472,19.438-15.472,32.179c0,22.702,18.467,41.175,41.175,41.175c22.707,0,41.175-18.473,41.175-41.175
		C109.898,83.531,104.066,71.782,94.426,64.093z M68.723,129.347c-18.267,0-33.075-14.808-33.075-33.075
		c0-13.669,8.295-25.402,20.126-30.438c-5.827-4.095-9.661-10.839-9.661-18.501c0-5.941,2.344-11.304,6.085-15.335
		c4.838,0.517,10.476,0.82,16.529,0.82c6.055,0,11.687-0.309,16.532-0.82c3.739,4.032,6.086,9.395,6.086,15.335
		c0,7.663-3.839,14.407-9.661,18.501c11.823,5.036,20.129,16.76,20.129,30.438C101.798,114.539,86.991,129.347,68.723,129.347z
		 M59.608,46.662c-1.49,0-2.7-1.211-2.7-2.7c0-1.49,1.21-2.7,2.7-2.7s2.7,1.21,2.7,2.7C62.308,45.451,61.098,46.662,59.608,46.662z
		 M80.536,43.962c0,1.489-1.202,2.7-2.7,2.7c-1.481,0-2.7-1.211-2.7-2.7c0-1.49,1.219-2.7,2.7-2.7
		C79.333,41.262,80.536,42.472,80.536,43.962z M62.901,54c0-3.212,2.608-5.822,5.822-5.822c3.217,0,5.822,2.61,5.822,5.822
		c0,3.219-2.605,5.821-5.822,5.821C65.509,59.821,62.901,57.219,62.901,54z M71.417,82.181c0,1.492-1.21,2.7-2.699,2.7
		c-1.49,0-2.7-1.208-2.7-2.7c0-1.481,1.21-2.699,2.7-2.699C70.208,79.481,71.417,80.694,71.417,82.181z M71.417,93.477
		c0,1.492-1.21,2.7-2.699,2.7c-1.49,0-2.7-1.208-2.7-2.7c0-1.487,1.21-2.7,2.7-2.7C70.208,90.776,71.417,91.989,71.417,93.477z
		 M71.417,104.783c0,1.487-1.21,2.7-2.699,2.7c-1.49,0-2.7-1.213-2.7-2.7c0-1.493,1.21-2.7,2.7-2.7
		C70.208,102.083,71.417,103.29,71.417,104.783z M71.417,116.084c0,1.492-1.21,2.7-2.699,2.7c-1.49,0-2.7-1.208-2.7-2.7
		s1.21-2.7,2.7-2.7C70.208,113.384,71.417,114.592,71.417,116.084z M68.718,69.557l10.488-3.322v8.1l-10.488-3.317l-10.486,3.317
		v-8.1L68.718,69.557z"/>
</g>
<g>
</g>
<g>
</g>
<g>
</g>
<g>
</g>
<g>
</g>
<g>
</g>
<g>
</g>
<g>
</g>
<g>
</g>
<g>
</g>
<g>
</g>
<g>
</g>
<g>
</g>
<g>
</g>
<g>
</g>
</svg>
